<svg id="Capa_1" enable-background="new 0 0 512.001 512.001" height="512" viewBox="0 0 512.001 512.001" width="512" xmlns="http://www.w3.org/2000/svg"><g><g><g><path d="m504.501 305.701c0 18.299-14.834 33.133-33.133 33.133h-248.5c-18.299 0-33.133-14.834-33.133-33.133v-248.5c0-18.299 14.834-33.133 33.133-33.133h248.5c18.299 0 33.133 14.834 33.133 33.133z" fill="#5c545f"/><path d="m504.5 57.201c0-18.299-14.835-33.133-33.133-33.133h-23c18.299 0 33.133 14.834 33.133 33.133v248.5c0 18.299-14.834 33.133-33.133 33.133h23c18.299 0 33.133-14.834 33.133-33.133z" fill="#4b3f4e"/><path d="m471.367 289.134c0 9.15-7.417 16.567-16.567 16.567h-215.366c-9.149 0-16.567-7.417-16.567-16.567v-215.367c0-9.149 7.417-16.567 16.567-16.567h215.366c9.15 0 16.567 7.417 16.567 16.567z" fill="#9dc6fb"/><path d="m471.367 73.767c0-9.149-7.417-16.567-16.567-16.567h-23c9.149 0 16.567 7.417 16.567 16.567v215.367c0 9.15-7.417 16.567-16.567 16.567h23c9.15 0 16.567-7.417 16.567-16.567z" fill="#80b4fb"/><g><ellipse cx="272.567" cy="106.901" fill="#ecf4ff" rx="16.567" ry="16.567" transform="matrix(.265 -.964 .964 .265 97.311 341.433)"/></g></g><g><path d="m140.034 351.393v-293.374c0-27.254-21.6-50.056-48.85-50.511-27.838-.465-50.55 21.962-50.55 49.693v294.191c0 2.484-1.127 4.822-3.041 6.405-18.603 15.378-30.377 38.724-30.087 64.812.493 44.355 36.486 80.824 80.831 81.868 46.66 1.098 84.83-36.398 84.83-82.81 0-25.71-11.715-48.681-30.097-63.874-1.912-1.581-3.036-3.919-3.036-6.4z" fill="#ecf4ff"/><path d="m106.9 369.286v-204.402c0-4.575-3.709-8.283-8.283-8.283h-16.567c-4.575 0-8.283 3.709-8.283 8.283v204.354c0 3.178-1.781 6.128-4.653 7.486-17.626 8.335-29.567 26.723-28.402 47.769 1.405 25.389 22.216 45.84 47.624 46.835 28.358 1.111 51.698-21.55 51.698-49.661 0-19.804-11.587-36.894-28.348-44.881-2.906-1.385-4.786-4.281-4.786-7.5z" fill="#ff8086"/><path d="m143.07 357.793c-1.913-1.581-3.036-3.918-3.036-6.4v-293.374c0-27.254-21.6-50.056-48.85-50.511-4.288-.071-8.452.404-12.432 1.354 22.042 5.299 38.248 25.552 38.248 49.157v293.374c0 2.481 1.124 4.819 3.036 6.4 18.381 15.193 30.097 38.165 30.097 63.875 0 41.821-30.997 76.389-71.267 82.017 3.108.435 6.264.717 9.47.793 46.66 1.098 84.83-36.398 84.83-82.81.001-25.711-11.714-48.682-30.096-63.875z" fill="#ddeafb"/><path d="m111.686 376.786c-2.906-1.384-4.785-4.281-4.785-7.5v-204.402c0-4.575-3.709-8.283-8.283-8.283h-16.568c-1.141 0-2.228.231-3.217.648 2.977 1.256 5.067 4.201 5.067 7.635v204.402c0 3.219 1.879 6.116 4.785 7.5 16.762 7.987 28.348 25.077 28.348 44.881 0 23.487-16.296 43.156-38.194 48.349 3.07.734 6.245 1.185 9.497 1.312 28.358 1.111 51.698-21.549 51.698-49.661 0-19.804-11.587-36.894-28.348-44.881z" fill="#e5646e"/></g></g><g><path d="m147.849 352.012c-.201-.165-.315-.391-.315-.619v-293.374c0-31.469-25.222-57.492-56.225-58.01-15.477-.268-30.059 5.568-41.081 16.407-11.023 10.84-17.094 25.325-17.094 40.785v84.133c0 4.142 3.358 7.5 7.5 7.5s7.5-3.358 7.5-7.5v-84.133c0-11.406 4.479-22.092 12.612-30.09 8.131-7.996 18.914-12.27 30.312-12.104 22.87.382 41.476 19.677 41.476 43.012v293.374c0 4.716 2.099 9.155 5.758 12.181 17.398 14.379 27.375 35.554 27.375 58.093 0 20.458-8.061 39.599-22.7 53.896-14.633 14.292-33.983 21.906-54.454 21.416-40.087-.943-73.062-34.343-73.508-74.454-.254-22.875 9.72-44.361 27.365-58.948 3.663-3.027 5.763-7.469 5.763-12.186v-180.057c0-4.142-3.358-7.5-7.5-7.5s-7.5 3.358-7.5 7.5v180.059c0 .229-.117.456-.32.624-21.154 17.488-33.112 43.249-32.807 70.676.26 23.407 9.541 45.554 26.133 62.361 16.595 16.81 38.621 26.371 62.021 26.921.734.017 1.465.026 2.197.026 23.737-.001 46.069-9.081 63.091-25.707 17.552-17.144 27.218-40.095 27.218-64.627.001-27.028-11.961-52.416-32.817-69.655z"/><path d="m98.617 149.101h-16.567c-8.703 0-15.783 7.08-15.783 15.783v204.354c0 .311-.15.607-.359.706-21.149 10.001-33.979 31.576-32.685 54.964 1.61 29.091 25.69 52.774 54.819 53.915.776.031 1.548.045 2.32.045 14.863 0 28.855-5.621 39.613-15.966 11.322-10.887 17.558-25.531 17.558-41.235 0-21.935-12.805-42.209-32.622-51.651-.315-.15-.512-.43-.512-.729v-204.403c.001-8.703-7.079-15.783-15.782-15.783zm33.917 272.566c0 11.585-4.601 22.39-12.955 30.423-8.348 8.028-19.331 12.199-30.949 11.744-21.483-.842-39.242-18.305-40.429-39.756-.956-17.267 8.512-33.194 24.119-40.574 5.436-2.57 8.948-8.169 8.948-14.267v-204.353c0-.432.352-.783.783-.783h16.567c.432 0 .783.351.783.783v204.402c0 6.046 3.556 11.648 9.059 14.271 14.624 6.968 24.074 21.927 24.074 38.11z"/><path d="m272.567 130.967c13.27 0 24.066-10.796 24.066-24.067 0-13.27-10.796-24.066-24.066-24.066-13.271 0-24.067 10.796-24.067 24.066 0 13.271 10.797 24.067 24.067 24.067zm0-33.133c4.999 0 9.066 4.067 9.066 9.066s-4.067 9.067-9.066 9.067c-5 0-9.067-4.067-9.067-9.067 0-4.999 4.068-9.066 9.067-9.066z"/><path d="m215.367 73.767v215.367c0 13.271 10.796 24.067 24.067 24.067h215.367c13.27 0 24.066-10.796 24.066-24.067v-215.367c0-13.27-10.796-24.066-24.067-24.066h-215.366c-13.27 0-24.067 10.796-24.067 24.066zm248.5 0v215.367c0 5-4.067 9.067-9.066 9.067h-215.367c-4.999 0-9.067-4.067-9.067-9.067v-215.367c0-4.999 4.067-9.066 9.066-9.066h215.367c5 0 9.067 4.067 9.067 9.066z"/><path d="m471.367 16.567h-183.799c-4.142 0-7.5 3.358-7.5 7.5s3.358 7.5 7.5 7.5h183.799c14.134 0 25.633 11.499 25.633 25.633v248.5c0 14.134-11.499 25.633-25.633 25.633h-248.5c-14.134 0-25.633-11.499-25.633-25.633v-248.5c0-14.134 11.499-25.633 25.633-25.633h34.7c4.142 0 7.5-3.358 7.5-7.5s-3.358-7.5-7.5-7.5h-34.7c-22.405 0-40.633 18.228-40.633 40.633v248.5c0 22.405 18.228 40.633 40.633 40.633h248.5c22.405 0 40.633-18.228 40.633-40.633v-248.5c0-22.405-18.228-40.633-40.633-40.633z"/><path d="m338.834 280.067c4.142 0 7.5-3.358 7.5-7.5v-85.343h60.492c4.142 0 7.5-3.358 7.5-7.5s-3.358-7.5-7.5-7.5h-60.492v-74.39h66.359c4.142 0 7.5-3.358 7.5-7.5s-3.358-7.5-7.5-7.5h-73.859c-4.142 0-7.5 3.358-7.5 7.5v182.233c0 4.143 3.358 7.5 7.5 7.5z"/></g></g></svg>