<svg id="Capa_1" enable-background="new 0 0 512 512" height="512" viewBox="0 0 512 512" width="512" xmlns="http://www.w3.org/2000/svg"><g><g><g><path d="m316.019 479.279-23.293-63.997 30.687-13.841 29.187 80.191z" fill="#d19a6e"/><path d="m329.048 480.117 23.552 1.515-29.187-80.191-19.757 8.911z" fill="#c38c66"/><path d="m325.6 321.557-64.141-60.73c-4.386-4.153-11.631-1.516-12.322 4.485l-10.099 87.751c-.623 5.413 4.669 9.59 9.789 7.726 4.587-1.669 9.493 1.526 9.82 6.396l3.907 58.064c.328 4.87 5.234 8.065 9.82 6.396l78.199-28.462c4.587-1.669 6.291-7.271 3.412-11.212l-34.33-46.991c-2.879-3.941-1.175-9.543 3.412-11.212 5.121-1.864 6.49-8.464 2.533-12.211z" fill="#b3e59f"/><path d="m353.986 391.971-34.33-46.991c-2.879-3.941-1.175-9.543 3.412-11.212 5.12-1.864 6.489-8.464 2.533-12.211l-64.141-60.73c-4.386-4.153-11.631-1.516-12.322 4.485l-.584 5.073 54.047 51.172c3.957 3.746 2.588 10.347-2.533 12.211-4.586 1.669-6.291 7.271-3.412 11.212l34.33 46.991c2.879 3.941 1.175 9.543-3.412 11.212l-64.752 23.568c1.12 3.993 5.459 6.384 9.553 4.894l78.199-28.462c4.586-1.67 6.291-7.271 3.412-11.212z" fill="#95d6a4"/></g><g><path d="m448.553 479.279-23.293-63.997 30.686-13.841 29.187 80.191z" fill="#d19a6e"/><path d="m461.582 480.117 23.551 1.515-29.187-80.191-19.757 8.911z" fill="#c38c66"/><path d="m458.133 321.557-64.141-60.73c-4.386-4.153-11.631-1.516-12.322 4.485l-10.099 87.751c-.623 5.413 4.669 9.59 9.789 7.726 4.586-1.669 9.493 1.526 9.82 6.396l3.907 58.064c.328 4.87 5.234 8.065 9.82 6.396l78.199-28.462c4.587-1.669 6.291-7.271 3.412-11.212l-34.33-46.991c-2.879-3.941-1.175-9.543 3.412-11.212 5.121-1.864 6.49-8.464 2.533-12.211z" fill="#b3e59f"/><path d="m486.519 391.971-34.33-46.991c-2.879-3.941-1.175-9.543 3.412-11.212 5.121-1.864 6.49-8.464 2.533-12.211l-64.141-60.73c-4.386-4.153-11.631-1.516-12.322 4.485l-.584 5.073 54.047 51.172c3.957 3.746 2.588 10.347-2.533 12.211-4.586 1.669-6.291 7.271-3.412 11.212l34.33 46.991c2.879 3.941 1.175 9.543-3.412 11.212l-64.752 23.568c1.12 3.993 5.459 6.384 9.553 4.894l78.199-28.462c4.587-1.67 6.291-7.271 3.412-11.212z" fill="#95d6a4"/></g><path d="m126.97 471.367c16.012 0 29.482-12.709 29.629-28.721.116-12.68-7.913-23.494-19.169-27.548-.406-.146-.68-.523-.68-.954v-.007c0-.515.386-.938.896-1.005 14.203-1.872 25.166-14.026 25.166-28.741 0-12.023-7.322-22.329-17.747-26.721-.44-.185-.732-.608-.732-1.085 0-.655.531-1.185 1.185-1.185h14.611c16.041 0 29.504-12.767 29.603-28.809.093-15.086-11.338-27.514-26.006-29.015-.575-.059-1.018-.529-1.018-1.107v-.169c0-.456.28-.857.702-1.03 10.581-4.321 18.04-14.71 18.04-26.845s-7.459-22.524-18.04-26.845c-.422-.172-.702-.574-.702-1.03 0-.617.5-1.117 1.117-1.117h12.876c15.702 0 29.018-12.235 29.58-27.927.452-12.634-7.183-23.541-18.134-27.958-.414-.167-.689-.56-.689-1.006v-.002c0-.602.488-1.09 1.09-1.09h21.253c15.93 0 29.368-12.579 29.628-28.507.21-12.845-7.938-23.81-19.36-27.831-.34-.12-.569-.434-.569-.794v-.001c0-.469.381-.85.85-.85h23.225c16.282 0 29.43-13.423 28.98-29.807-.433-15.791-13.786-28.177-29.584-28.177h-22.621c-.469 0-.85-.381-.85-.85v-.001c0-.36.23-.675.569-.795 11.422-4.021 19.57-14.987 19.36-27.832-.26-15.927-13.698-28.505-29.628-28.505h-172.706c-15.797 0-29.15 12.385-29.584 28.176-.45 16.384 12.698 29.807 28.98 29.807h23.761c.689 0 1.247.558 1.247 1.247 0 .545-.358 1.017-.876 1.184-11.604 3.741-19.99 13.692-19.99 26.56s8.387 22.819 19.99 26.56c.519.167.876.64.876 1.184 0 .689-.558 1.247-1.247 1.247h-23.157c-15.797 0-29.15 12.385-29.583 28.177-.449 16.384 12.698 29.807 28.98 29.807h5.722c.561 0 1.015.455 1.015 1.016 0 .42-.262.789-.653.941-11.092 4.303-18.878 15.232-18.496 27.93.475 15.762 13.826 28.097 29.595 28.097h5.913c.48 0 .87.39.87.87v.006c0 .367-.234.689-.579.812-11.375 4.061-19.474 15.02-19.241 27.844.289 15.906 13.715 28.452 29.624 28.452h18.685c.911 0 1.649.738 1.649 1.649 0 .628-.364 1.19-.924 1.474-9.435 4.782-15.905 14.567-15.905 25.869 0 12.008 7.304 22.303 17.708 26.705.441.187.733.61.733 1.089v.008c0 .657-.533 1.19-1.19 1.19h-20.79c-15.797 0-29.151 12.385-29.584 28.177-.449 16.384 12.698 29.807 28.98 29.807h21.393c.657 0 1.19.533 1.19 1.19v.005c0 .48-.293.905-.735 1.093-10.279 4.35-17.532 14.452-17.703 26.275-.235 16.18 13.453 29.42 29.635 29.42v4.883h23.47z" fill="#dad8db"/><g fill="#b6b1b7"><path d="m220.069 125.112c-.34-.12-.569-.435-.569-.794v-.001c0-.469.381-.85.85-.85h-23.002c-.469 0-.85.381-.85.85v.001c0 .36.23.675.569.794 11.422 4.021 19.57 14.986 19.36 27.831-.26 15.928-13.698 28.507-29.628 28.507h-21.253c-.602 0-1.09.488-1.09 1.09v.003c0 .446.275.839.689 1.006 10.95 4.418 18.586 15.325 18.134 27.958-.562 15.692-13.878 27.927-29.58 27.927h-12.876c-.617 0-1.117.5-1.117 1.117 0 .456.28.858.702 1.03 10.581 4.321 18.04 14.71 18.04 26.845s-7.459 22.524-18.04 26.845c-.422.172-.702.574-.702 1.03v.169c0 .578.443 1.049 1.019 1.108 14.668 1.501 26.099 13.929 26.006 29.015-.099 16.041-13.562 28.809-29.603 28.809h-14.611c-.655 0-1.185.53-1.185 1.185 0 .478.291.9.732 1.085 10.425 4.392 17.748 14.698 17.748 26.721 0 14.715-10.963 26.868-25.166 28.741-.51.067-.896.491-.896 1.005v.007c0 .431.274.808.68.954 11.257 4.054 19.285 14.868 19.169 27.548-.146 16.011-13.617 28.721-29.629 28.721l-.095 4.883h23.002l.095-4.883c16.012 0 29.482-12.71 29.629-28.721.116-12.68-7.913-23.494-19.169-27.548-.405-.146-.68-.523-.68-.954v-.007c0-.515.386-.938.896-1.005 14.204-1.872 25.166-14.026 25.166-28.741 0-12.023-7.322-22.329-17.747-26.721-.44-.185-.732-.608-.732-1.085 0-.655.531-1.185 1.185-1.185h14.611c16.041 0 29.504-12.767 29.603-28.809.093-15.086-11.338-27.513-26.006-29.015-.575-.059-1.018-.529-1.018-1.108v-.17c0-.455.28-.857.702-1.03 10.581-4.321 18.04-14.71 18.04-26.845s-7.459-22.524-18.04-26.845c-.422-.172-.702-.574-.702-1.03 0-.617.5-1.117 1.117-1.117h12.876c15.702 0 29.018-12.235 29.58-27.927.452-12.634-7.183-23.54-18.134-27.958-.414-.167-.689-.56-.689-1.006v-.003c0-.602.488-1.09 1.09-1.09h21.253c15.93 0 29.368-12.579 29.628-28.507.208-12.844-7.94-23.809-19.362-27.83z"/><path d="m272.555 93.66c-.433-15.791-13.786-28.177-29.584-28.177h-22.621c-.469 0-.85-.381-.85-.85v-.001c0-.36.23-.675.569-.795 11.422-4.021 19.57-14.987 19.36-27.832-.26-15.927-13.698-28.505-29.628-28.505h-23.002c15.93 0 29.367 12.578 29.628 28.506.21 12.845-7.938 23.811-19.36 27.832-.34.12-.569.435-.569.795v.001c0 .47.381.85.85.85h22.622c15.797 0 29.15 12.385 29.583 28.177.449 16.384-12.698 29.807-28.98 29.807h23.002c16.282-.001 29.43-13.424 28.98-29.808z"/></g><path d="m487.465 40.634h-8.654c-3.935 0-7.325-2.77-8.108-6.626-3.069-15.124-16.44-26.508-32.47-26.508-16.386 0-29.994 11.895-32.66 27.521-.52 3.051-2.708 5.47-5.649 6.436-6.854 2.252-11.734 8.856-11.372 16.543.42 8.91 8.095 15.766 17.016 15.766h82.366c9.415 0 16.996-7.854 16.548-17.368-.42-8.909-8.096-15.764-17.017-15.764z" fill="#ecf4ff"/><path d="m15.783 471.367c-4.575 0-8.283 3.708-8.283 8.283v8.283c0 9.15 7.417 16.567 16.567 16.567h463.867c9.15 0 16.567-7.417 16.567-16.567v-8.283c0-4.575-3.709-8.283-8.283-8.283z" fill="#966a5b"/><path d="m496.217 471.367h-23c4.575 0 8.283 3.708 8.283 8.283v8.283c0 9.15-7.417 16.567-16.567 16.567h23c9.15 0 16.567-7.417 16.567-16.567v-8.283c0-4.575-3.709-8.283-8.283-8.283z" fill="#785353"/><path d="m487.465 40.634h-8.654c-3.935 0-7.325-2.77-8.107-6.626-3.07-15.124-16.441-26.508-32.471-26.508-4.043 0-7.916.727-11.499 2.053 10.619 3.931 18.674 13.146 20.969 24.455.783 3.856 4.173 6.626 8.107 6.626h8.654c8.92 0 16.596 6.855 17.016 15.766.448 9.514-7.133 17.367-16.548 17.367h23c9.415 0 16.996-7.854 16.548-17.367-.419-8.911-8.094-15.766-17.015-15.766z" fill="#ddeafb"/></g><g><path d="m496.217 463.866h-9.568l-17.353-47.675 16.377-5.961c4.423-1.611 7.746-5.117 9.115-9.62 1.37-4.503.562-9.265-2.213-13.064l-34.198-46.811c4.756-1.811 8.201-5.849 9.237-10.845 1.052-5.069-.565-10.221-4.325-13.78l-64.142-60.73c-4.105-3.888-9.957-5.1-15.268-3.166-5.312 1.934-9.014 6.624-9.66 12.24l-10.099 87.751c-.592 5.143 1.48 10.128 5.544 13.336 4.004 3.16 9.239 4.041 14.048 2.37l3.892 57.841c.316 4.695 2.759 8.861 6.703 11.43 2.456 1.6 5.243 2.417 8.065 2.417 1.71 0 3.432-.3 5.101-.907l16.182-5.89 11.306 31.064h-80.846l-17.352-47.675 16.376-5.96c4.423-1.61 7.745-5.117 9.115-9.62s.563-9.265-2.213-13.064l-34.198-46.811c4.756-1.811 8.201-5.849 9.237-10.845 1.052-5.069-.565-10.221-4.325-13.78l-11.823-11.194h19.9c4.142 0 7.5-3.357 7.5-7.5s-3.358-7.5-7.5-7.5h-35.742l-36.476-34.536c-4.105-3.887-9.957-5.1-15.268-3.166-5.312 1.934-9.014 6.623-9.661 12.24l-10.099 87.751c-.592 5.143 1.48 10.128 5.544 13.336 4.004 3.16 9.239 4.041 14.048 2.37l3.892 57.841c.316 4.695 2.759 8.861 6.703 11.43 2.456 1.6 5.243 2.417 8.065 2.417 1.709 0 3.432-.3 5.1-.907l16.182-5.89 11.306 31.064h-145.352c4.412-6.033 7.026-13.461 7.026-21.491s-2.614-15.458-7.027-21.491h16.093c4.142 0 7.5-3.357 7.5-7.5s-3.358-7.5-7.5-7.5h-9.891c4.415-6.034 7.037-13.459 7.037-21.492 0-8.065-2.631-15.528-7.078-21.575 18.964-1.285 33.999-17.124 33.999-36.408 0-8.032-2.622-15.457-7.037-21.491h32.671c4.142 0 7.5-3.357 7.5-7.5s-3.358-7.5-7.5-7.5h-40.944c4.413-6.034 7.028-13.462 7.028-21.492 0-8.147-2.684-15.679-7.213-21.759 18.041-2.191 32.063-17.601 32.063-36.225 0-8.028-2.606-15.459-7.016-21.491h3.658 194.657c22.405 0 40.633-18.229 40.633-40.634s-18.228-40.633-40.633-40.633-40.633 18.228-40.633 40.633c0 4.143 3.358 7.5 7.5 7.5s7.5-3.357 7.5-7.5c0-14.134 11.499-25.633 25.633-25.633s25.633 11.499 25.633 25.633c0 14.135-11.499 25.634-25.633 25.634h-165.193c4.412-6.033 7.026-13.462 7.026-21.492 0-8.028-2.606-15.459-7.016-21.491h3.658c20.122 0 36.492-16.37 36.492-36.492 0-20.121-16.37-36.491-36.492-36.491h-3.659c4.411-6.032 7.017-13.464 7.017-21.492 0-20.124-16.37-36.494-36.491-36.494h-121.675c-4.142 0-7.5 3.357-7.5 7.5s3.358 7.5 7.5 7.5h121.675c11.85 0 21.491 9.641 21.491 21.491s-9.641 21.492-21.491 21.492h-20.708c-4.142 0-7.5 3.357-7.5 7.5s3.358 7.5 7.5 7.5h20.708 33.133c11.851 0 21.492 9.641 21.492 21.491s-9.641 21.492-21.492 21.492h-33.133-86.975c-4.142 0-7.5 3.357-7.5 7.5s3.358 7.5 7.5 7.5h86.975c11.85 0 21.491 9.641 21.491 21.491s-9.641 21.492-21.491 21.492h-4.142-28.992-20.708c-4.142 0-7.5 3.357-7.5 7.5s3.358 7.5 7.5 7.5h20.708c11.851 0 21.492 9.641 21.492 21.491s-9.641 21.492-21.492 21.492h-20.708-4.142-12.425c-4.142 0-7.5 3.357-7.5 7.5s3.358 7.5 7.5 7.5h12.425c11.851 0 21.492 9.641 21.492 21.491 0 11.851-9.641 21.492-21.492 21.492-4.142 0-7.5 3.357-7.5 7.5s3.358 7.5 7.5 7.5h8.283c11.851 0 21.492 9.641 21.492 21.491 0 11.851-9.641 21.492-21.492 21.492h-26.921c-4.142 0-7.5 3.357-7.5 7.5s3.358 7.5 7.5 7.5c11.851 0 21.492 9.641 21.492 21.491 0 11.851-9.641 21.492-21.492 21.492h-6.212c-4.142 0-7.5 3.357-7.5 7.5s3.358 7.5 7.5 7.5c11.851 0 21.492 9.641 21.492 21.491 0 11.851-9.641 21.491-21.492 21.491h-24.85c-11.851 0-21.492-9.641-21.492-21.491 0-11.851 9.641-21.491 21.492-21.491 4.142 0 7.5-3.357 7.5-7.5s-3.358-7.5-7.5-7.5h-12.425-20.708c-11.851 0-21.492-9.642-21.492-21.492 0-11.851 9.641-21.491 21.492-21.491h33.133c4.142 0 7.5-3.357 7.5-7.5s-3.358-7.5-7.5-7.5c-11.851 0-21.492-9.642-21.492-21.492 0-11.851 9.641-21.491 21.492-21.491h12.425c4.142 0 7.5-3.357 7.5-7.5s-3.358-7.5-7.5-7.5h-12.425-33.133c-11.851 0-21.492-9.642-21.492-21.492 0-11.851 9.641-21.491 21.492-21.491h37.275c4.142 0 7.5-3.357 7.5-7.5s-3.358-7.5-7.5-7.5h-37.275-16.567c-11.85 0-21.491-9.642-21.491-21.492s9.641-21.491 21.491-21.491h70.409c4.142 0 7.5-3.357 7.5-7.5s-3.358-7.5-7.5-7.5h-70.409-16.566c-11.851.001-21.492-9.64-21.492-21.491s9.641-21.491 21.492-21.491h33.133 20.708c4.142 0 7.5-3.357 7.5-7.5s-3.358-7.5-7.5-7.5h-20.708c-11.851 0-21.492-9.642-21.492-21.492s9.641-21.491 21.492-21.491h86.975c4.142 0 7.5-3.357 7.5-7.5s-3.358-7.5-7.5-7.5h-86.975-33.133c-11.851 0-21.492-9.642-21.492-21.493s9.641-21.491 21.492-21.491h22.275c4.142 0 7.5-3.357 7.5-7.5s-3.358-7.5-7.5-7.5h-22.275c-20.122 0-36.492 16.37-36.492 36.491 0 20.122 16.37 36.492 36.492 36.492h3.658c-4.41 6.032-7.016 13.463-7.016 21.491s2.606 15.46 7.017 21.492h-3.658c-20.123.001-36.493 16.371-36.493 36.492 0 16.118 10.503 29.829 25.025 34.646-5.278 6.33-8.458 14.47-8.458 23.337 0 16.118 10.502 29.829 25.024 34.646-5.278 6.33-8.458 14.47-8.458 23.337 0 20.122 16.37 36.492 36.492 36.492h3.658c-4.41 6.032-7.016 13.463-7.016 21.491s2.606 15.46 7.017 21.492h-3.658c-20.122 0-36.492 16.37-36.492 36.491 0 8.03 2.613 15.459 7.026 21.492h-32.66c-4.142 0-7.5 3.357-7.5 7.5s3.358 7.5 7.5 7.5h62.125 3.658c-4.41 6.032-7.016 13.463-7.016 21.491 0 8.03 2.613 15.458 7.026 21.491h-57.51c-8.702.002-15.783 7.084-15.783 15.787v8.283c0 13.27 10.796 24.066 24.067 24.066h34.7c4.142 0 7.5-3.357 7.5-7.5s-3.358-7.5-7.5-7.5h-34.7c-5 0-9.067-4.067-9.067-9.066v-8.283c0-.433.352-.784.783-.784h480.434c.432 0 .783.352.783.784v8.283c0 4.999-4.067 9.066-9.067 9.066h-399.67c-4.142 0-7.5 3.357-7.5 7.5s3.358 7.5 7.5 7.5h399.67c13.271 0 24.067-10.796 24.067-24.066v-8.283c0-8.703-7.081-15.785-15.783-15.785zm-93.661-39.346-3.892-57.839c-.316-4.695-2.759-8.861-6.703-11.43-2.455-1.6-5.24-2.416-8.063-2.416-1.621 0-3.255.27-4.845.814l10.03-87.142 63.695 60.309c-4.295 1.65-7.516 5.107-8.859 9.523-1.37 4.502-.563 9.264 2.213 13.064l34.197 46.809-23.21 8.448s-.001 0-.002 0l-.002.001-31.541 11.48c-.001 0-.002 0-.003.001-.001 0-.002.001-.003.001zm35.195 3.153 17.449-6.351 15.485 42.545h-19.761zm-167.729-3.153-3.892-57.839c-.316-4.695-2.759-8.861-6.703-11.43-2.455-1.6-5.24-2.416-8.063-2.416-1.621 0-3.255.27-4.845.814l10.03-87.142 24.724 23.409h-8.707c-4.142 0-7.5 3.357-7.5 7.5s3.358 7.5 7.5 7.5h24.549l23.129 21.899c-4.295 1.65-7.516 5.108-8.859 9.523-1.37 4.503-.562 9.265 2.213 13.064l34.197 46.809-23.21 8.448h-.001c-.001.001-.002.001-.002.001l-31.538 11.479c-.002.001-.004.001-.006.002s-.004.002-.006.002zm35.196 3.153 17.449-6.351 15.485 42.545h-19.761z"/><path d="m198.8 413.384c0 4.143 3.358 7.5 7.5 7.5h33.133c4.142 0 7.5-3.357 7.5-7.5s-3.358-7.5-7.5-7.5h-33.133c-4.142 0-7.5 3.357-7.5 7.5z"/><path d="m405.568 81.267h82.365c6.547 0 12.895-2.718 17.415-7.456 4.585-4.806 6.938-11.114 6.624-17.764-.605-12.849-11.37-22.913-24.507-22.913h-8.654c-.366 0-.684-.26-.757-.618-3.824-18.841-20.571-32.516-39.821-32.516-19.871 0-36.716 14.198-40.053 33.76-.061.36-.438.521-.596.573-10.236 3.362-17.031 13.24-16.524 24.021.605 12.848 11.37 22.913 24.508 22.913zm-3.302-32.684c5.621-1.847 9.721-6.56 10.701-12.3 2.103-12.332 12.73-21.283 25.266-21.283 12.145 0 22.709 8.621 25.121 20.5 1.486 7.32 7.987 12.634 15.457 12.634h8.654c5.028 0 9.3 3.866 9.524 8.618.119 2.514-.767 4.895-2.494 6.704-1.729 1.812-4.06 2.81-6.562 2.81h-82.365c-5.028 0-9.3-3.866-9.524-8.618-.192-4.071 2.367-7.798 6.222-9.065z"/></g></g></svg>