<svg id="Capa_1" enable-background="new 0 0 512 512" height="512" viewBox="0 0 512 512" width="512" xmlns="http://www.w3.org/2000/svg"><g><g><g><circle cx="256" cy="256" fill="#e8e03c" r="132.533"/><circle cx="256" cy="256" fill="#5c545f" r="132.533"/><path d="m256 123.467c-3.875 0-7.709.176-11.5.502 67.81 5.83 121.033 62.71 121.033 132.031s-53.223 126.201-121.033 132.031c3.791.326 7.625.502 11.5.502 73.196 0 132.533-59.337 132.533-132.533s-59.337-132.533-132.533-132.533z" fill="#4b3f4e"/></g><g><path d="m455.828 152.642c-4.306 2.781-9.527 4.267-15.113 3.904-12.15-.79-22.071-10.516-23.099-22.648-.227-2.673-.025-5.265.539-7.718.666-2.892-.81-5.871-3.533-7.051-17.818-7.721-37.439-12.066-58.058-12.224-82.38-.631-150.098 66.406-150.264 148.789-.127 62.952 38.766 116.829 93.841 138.82 2.743 1.096 5.927.184 7.516-2.306 2.332-3.655 6.52-6.007 11.241-5.721 5.58.338 10.323 4.515 11.413 9.998.101.508.169 1.011.205 1.507.221 2.992 2.406 5.448 5.381 5.838 6.383.836 12.891 1.271 19.502 1.271 82.346 0 149.1-66.754 149.1-149.1 0-39.691-15.516-75.753-40.805-102.47-2.049-2.166-5.361-2.507-7.866-.889z" fill="#ffe07d"/><ellipse cx="355.4" cy="222.867" fill="#ffd064" rx="16.567" ry="16.567" transform="matrix(.16 -.987 .987 .16 78.482 537.978)"/><circle cx="305.7" cy="173.167" fill="#ebb560" r="24.85"/><g fill="#ffd064"><circle cx="272.567" cy="256" r="33.133"/><g><path d="m391.622 119.129c2.723 1.18 4.199 4.159 3.533 7.051-.564 2.453-.766 5.045-.539 7.718 1.028 12.132 10.949 21.857 23.099 22.648 4.78.311 9.287-.741 13.188-2.791-7.322-3.848-12.556-11.235-13.287-19.857-.227-2.673-.025-5.265.539-7.718.666-2.892-.81-5.871-3.533-7.051-17.818-7.721-37.439-12.066-58.058-12.224-4.251-.033-8.46.125-12.625.446 16.83 1.288 32.88 5.363 47.683 11.778z"/><path d="m463.695 153.531c-2.05-2.166-5.362-2.506-7.867-.889-3.588 2.317-7.814 3.717-12.353 3.915 23.639 26.384 38.025 61.23 38.025 99.443 0 78.434-60.564 142.721-137.477 148.652 3.757.285 7.547.448 11.377.448 82.346 0 149.1-66.755 149.1-149.1 0-39.691-15.516-75.753-40.805-102.469z"/></g></g></g></g><g><path d="m256 97.834c4.143 0 7.5-3.358 7.5-7.5v-82.834c0-4.142-3.357-7.5-7.5-7.5-4.142 0-7.5 3.358-7.5 7.5v82.834c0 4.142 3.358 7.5 7.5 7.5z"/><path d="m133.553 144.159c1.464 1.464 3.384 2.197 5.303 2.197s3.839-.732 5.303-2.197c2.929-2.929 2.929-7.678 0-10.606l-58.572-58.572c-2.929-2.929-7.678-2.929-10.606 0-2.929 2.929-2.929 7.678 0 10.606z"/><path d="m97.833 256c0-4.142-3.358-7.5-7.5-7.5h-82.833c-4.142 0-7.5 3.358-7.5 7.5s3.358 7.5 7.5 7.5h82.833c4.143 0 7.5-3.358 7.5-7.5z"/><path d="m133.553 367.841-58.572 58.572c-2.929 2.929-2.929 7.678 0 10.606 1.464 1.464 3.384 2.197 5.303 2.197s3.839-.732 5.303-2.197l58.572-58.572c2.929-2.929 2.929-7.678 0-10.607-2.929-2.928-7.678-2.928-10.606.001z"/><path d="m256 414.167c-4.142 0-7.5 3.358-7.5 7.5v82.833c0 4.142 3.358 7.5 7.5 7.5 4.143 0 7.5-3.358 7.5-7.5v-82.833c0-4.143-3.357-7.5-7.5-7.5z"/><path d="m185.673 105.814c1.197 2.888 3.989 4.632 6.932 4.632.956 0 1.929-.184 2.867-.573 3.827-1.585 5.644-5.973 4.059-9.799l-15.85-38.264c-1.586-3.827-5.973-5.643-9.799-4.059-3.827 1.585-5.644 5.973-4.059 9.799z"/><path d="m61.81 183.682 38.264 15.85c.938.389 1.911.573 2.867.573 2.943 0 5.736-1.744 6.932-4.632 1.585-3.827-.232-8.214-4.059-9.799l-38.264-15.85c-3.826-1.585-8.214.232-9.799 4.059-1.585 3.826.232 8.213 4.059 9.799z"/><path d="m109.873 316.528c-1.585-3.826-5.972-5.643-9.799-4.059l-38.264 15.85c-3.827 1.585-5.644 5.973-4.059 9.799 1.196 2.888 3.989 4.632 6.932 4.632.956 0 1.929-.184 2.867-.573l38.264-15.85c3.827-1.585 5.644-5.973 4.059-9.799z"/><path d="m195.472 402.127c-3.827-1.586-8.214.232-9.799 4.059l-15.85 38.264c-1.585 3.827.232 8.214 4.059 9.799.938.389 1.911.573 2.867.573 2.943 0 5.736-1.744 6.932-4.632l15.85-38.264c1.585-3.826-.232-8.214-4.059-9.799z"/><path d="m355.4 198.8c-13.27 0-24.067 10.796-24.067 24.067 0 13.27 10.797 24.066 24.067 24.066 13.271 0 24.066-10.796 24.066-24.066.001-13.271-10.795-24.067-24.066-24.067zm0 33.133c-5 0-9.067-4.067-9.067-9.066s4.067-9.067 9.067-9.067c4.999 0 9.066 4.067 9.066 9.067.001 4.999-4.067 9.066-9.066 9.066z"/><path d="m305.7 140.817c-17.838 0-32.351 14.512-32.351 32.35s14.513 32.35 32.351 32.35 32.35-14.512 32.35-32.35-14.512-32.35-32.35-32.35zm0 49.7c-9.567 0-17.351-7.783-17.351-17.35 0-9.566 7.783-17.35 17.351-17.35 9.566 0 17.35 7.783 17.35 17.35 0 9.566-7.783 17.35-17.35 17.35z"/><path d="m272.566 215.367c-22.405 0-40.633 18.228-40.633 40.633s18.228 40.633 40.633 40.633c4.289 0 8.515-.667 12.561-1.981 3.939-1.279 6.096-5.511 4.815-9.45-1.279-3.94-5.514-6.094-9.45-4.816-2.547.828-5.213 1.247-7.926 1.247-14.134 0-25.633-11.499-25.633-25.633s11.5-25.633 25.633-25.633c14.135 0 25.634 11.499 25.634 25.633 0 2.736-.428 5.426-1.271 7.996-1.29 3.936.854 8.173 4.79 9.464 3.933 1.29 8.172-.854 9.464-4.789 1.338-4.081 2.017-8.344 2.017-12.67 0-22.406-18.228-40.634-40.634-40.634z"/><path d="m512 256c0-40.206-15.221-78.428-42.857-107.626-4.512-4.768-11.823-5.623-17.383-2.033-3.136 2.025-6.784 2.972-10.558 2.72-8.47-.551-15.396-7.342-16.112-15.797-.155-1.83-.029-3.648.374-5.402 1.481-6.433-1.824-13.001-7.86-15.616-1.702-.737-3.416-1.432-5.137-2.106l24.553-24.553c2.929-2.929 2.929-7.678 0-10.606-2.93-2.929-7.678-2.929-10.607 0l-29.881 29.882c-12.931-3.517-26.283-5.354-39.909-5.458-.409-.003-.815-.004-1.223-.004-9.283 0-18.446.816-27.412 2.403l14.188-34.253c1.586-3.827-.232-8.214-4.059-9.799-3.823-1.583-8.213.232-9.799 4.059l-15.85 38.264c-.736 1.776-.731 3.67-.14 5.352-10.848 3.107-21.314 7.391-31.246 12.79-8.235-1.488-16.657-2.248-25.083-2.248-32.032 0-62.179 10.527-87.183 30.443-3.24 2.581-3.774 7.299-1.193 10.539 1.481 1.859 3.666 2.828 5.871 2.828 1.638 0 3.287-.534 4.668-1.634 22.32-17.778 49.236-27.176 77.837-27.176 1.728 0 3.455.044 5.181.115-5.537 4.204-10.843 8.793-15.871 13.773-29.908 29.62-46.425 68.978-46.51 110.824-.064 31.998 9.46 62.787 27.543 89.04 9.626 13.974 21.317 26.147 34.615 36.208-1.652.065-3.305.107-4.959.107-68.943 0-125.033-56.09-125.033-125.033 0-28.601 9.397-55.517 27.176-77.837 2.581-3.24 2.046-7.958-1.193-10.539-3.24-2.58-7.958-2.046-10.539 1.193-19.916 25.003-30.443 55.151-30.443 87.183 0 77.214 62.819 140.033 140.033 140.033 8.388 0 16.775-.754 24.975-2.229 5.288 2.855 10.752 5.424 16.384 7.674 6.133 2.449 13.12.248 16.621-5.236.978-1.531 2.647-2.381 4.464-2.269 2.147.13 4.087 1.838 4.51 3.968.041.206.068.406.083.605.127 1.711.55 3.326 1.214 4.799-2.076-1.761-5.036-2.332-7.724-1.218-3.827 1.585-5.645 5.973-4.059 9.799l15.85 38.264c1.196 2.888 3.988 4.632 6.932 4.632.956 0 1.929-.184 2.867-.573 3.827-1.585 5.645-5.973 4.059-9.799l-15.51-37.444c2.102 2.28 4.972 3.829 8.257 4.259 6.761.886 13.65 1.335 20.477 1.335 14.221 0 28.001-1.917 41.107-5.486l29.905 29.905c1.465 1.464 3.385 2.197 5.304 2.197s3.839-.732 5.304-2.197c2.929-2.929 2.929-7.678 0-10.606l-24.572-24.572c58.223-22.857 99.553-79.613 99.553-145.844zm-156.6 141.6c-5.83 0-11.709-.362-17.493-1.076-.06-.499-.141-1.001-.239-1.502-1.767-8.887-9.298-15.476-18.315-16.022-6.808-.406-13.359 2.699-17.341 8.181-53.737-21.878-88.329-73.375-88.211-131.472.076-37.823 15.015-73.407 42.065-100.196 26.796-26.539 62.105-41.113 99.537-41.113.367 0 .737.001 1.104.004 18.775.144 36.975 3.9 54.111 11.168-.57 2.936-.73 5.944-.476 8.959 1.337 15.788 14.271 28.47 30.086 29.499 6.653.431 13.126-1.133 18.78-4.534 24.509 26.294 37.992 60.52 37.992 96.504 0 78.079-63.522 141.6-141.6 141.6z"/></g></g></svg>