<svg id="Capa_1" enable-background="new 0 0 512 512" height="512" viewBox="0 0 512 512" width="512" xmlns="http://www.w3.org/2000/svg"><g><g><path d="m389.904 118.189c-5.742 3.708-12.702 5.69-20.151 5.205-16.199-1.054-29.428-14.021-30.798-30.197-.302-3.564-.034-7.02.719-10.291.888-3.856-1.08-7.828-4.711-9.402-23.758-10.294-49.919-16.088-77.411-16.299-109.84-.84-200.13 88.543-200.352 198.386-.169 83.937 51.688 155.771 125.122 185.093 3.658 1.461 7.903.246 10.022-3.074 3.11-4.873 8.694-8.009 14.988-7.628 7.44.451 13.764 6.02 15.217 13.331.135.678.225 1.348.274 2.01.295 3.989 3.208 7.264 7.174 7.783 8.51 1.115 17.189 1.695 26.003 1.695 109.794 0 198.8-89.006 198.8-198.8 0-52.922-20.688-101.004-54.406-136.626-2.734-2.889-7.149-3.343-10.49-1.186z" fill="#ffe07d"/><path d="m400.394 119.374c-2.733-2.888-7.149-3.341-10.489-1.185-2.942 1.899-6.205 3.342-9.688 4.236 32.045 35.294 51.583 82.149 51.583 133.575 0 105.901-82.809 192.449-187.205 198.455 3.776.215 7.575.345 11.405.345 109.794 0 198.8-89.006 198.8-198.8 0-52.922-20.688-101.004-54.406-136.626z" fill="#ffd064"/><circle cx="206.3" cy="231.15" fill="#ffd064" r="16.567"/><circle cx="173.167" cy="156.6" fill="#ebb560" r="33.133"/><g fill="#ffd064"><circle cx="127.608" cy="251.858" r="37.275"/><path d="m311.963 73.505c3.631 1.573 5.598 5.545 4.711 9.401-.753 3.271-1.021 6.727-.719 10.291 1.37 16.175 14.599 29.143 30.798 30.197 4.851.316 9.493-.421 13.728-1.993-11.733-4.373-20.43-15.257-21.527-28.204-.302-3.564-.034-7.02.719-10.291.888-3.856-1.08-7.828-4.711-9.401-23.758-10.295-49.919-16.088-77.411-16.299-4.328-.033-8.621.09-12.884.333 23.798 1.378 46.471 6.942 67.296 15.966z"/></g></g><g><path d="m123.467 31.567h9.066v9.066c0 4.142 3.358 7.5 7.5 7.5s7.5-3.358 7.5-7.5v-9.066h9.067c4.142 0 7.5-3.358 7.5-7.5s-3.358-7.5-7.5-7.5h-9.067v-9.067c0-4.142-3.358-7.5-7.5-7.5s-7.5 3.358-7.5 7.5v9.067h-9.066c-4.142 0-7.5 3.358-7.5 7.5s3.358 7.5 7.5 7.5z"/><path d="m388.533 480.433h-9.066v-9.066c0-4.142-3.358-7.5-7.5-7.5s-7.5 3.358-7.5 7.5v9.066h-9.067c-4.142 0-7.5 3.358-7.5 7.5s3.358 7.5 7.5 7.5h9.067v9.067c0 4.142 3.358 7.5 7.5 7.5s7.5-3.358 7.5-7.5v-9.067h9.066c4.142 0 7.5-3.358 7.5-7.5s-3.358-7.5-7.5-7.5z"/><path d="m182.233 231.15c0 13.27 10.796 24.067 24.066 24.067s24.067-10.796 24.067-24.067c0-13.27-10.796-24.066-24.067-24.066-13.27-.001-24.066 10.796-24.066 24.066zm24.067-9.067c4.999 0 9.067 4.067 9.067 9.066s-4.067 9.067-9.067 9.067c-4.999 0-9.066-4.067-9.066-9.067-.001-4.998 4.067-9.066 9.066-9.066z"/><path d="m173.167 115.967c-22.405 0-40.633 18.228-40.633 40.633s18.228 40.633 40.633 40.633 40.633-18.228 40.633-40.633-18.228-40.633-40.633-40.633zm0 66.266c-14.134 0-25.633-11.499-25.633-25.633s11.499-25.633 25.633-25.633 25.633 11.499 25.633 25.633-11.499 25.633-25.633 25.633z"/><path d="m82.834 251.858c0 24.689 20.086 44.775 44.775 44.775 6.653 0 13.059-1.426 19.039-4.24 3.748-1.763 5.357-6.231 3.594-9.979s-6.231-5.358-9.979-3.594c-3.968 1.867-8.226 2.813-12.654 2.813-16.418 0-29.775-13.357-29.775-29.775s13.357-29.775 29.775-29.775 29.775 13.357 29.775 29.775c0 2.923-.421 5.808-1.251 8.575-1.19 3.967 1.061 8.148 5.028 9.339 3.965 1.19 8.149-1.061 9.339-5.028 1.25-4.166 1.884-8.501 1.884-12.885 0-24.689-20.086-44.775-44.775-44.775s-44.775 20.085-44.775 44.774z"/><path d="m405.84 114.218c-5.19-5.483-13.604-6.463-20.004-2.329-4.634 2.992-10.02 4.387-15.596 4.021-12.517-.814-22.753-10.851-23.812-23.347-.229-2.698-.042-5.381.555-7.976 1.703-7.402-2.098-14.957-9.038-17.965-25.412-11.012-52.44-16.703-80.335-16.917-49.782-.341-98.032 17.369-135.92 49.979-3.14 2.702-3.494 7.438-.792 10.577 2.702 3.14 7.438 3.494 10.577.792 35.135-30.241 79.914-46.74 126.019-46.348 25.871.198 50.932 5.474 74.486 15.681.299.129.464.49.384.837-.947 4.113-1.244 8.355-.883 12.606 1.68 19.829 17.923 35.757 37.785 37.049 8.804.57 17.348-1.637 24.707-6.389.331-.213.75-.197.974.04 33.76 35.666 52.353 82.357 52.353 131.471 0 105.483-85.817 191.3-191.3 191.3-8.348 0-16.769-.549-25.029-1.631-.48-.063-.647-.595-.669-.899-.072-.974-.206-1.957-.397-2.92-2.134-10.736-11.23-18.695-22.12-19.355-8.726-.531-17.064 3.717-21.763 11.079-.126.196-.525.301-.918.144-73.302-29.268-120.563-99.181-120.404-178.112.091-45.446 16.552-89.53 46.349-124.132 2.703-3.139 2.35-7.875-.789-10.577-3.14-2.704-7.875-2.349-10.577.789-32.133 37.315-49.884 84.864-49.983 133.89-.085 42.153 12.462 82.714 36.283 117.297 23.261 33.768 55.612 59.625 93.557 74.776 7.061 2.822 15.105.295 19.126-6.004 1.799-2.818 4.867-4.379 8.211-4.177 4.025.244 7.523 3.316 8.316 7.307.072.364.122.734.15 1.1.566 7.655 6.191 13.686 13.68 14.667 8.904 1.167 17.98 1.758 26.977 1.758 113.754 0 206.3-92.546 206.3-206.3 0-52.966-20.051-103.319-56.46-141.782z"/><path d="m463.083 381.033c-4.142 0-7.5 3.358-7.5 7.5v16.567c0 4.142 3.358 7.5 7.5 7.5s7.5-3.358 7.5-7.5v-16.567c0-4.142-3.357-7.5-7.5-7.5z"/><path d="m463.083 447.3c-4.142 0-7.5 3.358-7.5 7.5v16.567c0 4.142 3.358 7.5 7.5 7.5s7.5-3.358 7.5-7.5v-16.567c0-4.142-3.357-7.5-7.5-7.5z"/><path d="m504.5 422.45h-16.567c-4.142 0-7.5 3.358-7.5 7.5s3.358 7.5 7.5 7.5h16.567c4.142 0 7.5-3.358 7.5-7.5s-3.358-7.5-7.5-7.5z"/><path d="m438.233 422.45h-16.567c-4.142 0-7.5 3.358-7.5 7.5s3.358 7.5 7.5 7.5h16.567c4.142 0 7.5-3.358 7.5-7.5s-3.358-7.5-7.5-7.5z"/><path d="m48.917 64.7c4.142 0 7.5-3.358 7.5-7.5v-16.567c0-4.142-3.358-7.5-7.5-7.5s-7.5 3.358-7.5 7.5v16.567c0 4.142 3.357 7.5 7.5 7.5z"/><path d="m56.417 123.467v-16.567c0-4.142-3.358-7.5-7.5-7.5s-7.5 3.358-7.5 7.5v16.567c0 4.142 3.358 7.5 7.5 7.5s7.5-3.358 7.5-7.5z"/><path d="m73.767 89.55h16.567c4.142 0 7.5-3.358 7.5-7.5s-3.358-7.5-7.5-7.5h-16.567c-4.142 0-7.5 3.358-7.5 7.5s3.357 7.5 7.5 7.5z"/><path d="m24.067 74.55h-16.567c-4.142 0-7.5 3.358-7.5 7.5s3.358 7.5 7.5 7.5h16.567c4.142 0 7.5-3.358 7.5-7.5s-3.358-7.5-7.5-7.5z"/></g></g></svg>