<svg id="Capa_1" enable-background="new 0 0 511.995 511.995" height="512" viewBox="0 0 511.995 511.995" width="512" xmlns="http://www.w3.org/2000/svg"><g><g><g><g><path d="m455.14 80.181c6.47-6.47 6.47-16.959 0-23.429s-16.959-6.47-23.429 0l-421.785 421.786c-3.235 3.235-3.235 8.479 0 11.714l11.714 11.714c3.235 3.235 8.48 3.235 11.714 0z" fill="#c8c5c9"/><path d="m455.14 56.753c-6.401-6.401-16.73-6.458-23.214-.194.07.067.145.125.214.194 6.47 6.47 6.47 16.959 0 23.429l-416.142 416.141 5.643 5.643c3.235 3.235 8.48 3.235 11.714 0l421.785-421.785c6.47-6.47 6.47-16.959 0-23.428z" fill="#b6b1b7"/><g><path d="m314.583 314.484c.945.944 2.291 1.346 3.606 1.115 28.628-5.009 59.848 3.767 84.266 28.184 24.617 24.617 31.917 54.731 26.595 83.503-.162.875.108 1.773.737 2.403 1.06 1.059 2.789 1.059 3.837-.012 95.127-97.191 94.489-253.094-1.914-349.497l-.005-.005c-96.402-96.404-252.305-97.042-349.496-1.915-1.071 1.048-1.071 2.778-.012 3.838.629.63 1.527.899 2.403.737 28.773-5.322 58.886 1.978 83.503 26.595 24.417 24.418 33.193 55.638 28.184 84.266-.23 1.316.171 2.662 1.116 3.606l136.467-19.286z" fill="#ff8086"/><path d="m197.425 197.322c.944.93 2.279 1.327 3.587 1.098 28.628-5.009 59.848 3.767 84.266 28.184l.005.004c24.418 24.418 33.193 55.638 28.184 84.266-.229 1.31.169 2.648 1.103 3.592 97.045-97.045 149.492-201.939 117.143-234.287s-137.243 20.099-234.288 117.143z" fill="#ffe07d"/><path d="m431.712 80.179-.005-.005c-2.725-2.725-5.505-5.363-8.323-7.936 84.151 92.183 86.4 232.395 6.724 327.133 1.051 9.293.652 18.673-1.057 27.915-.162.875.108 1.773.737 2.403 1.06 1.059 2.789 1.058 3.838-.012 95.127-97.191 94.489-253.095-1.914-349.498z" fill="#e5646e"/><path d="m431.712 80.179c-2.76-2.76-6.06-4.887-9.826-6.438 15.625 37.953-28.895 124.453-108.022 208.426 1.394 9.627 1.246 19.307-.399 28.707-.229 1.31.169 2.648 1.103 3.592 97.045-97.044 149.492-201.938 117.144-234.287z" fill="#ffd064"/></g></g></g><g><path d="m40.63 305.591c0-18.299 14.834-33.133 33.133-33.133h24.85c4.575 0 8.283 3.709 8.283 8.283v24.85c0 18.299-14.834 33.133-33.133 33.133h-33.133z" fill="#b3e59f"/><path d="m98.613 272.458h-23c4.575 0 8.283 3.709 8.283 8.283v24.85c0 18.299-14.834 33.133-33.133 33.133h23c18.299 0 33.133-14.834 33.133-33.133v-24.85c.001-4.575-3.708-8.283-8.283-8.283z" fill="#95d6a4"/></g></g><g><path d="m453.239 92.69 7.205-7.205c9.383-9.384 9.383-24.652 0-34.036-9.384-9.382-24.65-9.384-34.036 0l-7.221 7.221c-40.464-33.478-90.454-53.872-143.108-57.994-4.129-.323-7.739 2.764-8.062 6.892-.323 4.129 2.763 7.739 6.893 8.062 45.818 3.585 89.493 20.267 125.928 47.665-17.863.771-39.99 7.54-65.363 20.226-40.869 20.435-86.661 54.142-130.332 95.784.382-27.454-10.751-54.193-31.736-75.179-20.99-20.988-47.302-31.489-75.269-30.352 41.11-35.673 93.028-56.388 147.727-58.673 4.138-.173 7.352-3.668 7.18-7.807-.173-4.139-3.692-7.372-7.807-7.18-63.259 2.646-123.02 28.495-168.275 72.789-1.957 1.916-3.043 4.482-3.058 7.226-.015 2.748 1.047 5.332 2.985 7.27 2.369 2.372 5.752 3.424 9.074 2.814 28.465-5.264 55.755 3.443 76.835 24.523 21.467 21.466 30.979 49.775 26.1 77.668-.653 3.729.542 7.543 3.198 10.201 2.657 2.66 6.475 3.857 10.207 3.204 20.226-3.541 40.673.497 58.573 11.17l-163.944 163.944h-42.721c-4.143 0-7.5 3.357-7.5 7.5s3.357 7.5 7.5 7.5h27.721l-77.311 77.311c-6.153 6.154-6.153 16.167 0 22.321l11.715 11.715c3.077 3.076 7.119 4.615 11.16 4.615 4.042 0 8.084-1.539 11.161-4.615l78.213-78.213h205.391c14.134 0 25.633 11.499 25.633 25.633s-11.499 25.633-25.633 25.633c-14.135 0-25.634-11.499-25.634-25.633 0-4.143-3.357-7.5-7.5-7.5s-7.5 3.357-7.5 7.5c0 22.405 18.228 40.633 40.634 40.633s40.633-18.227 40.633-40.633c0-22.405-18.228-40.633-40.633-40.633h-190.39l18.134-18.134h105.991c22.405 0 40.633-18.228 40.633-40.633s-18.228-40.633-40.633-40.633-40.633 18.227-40.633 40.633c0 4.143 3.357 7.5 7.5 7.5s7.5-3.357 7.5-7.5c0-14.134 11.499-25.633 25.633-25.633s25.633 11.499 25.633 25.633-11.499 25.633-25.633 25.633h-90.991l129.907-129.907c10.668 17.897 14.704 38.34 11.165 58.566-.653 3.734.544 7.55 3.204 10.207 2.655 2.653 6.464 3.85 10.2 3.198 27.89-4.883 56.203 4.632 77.669 26.1 21.08 21.079 29.789 48.367 24.522 76.841-.609 3.31.442 6.699 2.811 9.065 1.93 1.929 4.491 2.989 7.219 2.989h.056c2.743-.015 5.31-1.101 7.227-3.059 47.421-48.45 73.349-112.492 73.006-180.327-.303-59.8-21.01-116.442-58.753-161.906zm-16.224-30.634c3.537-3.535 9.288-3.534 12.821 0 3.535 3.534 3.535 9.287 0 12.821l-6.535 6.535c-2.059-2.207-4.146-4.395-6.291-6.54-2.139-2.139-4.323-4.225-6.53-6.281zm-408.964 434.607c-.304.305-.805.305-1.107 0l-11.715-11.715c-.152-.152-.229-.338-.229-.553 0-.216.077-.402.229-.554l12.268-12.268 12.821 12.821zm22.875-22.876-12.821-12.821 32.578-32.577c.941.426 1.983.669 3.084.669h21.89zm59.731-59.73h-25.643l18.134-18.134h25.643zm33.133-33.134h-25.643l155.131-155.131c2.296 1.919 4.534 3.956 6.698 6.121 2.165 2.165 4.203 4.403 6.123 6.701zm146.791-159.621c-20.799-20.798-47.245-31.931-74.444-31.753 42.405-40.347 86.668-72.922 126.045-92.61 40.538-20.269 71.236-24.445 84.225-11.454 12.989 12.989 8.815 43.687-11.454 84.225-19.689 39.379-52.267 83.645-92.617 126.053.178-27.201-10.951-53.656-31.755-74.461zm147.529 192.445c1.135-27.982-9.366-54.282-30.352-75.267-20.982-20.982-47.721-32.116-75.168-31.736 41.64-43.669 75.345-89.459 95.779-130.326 12.689-25.377 19.453-47.503 20.221-65.368 67.356 89.652 64.01 216.796-10.48 302.697z"/><path d="m7.5 395.923h16.565c4.142 0 7.5-3.357 7.5-7.5s-3.358-7.5-7.5-7.5h-16.565c-4.143 0-7.5 3.357-7.5 7.5s3.357 7.5 7.5 7.5z"/><path d="m24.063 230.258h99.4c22.405 0 40.633-18.229 40.633-40.634s-18.228-40.633-40.633-40.633-40.634 18.227-40.634 40.633c0 4.143 3.357 7.5 7.5 7.5s7.5-3.357 7.5-7.5c0-14.134 11.499-25.633 25.634-25.633 14.134 0 25.633 11.499 25.633 25.633 0 14.135-11.499 25.634-25.633 25.634h-99.4c-4.143 0-7.5 3.357-7.5 7.5s3.358 7.5 7.5 7.5z"/><path d="m24.063 362.79c1.919 0 3.839-.732 5.304-2.196l14.37-14.37h30.026c22.405 0 40.633-18.228 40.633-40.634v-24.85c0-8.703-7.08-15.783-15.783-15.783h-24.85c-22.405 0-40.633 18.228-40.633 40.633v30.025l-14.37 14.372c-2.929 2.93-2.929 7.678 0 10.607 1.465 1.464 3.385 2.196 5.303 2.196zm24.068-57.2c0-14.134 11.499-25.633 25.633-25.633h24.85c.432 0 .783.352.783.783v24.85c0 14.135-11.499 25.634-25.633 25.634h-15.027l20.33-20.33c2.929-2.93 2.929-7.678 0-10.607-2.93-2.928-7.678-2.928-10.607 0l-20.329 20.329z"/></g></g></svg>