<svg id="Capa_1" enable-background="new 0 0 512 512" height="512" viewBox="0 0 512 512" width="512" xmlns="http://www.w3.org/2000/svg"><g><g><path d="m452.051 289.135c-1.913 11.402-4.797 22.475-8.563 33.131l-15.311 33.181c-17.926 30.969-43.967 56.654-75.216 74.145l-162.226 14.246c-32.204-11.188-60.643-30.424-82.91-55.301l-24.032-231.932c27.131-46.904 72.873-81.694 127.13-94.273l110.383 5.843c32.189 11.19 60.614 30.422 82.872 55.289z" fill="#c3ddff"/><path d="m321.281 68.168-6.136 6.689c26.187 11.868 49.352 29.233 68.001 50.642h22.822c-22.522-25.857-51.619-45.838-84.687-57.331z" fill="#a7ccfb"/><g fill="#a7ccfb"><path d="m442.724 324.333c4.363-11.92 7.628-24.37 9.649-37.233h-22.819c-2.021 12.862-5.276 25.315-9.639 37.233z"/><path d="m406.542 353.333c-15.846 28.164-38.366 52.061-65.399 69.585l11.379 6.914c32.148-17.891 58.817-44.44 76.852-76.498h-22.832z"/></g><g fill="#b3e59f"><path d="m322.267 322.267c-3.021 0-13.546 0-16.567 0-9.15 0-16.567 7.417-16.567 16.567 0 9.149 7.417 16.567 16.567 16.567h16.567c9.15 0 16.567-7.417 16.567-16.567-.001-9.15-7.418-16.567-16.567-16.567z"/><path d="m352.944 429.585c-2.914-4.744-8.135-7.918-14.111-7.918-3.021 0-129.512 0-132.533 0-9.15 0-16.567 7.417-16.567 16.567 0 1.963.359 3.838.986 5.586 20.45 7.106 42.411 10.98 65.281 10.98 35.204 0 68.263-9.163 96.944-25.215z"/><path d="m206.3 73.767c0 9.149 7.417 16.567 16.567 16.567h82.833c9.149 0 16.567-7.417 16.567-16.567 0-1.963-.359-3.839-.986-5.586-20.45-7.107-42.411-10.981-65.281-10.981-15.517 0-30.618 1.78-45.112 5.143-2.836 2.973-4.588 6.99-4.588 11.424z"/><path d="m454.8 256c0-50.92-19.153-97.361-50.637-132.533h-65.329c-9.15 0-16.567 7.417-16.567 16.567s7.417 16.567 16.567 16.567h16.106c9.149 0 16.567 7.417 16.567 16.567s-7.417 16.567-16.567 16.567h-49.24c-9.15 0-16.567 7.417-16.567 16.567 0 9.149 7.417 16.567 16.567 16.567h49.7c9.15 0 16.567 7.417 16.567 16.567 0 9.149-7.417 16.567-16.567 16.567h-16.567c-9.15 0-16.567 7.417-16.567 16.567 0 9.149 7.417 16.567 16.567 16.567h113.203c1.808-10.781 2.764-21.846 2.764-33.137z"/><path d="m239.433 222.867h-16.567c-9.15 0-16.567-7.417-16.567-16.567s7.417-16.567 16.567-16.567h16.567c9.149 0 16.567-7.417 16.567-16.567 0-9.149-7.417-16.567-16.567-16.567h-155.631c-16.916 29.243-26.602 63.19-26.602 99.401 0 50.92 19.153 97.361 50.637 132.533h98.463c9.149 0 16.567-7.417 16.567-16.567s-7.417-16.567-16.567-16.567h-66.267c-9.149 0-16.567-7.417-16.567-16.567s7.417-16.567 16.567-16.567h66.267c9.149 0 16.567-7.417 16.567-16.567s-7.417-16.567-16.567-16.567h-16.567c-9.15 0-16.567-7.417-16.567-16.567s7.417-16.567 16.567-16.567h49.7c9.149 0 16.567-7.417 16.567-16.567 0-9.146-7.417-16.563-16.567-16.563z"/><path d="m443.472 322.267h-54.939c-9.149 0-16.566 7.417-16.566 16.567s7.417 16.567 16.566 16.567h39.665c6.06-10.477 11.183-21.562 15.274-33.134z"/></g><g fill="#95d6a4"><path d="m431.987 256c0 11.29-.949 22.357-2.758 33.133h22.807c1.808-10.777 2.764-21.843 2.764-33.133 0-50.92-19.153-97.361-50.637-132.533h-22.816c31.486 35.17 50.64 81.611 50.64 132.533z"/><path d="m322.267 73.767c0-1.963-.359-3.838-.986-5.586-20.45-7.107-42.412-10.981-65.281-10.981-.026 0-.052.001-.078.001-3.803.001-7.579.12-11.329.332 27.587 1.561 53.666 8.75 77.116 20.431.351-1.343.558-2.744.558-4.197z"/><path d="m405.381 355.4h22.817c6.06-10.476 11.183-21.561 15.274-33.133h-22.801c-4.091 11.575-9.228 22.655-15.29 33.133z"/><path d="m342.474 422.078c-28.385 18.714-61.849 30.35-97.881 32.389 1.757.099 3.52.173 5.288.23.224.007.447.015.672.021 1.81.051 3.624.082 5.447.082h.004c35.203-.001 68.26-9.163 96.94-25.215-2.303-3.75-6.051-6.511-10.47-7.507z"/></g></g><g><path d="m123.467 31.566h9.066v9.067c0 4.143 3.357 7.5 7.5 7.5s7.5-3.357 7.5-7.5v-9.067h9.066c4.143 0 7.5-3.357 7.5-7.5s-3.357-7.5-7.5-7.5h-9.066v-9.066c0-4.143-3.357-7.5-7.5-7.5s-7.5 3.357-7.5 7.5v9.066h-9.066c-4.143 0-7.5 3.357-7.5 7.5s3.357 7.5 7.5 7.5z"/><path d="m388.533 480.434h-9.066v-9.067c0-4.143-3.357-7.5-7.5-7.5s-7.5 3.357-7.5 7.5v9.067h-9.067c-4.143 0-7.5 3.357-7.5 7.5s3.357 7.5 7.5 7.5h9.066v9.066c0 4.143 3.357 7.5 7.5 7.5s7.5-3.357 7.5-7.5v-9.066h9.066c4.143 0 7.5-3.357 7.5-7.5s-3.356-7.5-7.499-7.5z"/><path d="m322.267 362.9c13.271 0 24.066-10.797 24.066-24.067 0-13.271-10.796-24.066-24.066-24.066h-16.567c-13.271 0-24.066 10.796-24.066 24.066s10.796 24.067 24.066 24.067zm-25.633-24.067c0-4.999 4.067-9.066 9.066-9.066h16.566c4.999 0 9.066 4.067 9.066 9.066 0 5-4.067 9.067-9.066 9.067h-16.566c-4.999 0-9.066-4.067-9.066-9.067z"/><path d="m256 49.7c-49.344 0-97.096 17.697-134.459 49.832-3.141 2.701-3.496 7.437-.796 10.577s7.436 3.496 10.577.796c19.845-17.069 42.856-29.735 67.492-37.449-.001.104-.015.206-.015.311 0 13.271 10.796 24.066 24.066 24.066h82.835c11.387 0 20.945-7.951 23.431-18.592 21.203 8.805 40.489 21.318 57.051 36.726h-47.349c-13.271 0-24.066 10.796-24.066 24.066s10.796 24.066 24.066 24.066h16.105c5 0 9.067 4.067 9.067 9.067 0 4.999-4.067 9.066-9.067 9.066h-49.238c-13.271 0-24.066 10.796-24.066 24.066s10.796 24.066 24.066 24.066h49.7c4.999 0 9.066 4.067 9.066 9.067 0 4.999-4.067 9.066-9.066 9.066h-16.567c-13.271 0-24.066 10.796-24.066 24.066s10.796 24.067 24.066 24.067h104.109c-1.338 6.159-2.972 12.208-4.889 18.133h-49.52c-13.271 0-24.066 10.796-24.066 24.066s10.796 24.067 24.066 24.067h26.04c-15.624 23.102-36.163 42.617-60.098 57.047-4.29-3.694-9.782-5.781-15.642-5.781h-132.533c-11.411 0-20.985 7.984-23.446 18.658-21.194-8.752-40.597-21.239-57.302-36.792h80.748c13.27 0 24.066-10.796 24.066-24.066s-10.796-24.062-24.066-24.062h-66.267c-4.999 0-9.066-4.067-9.066-9.067 0-4.999 4.067-9.066 9.066-9.066h66.267c13.27 0 24.066-10.796 24.066-24.066s-10.796-24.066-24.066-24.066h-16.566c-4.999 0-9.066-4.067-9.066-9.067 0-4.999 4.067-9.066 9.066-9.066h49.7c13.271 0 24.066-10.796 24.066-24.066s-10.796-24.067-24.066-24.067h-16.567c-4.999 0-9.066-4.067-9.066-9.066s4.067-9.066 9.066-9.066h16.567c13.271 0 24.066-10.796 24.066-24.066 0-13.271-10.796-24.067-24.066-24.067h-142.079c4.151-6.159 8.667-12.1 13.55-17.777 2.7-3.141 2.345-7.876-.796-10.577-3.14-2.7-7.875-2.346-10.577.796-32.135 37.357-49.832 85.108-49.832 134.454 0 11.489.952 23.014 2.831 34.253.613 3.667 3.79 6.265 7.389 6.265.41 0 .827-.033 1.245-.104 4.086-.683 6.844-4.549 6.161-8.634-1.742-10.424-2.626-21.116-2.626-31.78 0-32.333 8.203-63.923 23.523-91.9h151.21c4.999 0 9.066 4.067 9.066 9.067 0 4.999-4.067 9.066-9.066 9.066h-16.567c-13.27 0-24.066 10.796-24.066 24.066s10.796 24.066 24.066 24.066h16.567c4.999 0 9.066 4.067 9.066 9.067 0 4.999-4.067 9.066-9.066 9.066h-49.7c-13.27 0-24.066 10.796-24.066 24.066s10.796 24.067 24.066 24.067h16.567c4.999 0 9.066 4.067 9.066 9.066s-4.067 9.066-9.066 9.066h-66.267c-13.271 0-24.066 10.796-24.066 24.066s10.796 24.067 24.066 24.067h66.267c4.999 0 9.066 4.067 9.066 9.066s-4.067 9.066-9.066 9.066h-95.197c-15.922-18.45-28.478-40.139-36.557-64.28-1.315-3.928-5.567-6.048-9.492-4.732-3.929 1.314-6.047 5.564-4.732 9.492 28.181 84.214 106.818 140.792 195.678 140.792 113.754 0 206.3-92.546 206.3-206.3s-92.546-206.3-206.3-206.3zm-58.766 388.393c.075-4.935 4.113-8.926 9.065-8.926h130.938c-24.672 11.621-52.207 18.133-81.237 18.133-20.3 0-40.022-3.19-58.613-9.157-.051-.016-.102-.034-.153-.05zm108.466-355.26h-82.834c-4.999 0-9.066-4.067-9.066-9.066 0-1.648.451-3.238 1.287-4.631 13.352-2.923 27.064-4.436 40.913-4.436 20.494 0 40.239 3.252 58.763 9.246-.096 4.917-4.124 8.887-9.063 8.887zm33.133 198.801c-4.999 0-9.066-4.067-9.066-9.067 0-4.999 4.067-9.066 9.066-9.066h16.567c13.271 0 24.066-10.796 24.066-24.066s-10.796-24.067-24.066-24.067h-49.7c-4.999 0-9.066-4.067-9.066-9.066s4.067-9.066 9.066-9.066h49.238c13.271 0 24.067-10.796 24.067-24.066 0-13.271-10.797-24.067-24.067-24.067h-16.105c-4.999 0-9.066-4.067-9.066-9.066s4.067-9.066 9.066-9.066h61.837c29.04 33.551 46.63 77.274 46.63 125.029 0 8.692-.594 17.246-1.723 25.634zm49.7 66.266c-4.999 0-9.066-4.067-9.066-9.067 0-4.999 4.067-9.066 9.066-9.066h43.965c-2.608 6.218-5.537 12.268-8.764 18.134h-35.201z"/><path d="m463.083 381.033c-4.143 0-7.5 3.357-7.5 7.5v16.567c0 4.143 3.357 7.5 7.5 7.5s7.5-3.357 7.5-7.5v-16.566c0-4.143-3.357-7.501-7.5-7.501z"/><path d="m463.083 447.3c-4.143 0-7.5 3.357-7.5 7.5v16.566c0 4.143 3.357 7.5 7.5 7.5s7.5-3.357 7.5-7.5v-16.566c0-4.143-3.357-7.5-7.5-7.5z"/><path d="m504.5 422.45h-16.566c-4.143 0-7.5 3.357-7.5 7.5s3.357 7.5 7.5 7.5h16.566c4.143 0 7.5-3.357 7.5-7.5s-3.357-7.5-7.5-7.5z"/><path d="m438.233 422.45h-16.566c-4.143 0-7.5 3.357-7.5 7.5s3.357 7.5 7.5 7.5h16.566c4.143 0 7.5-3.357 7.5-7.5s-3.357-7.5-7.5-7.5z"/><path d="m48.917 64.7c4.143 0 7.5-3.357 7.5-7.5v-16.566c0-4.143-3.357-7.5-7.5-7.5s-7.5 3.357-7.5 7.5v16.566c0 4.143 3.357 7.5 7.5 7.5z"/><path d="m56.417 123.467v-16.567c0-4.143-3.357-7.5-7.5-7.5s-7.5 3.357-7.5 7.5v16.566c0 4.143 3.357 7.5 7.5 7.5s7.5-3.357 7.5-7.499z"/><path d="m73.767 89.55h16.566c4.143 0 7.5-3.357 7.5-7.5s-3.357-7.5-7.5-7.5h-16.566c-4.143 0-7.5 3.357-7.5 7.5 0 4.142 3.357 7.5 7.5 7.5z"/><path d="m24.066 74.55h-16.566c-4.143 0-7.5 3.357-7.5 7.5s3.357 7.5 7.5 7.5h16.566c4.143 0 7.5-3.357 7.5-7.5s-3.357-7.5-7.5-7.5z"/></g></g></svg>