<svg id="Capa_1" enable-background="new 0 0 512 512" height="512" viewBox="0 0 512 512" width="512" xmlns="http://www.w3.org/2000/svg"><g><g><g><g fill="#ffe07d"><path d="m177.148 475.386c-38.813 38.818-101.741 38.818-140.554 0s-38.813-101.755 0-140.573l316.44-316.482c12.938-12.939 33.914-12.939 46.851 0 12.938 12.939 12.938 33.918 0 46.858l-164.172 164.195c-12.938 12.939-12.938 33.918 0 46.858 12.938 12.939 33.914 12.939 46.851 0l95.089-94.914c12.938-12.939 33.914-12.939 46.851 0 12.938 12.939 12.938 33.918 0 46.858z"/><ellipse cx="471.355" cy="134.471" rx="33.129" ry="33.133"/><path d="m177.148 475.386c-38.813 38.818-101.741 38.818-140.554 0s-38.813-101.755 0-140.573l316.44-316.482c12.938-12.939 33.914-12.939 46.851 0 12.938 12.939 12.938 33.918 0 46.858l-164.172 164.195c-12.938 12.939-12.938 33.918 0 46.858 12.938 12.939 33.914 12.939 46.851 0l95.089-94.914c12.938-12.939 33.914-12.939 46.851 0 12.938 12.939 12.938 33.918 0 46.858z"/></g><g fill="#ffd064"><path d="m376.886 18.331c12.938 12.939 12.938 33.918 0 46.858l-164.173 164.195c-12.938 12.939-12.938 33.918 0 46.858 9.444 9.445 23.169 11.987 34.926 7.643-4.35-1.607-8.432-4.149-11.926-7.643-12.938-12.94-12.938-33.919 0-46.858l164.173-164.195c12.938-12.94 12.938-33.918 0-46.858-9.444-9.445-23.168-11.987-34.926-7.643 4.349 1.607 8.432 4.149 11.926 7.643z"/><path d="m424.504 181.328c-9.444-9.445-23.169-11.987-34.926-7.643 4.35 1.607 8.432 4.149 11.926 7.643 12.938 12.939 12.938 33.918 0 46.857l-247.356 247.202c-16.476 16.478-37.299 25.958-58.777 28.446 29.117 3.373 59.44-6.106 81.777-28.446l247.356-247.201c12.938-12.94 12.938-33.918 0-46.858z"/></g><path d="m494.781 111.041c-9.453-9.454-23.194-11.991-34.959-7.631 4.337 1.608 8.408 4.145 11.893 7.631 12.938 12.94 12.938 33.919 0 46.858-3.485 3.485-7.556 6.023-11.893 7.631 11.765 4.361 25.506 1.824 34.959-7.631 12.938-12.939 12.938-33.918 0-46.858z" fill="#ffd064"/><g><path d="m221.409 331.874-8.948-8.949c-6.469-6.469-16.957-6.469-23.426 0l-6.056 6.056c-3.124 3.125-8.19 3.125-11.314 0l-15.003-15.005c-8.873-8.874-21.999-11.973-33.904-8.004l-8.294 2.765c-4.879 1.627-9.312 4.367-12.949 8.004l-41.671 41.676c-26.082 26.086-25.874 68.509.626 94.333 26.081 25.416 68.026 24.436 93.775-1.317l64.398-64.406c3.637-3.637 6.376-8.071 8.003-12.95l2.766-8.298c3.969-11.905.871-25.031-8.003-33.905z" fill="#966a5b"/><path d="m221.409 331.874-8.948-8.949c-6.4-6.401-16.73-6.458-23.213-.192.069.067.144.124.213.192l8.948 8.949c8.873 8.874 11.972 22 8.003 33.906l-2.766 8.298c-1.626 4.879-4.366 9.313-8.003 12.95l-64.398 64.406c-10.249 10.251-23.066 16.562-36.426 18.86 20.918 3.652 43.335-2.767 59.426-18.86l64.398-64.406c3.637-3.637 6.376-8.071 8.003-12.95l2.766-8.298c3.969-11.906.871-25.032-8.003-33.906z" fill="#785353"/></g></g><g fill="#ffe07d"><ellipse cx="454.725" cy="355.4" rx="16.564" ry="16.567"/><ellipse cx="106.871" cy="24.067" rx="16.564" ry="16.567" transform="matrix(1 -.006 .006 1 -.135 .608)"/><ellipse cx="405.032" cy="471.367" rx="16.564" ry="16.567" transform="matrix(1 -.006 .006 1 -2.671 2.309)"/><ellipse cx="40.613" cy="140.033" rx="16.567" ry="16.564" transform="matrix(.006 -1 1 .006 -99.644 179.868)"/></g><path d="m277.368 443.086c-6.469 6.47-6.469 16.959 0 23.429s16.957 6.47 23.426 0l70.277-70.286c6.469-6.47 6.469-16.959 0-23.429s-16.957-6.47-23.426 0z" fill="#fff0af"/><path d="m78.594 194.586c-6.469 6.47-6.469 16.959 0 23.429s16.957 6.47 23.426 0l149.08-149.1c6.469-6.47 6.469-16.959 0-23.429s-16.957-6.47-23.426 0z" fill="#fff0af"/><g fill="#ffe07d"><path d="m251.1 45.486c-6.406-6.406-16.747-6.459-23.229-.177.064.062.133.114.196.177 6.469 6.47 6.469 16.959 0 23.429l-149.08 149.1c-.063.063-.133.116-.197.177 6.483 6.282 16.824 6.229 23.229-.177l149.08-149.1c6.47-6.47 6.47-16.96.001-23.429z"/><path d="m371.07 372.799c-6.4-6.401-16.729-6.458-23.213-.193.069.067.144.124.213.193 6.469 6.47 6.469 16.959 0 23.429l-70.277 70.286c-.068.068-.144.125-.213.192 6.484 6.266 16.812 6.209 23.213-.192l70.277-70.286c6.469-6.47 6.469-16.959 0-23.429z"/></g></g><g><path d="m429.808 176.025c-7.674-7.675-17.877-11.902-28.729-11.902-10.853 0-21.056 4.228-28.725 11.896l-95.094 94.919c-4.841 4.841-11.276 7.507-18.122 7.507s-13.281-2.666-18.122-7.507c-9.993-9.995-9.993-26.257 0-36.252l164.174-164.194c15.841-15.843 15.841-41.621 0-57.464-7.675-7.675-17.877-11.902-28.729-11.902-10.853 0-21.056 4.227-28.729 11.902l-286.935 286.972c-2.929 2.929-2.929 7.678.001 10.606 2.928 2.928 7.677 2.927 10.606-.001l286.934-286.971c4.841-4.841 11.276-7.508 18.122-7.508 6.845 0 13.281 2.667 18.122 7.508 9.993 9.995 9.993 26.258 0 36.253l-164.173 164.194c-15.84 15.843-15.84 41.62 0 57.463 7.674 7.675 17.877 11.901 28.729 11.901 10.853 0 21.056-4.227 28.725-11.896l95.094-94.919c4.841-4.841 11.276-7.508 18.122-7.508s13.281 2.667 18.122 7.508c9.993 9.995 9.993 26.257.002 36.25l-247.359 247.204c-17.354 17.356-40.43 26.916-64.973 26.916s-47.618-9.56-64.973-26.916c-35.828-35.832-35.828-94.136 0-129.968l8.296-8.297c2.929-2.929 2.929-7.678-.001-10.606-2.929-2.93-7.678-2.929-10.606.001l-8.296 8.297c-41.675 41.68-41.675 109.499 0 151.179 20.188 20.19 47.03 31.31 75.58 31.31 28.551 0 55.393-11.12 75.579-31.309l247.358-247.203c15.84-15.843 15.84-41.62 0-57.463z"/><path d="m55.237 458.121c14.12 13.761 32.591 20.612 51.146 20.61 19.219-.001 38.528-7.354 53.167-21.995l64.397-64.405c4.436-4.437 7.83-9.929 9.815-15.884l2.765-8.296c4.898-14.695 1.137-30.628-9.814-41.58l-8.948-8.949c-4.545-4.546-10.589-7.05-17.017-7.05s-12.472 2.504-17.017 7.05l-6.409 6.409-15.356-15.358c-10.952-10.954-26.884-14.714-41.577-9.816l-8.296 2.765c-5.954 1.985-11.445 5.38-15.881 9.817l-41.671 41.676c-14.059 14.061-21.73 32.757-21.602 52.643.131 19.881 8.049 38.477 22.298 52.363zm9.912-94.401 41.671-41.676c2.799-2.799 6.263-4.94 10.017-6.192l8.296-2.765c2.688-.897 5.44-1.333 8.164-1.333 6.668 0 13.157 2.619 18.062 7.524l15.358 15.36-12.821 12.822-6.409-6.41c-2.009-2.009-4.98-2.711-7.676-1.812l-17.569 5.857c-3.93 1.311-6.053 5.558-4.743 9.487 1.31 3.93 5.557 6.052 9.487 4.743l13.172-4.392 16.87 16.873-4.391 13.175c-1.31 3.93.814 8.177 4.744 9.486.786.263 1.586.387 2.372.387 3.14 0 6.066-1.987 7.114-5.131l5.856-17.571c.898-2.694.197-5.665-1.812-7.674l-6.411-6.412 29.837-29.84c1.712-1.712 3.988-2.655 6.409-2.655s4.697.943 6.409 2.655l6.411 6.411-18.124 18.126c-2.929 2.929-2.929 7.678.001 10.607 1.464 1.464 3.384 2.196 5.303 2.196s3.839-.732 5.304-2.197l16.234-16.236c1.743 5.17 1.817 10.854.011 16.275l-2.765 8.295c-1.252 3.757-3.394 7.222-6.192 10.021l-64.398 64.406c-22.999 23.002-60.34 23.562-83.237 1.248-6.667-6.497-11.578-14.294-14.531-22.825l37.75-37.755c2.929-2.929 2.929-7.678-.001-10.606s-7.677-2.929-10.606.001l-30.349 30.354c-.006-.297-.026-.591-.028-.888-.101-15.843 6.011-30.737 17.211-41.939z"/><path d="m112.349 410.229c1.712-1.713 3.988-2.656 6.409-2.656s4.697.943 6.409 2.655c3.535 3.535 3.535 9.288 0 12.823-2.929 2.929-2.929 7.678.001 10.606 1.465 1.464 3.384 2.196 5.303 2.196s3.839-.732 5.304-2.197c9.382-9.383 9.382-24.651 0-34.034-4.545-4.546-10.588-7.05-17.017-7.05-6.428 0-12.471 2.504-17.017 7.049-2.929 2.93-2.929 7.678 0 10.607 2.93 2.929 7.678 2.929 10.608.001z"/><path d="m500.084 105.739c-7.674-7.675-17.877-11.902-28.728-11.902-10.853 0-21.056 4.228-28.73 11.902-15.842 15.843-15.842 41.62 0 57.463 7.674 7.675 17.877 11.902 28.73 11.902 10.852 0 21.055-4.228 28.728-11.902 15.842-15.843 15.842-41.62 0-57.463zm-10.607 46.858c-4.841 4.841-11.276 7.508-18.121 7.508-6.846 0-13.281-2.667-18.122-7.508-9.994-9.995-9.994-26.257 0-36.252 4.841-4.841 11.276-7.508 18.122-7.508 6.845 0 13.28 2.667 18.121 7.508 9.994 9.995 9.994 26.257 0 36.252z"/><path d="m454.725 331.333c-13.27 0-24.065 10.797-24.065 24.067 0 13.271 10.795 24.066 24.065 24.066s24.064-10.796 24.064-24.066-10.794-24.067-24.064-24.067zm0 33.134c-4.998 0-9.065-4.067-9.065-9.066 0-5 4.066-9.067 9.065-9.067 4.998 0 9.064 4.067 9.064 9.067 0 4.998-4.066 9.066-9.064 9.066z"/><path d="m106.871 48.134c13.27 0 24.065-10.797 24.065-24.067s-10.795-24.067-24.065-24.067c-13.269 0-24.064 10.796-24.064 24.066s10.795 24.068 24.064 24.068zm0-33.134c4.998 0 9.065 4.067 9.065 9.066 0 5-4.066 9.067-9.065 9.067-4.998 0-9.064-4.067-9.064-9.067 0-4.999 4.066-9.066 9.064-9.066z"/><path d="m405.032 447.3c-13.27 0-24.064 10.796-24.064 24.066s10.795 24.067 24.064 24.067 24.065-10.797 24.065-24.067c-.001-13.27-10.796-24.066-24.065-24.066zm0 33.134c-4.998 0-9.064-4.067-9.064-9.067 0-4.999 4.066-9.066 9.064-9.066s9.065 4.067 9.065 9.066c-.001 4.999-4.067 9.067-9.065 9.067z"/><path d="m40.614 164.1c13.27 0 24.064-10.796 24.064-24.066s-10.795-24.066-24.064-24.066-24.064 10.796-24.064 24.066 10.794 24.066 24.064 24.066zm0-33.133c4.998 0 9.064 4.067 9.064 9.066s-4.066 9.066-9.064 9.066-9.064-4.067-9.064-9.066c-.001-4.999 4.066-9.066 9.064-9.066z"/><path d="m376.374 367.496c-4.545-4.546-10.589-7.05-17.017-7.05s-12.472 2.504-17.017 7.05l-70.277 70.287c-9.382 9.383-9.382 24.651 0 34.034 4.545 4.546 10.589 7.05 17.017 7.05s12.472-2.504 17.017-7.05l70.277-70.286c9.383-9.383 9.383-24.651 0-34.035zm-10.607 23.429-70.277 70.287c-1.712 1.712-3.988 2.655-6.409 2.655s-4.697-.943-6.409-2.655c-3.535-3.535-3.535-9.288 0-12.823l70.277-70.287c1.712-1.712 3.988-2.655 6.409-2.655s4.697.943 6.409 2.655c3.535 3.536 3.535 9.288 0 12.823z"/><path d="m90.307 230.367c6.428 0 12.472-2.504 17.017-7.05l149.08-149.101c9.382-9.383 9.382-24.651 0-34.034-4.545-4.546-10.589-7.05-17.017-7.05s-12.472 2.504-17.017 7.05l-29.698 29.703c-2.929 2.929-2.929 7.678.001 10.607 2.929 2.929 7.678 2.93 10.606-.001l29.698-29.703c1.712-1.712 3.988-2.655 6.409-2.655s4.697.943 6.409 2.655c3.535 3.535 3.535 9.288 0 12.823l-149.079 149.101c-1.712 1.712-3.988 2.655-6.409 2.655s-4.697-.943-6.409-2.655c-3.535-3.535-3.535-9.288 0-12.823l97.54-97.554c2.929-2.929 2.929-7.678-.001-10.606s-7.677-2.929-10.606.001l-97.54 97.554c-9.382 9.383-9.382 24.651 0 34.034 4.544 4.545 10.588 7.049 17.016 7.049z"/></g></g></svg>