<svg id="Capa_1" enable-background="new 0 0 512 512" height="512" viewBox="0 0 512 512" width="512" xmlns="http://www.w3.org/2000/svg"><g><g><path d="m322.266 40.634c0-18.299-14.834-33.133-33.133-33.133h-231.933c-18.299 0-33.133 14.834-33.133 33.133v430.733c0 18.299 14.834 33.133 33.133 33.133h231.933c18.299 0 33.133-14.834 33.133-33.133z" fill="#c8c5c9"/><path d="m222.867 318.26v-227.108c0-27.254-21.6-50.056-48.85-50.511-27.838-.465-50.55 21.962-50.55 49.693v227.925c0 2.484-1.127 4.822-3.041 6.405-18.603 15.378-30.377 38.724-30.087 64.812.493 44.355 36.486 80.824 80.831 81.868 46.66 1.098 84.83-36.399 84.83-82.81 0-25.71-11.716-48.681-30.097-63.875-1.913-1.58-3.036-3.918-3.036-6.399z" fill="#ecf4ff"/><path d="m189.733 336.153v-204.403c0-4.575-3.708-8.283-8.283-8.283h-16.567c-4.575 0-8.283 3.709-8.283 8.283v204.354c0 3.178-1.781 6.128-4.653 7.486-17.626 8.335-29.567 26.723-28.402 47.769 1.405 25.389 22.216 45.84 47.624 46.835 28.358 1.111 51.698-21.549 51.698-49.661 0-19.804-11.587-36.894-28.348-44.881-2.906-1.384-4.786-4.281-4.786-7.499z" fill="#ff8086"/><circle cx="272.566" cy="272.567" fill="#ecf4ff" r="16.567"/><path d="m322.266 40.634c0-18.299-14.834-33.133-33.134-33.133h-23c18.299 0 33.133 14.834 33.133 33.133v430.733c0 18.299-14.834 33.133-33.133 33.133h23c18.299 0 33.133-14.834 33.133-33.133z" fill="#b6b1b7"/><g><circle cx="388.533" cy="156.6" fill="#ebb560" r="99.4"/><path d="m388.533 57.2c-3.89 0-7.726.231-11.5.666 49.479 5.701 87.9 47.727 87.9 98.734s-38.421 93.033-87.9 98.734c3.774.435 7.61.666 11.5.666 54.897 0 99.4-44.503 99.4-99.4s-44.503-99.4-99.4-99.4z" fill="#e69a5e"/><g><circle cx="388.533" cy="156.6" fill="#ffe07d" r="16.567"/></g></g><path d="m225.903 324.659c-1.913-1.581-3.036-3.918-3.036-6.4v-227.107c0-27.254-21.6-50.056-48.85-50.511-4.288-.071-8.452.404-12.432 1.354 22.043 5.3 38.249 25.552 38.249 49.157v227.108c0 2.481 1.124 4.819 3.036 6.4 18.381 15.193 30.097 38.165 30.097 63.875 0 41.821-30.997 76.389-71.267 82.017 3.108.435 6.264.717 9.47.793 46.66 1.097 84.83-36.4 84.83-82.811 0-25.71-11.716-48.681-30.097-63.875z" fill="#ddeafb"/><path d="m194.518 343.653c-2.906-1.384-4.785-4.281-4.785-7.5v-204.403c0-4.575-3.709-8.283-8.283-8.283h-16.567c-1.141 0-2.228.231-3.217.648 2.977 1.256 5.067 4.201 5.067 7.635v204.402c0 3.219 1.879 6.116 4.785 7.5 16.761 7.987 28.348 25.077 28.348 44.881 0 23.487-16.296 43.156-38.194 48.349 3.07.734 6.245 1.185 9.497 1.312 28.358 1.111 51.698-21.549 51.698-49.661 0-19.803-11.587-36.893-28.349-44.88z" fill="#e5646e"/></g><g><path d="m170.993 478.842c.734.017 1.465.026 2.197.026 23.737-.001 46.069-9.081 63.091-25.707 17.552-17.144 27.218-40.095 27.218-64.626 0-27.028-11.962-52.417-32.818-69.655-.2-.165-.315-.391-.315-.619v-227.109c0-31.469-25.222-57.492-56.225-58.01-15.45-.246-30.059 5.569-41.081 16.407-11.023 10.841-17.094 25.325-17.094 40.785v51.267c0 4.142 3.358 7.5 7.5 7.5s7.5-3.358 7.5-7.5v-51.267c0-11.405 4.479-22.092 12.612-30.09 8.131-7.996 18.941-12.286 30.312-12.104 22.87.382 41.476 19.677 41.476 43.012v227.108c0 4.716 2.099 9.156 5.758 12.181 17.397 14.379 27.375 35.554 27.375 58.094 0 20.458-8.062 39.599-22.699 53.896-14.632 14.292-33.96 21.912-54.455 21.415-40.086-.943-73.062-34.343-73.508-74.453-.254-22.875 9.72-44.361 27.366-58.948 3.663-3.027 5.763-7.469 5.763-12.186v-146.659c0-4.142-3.358-7.5-7.5-7.5s-7.5 3.358-7.5 7.5v146.659c0 .229-.117.456-.32.625-21.155 17.488-33.113 43.249-32.808 70.676.26 23.407 9.542 45.554 26.133 62.361 16.596 16.809 38.622 26.37 62.022 26.921z"/><path d="m181.45 115.967h-16.567c-8.703 0-15.783 7.081-15.783 15.784v204.354c0 .311-.151.608-.359.706-21.15 10.001-33.979 31.576-32.684 54.964 1.61 29.091 25.689 52.774 54.819 53.915.776.03 1.548.045 2.32.045 14.864 0 28.855-5.621 39.614-15.966 11.322-10.887 17.557-25.531 17.557-41.234 0-21.935-12.805-42.21-32.622-51.652-.315-.15-.512-.43-.512-.729v-204.403c0-8.704-7.08-15.784-15.783-15.784zm33.916 272.567c0 11.585-4.601 22.389-12.954 30.422-8.349 8.028-19.337 12.204-30.95 11.744-21.483-.842-39.242-18.305-40.429-39.756-.956-17.267 8.511-33.194 24.119-40.574 5.436-2.57 8.947-8.17 8.947-14.267v-204.352c0-.432.352-.784.783-.784h16.567c.432 0 .783.352.783.784v204.402c0 6.046 3.556 11.648 9.059 14.271 14.626 6.968 24.075 21.927 24.075 38.11z"/><path d="m57.199 97.834h33.133c4.142 0 7.5-3.358 7.5-7.5s-3.358-7.5-7.5-7.5h-33.133c-4.142 0-7.5 3.358-7.5 7.5s3.358 7.5 7.5 7.5z"/><path d="m57.199 197.234h33.133c4.142 0 7.5-3.358 7.5-7.5s-3.358-7.5-7.5-7.5h-33.133c-4.142 0-7.5 3.358-7.5 7.5s3.358 7.5 7.5 7.5z"/><path d="m57.199 130.967h16.566c4.142 0 7.5-3.358 7.5-7.5s-3.358-7.5-7.5-7.5h-16.566c-4.142 0-7.5 3.358-7.5 7.5s3.358 7.5 7.5 7.5z"/><path d="m57.199 164.101h16.566c4.142 0 7.5-3.358 7.5-7.5s-3.358-7.5-7.5-7.5h-16.566c-4.142 0-7.5 3.358-7.5 7.5s3.358 7.5 7.5 7.5z"/><path d="m57.199 296.634h33.133c4.142 0 7.5-3.358 7.5-7.5s-3.358-7.5-7.5-7.5h-33.133c-4.142 0-7.5 3.358-7.5 7.5s3.358 7.5 7.5 7.5z"/><path d="m57.199 230.367h16.566c4.142 0 7.5-3.358 7.5-7.5s-3.358-7.5-7.5-7.5h-16.566c-4.142 0-7.5 3.358-7.5 7.5s3.358 7.5 7.5 7.5z"/><path d="m57.199 263.5h16.566c4.142 0 7.5-3.358 7.5-7.5s-3.358-7.5-7.5-7.5h-16.566c-4.142 0-7.5 3.358-7.5 7.5s3.358 7.5 7.5 7.5z"/><path d="m388.533 132.534c-13.271 0-24.067 10.796-24.067 24.067 0 13.27 10.796 24.066 24.067 24.066 13.27 0 24.066-10.796 24.066-24.066.001-13.271-10.796-24.067-24.066-24.067zm0 33.133c-5 0-9.067-4.067-9.067-9.066s4.067-9.067 9.067-9.067c4.999 0 9.066 4.067 9.066 9.067.001 4.999-4.067 9.066-9.066 9.066z"/><path d="m388.533 114.4c4.142 0 7.5-3.358 7.5-7.5v-16.566c0-4.142-3.358-7.5-7.5-7.5s-7.5 3.358-7.5 7.5v16.566c0 4.143 3.358 7.5 7.5 7.5z"/><path d="m346.979 104.439c-2.929-2.929-7.678-2.929-10.606 0-2.929 2.929-2.929 7.678 0 10.606l11.714 11.714c1.464 1.464 3.384 2.197 5.303 2.197s3.839-.732 5.303-2.197c2.929-2.929 2.929-7.678 0-10.606z"/><path d="m346.333 156.601c0-4.142-3.358-7.5-7.5-7.5h-16.567c-4.142 0-7.5 3.358-7.5 7.5s3.358 7.5 7.5 7.5h16.567c4.142 0 7.5-3.358 7.5-7.5z"/><path d="m348.087 186.44-11.714 11.714c-2.929 2.929-2.929 7.678 0 10.606 1.464 1.464 3.384 2.197 5.303 2.197s3.839-.732 5.303-2.197l11.714-11.714c2.929-2.929 2.929-7.678 0-10.607-2.929-2.927-7.678-2.927-10.606.001z"/><path d="m388.533 198.8c-4.142 0-7.5 3.358-7.5 7.5v16.567c0 4.142 3.358 7.5 7.5 7.5s7.5-3.358 7.5-7.5v-16.567c0-4.142-3.357-7.5-7.5-7.5z"/><path d="m428.98 186.44c-2.929-2.929-7.678-2.929-10.607 0s-2.929 7.678 0 10.607l11.714 11.714c1.464 1.464 3.384 2.197 5.303 2.197s3.839-.732 5.303-2.197c2.929-2.929 2.929-7.678 0-10.606z"/><path d="m454.8 149.101h-16.567c-4.142 0-7.5 3.358-7.5 7.5s3.358 7.5 7.5 7.5h16.567c4.142 0 7.5-3.358 7.5-7.5s-3.358-7.5-7.5-7.5z"/><path d="m423.677 128.957c1.919 0 3.839-.732 5.303-2.197l11.714-11.714c2.929-2.929 2.929-7.678 0-10.606-2.929-2.929-7.678-2.929-10.606 0l-11.714 11.714c-2.929 2.929-2.929 7.678 0 10.606 1.464 1.465 3.383 2.197 5.303 2.197z"/><path d="m388.533 49.7c-21.693 0-41.893 6.501-58.767 17.649v-26.715c0-22.406-18.228-40.634-40.633-40.634h-231.933c-22.405 0-40.633 18.228-40.633 40.634v430.733c0 22.405 18.228 40.633 40.633 40.633h18.133c4.142 0 7.5-3.358 7.5-7.5s-3.358-7.5-7.5-7.5h-18.133c-14.134 0-25.633-11.499-25.633-25.633v-430.733c0-14.135 11.499-25.634 25.633-25.634h231.933c14.134 0 25.633 11.499 25.633 25.634v38.666c-20.403 19.479-33.133 46.931-33.133 77.3s12.73 57.82 33.133 77.3v237.466c0 14.134-11.499 25.633-25.633 25.633h-183.8c-4.142 0-7.5 3.358-7.5 7.5s3.358 7.5 7.5 7.5h183.8c22.405 0 40.633-18.228 40.633-40.633v-225.514c16.874 11.148 37.074 17.649 58.767 17.649 58.945 0 106.9-47.955 106.9-106.9 0-58.946-47.955-106.901-106.9-106.901zm0 198.801c-50.674 0-91.9-41.226-91.9-91.9s41.227-91.9 91.9-91.9 91.9 41.227 91.9 91.9-41.226 91.9-91.9 91.9z"/><path d="m296.633 272.567c0-13.271-10.796-24.067-24.066-24.067-13.271 0-24.067 10.796-24.067 24.067 0 13.27 10.796 24.066 24.067 24.066 13.27.001 24.066-10.796 24.066-24.066zm-33.133 0c0-5 4.067-9.067 9.067-9.067 4.999 0 9.066 4.067 9.066 9.067 0 4.999-4.067 9.066-9.066 9.066-5 .001-9.067-4.067-9.067-9.066z"/></g></g></svg>