<svg id="Capa_1" enable-background="new 0 0 512 512" height="512" viewBox="0 0 512 512" width="512" xmlns="http://www.w3.org/2000/svg"><g><g><path d="m297.417 140.033c-23.8 0-42.897-20.421-41.18-44.563 1.41-19.817 17.108-36.027 36.872-38.05 2.782-.285 5.513-.289 8.171-.041 3.628.338 6.974-1.954 8.161-5.398 8.925-25.883 33.481-44.481 62.396-44.481 21.694 0 40.935 10.471 52.965 26.631 3.067 4.12 7.852 6.537 12.988 6.504.104-.001.209-.001.314-.001 27.731 0 50.158 22.712 49.693 50.549-.455 27.251-23.256 48.851-50.511 48.851h-139.869z" fill="#ddeafb"/><path d="m438.104 40.633c-.105 0-.209 0-.314.001-5.136.034-9.921-2.384-12.988-6.504-12.03-16.159-31.271-26.63-52.965-26.63-3.918 0-7.751.353-11.481 1.007 16.908 2.978 31.595 12.392 41.445 25.623 3.067 4.12 7.852 6.537 12.988 6.504.104-.001.209-.001.314-.001 27.731 0 50.158 22.712 49.693 50.549-.455 27.251-23.256 48.851-50.511 48.851h23c27.255 0 50.056-21.6 50.511-48.851.466-27.837-21.961-50.549-49.692-50.549z" fill="#bed8fb"/><g><g><path d="m438.233 173.167h-.023c-1.221 0-2.271-.821-2.613-1.993-8.026-27.564-33.476-47.707-63.631-47.707-11.275 0-21.887 2.825-31.179 7.795-3.642 1.948-8.163.93-10.478-2.49-8.934-13.196-24.04-21.872-41.176-21.872-4.008 0-7.903.477-11.635 1.374-4.043.972-8.218-1.2-9.524-5.148-12.002-36.299-46.202-62.492-86.524-62.492-50.322 0-91.117 40.794-91.117 91.117 0 1.143.029 2.278.077 3.409.047 1.119-.32 2.217-1.009 3.1l-.071.091c-.863 1.106-2.17 1.758-3.571 1.835-44.09 2.402-79.009 39.258-78.247 84.123.771 45.352 38.501 81.391 83.861 81.391h345.872c36.419 0 66.776-28.971 67.249-65.387.48-37.001-29.37-67.146-66.261-67.146z" fill="#ecf4ff"/><path d="m438.233 173.167h-.023c-1.221 0-2.271-.821-2.613-1.993-8.026-27.564-33.476-47.707-63.631-47.707-11.275 0-21.887 2.825-31.179 7.795-3.642 1.948-8.163.93-10.478-2.49-8.934-13.196-24.04-21.872-41.176-21.872-4.008 0-7.903.477-11.635 1.374-4.043.972-8.218-1.2-9.524-5.148-12.002-36.299-46.202-62.492-86.524-62.492-50.322 0-91.117 40.794-91.117 91.117 0 1.143.029 2.278.077 3.409.047 1.119-.32 2.217-1.009 3.1l-.071.091c-.863 1.106-2.17 1.758-3.571 1.835-44.09 2.402-79.009 39.258-78.247 84.123.771 45.352 38.501 81.391 83.861 81.391h345.872c36.419 0 66.776-28.971 67.249-65.387.48-37.001-29.37-67.146-66.261-67.146z" fill="#ecf4ff"/><path d="m438.233 173.167h-.023c-1.22 0-2.271-.821-2.613-1.993-8.026-27.564-33.476-47.707-63.631-47.707-3.921 0-7.759.349-11.492 1.004 24.976 4.374 45.142 22.728 52.123 46.703.341 1.172 1.392 1.993 2.613 1.993h.023c36.891 0 66.741 30.145 66.261 67.146-.472 36.417-30.829 65.387-67.249 65.387h23c36.419 0 66.776-28.97 67.249-65.387.48-37.001-29.37-67.146-66.261-67.146z" fill="#ddeafb"/></g></g><g><path d="m371.984 371.967c0-18.299 14.834-33.133 33.133-33.133h24.85c4.575 0 8.283 3.709 8.283 8.283v24.85c0 18.299-14.834 33.133-33.133 33.133h-33.133z" fill="#b3e59f"/><path d="m429.968 338.833h-23c4.575 0 8.284 3.709 8.284 8.283v24.85c0 18.299-14.834 33.133-33.133 33.133h23c18.299 0 33.133-14.834 33.133-33.133v-24.85c-.001-4.574-3.709-8.283-8.284-8.283z" fill="#95d6a4"/></g></g><g><path d="m90.334 313.2h16.1c4.142 0 7.5-3.358 7.5-7.5s-3.358-7.5-7.5-7.5h-16.1c-41.54 0-75.334-33.794-75.334-75.333 0-41.514 33.754-75.292 75.259-75.334.15.005.299.01.454.01h.002c41.363.208 74.952 33.913 74.952 75.324 0 4.142 3.358 7.5 7.5 7.5s7.5-3.358 7.5-7.5c0-47.276-36.506-86.18-82.808-90.017-.005-.365-.025-.737-.025-1.099 0-16.966 5.05-33.297 14.605-47.23 2.343-3.416 1.473-8.084-1.943-10.427-3.415-2.344-8.084-1.473-10.427 1.943-11.275 16.441-17.235 35.706-17.235 55.713 0 .363.002.726.006 1.091-46.318 3.822-82.84 42.739-82.84 90.026 0 49.81 40.523 90.333 90.334 90.333z"/><path d="m441.747 165.749c-2.254-6.581-5.392-12.694-9.252-18.227l5.738.012c31.54 0 57.2-25.66 57.2-57.2 0-31.541-25.66-57.2-57.2-57.2-1.56 0-3.135.067-4.716.2-13.518-20.684-36.654-33.334-61.55-33.334-31.955 0-59.655 20.206-69.633 49.935-1.589-.156-3.188-.234-4.788-.234-15.73 0-30.362 7.718-39.42 20.067-4.452-5.512-9.5-10.563-15.071-15.026-17.395-13.934-39.273-21.608-61.605-21.608-21.49 0-41.916 6.792-59.07 19.642-3.315 2.483-3.989 7.184-1.506 10.499s7.184 3.989 10.499 1.506c14.539-10.891 31.855-16.647 50.077-16.647 36.937 0 68.923 23.782 79.77 58.52-17.757 9.918-29.287 28.845-29.287 49.947 0 4.142 3.358 7.5 7.5 7.5s7.5-3.358 7.5-7.5c0-17.242 10.43-32.513 25.978-38.968.025-.01.05-.016.075-.026 5.129-2.127 10.562-3.206 16.147-3.206 16.236 0 31.217 9.494 38.167 24.185.944 1.997 2.72 3.475 4.854 4.042 2.134.566 4.409.164 6.22-1.1 9.893-6.909 21.509-10.561 33.593-10.561 26.855 0 50.264 18.141 56.926 44.116.871 3.401 3.982 5.735 7.497 5.633 0 0 1.399-.049 1.843-.049 32.404 0 58.767 26.363 58.767 58.767s-26.363 58.767-58.767 58.767-58.767-26.363-58.767-58.767c0-4.142-3.358-7.5-7.5-7.5s-7.5 3.358-7.5 7.5c0 23.962 11.491 45.284 29.244 58.767h-257.276c-4.142 0-7.5 3.358-7.5 7.5s3.358 7.5 7.5 7.5h301.799c40.675 0 73.767-33.092 73.767-73.767 0-39.499-31.202-71.846-70.253-73.685zm-104.999-40.833c-10.507-15.722-28.413-25.516-47.615-25.516-4.739 0-9.4.574-13.931 1.712-2.021-6.166-4.668-12.108-7.854-17.749 5.676-11.281 17.403-18.663 30.198-18.663 2.81 0 5.607.348 8.316 1.033 1.951.494 4.02.182 5.74-.865s2.946-2.742 3.403-4.703c6.203-26.592 29.627-45.165 56.962-45.165 17.902 0 34.661 8.222 45.668 21.953-21.732 8.336-36.602 29.296-36.602 53.38 0 4.142 3.358 7.5 7.5 7.5s7.5-3.358 7.5-7.5c0-20.558 14.67-38.04 34.883-41.569 2.452-.428 4.919-.631 7.317-.631 23.269 0 42.2 18.931 42.2 42.2s-18.931 42.2-42.185 42.2l-19.733-.04c-12.816-10.412-29.099-16.526-46.548-16.526-12.42 0-24.448 3.074-35.219 8.949z"/><path d="m263.5 371.967c0-22.405-18.228-40.633-40.633-40.633s-40.633 18.228-40.633 40.633c0 4.142 3.358 7.5 7.5 7.5s7.5-3.358 7.5-7.5c0-14.134 11.499-25.633 25.633-25.633s25.633 11.499 25.633 25.633-11.499 25.633-25.633 25.633h-215.365c-4.142 0-7.5 3.358-7.5 7.5s3.358 7.5 7.5 7.5h215.365c22.405 0 40.633-18.228 40.633-40.633z"/><path d="m239.433 265.067h-99.4c-4.142 0-7.5 3.358-7.5 7.5s3.358 7.5 7.5 7.5h99.4c22.406 0 40.634-18.228 40.634-40.634 0-22.405-18.228-40.633-40.634-40.633-22.405 0-40.633 18.228-40.633 40.633 0 4.142 3.358 7.5 7.5 7.5s7.5-3.358 7.5-7.5c0-14.134 11.499-25.633 25.633-25.633s25.634 11.499 25.634 25.633c0 14.135-11.5 25.634-25.634 25.634z"/><path d="m289.133 430.733h-215.365c-4.142 0-7.5 3.358-7.5 7.5s3.358 7.5 7.5 7.5h215.365c14.134 0 25.633 11.499 25.633 25.633s-11.498 25.634-25.633 25.634-25.633-11.499-25.633-25.633c0-4.142-3.358-7.5-7.5-7.5s-7.5 3.358-7.5 7.5c0 22.405 18.228 40.633 40.633 40.633s40.633-18.228 40.633-40.633-18.227-40.634-40.633-40.634z"/><path d="m429.95 331.333h-24.85c-22.405 0-40.633 18.228-40.633 40.633v30.027l-14.37 14.37c-2.929 2.929-2.929 7.678 0 10.606 1.464 1.465 3.384 2.197 5.303 2.197s3.839-.732 5.303-2.197l14.37-14.37h30.027c22.405 0 40.633-18.228 40.633-40.633v-24.85c0-8.702-7.08-15.783-15.783-15.783zm.783 40.634c0 14.134-11.499 25.633-25.633 25.633h-15.027l20.33-20.33c2.929-2.929 2.929-7.678 0-10.606-2.928-2.929-7.677-2.929-10.606 0l-20.33 20.33v-15.027c0-14.134 11.499-25.633 25.633-25.633h24.85c.432 0 .783.352.783.783z"/></g></g></svg>