<svg id="Capa_1" enable-background="new 0 0 512 512" height="512" viewBox="0 0 512 512" width="512" xmlns="http://www.w3.org/2000/svg"><g><g><path d="m495.164 504.5c7.719 0 12.092-8.848 7.402-14.979l-101.345-132.529h-272.721v147.508z" fill="#966a5b"/><path d="m502.567 489.521-101.346-132.529h-23l101.345 132.528c4.689 6.132.317 14.98-7.403 14.98h23c7.72 0 12.093-8.848 7.404-14.979z" fill="#785353"/><path d="m374.613 322.198c26.218-1.376 47.053-23.07 47.053-49.631 0-20.694-12.653-38.425-30.641-45.902-1.524-.634-2.494-2.119-2.493-3.77 0 0 0-.019 0-.028 0-36.598-29.669-66.267-66.267-66.267-12.618 0-24.411 3.529-34.449 9.651-2.961 1.806-6.817 1.467-9.367-.883-5.903-5.442-13.788-8.767-22.45-8.767-16.886 0-30.822 12.633-32.873 28.963l-12.282 12.282 141.106 141.104z" fill="#ecf4ff"/><path d="m391.026 226.665c-1.524-.634-2.494-2.119-2.493-3.77 0-.009 0-.019 0-.028 0-36.598-29.669-66.267-66.267-66.267-3.942 0-7.804.344-11.557 1.005 31.141 5.424 54.824 32.569 54.824 65.262v.028c-.001 1.651.968 3.136 2.493 3.77 17.988 7.477 30.641 25.207 30.641 45.902 0 26.561-20.835 48.255-47.053 49.631l-9.439 6.977 9.775 9.775 22.663-16.753c26.218-1.376 47.053-23.07 47.053-49.631.001-20.694-12.652-38.424-30.64-45.901z" fill="#ddeafb"/><path d="m214.583 504.5c18.299 0 33.133-14.834 33.133-33.133s-14.834-33.133-33.133-33.133h-41.417c-18.299 0-33.133-14.834-33.133-33.133s14.834-33.133 33.133-33.133l239.502-.005-109.04-142.593c-3.134-4.099-8-6.503-13.16-6.503h-41.513l-144.159-208.23c-3.094-4.47-8.185-7.137-13.621-7.137h-75.392c-4.575 0-8.283 3.709-8.283 8.283v472.15c0 9.15 7.417 16.567 16.567 16.567z" fill="#ecf4ff"/><g fill="#ddeafb"><path d="m280.544 229.37 109.041 142.592-239.502.005c-18.299 0-33.133 14.834-33.133 33.133s14.834 33.133 33.133 33.133h23.083c-18.299 0-33.133-14.835-33.133-33.133 0-18.299 14.834-33.133 33.133-33.133l239.502-.005-109.04-142.592c-3.134-4.099-8-6.503-13.16-6.503h-23.083c5.16 0 10.025 2.404 13.159 6.503z"/><path d="m214.583 438.234h-23.083c18.299 0 33.133 14.834 33.133 33.133s-14.834 33.133-33.133 33.133h23.083c18.299 0 33.133-14.834 33.133-33.133s-14.834-33.133-33.133-33.133z"/><path d="m81.712 14.637 144.159 208.23h23.083l-144.158-208.23c-3.094-4.47-8.185-7.137-13.621-7.137h-23.084c5.437 0 10.527 2.667 13.621 7.137z"/></g><g fill="#ecf4ff"><ellipse cx="438.233" cy="173.167" rx="16.567" ry="16.567" transform="matrix(.707 -.707 .707 .707 5.908 360.597)"/><circle cx="338.833" cy="106.9" r="16.567"/><path d="m487.466 40.634h-8.654c-3.935 0-7.325-2.77-8.108-6.626-3.07-15.124-16.441-26.508-32.471-26.508-16.386 0-29.994 11.895-32.66 27.521-.521 3.051-2.708 5.47-5.649 6.436-6.854 2.252-11.734 8.856-11.372 16.543.42 8.91 8.095 15.766 17.016 15.766h82.365c9.415 0 16.996-7.854 16.548-17.368-.419-8.909-8.095-15.764-17.015-15.764z"/></g><path d="m487.466 40.634h-8.654c-3.935 0-7.325-2.77-8.107-6.626-3.071-15.124-16.442-26.508-32.472-26.508-4.043 0-7.916.727-11.499 2.053 10.619 3.931 18.674 13.146 20.969 24.455.783 3.856 4.173 6.626 8.107 6.626h8.654c8.92 0 16.596 6.855 17.016 15.766.448 9.513-7.133 17.367-16.548 17.367h23c9.415 0 16.996-7.854 16.548-17.367-.419-8.911-8.094-15.766-17.014-15.766z" fill="#ddeafb"/><g><path d="m120.045 283.844-25.482-50.965c-1.743-3.485-6.716-3.485-8.459 0l-25.482 50.965c-1.572 3.144.714 6.843 4.229 6.843 3.148 0 5.418 3.02 4.542 6.044l-10.443 36.059c-.876 3.024 1.393 6.044 4.542 6.044h53.682c3.149 0 5.418-3.02 4.542-6.044l-10.442-36.059c-.876-3.024 1.393-6.044 4.542-6.044 3.515 0 5.801-3.699 4.229-6.843z" fill="#b3e59f"/><path d="m121.716 332.79-10.442-36.059c-.876-3.024 1.393-6.044 4.542-6.044 3.515 0 5.801-3.699 4.229-6.843l-25.483-50.965c-1.743-3.485-6.716-3.485-8.459 0l-7.271 14.541 18.212 36.424c1.572 3.144-.714 6.843-4.229 6.843-3.149 0-5.418 3.02-4.542 6.044l10.442 36.059c.876 3.025-1.393 6.044-4.542 6.044h23c3.15 0 5.419-3.02 4.543-6.044z" fill="#95d6a4"/></g><g><path d="m335.412 383.243-25.482-50.965c-1.743-3.485-6.716-3.485-8.459 0l-25.483 50.965c-1.572 3.144.714 6.843 4.229 6.843 3.149 0 5.418 3.02 4.542 6.044l-10.443 36.059c-.876 3.024 1.393 6.044 4.542 6.044h53.682c3.149 0 5.418-3.02 4.542-6.044l-10.443-36.059c-.876-3.024 1.393-6.044 4.542-6.044 3.517.001 5.803-3.698 4.231-6.843z" fill="#b3e59f"/><path d="m337.083 432.19-10.443-36.059c-.876-3.024 1.393-6.044 4.542-6.044 3.515 0 5.801-3.699 4.229-6.843l-25.483-50.965c-1.743-3.485-6.716-3.485-8.459 0l-7.269 14.541 18.212 36.423c1.572 3.144-.714 6.843-4.229 6.843-3.149 0-5.418 3.02-4.542 6.044l10.443 36.059c.876 3.025-1.393 6.044-4.542 6.044h23c3.148.001 5.417-3.019 4.541-6.043z" fill="#95d6a4"/></g></g><g><path d="m405.567 81.267h82.366c6.547 0 12.893-2.717 17.414-7.455 4.585-4.806 6.938-11.114 6.625-17.766-.605-12.848-11.37-22.912-24.507-22.912h-8.654c-.366 0-.684-.26-.757-.617-3.824-18.842-20.571-32.517-39.821-32.517-19.871 0-36.716 14.198-40.054 33.76-.061.36-.436.521-.596.573-10.235 3.362-17.03 13.24-16.524 24.021.607 12.848 11.372 22.913 24.508 22.913zm-3.301-32.684c5.621-1.846 9.722-6.56 10.701-12.3 2.103-12.332 12.729-21.283 25.266-21.283 12.146 0 22.71 8.621 25.12 20.499 1.485 7.321 7.986 12.635 15.458 12.635h8.654c5.027 0 9.3 3.866 9.523 8.618.118 2.514-.768 4.896-2.494 6.705-1.728 1.812-4.059 2.81-6.561 2.81h-82.366c-5.027 0-9.3-3.866-9.523-8.618-.191-4.071 2.367-7.799 6.222-9.066z"/><path d="m388.079 327.459c23.853-6.971 41.088-28.99 41.088-54.893 0-22.401-13.125-42.626-33.166-51.908-1.17-39.659-33.797-71.559-73.734-71.559-3.852 0-7.655.302-11.392.878l-48.711-70.36c-2.358-3.404-7.029-4.256-10.436-1.896-3.405 2.357-4.255 7.029-1.896 10.435l45.655 65.947c-4.08 1.592-8.027 3.549-11.798 5.874-7.457-6.982-17.227-10.878-27.69-10.878-1.213 0-2.415.058-3.604.163l-89.63-129.466c-2.357-3.404-7.028-4.257-10.436-1.896-3.405 2.357-4.255 7.029-1.896 10.435l86.8 125.378c-6.755 3.529-12.428 8.903-16.302 15.499l-109.969-158.845c-4.494-6.491-11.892-10.367-19.787-10.367h-75.392c-8.703 0-15.783 7.08-15.783 15.783v103.687c0 4.143 3.357 7.5 7.5 7.5s7.5-3.357 7.5-7.5v-103.687c0-.431.352-.783.783-.783h75.392c2.975 0 5.762 1.46 7.455 3.906l136.011 196.46h-.558c-9.898 0-18.669 5.938-22.346 15.129l-28.968 72.42c-1.538 3.846.333 8.21 4.179 9.749.913.365 1.855.538 2.783.538 2.976 0 5.793-1.784 6.966-4.717l28.968-72.42c1.385-3.462 4.69-5.699 8.418-5.699h14.872 41.513c2.805 0 5.498 1.331 7.202 3.56l99.826 130.541h-63.086l-17.772-35.543c-2.086-4.17-6.277-6.76-10.939-6.76-4.661.001-8.852 2.592-10.936 6.76l-17.771 35.543h-103.825c-22.405 0-40.634 18.228-40.634 40.633s18.229 40.634 40.634 40.634h41.416c14.135 0 25.634 11.499 25.634 25.633 0 14.135-11.499 25.634-25.634 25.634h-142.383c-4.143 0-7.5 3.357-7.5 7.5s3.357 7.5 7.5 7.5h422.964c6.445 0 12.224-3.59 15.078-9.368 2.856-5.778 2.197-12.548-1.718-17.667zm-97.611-112.093h-37.583l-21.826-31.527c2.683-11.421 12.96-19.74 24.942-19.74 5.727 0 11.122 1.858 15.525 5.228-.477.452-.952.91-1.42 1.378-2.929 2.93-2.929 7.678 0 10.607 2.93 2.928 7.678 2.928 10.607 0 1.979-1.979 4.071-3.775 6.246-5.412l-.01-.008v-.001c.021-.015.043-.027.063-.043 10.232-7.686 22.423-11.749 35.255-11.749 30.095 0 54.963 22.742 58.357 51.941-2.825-.433-5.713-.674-8.657-.674-4.143 0-7.5 3.357-7.5 7.5s3.357 7.5 7.5 7.5c4.713 0 9.243.788 13.479 2.22 0 0 .355.11.527.17 16.864 5.933 28.194 21.932 28.194 39.81 0 21.162-15.586 38.814-36.129 41.762l-68.453-89.515c-4.525-5.914-11.671-9.447-19.117-9.447zm15.232 125.224 21.353 42.704c-2.219.79-4.178 2.22-5.646 4.175-2.331 3.103-3.049 7.021-1.97 10.747l9.417 32.518h-46.307l9.417-32.52c1.079-3.728.36-7.645-1.972-10.746-1.469-1.954-3.427-3.384-5.645-4.174zm191.095 155.398c-.228.462-.696 1.013-1.631 1.013h-249.082c5.706-6.998 9.135-15.922 9.135-25.634 0-22.405-18.229-40.633-40.634-40.633h-41.416c-14.135 0-25.634-11.499-25.634-25.634 0-14.134 11.499-25.633 25.634-25.633h96.324l-.211.422c-1.909 3.819-1.71 8.267.535 11.898 1.603 2.594 4.044 4.44 6.863 5.284l-9.565 33.031c-1.08 3.729-.361 7.647 1.97 10.749 2.332 3.103 5.895 4.882 9.775 4.882h19.342v18.133h-9.066c-4.143 0-7.5 3.357-7.5 7.5s3.357 7.5 7.5 7.5h33.133c4.143 0 7.5-3.357 7.5-7.5s-3.357-7.5-7.5-7.5h-9.067v-18.133h19.341c3.881 0 7.444-1.779 9.776-4.883 2.331-3.103 3.049-7.02 1.97-10.747l-9.565-33.032c2.818-.844 5.259-2.69 6.862-5.282 2.244-3.632 2.445-8.079.537-11.898l-.001-.002-.211-.422h67.057l87.643 114.61c.567.742.414 1.449.186 1.911z"/><path d="m42.199 497h-18.133c-4.999 0-9.066-4.067-9.066-9.066v-338.321c0-4.143-3.357-7.5-7.5-7.5s-7.5 3.357-7.5 7.5v338.321c0 13.27 10.796 24.066 24.066 24.066h18.133c4.143 0 7.5-3.357 7.5-7.5 0-4.142-3.357-7.5-7.5-7.5z"/><path d="m82.833 364.467h-9.066c-4.143 0-7.5 3.357-7.5 7.5s3.357 7.5 7.5 7.5h33.133c4.143 0 7.5-3.357 7.5-7.5s-3.357-7.5-7.5-7.5h-9.067v-18.134h19.342c3.88 0 7.442-1.779 9.774-4.881s3.051-7.02 1.972-10.749l-9.566-33.031c2.819-.845 5.262-2.692 6.864-5.286 2.244-3.631 2.443-8.079.534-11.896l-25.482-50.966c-2.084-4.169-6.275-6.759-10.937-6.759s-8.854 2.59-10.938 6.759l-25.484 50.966c-1.908 3.818-1.708 8.266.537 11.897 1.603 2.593 4.044 4.439 6.862 5.283l-9.565 33.031c-1.079 3.729-.361 7.646 1.97 10.748 2.332 3.103 5.896 4.883 9.776 4.883h19.341zm-8.206-76.397c-1.47-1.955-3.428-3.385-5.646-4.175l21.352-42.704 21.352 42.704c-2.218.79-4.175 2.219-5.644 4.173-2.332 3.102-3.051 7.02-1.972 10.749l9.418 32.517h-46.307l9.417-32.516c1.079-3.729.361-7.646-1.97-10.748z"/><path d="m414.167 173.167c0 13.27 10.796 24.066 24.066 24.066s24.066-10.796 24.066-24.066c0-13.271-10.796-24.067-24.066-24.067s-24.066 10.797-24.066 24.067zm33.133 0c0 4.999-4.067 9.066-9.066 9.066s-9.066-4.067-9.066-9.066c0-5 4.067-9.067 9.066-9.067s9.066 4.067 9.066 9.067z"/><path d="m338.833 130.967c13.27 0 24.067-10.796 24.067-24.066s-10.797-24.067-24.067-24.067c-13.271 0-24.066 10.797-24.066 24.067s10.795 24.066 24.066 24.066zm0-33.134c5 0 9.067 4.067 9.067 9.067 0 4.999-4.067 9.066-9.067 9.066-4.999 0-9.066-4.067-9.066-9.066s4.067-9.067 9.066-9.067z"/></g></g></svg>