<svg id="Capa_1" enable-background="new 0 0 512 512" height="512" viewBox="0 0 512 512" width="512" xmlns="http://www.w3.org/2000/svg"><g><g><path d="m423.737 69.625c17.445 0 31.532-14.381 31.051-31.935-.464-16.92-14.771-30.19-31.697-30.19h-301.02c-17.166 0-31.597 13.637-31.737 30.802-.104 12.72 7.44 23.687 18.309 28.588.517.233.857.737.857 1.304 0 .79-.641 1.431-1.431 1.431h-19.16c-16.926 0-31.233 13.27-31.697 30.19-.481 17.554 13.605 31.935 31.051 31.935h19.807c.79 0 1.431.641 1.431 1.431 0 .567-.34 1.071-.857 1.304-10.869 4.9-18.413 15.867-18.309 28.588.141 17.166 14.571 30.802 31.737 30.802h35.286c.84 0 1.521.681 1.521 1.521 0 .595-.353 1.124-.892 1.376-10.603 4.944-17.953 15.695-17.953 28.165 0 13.002 7.992 24.133 19.329 28.763.452.184.752.615.752 1.103 0 .661-.536 1.196-1.196 1.196h-36.876c-16.926 0-31.233 13.27-31.697 30.19-.481 17.554 13.605 31.935 31.051 31.935h70.488c.679 0 1.23.551 1.23 1.23 0 .5-.306.941-.768 1.133-11.257 4.666-19.179 15.755-19.179 28.7s7.922 24.034 19.179 28.7c.462.191.768.633.768 1.133 0 .679-.551 1.23-1.23 1.23h-20.142c-16.926 0-31.233 13.27-31.697 30.19-.481 17.554 13.605 31.935 31.05 31.935h46.428c.595 0 1.077.482 1.077 1.077 0 .446-.278.838-.694.998-11.906 4.592-20.274 16.303-19.876 29.917.493 16.9 14.805 30.133 31.712 30.133h52.497c17.037 0 31.418-13.429 31.739-30.463.259-13.732-8.399-25.471-20.569-29.837-.375-.134-.628-.483-.628-.881 0-.521.423-.944.944-.944h13.359c17.074 0 31.474-13.486 31.745-30.558.219-13.768-8.525-25.519-20.775-29.816-.362-.127-.607-.462-.607-.846 0-.5.405-.905.905-.905h38.472c16.926 0 31.233-13.27 31.697-30.19.481-17.554-13.605-31.935-31.051-31.935h-22.616c-.493 0-.894-.4-.894-.894 0-.38.243-.711.601-.836 12.131-4.228 20.838-15.761 20.838-29.333s-8.707-25.105-20.838-29.333c-.358-.125-.601-.457-.601-.836 0-.494.4-.894.894-.894h55.103c16.926 0 31.233-13.27 31.697-30.19.481-17.554-13.605-31.935-31.051-31.935h-7.096c-.67 0-1.214-.543-1.214-1.213 0-.537.357-1 .87-1.156 12.7-3.857 21.936-14.715 21.936-28.693 0-13.223-8.264-24.512-19.907-28.994-.415-.16-.693-.551-.693-.995 0-.593.48-1.073 1.073-1.073h19.838c17.307 0 31.833-13.84 31.787-31.147-.037-13.957-9.261-24.76-21.935-28.608-.514-.156-.871-.62-.871-1.157 0-.67.543-1.213 1.213-1.213z" fill="#dad8db"/><g fill="#c8c5c9"><path d="m318.055 382.001c-.362-.127-.607-.463-.607-.846 0-.5.405-.905.905-.905h-23c-.5 0-.905.405-.905.905 0 .384.245.719.607.846 12.25 4.298 20.993 16.048 20.775 29.816-.271 17.072-14.671 30.558-31.745 30.558h-13.359c-.521 0-.944.423-.944.944 0 .398.253.747.628.881 12.17 4.366 20.828 16.105 20.57 29.837-.321 17.034-14.702 30.463-31.739 30.463h23c17.037 0 31.418-13.429 31.739-30.463.259-13.732-8.399-25.471-20.57-29.837-.375-.134-.628-.483-.628-.881 0-.521.423-.944.944-.944h13.359c17.074 0 31.474-13.486 31.745-30.558.218-13.768-8.526-25.518-20.775-29.816z"/><path d="m415.605 69.625h8.132c17.445 0 31.532-14.381 31.051-31.935-.464-16.92-14.771-30.19-31.697-30.19h-23c16.926 0 31.233 13.27 31.697 30.19.481 17.554-13.605 31.935-31.051 31.935h-8.132c-.67 0-1.213.543-1.213 1.213 0 .537.357 1.001.871 1.157 12.674 3.848 21.898 14.652 21.935 28.608.046 17.307-14.48 31.147-31.787 31.147h-19.838c-.592 0-1.073.48-1.073 1.073 0 .445.278.836.693.995 11.643 4.482 19.907 15.771 19.907 28.994 0 13.978-9.236 24.836-21.936 28.693-.513.156-.87.62-.87 1.156 0 .67.543 1.213 1.214 1.213h7.096c17.445 0 31.532 14.381 31.051 31.935-.464 16.921-14.771 30.191-31.697 30.191h23c16.926 0 31.233-13.27 31.697-30.19.481-17.554-13.605-31.935-31.051-31.935h-7.096c-.67 0-1.214-.543-1.214-1.213 0-.537.357-1 .87-1.156 12.7-3.857 21.936-14.715 21.936-28.693 0-13.223-8.264-24.512-19.907-28.994-.415-.16-.693-.551-.693-.995 0-.593.48-1.073 1.073-1.073h19.838c17.307 0 31.833-13.84 31.787-31.147-.037-13.957-9.261-24.76-21.935-28.608-.514-.156-.871-.62-.871-1.157 0-.671.543-1.214 1.213-1.214z"/><path d="m357.471 318.125h-22.616c-.493 0-.894-.4-.894-.894 0-.38.243-.711.601-.836 12.131-4.228 20.838-15.76 20.838-29.333 0-13.572-8.707-25.105-20.838-29.333-.358-.125-.601-.457-.601-.836 0-.494.4-.894.894-.894h-23c-.493 0-.894.4-.894.894 0 .38.243.711.601.836 12.131 4.228 20.838 15.76 20.838 29.333 0 13.572-8.707 25.105-20.838 29.333-.358.125-.601.457-.601.836 0 .494.4.894.894.894h22.616c17.445 0 31.532 14.381 31.051 31.935-.464 16.919-14.771 30.19-31.697 30.19h23c16.926 0 31.233-13.27 31.697-30.19.481-17.554-13.606-31.935-31.051-31.935z"/></g><g><path d="m405.1 421.667c0-18.299 14.834-33.133 33.133-33.133h24.85c4.575 0 8.283 3.709 8.283 8.283v24.85c0 18.299-14.834 33.133-33.133 33.133h-33.133z" fill="#b3e59f"/><path d="m463.083 388.533h-23c4.575 0 8.283 3.709 8.283 8.283v24.85c0 18.299-14.834 33.133-33.133 33.133h23c18.299 0 33.133-14.834 33.133-33.133v-24.85c.001-4.574-3.708-8.283-8.283-8.283z" fill="#95d6a4"/></g></g><g><path d="m471.366 244.358c-22.405 0-40.633 18.228-40.633 40.633 0 4.142 3.357 7.5 7.5 7.5s7.5-3.358 7.5-7.5c0-14.134 11.499-25.633 25.633-25.633 14.135 0 25.634 11.499 25.634 25.633s-11.499 25.633-25.634 25.633h-113.895-2.07-.555c5.048-6.52 8.055-14.697 8.055-23.562s-3.007-17.042-8.055-23.563h35.759c21.264 0 38.562-17.299 38.562-38.562 0-16.973-11.021-31.419-26.284-36.559 6.042-6.81 9.717-15.768 9.717-25.566 0-8.865-3.007-17.042-8.055-23.563h1.591 65.23c4.143 0 7.5-3.358 7.5-7.5s-3.357-7.5-7.5-7.5h-34.736c5.051-6.522 8.068-14.694 8.068-23.562 0-9.674-3.581-18.528-9.487-25.305 15.679-4.896 27.089-19.55 27.089-36.82 0-21.263-17.299-38.562-38.563-38.562h-252.136c-4.143 0-7.5 3.358-7.5 7.5s3.357 7.5 7.5 7.5h252.137c12.992 0 23.562 10.57 23.562 23.562s-10.57 23.562-23.562 23.562h-17.602-34.169c-4.143 0-7.5 3.358-7.5 7.5s3.357 7.5 7.5 7.5h34.169c12.992 0 23.562 10.57 23.562 23.563s-10.57 23.562-23.562 23.562h-32.099-151.171c-4.143 0-7.5 3.358-7.5 7.5s3.357 7.5 7.5 7.5h151.171c12.992 0 23.562 10.57 23.562 23.563 0 12.992-10.57 23.562-23.562 23.562h-18.637c-4.143 0-7.5 3.358-7.5 7.5s3.357 7.5 7.5 7.5h18.637 16.567c12.992 0 23.562 10.57 23.562 23.563 0 12.992-10.57 23.562-23.562 23.562h-66.267-68.337c-4.143 0-7.5 3.358-7.5 7.5s3.357 7.5 7.5 7.5h68.338c12.992 0 23.562 10.57 23.562 23.563 0 12.992-10.57 23.562-23.562 23.562h-18.638c-4.143 0-7.5 3.358-7.5 7.5s3.357 7.5 7.5 7.5h18.638 31.062 2.07c12.992 0 23.562 10.57 23.562 23.563 0 12.992-10.57 23.562-23.562 23.562h-49.7-18.637c-4.143 0-7.5 3.358-7.5 7.5s3.357 7.5 7.5 7.5h18.637c12.992 0 23.562 10.57 23.562 23.563 0 12.992-10.57 23.562-23.562 23.562h-24.85c-4.143 0-7.5 3.358-7.5 7.5s3.357 7.5 7.5 7.5c12.992 0 23.562 10.57 23.562 23.562s-10.57 23.562-23.562 23.562h-53.842c-12.992 0-23.562-10.57-23.562-23.562s10.57-23.562 23.562-23.562h26.922c4.143 0 7.5-3.358 7.5-7.5s-3.357-7.5-7.5-7.5h-26.921-57.983c-12.992 0-23.562-10.57-23.562-23.562s10.57-23.563 23.562-23.563h18.638 14.496 51.77c4.143 0 7.5-3.358 7.5-7.5s-3.357-7.5-7.5-7.5h-51.77c-12.992 0-23.562-10.57-23.562-23.562s10.57-23.563 23.562-23.563h51.77c4.143 0 7.5-3.358 7.5-7.5s-3.357-7.5-7.5-7.5h-51.77-82.834c-12.992 0-23.562-10.57-23.562-23.562s10.57-23.563 23.562-23.563h49.7 35.204c4.143 0 7.5-3.358 7.5-7.5s-3.357-7.5-7.5-7.5h-35.204c-12.992 0-23.562-10.57-23.562-23.562s10.57-23.563 23.562-23.563h134.604c4.143 0 7.5-3.358 7.5-7.5s-3.357-7.5-7.5-7.5h-134.604-49.7c-12.992 0-23.562-10.57-23.562-23.562s10.57-23.563 23.562-23.563h35.204c4.143 0 7.5-3.358 7.5-7.5s-3.357-7.5-7.5-7.5h-35.204-33.133c-12.992 0-23.562-10.57-23.562-23.562s10.57-23.563 23.562-23.563h33.133 184.304c4.143 0 7.5-3.358 7.5-7.5s-3.357-7.5-7.5-7.5h-184.304c-12.992 0-23.562-10.57-23.562-23.562-.001-12.992 10.569-23.562 23.562-23.562h20.204c4.143 0 7.5-3.358 7.5-7.5s-3.358-7.5-7.5-7.5h-20.204c-21.264 0-38.562 17.299-38.562 38.562 0 8.865 3.007 17.042 8.055 23.562h-2.625c-21.264 0-38.563 17.299-38.563 38.563s17.299 38.562 38.563 38.562h2.625c-5.048 6.521-8.055 14.697-8.055 23.563 0 21.263 17.299 38.562 38.562 38.562h19.192c-5.048 6.521-8.055 14.697-8.055 23.563 0 8.865 3.007 17.042 8.055 23.562h-19.192c-21.264 0-38.562 17.299-38.562 38.563 0 8.868 3.017 17.041 8.068 23.562h-17.135c-4.143 0-7.5 3.358-7.5 7.5s3.357 7.5 7.5 7.5h47.629 52.326c-5.048 6.521-8.055 14.697-8.055 23.563 0 8.865 3.007 17.042 8.055 23.562h-2.626-97.329c-22.405 0-40.633 18.228-40.633 40.633s18.228 40.633 40.633 40.633 40.634-18.228 40.634-40.633c0-4.142-3.357-7.5-7.5-7.5s-7.5 3.358-7.5 7.5c0 14.134-11.499 25.633-25.634 25.633-14.134 0-25.633-11.499-25.633-25.633s11.499-25.633 25.633-25.633h66.834c-5.051 6.522-8.068 14.694-8.068 23.563 0 21.263 17.299 38.562 38.562 38.562h27.476c-5.048 6.521-8.055 14.697-8.055 23.562 0 21.263 17.299 38.562 38.562 38.562h53.842c21.264 0 38.562-17.299 38.562-38.562 0-9.035-3.123-17.354-8.347-23.935 18.732-2.62 33.196-18.748 33.196-38.19 0-8.865-3.007-17.042-8.055-23.563h19.192c21.264 0 38.562-17.299 38.562-38.562 0-8.868-3.017-17.041-8.068-23.563h83.401c22.405 0 40.634-18.228 40.634-40.633.003-22.404-18.225-40.632-40.631-40.632z"/><path d="m48.134 318.125c0-4.142-3.357-7.5-7.5-7.5h-33.134c-4.143 0-7.5 3.358-7.5 7.5s3.357 7.5 7.5 7.5h33.134c4.142 0 7.5-3.358 7.5-7.5z"/><path d="m463.083 381.033h-24.85c-22.405 0-40.634 18.228-40.634 40.633v30.027l-14.37 14.37c-2.929 2.929-2.929 7.678 0 10.606 1.465 1.464 3.385 2.197 5.304 2.197s3.839-.732 5.304-2.197l14.37-14.37h30.026c22.405 0 40.633-18.228 40.633-40.633v-24.85c0-8.702-7.08-15.783-15.783-15.783zm.783 40.634c0 14.134-11.499 25.633-25.633 25.633h-15.026l20.33-20.33c2.929-2.929 2.929-7.678 0-10.606-2.93-2.929-7.678-2.929-10.607 0l-20.33 20.33v-15.027c0-14.134 11.499-25.633 25.634-25.633h24.85c.432 0 .783.352.783.784v24.849z"/></g></g></svg>