<svg id="Capa_1" enable-background="new 0 0 512 512" height="512" viewBox="0 0 512 512" width="512" xmlns="http://www.w3.org/2000/svg"><g><g><g><g><path d="m49.2 504.5h-17.133c-4.418 0-8-3.582-8-8v-379.66h33.133v379.66c0 4.418-3.582 8-8 8z" fill="#c8c5c9"/><path d="m34.2 116.84v379.66c0 3.382-2.101 6.267-5.067 7.438.909.359 1.897.562 2.933.562h17.134c4.418 0 8-3.582 8-8v-379.66z" fill="#b6b1b7"/><path d="m65.767 131.75h-50.267c-4.418 0-8-3.582-8-8v-33.7c0-4.418 3.582-8 8-8h50.267c4.418 0 8 3.582 8 8v33.7c0 4.418-3.582 8-8 8z" fill="#5c545f"/><path d="m65.767 82.05h-23c4.418 0 8 3.582 8 8v33.7c0 4.418-3.582 8-8 8h23c4.418 0 8-3.582 8-8v-33.7c0-4.418-3.582-8-8-8z" fill="#4b3f4e"/></g><g><path d="m490.831 54.772-37.764-6.708v117.669l37.763-6.706c7.908-1.404 13.67-8.279 13.67-16.312v-71.632c0-8.032-5.761-14.906-13.669-16.311z" fill="#ff8086"/><g fill="#ff8086"><path d="m307.433 22.197-75.221-13.361v196.119l75.221-13.359z"/><path d="m353.667 30.409v152.977l53.166-9.442v-134.091z"/></g><path d="m490.831 54.772-21.67-3.849c7.215 1.9 12.34 8.44 12.34 16.013v79.836c0 8.032-5.762 14.907-13.67 16.311l23-4.056c7.908-1.404 13.67-8.279 13.67-16.312v-71.632c-.001-8.032-5.762-14.906-13.67-16.311z" fill="#e5646e"/><path d="m355.4 30.717v152.361l-49.7 8.826v-170.015z" fill="#f8fbff"/><path d="m454.8 48.372v117.054l-49.7 8.826v-134.707z" fill="#f8fbff"/><path d="m189.733 173.167c0 18.299 14.834 33.133 33.133 33.133s33.133-14.834 33.133-33.133v-132.534c.001-18.299-14.833-33.133-33.132-33.133s-33.133 14.834-33.133 33.133v132.534z" fill="#e5646e"/></g></g><g><path d="m123.467 272.567c0-18.299 14.834-33.133 33.133-33.133h24.85c4.575 0 8.283 3.709 8.283 8.283v24.85c0 18.299-14.834 33.133-33.133 33.133h-33.133z" fill="#b3e59f"/><path d="m181.45 239.433h-23c4.575 0 8.283 3.709 8.283 8.283v24.85c0 18.299-14.834 33.133-33.133 33.133h23c18.299 0 33.133-14.834 33.133-33.133v-24.85c0-4.574-3.708-8.283-8.283-8.283z" fill="#95d6a4"/></g><g><path d="m438.233 355.4c0-18.299 14.834-33.133 33.133-33.133h24.85c4.575 0 8.283 3.708 8.283 8.283v24.85c0 18.299-14.834 33.133-33.133 33.133h-33.133z" fill="#b3e59f"/><path d="m496.217 322.267h-23c4.575 0 8.283 3.708 8.283 8.283v24.85c0 18.299-14.834 33.133-33.133 33.133h23c18.299 0 33.133-14.834 33.133-33.133v-24.85c0-4.575-3.709-8.283-8.283-8.283z" fill="#95d6a4"/></g></g><g><path d="m492.142 47.388-258.39-45.895c-3.467-.966-7.115-1.493-10.885-1.493-.033 0-.065.002-.098.002-.036 0-.071.002-.107.003-19.197.096-35.277 13.572-39.395 31.56l-79.142 67.835h-22.858v-9.35c0-8.547-6.953-15.5-15.5-15.5h-50.267c-8.547 0-15.5 6.953-15.5 15.5v33.7c0 8.547 6.953 15.5 15.5 15.5h1.067v234.283c0 4.142 3.358 7.5 7.5 7.5s7.5-3.358 7.5-7.5v-234.283h18.133v357.25c0 .276-.224.5-.5.5h-17.133c-.276 0-.5-.224-.5-.5v-92.967c0-4.142-3.358-7.5-7.5-7.5s-7.5 3.358-7.5 7.5v92.967c0 8.547 6.953 15.5 15.5 15.5h17.133c8.547 0 15.5-6.953 15.5-15.5v-357.25h1.066c8.547 0 15.5-6.953 15.5-15.5v-9.35h22.859l79.14 67.835c4.132 18.05 20.308 31.561 39.592 31.565h.005.001.003c3.8 0 7.476-.536 10.967-1.516l258.308-45.872c11.507-2.044 19.859-12.009 19.859-23.696v-71.632c0-11.687-8.352-21.652-19.858-23.696zm-425.875 76.362c0 .276-.224.5-.5.5h-50.267c-.276 0-.5-.224-.5-.5v-33.7c0-.276.224-.5.5-.5h50.267c.276 0 .5.224.5.5zm131 50.729c-.022-.435-.033-.872-.033-1.313v-58.766h51.266v58.767c0 13.25-10.106 24.184-23.014 25.501zm28.219-159.346c12.908 1.316 23.014 12.25 23.014 25.5v58.767h-51.267v-58.767c0-.44.011-.878.033-1.313zm-43.253 84.267h-55.059l55.059-47.194zm0 15v47.193l-55.059-47.193zm81.267 58.767v-132.534c0-7.067-1.817-13.716-5.003-19.511l39.703 7.052v157.444l-39.698 7.05c3.183-5.792 4.998-12.438 4.998-19.501zm49.7-142.328 34.7 6.163v139.791l-34.7 6.162zm49.7 8.827 34.7 6.163v122.137l-34.7 6.162zm49.7 8.828 34.7 6.163v104.484l-34.7 6.162zm84.4 94.222c0 4.403-3.147 8.157-7.481 8.927l-27.219 4.834v-99.156l27.219 4.835c4.334.77 7.481 4.525 7.481 8.927z"/><path d="m174.733 347.9h-51.267c-4.142 0-7.5 3.358-7.5 7.5s3.358 7.5 7.5 7.5h51.267c4.142 0 7.5-3.358 7.5-7.5s-3.358-7.5-7.5-7.5z"/><path d="m289.133 347.9h-84.4c-4.142 0-7.5 3.358-7.5 7.5s3.358 7.5 7.5 7.5h84.4c22.405 0 40.633-18.228 40.633-40.633s-18.228-40.633-40.633-40.633-40.633 18.228-40.633 40.633c0 4.142 3.358 7.5 7.5 7.5s7.5-3.358 7.5-7.5c0-14.134 11.499-25.633 25.633-25.633s25.633 11.499 25.633 25.633-11.498 25.633-25.633 25.633z"/><path d="m454.8 265.067h-99.4c-4.142 0-7.5 3.358-7.5 7.5s3.358 7.5 7.5 7.5h99.4c22.405 0 40.633-18.228 40.633-40.634 0-22.405-18.228-40.633-40.633-40.633s-40.633 18.228-40.633 40.633c0 4.142 3.358 7.5 7.5 7.5s7.5-3.358 7.5-7.5c0-14.134 11.499-25.633 25.633-25.633s25.633 11.499 25.633 25.633c0 14.135-11.499 25.634-25.633 25.634z"/><path d="m355.4 381.033h-165.667c-4.142 0-7.5 3.358-7.5 7.5s3.358 7.5 7.5 7.5h165.667c14.134 0 25.633 11.499 25.633 25.633s-11.499 25.634-25.633 25.634-25.633-11.499-25.633-25.633c0-4.142-3.358-7.5-7.5-7.5s-7.5 3.358-7.5 7.5c0 22.405 18.228 40.633 40.633 40.633s40.633-18.228 40.633-40.633-18.228-40.634-40.633-40.634z"/><path d="m156.6 313.2c22.405 0 40.633-18.228 40.633-40.633v-24.85c0-8.703-7.081-15.784-15.783-15.784h-24.85c-22.405 0-40.633 18.228-40.633 40.634v30.027l-14.37 14.37c-2.929 2.929-2.929 7.678 0 10.606 1.464 1.465 3.384 2.197 5.303 2.197s3.839-.732 5.303-2.197l14.37-14.37zm-25.633-40.633c0-14.134 11.499-25.634 25.633-25.634h24.85c.432 0 .783.352.783.784v24.85c0 14.134-11.499 25.633-25.633 25.633h-15.027l20.33-20.33c2.929-2.929 2.929-7.678 0-10.606-2.928-2.929-7.677-2.929-10.606 0l-20.33 20.33z"/><path d="m496.217 314.767h-24.85c-22.405 0-40.633 18.228-40.633 40.633v30.027l-14.37 14.37c-2.929 2.929-2.929 7.678 0 10.606 1.464 1.464 3.384 2.197 5.303 2.197s3.839-.732 5.303-2.197l14.37-14.37h30.027c22.405 0 40.633-18.228 40.633-40.633v-24.85c0-8.703-7.081-15.783-15.783-15.783zm.783 40.633c0 14.134-11.499 25.633-25.633 25.633h-15.027l20.33-20.33c2.929-2.929 2.929-7.678 0-10.606-2.929-2.929-7.678-2.929-10.606 0l-20.33 20.33v-15.027c0-14.134 11.499-25.633 25.633-25.633h24.85c.432 0 .783.352.783.783z"/></g></g></svg>