<svg id="Capa_1" enable-background="new 0 0 512 512" height="512" viewBox="0 0 512 512" width="512" xmlns="http://www.w3.org/2000/svg"><g><g><path d="m258.125 57.217c-.191-.002-.381-.01-.572-.012-109.841-.84-200.131 88.543-200.353 198.386-.169 83.937 51.688 155.771 125.122 185.093 3.658 1.46 7.903.246 10.022-3.074 3.11-4.873 8.694-8.009 14.988-7.628 7.44.451 13.764 6.02 15.217 13.331.135.678.225 1.348.274 2.01.295 3.989 3.208 7.264 7.174 7.783 8.51 1.115 17.189 1.695 26.003 1.695.71 0 1.416-.02 2.125-.027z" fill="#ffe07d"/><path d="m454.8 256c0-52.922-20.688-101.004-54.406-136.626-2.733-2.888-7.149-3.341-10.489-1.185-5.742 3.708-12.702 5.69-20.151 5.205-16.199-1.054-29.428-14.021-30.799-30.197-.302-3.564-.033-7.02.719-10.291.888-3.856-1.08-7.828-4.711-9.402-23.758-10.294-49.919-16.088-77.411-16.299-.519-.004-1.035.008-1.553.008v397.587c109.795 0 198.801-89.006 198.801-198.8z" fill="#c8c5c9"/><path d="m400.394 119.374c-2.733-2.888-7.149-3.341-10.489-1.185-2.942 1.899-6.205 3.342-9.688 4.236 32.045 35.294 51.583 82.149 51.583 133.575 0 105.901-82.809 192.449-187.205 198.455 3.776.215 7.575.345 11.405.345 109.794 0 198.8-89.006 198.8-198.8 0-52.922-20.688-101.004-54.406-136.626z" fill="#b6b1b7"/><circle cx="206.3" cy="231.15" fill="#ffd064" r="16.567"/><circle cx="173.167" cy="156.6" fill="#ebb560" r="33.133"/><circle cx="127.608" cy="251.858" fill="#ffd064" r="37.275"/><g fill="#b6b1b7"><path d="m311.963 73.505c3.631 1.573 5.598 5.545 4.711 9.402-.753 3.271-1.021 6.727-.719 10.291 1.37 16.175 14.599 29.143 30.798 30.197 4.851.316 9.493-.421 13.728-1.993-11.733-4.373-20.43-15.257-21.527-28.204-.302-3.564-.034-7.02.719-10.291.888-3.856-1.08-7.828-4.711-9.402-23.758-10.295-49.919-16.088-77.411-16.299-4.328-.033-8.621.09-12.884.333 23.798 1.378 46.471 6.942 67.296 15.966z"/><g><path d="m338.89 77.128c-.846-1.571-2.194-2.872-3.927-3.623-10.056-4.357-20.547-7.898-31.383-10.561l-47.58 38.064v42.432z"/><path d="m400.394 119.374c-2.733-2.888-7.149-3.341-10.489-1.185-5.742 3.708-12.702 5.69-20.151 5.205-2.036-.132-4.025-.454-5.95-.946l-107.804 86.243v42.432l152.815-122.252c-2.709-3.253-5.513-6.425-8.421-9.497z"/><path d="m436.288 172.145-180.288 144.23v42.432l192.195-153.756c-3.016-11.402-7.013-22.404-11.907-32.906z"/><path d="m256 424.058v30.742c5.163 0 10.279-.197 15.343-.584l174.721-139.777c4.815-15.678 7.74-32.181 8.517-49.245z"/></g></g></g><g><path d="m123.467 31.566h9.066v9.067c0 4.143 3.358 7.5 7.5 7.5s7.5-3.357 7.5-7.5v-9.067h9.067c4.142 0 7.5-3.357 7.5-7.5s-3.358-7.5-7.5-7.5h-9.067v-9.066c0-4.143-3.358-7.5-7.5-7.5s-7.5 3.357-7.5 7.5v9.066h-9.066c-4.142 0-7.5 3.357-7.5 7.5s3.358 7.5 7.5 7.5z"/><path d="m388.533 480.434h-9.066v-9.067c0-4.143-3.357-7.5-7.5-7.5s-7.5 3.357-7.5 7.5v9.067h-9.067c-4.143 0-7.5 3.357-7.5 7.5s3.357 7.5 7.5 7.5h9.066v9.066c0 4.143 3.357 7.5 7.5 7.5s7.5-3.357 7.5-7.5v-9.066h9.066c4.143 0 7.5-3.357 7.5-7.5s-3.356-7.5-7.499-7.5z"/><path d="m182.233 231.15c0 13.27 10.796 24.066 24.066 24.066 13.271 0 24.067-10.796 24.067-24.066 0-13.271-10.796-24.067-24.067-24.067-13.27 0-24.066 10.797-24.066 24.067zm24.067-9.067c4.999 0 9.067 4.067 9.067 9.067 0 4.999-4.067 9.066-9.067 9.066-4.999 0-9.066-4.067-9.066-9.066-.001-5 4.067-9.067 9.066-9.067z"/><path d="m173.166 115.967c-22.405 0-40.633 18.228-40.633 40.633s18.228 40.634 40.633 40.634 40.634-18.229 40.634-40.634-18.228-40.633-40.634-40.633zm0 66.266c-14.134 0-25.633-11.499-25.633-25.634 0-14.134 11.499-25.633 25.633-25.633s25.633 11.499 25.633 25.633c.001 14.135-11.498 25.634-25.633 25.634z"/><path d="m82.833 251.858c0 24.69 20.086 44.775 44.775 44.775 3.929 0 7.831-.511 11.597-1.519 4.001-1.07 6.377-5.183 5.306-9.184-1.071-4.002-5.184-6.377-9.184-5.307-2.501.669-5.098 1.009-7.719 1.009-16.418 0-29.775-13.357-29.775-29.775s13.357-29.775 29.775-29.775 29.775 13.357 29.775 29.775c0 4.977-1.25 9.897-3.613 14.231-1.984 3.637-.644 8.192 2.993 10.176 3.639 1.984 8.192.644 10.175-2.992 3.562-6.531 5.445-13.936 5.445-21.415 0-24.689-20.086-44.775-44.775-44.775s-44.775 20.087-44.775 44.776z"/><path d="m405.841 114.218c-5.19-5.482-13.603-6.464-20.005-2.329-4.635 2.993-10.027 4.387-15.597 4.021-12.516-.814-22.753-10.851-23.811-23.346-.229-2.7-.042-5.384.554-7.976 1.704-7.402-2.097-14.958-9.037-17.966-25.413-11.012-52.442-16.704-80.335-16.917-.525-.004-1.044-.006-1.569-.006-49.205 0-96.864 17.719-134.351 49.984-3.14 2.702-3.494 7.438-.792 10.577 2.703 3.14 7.438 3.494 10.577.792 32.846-28.272 74.091-44.497 117.025-46.2v382.284c-5.866-.229-11.735-.71-17.527-1.468-.482-.062-.649-.596-.671-.9-.072-.976-.206-1.958-.397-2.918-2.134-10.736-11.23-18.695-22.12-19.355-8.725-.524-17.064 3.716-21.764 11.079-.125.197-.523.302-.918.145-73.301-29.269-120.562-99.182-120.403-178.114.091-45.445 16.552-89.529 46.35-124.131 2.703-3.14 2.35-7.875-.789-10.578-3.139-2.702-7.875-2.349-10.577.789-32.134 37.315-49.885 84.865-49.984 133.891-.085 42.153 12.462 82.714 36.283 117.296 23.261 33.768 55.612 59.626 93.557 74.776 7.06 2.82 15.105.295 19.126-6.004 1.799-2.819 4.872-4.374 8.211-4.177 4.025.244 7.523 3.317 8.316 7.31.072.362.122.731.149 1.097.565 7.653 6.19 13.685 13.681 14.668 8.908 1.166 17.985 1.758 26.977 1.758 113.754 0 206.3-92.546 206.3-206.3 0-52.966-20.051-103.318-56.459-141.782zm33.661 195.866-170.995 136.796c-1.664.108-3.333.194-5.007.259v-19.476l182.019-145.615c-1.311 9.589-3.335 18.951-6.017 28.036zm-113.58-232.187-62.422 49.939v-23.223l41.861-33.489c6.96 1.856 13.817 4.12 20.561 6.773zm101.009 92.128-163.431 130.745v-46.042l144.152-115.322c7.425 9.632 13.869 19.883 19.279 30.619zm20.369 85.975c0 1.834-.032 3.66-.084 5.481l-183.716 146.973v-46.043l180.08-144.064c2.453 12.288 3.72 24.887 3.72 37.653zm-7.648-53.72-176.152 140.922v-23.223l169.828-135.862c2.409 5.941 4.526 12 6.324 18.163zm-176.152-116.877v-20.549c7.713.295 15.35 1.036 22.89 2.237zm130.474 39.086c.331-.213.748-.196.973.041 1.048 1.107 2.08 2.224 3.099 3.352l-134.546 107.637v-23.222l102.257-81.806c1.156.179 2.326.311 3.51.388 8.799.567 17.347-1.636 24.707-6.39zm-44.366-.289-86.108 68.887v-46.042l67.909-54.328c.021.371.041.742.073 1.113 1.07 12.636 8.06 23.68 18.126 30.37zm-51.862 318.499 131.179-104.944c-24.938 52.534-73.119 91.97-131.179 104.944z"/><path d="m463.083 381.033c-4.143 0-7.5 3.357-7.5 7.5v16.567c0 4.143 3.357 7.5 7.5 7.5s7.5-3.357 7.5-7.5v-16.566c0-4.143-3.357-7.501-7.5-7.501z"/><path d="m463.083 447.3c-4.143 0-7.5 3.357-7.5 7.5v16.566c0 4.143 3.357 7.5 7.5 7.5s7.5-3.357 7.5-7.5v-16.566c0-4.143-3.357-7.5-7.5-7.5z"/><path d="m504.5 422.45h-16.566c-4.143 0-7.5 3.357-7.5 7.5s3.357 7.5 7.5 7.5h16.566c4.143 0 7.5-3.357 7.5-7.5s-3.357-7.5-7.5-7.5z"/><path d="m438.233 422.45h-16.566c-4.143 0-7.5 3.357-7.5 7.5s3.357 7.5 7.5 7.5h16.566c4.143 0 7.5-3.357 7.5-7.5s-3.357-7.5-7.5-7.5z"/><path d="m48.916 64.7c4.142 0 7.5-3.357 7.5-7.5v-16.566c0-4.143-3.358-7.5-7.5-7.5s-7.5 3.357-7.5 7.5v16.566c0 4.143 3.358 7.5 7.5 7.5z"/><path d="m56.416 123.467v-16.567c0-4.143-3.358-7.5-7.5-7.5s-7.5 3.357-7.5 7.5v16.566c0 4.143 3.358 7.5 7.5 7.5s7.5-3.357 7.5-7.499z"/><path d="m73.767 89.55h16.567c4.142 0 7.5-3.357 7.5-7.5s-3.358-7.5-7.5-7.5h-16.567c-4.142 0-7.5 3.357-7.5 7.5 0 4.142 3.357 7.5 7.5 7.5z"/><path d="m24.067 74.55h-16.567c-4.142 0-7.5 3.357-7.5 7.5s3.358 7.5 7.5 7.5h16.567c4.142 0 7.5-3.357 7.5-7.5s-3.358-7.5-7.5-7.5z"/></g></g></svg>