<svg id="Capa_1" enable-background="new 0 0 512 512" height="512" viewBox="0 0 512 512" width="512" xmlns="http://www.w3.org/2000/svg"><g><g><g><circle cx="305.7" cy="355.4" fill="#ecf4ff" r="16.567"/><ellipse cx="272.567" cy="421.667" fill="#ddeafb" rx="16.567" ry="16.567" transform="matrix(.23 -.973 .973 .23 -200.443 590.063)"/><ellipse cx="338.833" cy="421.667" fill="#ecf4ff" rx="16.567" ry="16.567" transform="matrix(.707 -.707 .707 .707 -198.921 363.095)"/><ellipse cx="405.1" cy="421.667" fill="#ddeafb" rx="16.567" ry="16.567" transform="matrix(.16 -.987 .987 .16 -76.012 753.992)"/><circle cx="371.967" cy="355.4" fill="#ddeafb" r="16.567"/><circle cx="438.233" cy="355.4" fill="#ecf4ff" r="16.567"/><ellipse cx="239.433" cy="487.933" fill="#ecf4ff" rx="16.567" ry="16.567" transform="matrix(.23 -.973 .973 .23 -290.458 608.858)"/><ellipse cx="305.7" cy="487.933" fill="#ddeafb" rx="16.567" ry="16.567" transform="matrix(.924 -.383 .383 .924 -163.454 154.128)"/><ellipse cx="371.967" cy="487.933" fill="#ecf4ff" rx="16.567" ry="16.567" transform="matrix(.707 -.707 .707 .707 -236.074 405.933)"/></g><path d="m297.417 140.033c-23.8 0-42.897-20.421-41.18-44.563 1.41-19.817 17.108-36.027 36.872-38.05 2.782-.285 5.513-.289 8.171-.041 3.628.338 6.974-1.954 8.161-5.398 8.925-25.883 33.481-44.481 62.396-44.481 21.694 0 40.935 10.471 52.965 26.631 3.067 4.12 7.852 6.537 12.988 6.504.104-.001.209-.001.314-.001 27.731 0 50.158 22.712 49.693 50.549-.455 27.251-23.256 48.851-50.511 48.851h-139.869z" fill="#ddeafb"/><path d="m438.104 40.633c-.105 0-.209 0-.314.001-5.136.034-9.921-2.384-12.988-6.504-12.03-16.159-31.271-26.63-52.965-26.63-3.918 0-7.751.352-11.481 1.007 16.908 2.978 31.595 12.392 41.445 25.623 3.067 4.12 7.852 6.537 12.988 6.504.104-.001.209-.001.314-.001 27.731 0 50.158 22.712 49.693 50.549-.455 27.251-23.256 48.851-50.511 48.851h23c27.255 0 50.056-21.6 50.511-48.851.466-27.837-21.961-50.549-49.692-50.549z" fill="#bed8fb"/><g><g><path d="m438.233 173.167h-.023c-1.221 0-2.271-.821-2.613-1.993-8.026-27.564-33.476-47.707-63.631-47.707-11.275 0-21.887 2.825-31.179 7.795-3.642 1.948-8.163.93-10.478-2.49-8.934-13.197-24.04-21.872-41.176-21.872-4.008 0-7.903.477-11.635 1.374-4.043.972-8.218-1.2-9.524-5.148-12.002-36.299-46.202-62.492-86.524-62.492-50.322 0-91.117 40.794-91.117 91.117 0 1.143.029 2.278.077 3.409.047 1.119-.32 2.217-1.009 3.1l-.071.091c-.863 1.106-2.17 1.759-3.571 1.835-44.09 2.402-79.009 39.258-78.247 84.123.771 45.352 38.501 81.391 83.861 81.391h345.872c36.419 0 66.776-28.971 67.249-65.387.48-37.001-29.37-67.146-66.261-67.146z" fill="#ecf4ff"/><path d="m438.233 173.167h-.023c-1.221 0-2.271-.821-2.613-1.993-8.026-27.564-33.476-47.707-63.631-47.707-11.275 0-21.887 2.825-31.179 7.795-3.642 1.948-8.163.93-10.478-2.49-8.934-13.197-24.04-21.872-41.176-21.872-4.008 0-7.903.477-11.635 1.374-4.043.972-8.218-1.2-9.524-5.148-12.002-36.299-46.202-62.492-86.524-62.492-50.322 0-91.117 40.794-91.117 91.117 0 1.143.029 2.278.077 3.409.047 1.119-.32 2.217-1.009 3.1l-.071.091c-.863 1.106-2.17 1.759-3.571 1.835-44.09 2.402-79.009 39.258-78.247 84.123.771 45.352 38.501 81.391 83.861 81.391h345.872c36.419 0 66.776-28.971 67.249-65.387.48-37.001-29.37-67.146-66.261-67.146z" fill="#ecf4ff"/><path d="m438.233 173.167h-.023c-1.22 0-2.271-.821-2.613-1.993-8.026-27.564-33.476-47.707-63.631-47.707-3.921 0-7.759.349-11.492 1.004 24.976 4.375 45.142 22.728 52.123 46.703.341 1.172 1.392 1.993 2.613 1.993h.023c36.891 0 66.741 30.145 66.261 67.146-.472 36.417-30.829 65.387-67.249 65.387h23c36.419 0 66.776-28.97 67.249-65.387.48-37.001-29.37-67.146-66.261-67.146z" fill="#ddeafb"/></g></g></g><g><path d="m90.334 313.2h16.1c4.142 0 7.5-3.358 7.5-7.5s-3.358-7.5-7.5-7.5h-16.1c-41.54 0-75.334-33.794-75.334-75.333 0-41.514 33.754-75.292 75.259-75.333.15.006.299.005.454.01h.002c41.363.207 74.952 33.913 74.952 75.324 0 4.142 3.358 7.5 7.5 7.5s7.5-3.358 7.5-7.5c0-47.276-36.506-86.18-82.808-90.017-.005-.365-.025-.737-.025-1.099 0-16.965 5.05-33.297 14.605-47.229 2.343-3.416 1.473-8.085-1.943-10.427-3.415-2.342-8.084-1.473-10.427 1.943-11.275 16.441-17.235 35.706-17.235 55.713 0 .363.002.726.006 1.091-46.318 3.82-82.84 42.737-82.84 90.024 0 49.81 40.523 90.333 90.334 90.333z"/><path d="m441.747 165.749c-2.254-6.581-5.392-12.694-9.252-18.227l5.738.012c31.54 0 57.2-25.66 57.2-57.2 0-31.541-25.66-57.2-57.2-57.2-1.56 0-3.135.067-4.716.2-13.518-20.684-36.654-33.334-61.55-33.334-31.955 0-59.655 20.206-69.633 49.935-1.589-.156-3.188-.234-4.788-.234-15.73 0-30.362 7.718-39.42 20.067-4.452-5.512-9.5-10.563-15.071-15.026-17.395-13.934-39.273-21.608-61.605-21.608-21.286 0-41.556 6.676-58.619 19.305-3.329 2.464-4.03 7.161-1.566 10.49s7.161 4.03 10.491 1.566c14.46-10.704 31.645-16.362 49.694-16.362 36.937 0 68.923 23.782 79.77 58.52-17.757 9.918-29.287 28.846-29.287 49.947 0 4.142 3.358 7.5 7.5 7.5s7.5-3.358 7.5-7.5c0-17.242 10.43-32.513 25.977-38.968.025-.01.051-.016.075-.027 5.129-2.127 10.562-3.206 16.147-3.206 16.236 0 31.217 9.494 38.167 24.186.944 1.997 2.72 3.475 4.854 4.042 2.134.566 4.409.164 6.22-1.1 9.893-6.909 21.509-10.561 33.593-10.561 26.854 0 50.264 18.141 56.926 44.116.871 3.401 3.982 5.73 7.497 5.633 0 0 1.399-.049 1.843-.049 32.404 0 58.767 26.363 58.767 58.767s-26.363 58.767-58.767 58.767-58.767-26.363-58.767-58.767c0-4.142-3.358-7.5-7.5-7.5s-7.5 3.358-7.5 7.5c0 23.962 11.491 45.284 29.244 58.767h-257.275c-4.142 0-7.5 3.358-7.5 7.5s3.358 7.5 7.5 7.5h301.799c40.675 0 73.767-33.092 73.767-73.767 0-39.498-31.202-71.845-70.253-73.684zm-104.999-40.833c-10.507-15.722-28.413-25.516-47.615-25.516-4.739 0-9.4.574-13.931 1.712-2.021-6.166-4.668-12.108-7.854-17.749 5.676-11.281 17.403-18.663 30.198-18.663 2.81 0 5.607.348 8.316 1.033 1.951.494 4.02.182 5.74-.865s2.946-2.742 3.403-4.703c6.203-26.592 29.627-45.165 56.962-45.165 17.908 0 34.673 8.228 45.679 21.968-21.398 8.283-36.613 29.079-36.613 53.366 0 4.142 3.358 7.5 7.5 7.5s7.5-3.358 7.5-7.5c0-20.946 15.343-38.37 35.379-41.641.282-.046 1.92-.261 2.847-.367.944-.107 3.306-.193 3.975-.193 23.269 0 42.2 18.931 42.2 42.2s-18.931 42.2-42.185 42.2l-19.733-.04c-12.816-10.412-29.099-16.526-46.548-16.526-12.421 0-24.449 3.073-35.22 8.949z"/><path d="m230.367 371.967c0-22.405-18.228-40.633-40.633-40.633s-40.634 18.227-40.634 40.633c0 4.142 3.358 7.5 7.5 7.5s7.5-3.358 7.5-7.5c0-14.134 11.499-25.633 25.633-25.633s25.633 11.499 25.633 25.633-11.498 25.633-25.633 25.633h-182.231c-4.142 0-7.5 3.358-7.5 7.5s3.358 7.5 7.5 7.5h182.232c22.405 0 40.633-18.228 40.633-40.633z"/><path d="m156.6 430.733h-115.967c-4.142 0-7.5 3.358-7.5 7.5s3.358 7.5 7.5 7.5h115.967c14.134 0 25.633 11.499 25.633 25.633s-11.499 25.634-25.633 25.634-25.633-11.499-25.633-25.633c0-4.142-3.358-7.5-7.5-7.5s-7.5 3.358-7.5 7.5c0 22.405 18.228 40.633 40.633 40.633s40.633-18.228 40.633-40.633-18.228-40.634-40.633-40.634z"/><path d="m329.767 355.4c0-13.27-10.796-24.066-24.066-24.066s-24.067 10.796-24.067 24.066c0 13.271 10.796 24.067 24.067 24.067s24.066-10.797 24.066-24.067zm-33.134 0c0-4.999 4.067-9.066 9.067-9.066 4.999 0 9.066 4.067 9.066 9.066 0 5-4.067 9.067-9.066 9.067s-9.067-4.068-9.067-9.067z"/><path d="m296.633 421.667c0-13.27-10.796-24.066-24.066-24.066-13.271 0-24.067 10.796-24.067 24.066 0 13.271 10.796 24.067 24.067 24.067 13.27-.001 24.066-10.797 24.066-24.067zm-24.066 9.066c-4.999 0-9.067-4.067-9.067-9.067 0-4.999 4.067-9.066 9.067-9.066 4.999 0 9.066 4.067 9.066 9.066 0 5-4.067 9.067-9.066 9.067z"/><path d="m362.9 421.667c0-13.27-10.796-24.066-24.066-24.066-13.271 0-24.067 10.796-24.067 24.066 0 13.271 10.796 24.067 24.067 24.067 13.27-.001 24.066-10.797 24.066-24.067zm-24.067 9.066c-4.999 0-9.067-4.067-9.067-9.067 0-4.999 4.067-9.066 9.067-9.066 4.999 0 9.066 4.067 9.066 9.066.001 5-4.067 9.067-9.066 9.067z"/><path d="m405.1 397.6c-13.271 0-24.067 10.796-24.067 24.066 0 13.271 10.796 24.067 24.067 24.067 13.27 0 24.066-10.796 24.066-24.067.001-13.269-10.796-24.066-24.066-24.066zm0 33.133c-5 0-9.067-4.067-9.067-9.067 0-4.999 4.067-9.066 9.067-9.066 4.999 0 9.066 4.067 9.066 9.066.001 5-4.067 9.067-9.066 9.067z"/><path d="m396.033 355.4c0-13.27-10.796-24.066-24.066-24.066s-24.067 10.796-24.067 24.066c0 13.271 10.796 24.067 24.067 24.067s24.066-10.797 24.066-24.067zm-33.133 0c0-4.999 4.067-9.066 9.067-9.066 4.999 0 9.066 4.067 9.066 9.066 0 5-4.067 9.067-9.066 9.067-5 0-9.067-4.068-9.067-9.067z"/><path d="m438.233 331.333c-13.271 0-24.067 10.796-24.067 24.066 0 13.271 10.796 24.067 24.067 24.067s24.067-10.796 24.067-24.066-10.796-24.067-24.067-24.067zm0 33.134c-5 0-9.067-4.067-9.067-9.067 0-4.999 4.067-9.066 9.067-9.066 4.999 0 9.066 4.067 9.066 9.066.001 4.999-4.067 9.067-9.066 9.067z"/><path d="m239.433 463.867c-13.27 0-24.066 10.796-24.066 24.066 0 13.271 10.796 24.067 24.066 24.067s24.067-10.796 24.067-24.067c0-13.27-10.796-24.066-24.067-24.066zm0 33.133c-4.999 0-9.066-4.067-9.066-9.067 0-4.999 4.067-9.066 9.066-9.066s9.067 4.067 9.067 9.066c0 5-4.067 9.067-9.067 9.067z"/><path d="m305.7 463.867c-13.271 0-24.067 10.796-24.067 24.066 0 13.271 10.796 24.067 24.067 24.067s24.066-10.796 24.066-24.067c.001-13.27-10.795-24.066-24.066-24.066zm0 33.133c-4.999 0-9.067-4.067-9.067-9.067 0-4.999 4.067-9.066 9.067-9.066 4.999 0 9.066 4.067 9.066 9.066.001 5-4.067 9.067-9.066 9.067z"/><path d="m371.967 463.867c-13.271 0-24.067 10.796-24.067 24.066 0 13.271 10.796 24.067 24.067 24.067s24.066-10.796 24.066-24.067c0-13.27-10.796-24.066-24.066-24.066zm0 33.133c-5 0-9.067-4.067-9.067-9.067 0-4.999 4.067-9.066 9.067-9.066 4.999 0 9.066 4.067 9.066 9.066 0 5-4.067 9.067-9.066 9.067z"/></g></g></svg>