<svg id="Capa_1" enable-background="new 0 0 512 512" height="512" viewBox="0 0 512 512" width="512" xmlns="http://www.w3.org/2000/svg"><g><g><path d="m438.233 94.254v139.846h-165.666v-139.846l82.833-65.254z" fill="#f5e1c1"/><path d="m415.233 76.135v157.965h23v-139.846z" fill="#f0cea5"/><path d="m388.533 234.1h-66.267v-86.067c0-4.418 3.582-8 8-8h50.267c4.418 0 8 3.582 8 8z" fill="#5c545f"/><g><path d="m454.997 117.462-94.782-67.702c-2.88-2.057-6.749-2.057-9.629 0l-94.782 67.702c-3.723 2.659-8.896 1.797-11.555-1.926l-9.629-13.481c-2.659-3.723-1.797-8.896 1.926-11.555l114.039-81.457c2.88-2.057 6.749-2.057 9.629 0l114.041 81.458c3.723 2.659 4.585 7.832 1.926 11.555l-9.629 13.481c-2.659 3.722-7.832 4.584-11.555 1.925z" fill="#ff8086"/></g><path d="m474.255 90.501-114.04-81.458c-2.88-2.057-6.749-2.057-9.629 0l-6.685 4.775 107.355 76.682c3.723 2.659 4.585 7.832 1.926 11.555l-6.673 9.342 8.489 6.064c3.723 2.659 8.896 1.797 11.555-1.926l9.629-13.481c2.658-3.721 1.796-8.895-1.927-11.553z" fill="#e5646e"/><path d="m380.533 140.033h-22.741c4.418 0 8 3.582 8 8v86.067h22.741v-86.067c0-4.418-3.581-8-8-8z" fill="#4b3f4e"/><g><path d="m57.2 178.5h33.133v55.6h-33.133z" fill="#f7e3c1"/><path d="m67.333 178.5h23v55.6h-23z" fill="#f1d0a4"/><path d="m103.478 134.743-25.482-50.965c-1.743-3.485-6.716-3.485-8.459 0l-25.482 50.965c-1.572 3.144.714 6.843 4.229 6.843 3.149 0 5.418 3.019 4.542 6.044l-10.443 36.059c-.876 3.024 1.393 6.044 4.542 6.044h53.683c3.148 0 5.418-3.02 4.542-6.044l-10.443-36.059c-.876-3.024 1.393-6.044 4.542-6.044 3.515.001 5.801-3.699 4.229-6.843z" fill="#b3e59f"/><path d="m103.478 134.743-25.482-50.965c-1.743-3.485-6.716-3.485-8.459 0l-25.482 50.965c-1.572 3.144.714 6.843 4.229 6.843 3.149 0 5.418 3.019 4.542 6.044l-10.443 36.059c-.876 3.024 1.393 6.044 4.542 6.044h53.683c3.148 0 5.418-3.02 4.542-6.044l-10.443-36.059c-.876-3.024 1.393-6.044 4.542-6.044 3.515.001 5.801-3.699 4.229-6.843z" fill="#b3e59f"/><path d="m105.15 183.689-10.443-36.059c-.876-3.024 1.393-6.044 4.542-6.044 3.515 0 5.801-3.699 4.229-6.843l-25.482-50.965c-1.743-3.485-6.716-3.485-8.459 0l-7.27 14.542 18.212 36.424c1.572 3.144-.714 6.843-4.229 6.843-3.148 0-5.418 3.02-4.542 6.044l10.443 36.059c.876 3.024-1.393 6.044-4.542 6.044h23c3.148-.001 5.417-3.02 4.541-6.045z" fill="#95d6a4"/></g><path d="m204.412 228.531-13.06 39.179c-.992 2.977-.217 6.258 2.001 8.477l23.656 23.656c3.235 3.235 3.235 8.48 0 11.714l-68.731 68.731c-6.181 6.181-16.48-.184-13.715-8.477l19.645-58.936c1.355-4.064-.613-8.491-4.538-10.208l-28.803-12.601c-3.369-1.474-5.363-4.993-4.896-8.641 0 0 4.186-32.7 6.301-49.229.634-4.952-3.225-9.331-8.217-9.331h-98.272c-4.575 0-8.283 3.708-8.283 8.283v256.783c0 9.15 7.417 16.567 16.567 16.567h372.75l107.683-99.395v-173.953c0-4.575-3.709-8.283-8.283-8.283h-283.947c-3.565 0-6.73 2.281-7.858 5.664z" fill="#d19a6e"/><path d="m496.217 222.867h-23c4.575 0 8.283 3.708 8.283 8.283v256.783c0 9.15-7.417 16.567-16.567 16.567h23c9.15 0 16.567-7.417 16.567-16.567v-256.783c0-4.575-3.708-8.283-8.283-8.283z" fill="#c38c66"/><path d="m239.433 405.1c-9.15 0-16.567 7.417-16.567 16.567s7.417 16.567 16.567 16.567h49.7c9.15 0 16.567-7.417 16.567-16.567s-7.417-16.567-16.567-16.567z" fill="#f7e3c1"/><path d="m256 487.933c0-9.15-7.417-16.567-16.567-16.567h-92.865c-9.149 0-16.567-7.417-16.567-16.567s7.417-16.567 16.567-16.567h26.598c9.149 0 16.567-7.417 16.567-16.567s-7.417-16.567-16.567-16.567h-165.666v82.833c0 9.15 7.417 16.567 16.567 16.567h215.367c9.149.002 16.566-7.415 16.566-16.565z" fill="#966a5b"/><path d="m504.5 487.933v-82.833h-149.1c-9.15 0-16.567 7.417-16.567 16.567s7.417 16.567 16.567 16.567h16.567c9.15 0 16.567 7.417 16.567 16.567s-7.417 16.567-16.567 16.567h-66.267c-9.15 0-16.567 7.417-16.567 16.567s7.417 16.567 16.567 16.567h182.233c9.15-.002 16.567-7.419 16.567-16.569z" fill="#966a5b"/><path d="m481.484 405.1v82.833c0 9.15-7.417 16.567-16.567 16.567h23.016c9.15 0 16.567-7.417 16.567-16.567v-82.833z" fill="#785353"/><path d="m189.267 40.633h-8.654c-3.935 0-7.325-2.77-8.107-6.626-3.07-15.124-16.441-26.507-32.471-26.507-16.386 0-29.994 11.895-32.66 27.521-.52 3.051-2.709 5.47-5.649 6.437-6.854 2.252-11.734 8.856-11.372 16.543.42 8.91 8.095 15.766 17.016 15.766h82.365c9.415 0 16.996-7.854 16.548-17.368-.42-8.91-8.096-15.766-17.016-15.766z" fill="#ecf4ff"/><path d="m189.267 40.633h-8.654c-3.935 0-7.325-2.77-8.107-6.626-3.07-15.124-16.441-26.507-32.471-26.507-4.043 0-7.916.727-11.499 2.053 10.619 3.931 18.674 13.146 20.969 24.455.783 3.856 4.173 6.626 8.107 6.626h8.654c8.921 0 16.596 6.855 17.016 15.766.448 9.513-7.133 17.367-16.548 17.367h23c9.415 0 16.996-7.854 16.548-17.367-.419-8.912-8.095-15.767-17.015-15.767z" fill="#ddeafb"/></g><g><path d="m313.2 421.667c0-13.27-10.796-24.067-24.066-24.067h-49.7c-13.27 0-24.067 10.797-24.067 24.067 0 13.271 10.797 24.066 24.067 24.066h49.7c13.27 0 24.066-10.795 24.066-24.066zm-82.834 0c0-5 4.067-9.067 9.067-9.067h49.7c4.999 0 9.066 4.067 9.066 9.067 0 4.999-4.067 9.066-9.066 9.066h-49.7c-4.999 0-9.067-4.067-9.067-9.066z"/><path d="m107.369 81.267h82.365c6.548 0 12.895-2.718 17.416-7.456 4.584-4.806 6.936-11.114 6.624-17.764-.604-12.849-11.369-22.913-24.508-22.913h-8.653c-.366 0-.685-.26-.758-.618-3.824-18.841-20.572-32.516-39.821-32.516-19.87 0-36.715 14.198-40.053 33.76-.061.36-.438.521-.597.573-10.236 3.363-17.031 13.241-16.523 24.021.607 12.848 11.371 22.913 24.508 22.913zm-3.303-32.684c5.621-1.846 9.723-6.56 10.702-12.3 2.104-12.332 12.73-21.283 25.266-21.283 12.145 0 22.71 8.621 25.121 20.499 1.485 7.321 7.986 12.635 15.458 12.635h8.653c5.028 0 9.301 3.866 9.524 8.618.118 2.514-.768 4.895-2.494 6.704-1.729 1.812-4.06 2.811-6.562 2.811h-82.365c-5.027 0-9.3-3.866-9.524-8.619-.192-4.071 2.367-7.798 6.221-9.065z"/><path d="m496.217 215.366h-50.483v-95.305l4.904 3.503c3.431 2.45 7.612 3.42 11.769 2.726 4.158-.693 7.798-2.964 10.248-6.395l9.631-13.481c5.057-7.082 3.41-16.959-3.671-22.017l-114.04-81.457c-5.488-3.92-12.861-3.92-18.35 0l-114.04 81.457c-3.431 2.45-5.701 6.09-6.395 10.249-.693 4.158.274 8.338 2.726 11.769l9.629 13.48c2.45 3.431 6.09 5.701 10.248 6.395.878.146 1.756.219 2.628.219 3.261 0 6.435-1.011 9.141-2.944l4.904-3.503v39.672c0 4.143 3.357 7.5 7.5 7.5s7.5-3.357 7.5-7.5v-50.386l74.876-53.483c.275-.197.642-.195.913-.002l74.878 53.485v106.019h-34.7v-67.333c0-8.547-6.953-15.5-15.5-15.5h-50.267c-8.547 0-15.5 6.953-15.5 15.5v67.333h-34.7v-26.047c0-4.143-3.357-7.5-7.5-7.5s-7.5 3.357-7.5 7.5v26.046h-52.796c-6.805 0-12.822 4.337-14.974 10.792l-13.06 39.18c-1.902 5.708-.441 11.898 3.812 16.152l23.656 23.655c.306.306.306.804 0 1.108l-68.732 68.73c-.224.226-.438.44-.966.113-.527-.326-.432-.612-.331-.914l19.645-58.936c2.598-7.796-1.12-16.157-8.647-19.45l-28.802-12.601c-.317-.139-.508-.475-.464-.817l6.302-49.23c.575-4.496-.811-9.025-3.807-12.428-2.995-3.403-7.314-5.355-11.85-5.355h-16.219v-18.133h2.774c3.882 0 7.444-1.779 9.776-4.882 2.331-3.103 3.049-7.02 1.97-10.748l-9.565-33.032c2.819-.844 5.261-2.69 6.863-5.284 2.245-3.632 2.444-8.079.535-11.898l-25.482-50.964c-2.085-4.17-6.276-6.76-10.938-6.76-4.661 0-8.853 2.59-10.938 6.76l-25.483 50.967c-1.908 3.819-1.707 8.267.537 11.898 1.604 2.592 4.044 4.438 6.862 5.282l-9.565 33.031c-1.079 3.729-.361 7.646 1.97 10.748 2.332 3.104 5.896 4.883 9.776 4.883h2.775v18.133h-33.917c-8.703 0-15.783 7.081-15.783 15.784v256.783c0 13.271 10.796 24.067 24.066 24.067h18.128c4.143 0 7.5-3.357 7.5-7.5s-3.357-7.5-7.5-7.5h-18.128c-4.999 0-9.066-4.067-9.066-9.066v-75.334h158.167c4.999 0 9.066 4.067 9.066 9.067 0 4.999-4.067 9.066-9.066 9.066h-26.598c-13.271 0-24.067 10.796-24.067 24.066s10.797 24.066 24.067 24.066h92.864c4.999 0 9.066 4.067 9.066 9.067 0 4.999-4.067 9.066-9.066 9.066h-167.233c-4.143 0-7.5 3.357-7.5 7.5s3.357 7.5 7.5 7.5h415.733c13.271.002 24.067-10.794 24.067-24.064v-256.784c0-8.703-7.08-15.784-15.783-15.784zm-149.991-171.709-94.782 67.702c-.352.25-.84.169-1.093-.183l-9.629-13.481c-.125-.175-.17-.372-.135-.584.035-.213.143-.384.317-.51l114.04-81.456c.136-.096.296-.145.456-.145.159 0 .318.049.455.146l114.04 81.457c.352.252.434.743.184 1.094l-9.63 13.481c-.252.351-.741.433-1.093.183l-94.783-67.703c-5.486-3.919-12.859-3.922-18.347-.001zm-16.459 104.376c0-.275.225-.5.5-.5h50.267c.275 0 .5.225.5.5v67.333h-51.267zm-271.706-9.064c-1.469-1.955-3.428-3.385-5.646-4.175l21.352-42.704 21.353 42.704c-2.219.79-4.178 2.22-5.646 4.175-2.331 3.103-3.049 7.021-1.97 10.747l9.417 32.518h-6.587-33.134-6.587l9.417-32.517c1.079-3.728.362-7.646-1.969-10.748zm6.639 58.264h18.133v18.133h-18.133zm174.734 266.633h-92.864c-5 0-9.067-4.067-9.067-9.066s4.067-9.066 9.067-9.066h26.598c13.27 0 24.066-10.796 24.066-24.066s-10.796-24.067-24.066-24.067h-158.168v-166.451c0-.433.352-.784.783-.784h98.272c.236 0 .434.09.59.266.154.176.218.382.188.613l-6.302 49.23c-.883 6.902 2.953 13.673 9.33 16.464l28.803 12.601c.373.163.558.579.429.965l-19.646 58.936c-2.362 7.088.32 14.489 6.677 18.417 6.355 3.929 14.173 3.018 19.458-2.266l68.732-68.731c6.152-6.154 6.152-16.167 0-22.321l-23.656-23.656c-.212-.211-.284-.518-.189-.801l13.059-39.181c.107-.32.405-.535.743-.535h168.963l-.164 20.98-29.023 14.512c-3.704 1.853-5.206 6.357-3.353 10.062l13.767 27.535-28.126 21.094c-3.185 2.389-3.948 6.849-1.74 10.16l16.567 24.85c1.445 2.168 3.823 3.341 6.247 3.341 1.43 0 2.875-.408 4.153-1.261 3.446-2.298 4.378-6.954 2.08-10.4l-12.632-18.947 27.458-20.593c2.947-2.211 3.798-6.173 2.202-9.354.001 0 .006-.001.006-.001l-13.212-26.425 20.826-10.413 21.095 28.126c1.469 1.958 3.719 3.001 6.006 3.001 1.432 0 2.879-.41 4.154-1.261l24.85-16.567c3.446-2.298 4.378-6.954 2.08-10.4s-6.954-4.378-10.4-2.08l-18.946 12.632-19.074-25.432.181-23.16h99.983c.432 0 .783.352.783.784v166.45h-141.602c-13.27 0-24.067 10.797-24.067 24.067 0 13.271 10.797 24.066 24.067 24.066h16.566c4.999 0 9.066 4.067 9.066 9.066s-4.067 9.066-9.066 9.066h-66.266c-13.271 0-24.066 10.797-24.066 24.067 0 3.207.635 6.266 1.779 9.066h-21.691c1.143-2.8 1.779-5.86 1.779-9.066-.001-13.269-10.797-24.066-24.067-24.066zm248.5 33.134h-182.234c-4.999 0-9.066-4.067-9.066-9.066 0-5 4.067-9.067 9.066-9.067h66.267c13.271 0 24.066-10.796 24.066-24.066s-10.796-24.066-24.066-24.066h-16.567c-5 0-9.067-4.067-9.067-9.066 0-5 4.067-9.067 9.067-9.067h141.6v75.334c0 4.997-4.067 9.064-9.066 9.064z"/></g></g></svg>