<svg id="Capa_1" enable-background="new 0 0 512 512" height="512" viewBox="0 0 512 512" width="512" xmlns="http://www.w3.org/2000/svg"><g><g><g><path d="m156.6 117.979-66.267 66.267v-132.25h66.267z" fill="#f5e1c1"/><path d="m133.66 140.919 22.94-22.94v-65.983h-22.94z" fill="#efcfa6"/><path d="m165.167 57.196h-83.4c-4.418 0-8-3.582-8-8v-17.133c0-4.418 3.582-8 8-8h83.4c4.418 0 8 3.582 8 8v17.133c0 4.418-3.582 8-8 8z" fill="#ff8086"/><path d="m165.167 24.063h-23c4.418 0 8 3.582 8 8v17.133c0 4.418-3.582 8-8 8h23c4.418 0 8-3.582 8-8v-17.133c0-4.419-3.582-8-8-8z" fill="#e5646e"/></g><g><g><path d="m90.333 199.663 165.667-170 165.667 170v238.926h-331.334z" fill="#f5e1c1"/></g><path d="m313.983 438.589v-141.176c0-4.575-3.708-8.283-8.283-8.283h-99.4c-4.575 0-8.283 3.709-8.283 8.283v140.817z" fill="#e8b466"/><path d="m398.667 176.061v262.528h23v-238.926z" fill="#f0cea5"/><path d="m305.7 289.129h-23c4.575 0 8.283 3.708 8.283 8.283v141.105l23 .071v-141.176c0-4.574-3.708-8.283-8.283-8.283z" fill="#e59862"/></g><path d="m320.215 206.157c-5.956 23.352-24.315 41.746-47.648 47.752l-33.125.002c-23.288-5.991-41.623-24.322-47.619-47.608l-.022-33.06c5.972-23.324 24.32-41.692 47.632-47.693l33.128-.002c23.336 6.004 41.699 24.4 47.654 47.756z" fill="#ecf4ff"/><path d="m256 123.463c-3.925 0-7.763.361-11.5 1.015 31.113 5.447 54.767 32.578 54.767 65.252 0 32.673-23.653 59.804-54.767 65.252 3.737.654 7.575 1.015 11.5 1.015 36.598 0 66.267-29.669 66.267-66.267 0-36.599-29.669-66.267-66.267-66.267z" fill="#ddeafb"/><path d="m272.567 125.55c-5.295-1.363-10.846-2.088-16.567-2.088s-11.271.725-16.567 2.088v47.612h-47.612c-1.363 5.295-2.088 10.846-2.088 16.567s.725 11.272 2.088 16.567h47.612v47.612c5.295 1.363 10.846 2.088 16.567 2.088s11.272-.725 16.567-2.088v-47.612h47.612c1.363-5.295 2.088-10.846 2.088-16.567 0-5.72-.725-11.271-2.088-16.567h-47.612z" fill="#5c545f"/><g><path d="m437.229 232.151-175.372-175.37c-3.235-3.235-8.48-3.235-11.714 0l-175.372 175.37c-3.235 3.235-8.48 3.235-11.714 0l-11.714-11.714c-3.235-3.235-3.235-8.48 0-11.714l198.8-198.801c3.235-3.235 8.48-3.235 11.714 0l198.8 198.801c3.235 3.235 3.235 8.48 0 11.714l-11.714 11.714c-3.235 3.235-8.479 3.235-11.714 0z" fill="#ff8086"/></g><path d="m460.657 208.723-198.8-198.801c-3.235-3.235-8.48-3.235-11.714 0l-5.643 5.642 193.157 193.158c3.235 3.235 3.235 8.48 0 11.714l-6.071 6.071 5.643 5.643c3.235 3.235 8.48 3.235 11.714 0l11.714-11.714c3.235-3.234 3.235-8.478 0-11.713z" fill="#e5646e"/><g fill="#4b3f4e"><path d="m244.5 124.478c10.391 1.819 19.943 6.068 28.067 12.123v-11.05c-5.295-1.363-10.846-2.088-16.567-2.088-3.925 0-7.763.36-11.5 1.015z"/><path d="m320.179 206.296c1.363-5.295 2.088-10.846 2.088-16.567 0-5.72-.725-11.272-2.088-16.567h-23.017c1.365 5.296 2.105 10.844 2.105 16.567s-.74 11.27-2.105 16.567z"/><path d="m272.567 253.908v-11.051c-8.124 6.055-17.675 10.304-28.067 12.123 3.737.654 7.575 1.015 11.5 1.015 5.72.001 11.272-.724 16.567-2.087z"/></g><g><path d="m504.5 482.996v-99.989c0-18.252-17.71-32.368-36.883-26.101-11.189 3.657-18.329 14.352-18.339 26.123-.015 18.231-17.698 32.326-36.85 26.089-11.219-3.654-18.335-14.401-18.372-26.201-.058-18.198-17.721-32.252-36.85-26.022-11.219 3.654-18.335 14.401-18.372 26.201-.057 18.198-17.721 32.252-36.85 26.022-11.219-3.654-18.335-14.401-18.372-26.201-.057-18.198-17.721-32.252-36.85-26.022-11.219 3.654-18.335 14.401-18.372 26.201-.057 18.198-17.721 32.252-36.85 26.022-11.219-3.654-18.335-14.401-18.372-26.201-.058-18.198-17.721-32.252-36.85-26.022-11.219 3.654-18.335 14.401-18.372 26.201-.06 19.017-19.346 33.509-39.44 25.056-9.929-4.177-15.829-14.252-15.782-25.023.067-15.549-12.718-28.128-28.342-27.724-15.06.39-26.882 13.117-26.882 28.179v99.412z" fill="#ecf4ff"/><g fill="#ddeafb"><path d="m260.611 382.918c.037 11.799 7.153 22.547 18.372 26.201 7.39 2.407 14.556 1.777 20.578-.94-9.807-4.327-15.916-14.337-15.95-25.26-.057-18.198-17.721-32.252-36.85-26.022-.833.271-1.635.594-2.422.94 9.566 4.315 16.237 13.913 16.272 25.081z"/><path d="m371.055 382.918c.037 11.799 7.153 22.547 18.372 26.201 7.39 2.407 14.556 1.777 20.578-.94-9.807-4.327-15.916-14.337-15.951-25.26-.058-18.198-17.721-32.252-36.85-26.022-.833.271-1.636.594-2.422.94 9.567 4.315 16.238 13.913 16.273 25.081z"/><path d="m150.167 382.918c.037 11.799 7.153 22.547 18.372 26.201 7.39 2.407 14.556 1.777 20.578-.94-9.807-4.327-15.915-14.337-15.95-25.26-.058-18.198-17.721-32.252-36.85-26.022-.833.271-1.636.594-2.422.94 9.565 4.315 16.236 13.913 16.272 25.081z"/><path d="m467.617 356.906c-.822.269-1.615.586-2.391.928 9.593 4.327 16.275 13.965 16.275 25.172v99.989h23v-99.989c-.001-18.251-17.711-32.367-36.884-26.1z"/><path d="m39.722 383.129c-.047 10.772 5.853 20.847 15.782 25.023 8.276 3.481 16.41 3.064 23.125.048-.042-.018-.084-.031-.125-.048-9.929-4.177-15.829-14.252-15.782-25.023.067-15.549-12.718-28.128-28.342-27.724-3.824.099-7.437.996-10.703 2.523 9.507 4.392 16.093 14.03 16.045 25.201z"/></g><path d="m504.5 449.274c0-15.249-12.362-27.611-27.611-27.611s-27.611 12.362-27.611 27.611-12.362 27.611-27.611 27.611-27.611-12.362-27.611-27.611-12.362-27.611-27.611-27.611-27.611 12.362-27.611 27.611-12.362 27.611-27.611 27.611-27.611-12.362-27.611-27.611-12.363-27.611-27.612-27.611-27.611 12.362-27.611 27.611-12.362 27.611-27.611 27.611-27.611-12.362-27.611-27.611-12.362-27.611-27.611-27.611-27.611 12.362-27.611 27.611-12.362 27.611-27.611 27.611-27.611-12.362-27.611-27.611-12.362-27.611-27.611-27.611-27.612 12.362-27.612 27.611v38.655c0 9.15 7.417 16.567 16.567 16.567h463.867c9.15 0 16.567-7.417 16.567-16.567v-38.655z" fill="#c3ddff"/><g fill="#a4ccff"><path d="m371.056 449.274c0 15.249 12.362 27.611 27.611 27.611 4.105 0 7.998-.903 11.5-2.51-9.506-4.362-16.111-13.958-16.111-25.101 0-15.249-12.362-27.611-27.611-27.611-4.105 0-7.998.903-11.5 2.51 9.505 4.362 16.111 13.957 16.111 25.101z"/><path d="m260.611 449.274c0 15.249 12.362 27.611 27.611 27.611 4.105 0 7.998-.903 11.5-2.51-9.506-4.362-16.111-13.958-16.111-25.101 0-15.249-12.362-27.611-27.611-27.611-4.105 0-7.998.903-11.5 2.51 9.506 4.362 16.111 13.957 16.111 25.101z"/><path d="m476.889 421.662c-4.105 0-7.998.903-11.5 2.51 9.506 4.362 16.111 13.957 16.111 25.101v38.655c0 9.15-7.417 16.567-16.567 16.567h23c9.15 0 16.567-7.417 16.567-16.567v-38.655c0-15.248-12.362-27.611-27.611-27.611z"/><path d="m150.167 449.274c0 15.249 12.362 27.611 27.611 27.611 4.105 0 7.998-.903 11.5-2.51-9.506-4.362-16.111-13.958-16.111-25.101 0-15.249-12.362-27.611-27.611-27.611-4.105 0-7.998.903-11.5 2.51 9.505 4.362 16.111 13.957 16.111 25.101z"/><path d="m39.722 449.274c0 15.249 12.362 27.611 27.611 27.611 4.105 0 7.998-.903 11.5-2.51-9.506-4.362-16.111-13.958-16.111-25.101 0-15.249-12.362-27.611-27.611-27.611-4.105 0-7.998.903-11.5 2.51 9.506 4.362 16.111 13.957 16.111 25.101z"/></g></g></g><g><path d="m497.484 354.568c-9.249-6.707-20.984-8.456-32.197-4.791-14.049 4.592-23.497 17.953-23.51 33.247-.005 6.417-3.115 12.502-8.319 16.277-1.357.984-2.794 1.78-4.291 2.386v-166.99l2.758 2.758h.001c3.077 3.076 7.118 4.614 11.16 4.614 4.041 0 8.084-1.538 11.161-4.614l11.714-11.715c6.152-6.154 6.152-16.166 0-22.321l-198.801-198.801c-6.152-6.151-16.165-6.152-22.321 0l-80.739 80.74v-20.662h1.067c8.547 0 15.5-6.953 15.5-15.5v-17.134c0-8.547-6.953-15.5-15.5-15.5h-83.4c-8.547 0-15.5 6.953-15.5 15.5v17.134c0 8.547 6.953 15.5 15.5 15.5h1.066v101.929l-36.794 36.795c-6.152 6.154-6.152 16.166 0 22.321l11.715 11.714c6.154 6.152 16.167 6.153 22.321 0l2.758-2.758v167.087c-.475-.167-.949-.346-1.421-.544-6.833-2.874-11.225-9.971-11.19-18.079.041-9.58-3.706-18.547-10.553-25.248-6.846-6.7-15.903-10.268-25.483-10.005-18.85.487-34.186 16.492-34.186 35.677v104.345c0 13.271 10.796 24.066 24.066 24.066h18.133c4.143 0 7.5-3.357 7.5-7.5s-3.357-7.5-7.5-7.5h-18.133c-4.999 0-9.066-4.067-9.066-9.066v-38.656c0-11.089 9.021-20.11 20.111-20.11s20.111 9.022 20.111 20.11c0 19.36 15.75 35.111 35.11 35.111s35.111-15.751 35.111-35.111c0-11.089 9.022-20.11 20.111-20.11 11.09 0 20.111 9.022 20.111 20.11 0 19.36 15.75 35.111 35.11 35.111s35.111-15.751 35.111-35.111c0-11.089 9.021-20.11 20.111-20.11s20.111 9.022 20.111 20.11c0 19.36 15.751 35.111 35.111 35.111s35.11-15.751 35.11-35.111c0-11.089 9.021-20.11 20.111-20.11s20.111 9.022 20.111 20.11c0 19.36 15.751 35.111 35.111 35.111s35.11-15.751 35.11-35.111c0-11.089 9.021-20.11 20.111-20.11s20.111 9.022 20.111 20.11v38.656c0 4.999-4.067 9.066-9.066 9.066h-415.728c-4.143 0-7.5 3.357-7.5 7.5s3.357 7.5 7.5 7.5h415.733c13.271 0 24.066-10.796 24.066-24.066v-104.923c.001-11.216-5.425-21.847-14.515-28.439zm-416.217-305.372v-17.134c0-.275.225-.5.5-.5h83.4c.275 0 .5.225.5.5v17.134c0 .275-.225.5-.5.5h-83.4c-.276 0-.5-.224-.5-.5zm16.566 15.5h51.267v35.662l-51.267 51.267zm-28.364 162.152c-.307.305-.804.307-1.108 0l-11.714-11.713c-.306-.306-.306-.804 0-1.108l105.257-105.257c.003-.003.006-.007.01-.011l93.532-93.533c.153-.152.354-.229.555-.229s.401.077.554.229l198.8 198.8c.306.306.306.804 0 1.108l-11.713 11.714c-.305.305-.805.305-1.109 0h.001l-175.373-175.371c-2.981-2.98-6.945-4.623-11.161-4.623s-8.18 1.643-11.161 4.623zm185.977-164.763c.305-.307.803-.307 1.107 0l157.613 157.612v182.073c-7.538-2.746-12.584-10.241-12.611-18.876-.035-11.186-5.473-21.782-14.545-28.347-9.233-6.683-20.943-8.427-32.129-4.783-14.037 4.572-23.501 17.958-23.549 33.308-.021 6.406-3.138 12.479-8.339 16.242-.492.356-.998.679-1.511.986v-102.887c0-8.703-7.08-15.783-15.783-15.783h-99.4c-8.703 0-15.783 7.08-15.783 15.783v19.653c0 4.143 3.357 7.5 7.5 7.5s7.5-3.357 7.5-7.5v-19.653c0-.432.352-.783.783-.783h99.4c.432 0 .783.352.783.783v105.167c-.725-.163-1.451-.355-2.178-.592-7.864-2.561-13.166-10.235-13.194-19.094-.035-11.186-5.473-21.782-14.545-28.347-9.233-6.683-20.941-8.427-32.129-4.783-14.037 4.572-23.501 17.958-23.549 33.308-.021 6.406-3.138 12.479-8.339 16.242-2.167 1.568-4.539 2.65-7.033 3.252v-55.499c0-4.143-3.357-7.5-7.5-7.5s-7.5 3.357-7.5 7.5v53.425c-5.981-3.405-9.827-10.068-9.851-17.599-.035-11.185-5.472-21.781-14.543-28.347-9.234-6.682-20.943-8.426-32.13-4.783-14.037 4.572-23.501 17.958-23.549 33.308-.021 6.741-3.397 12.992-9.03 16.721-1.14.755-2.339 1.376-3.581 1.873v-181.97zm221.443 352.078c-19.36 0-35.111 15.75-35.111 35.11 0 11.09-9.021 20.111-20.11 20.111-11.09 0-20.111-9.022-20.111-20.111 0-19.36-15.751-35.11-35.111-35.11s-35.111 15.75-35.111 35.11c0 11.09-9.022 20.111-20.11 20.111-11.09 0-20.111-9.022-20.111-20.111 0-19.36-15.751-35.11-35.111-35.11s-35.111 15.75-35.111 35.11c0 11.09-9.021 20.111-20.111 20.111-11.089 0-20.11-9.022-20.11-20.111 0-19.36-15.751-35.11-35.111-35.11s-35.111 15.75-35.111 35.11c0 11.09-9.021 20.111-20.111 20.111-11.089 0-20.11-9.022-20.11-20.111 0-19.36-15.751-35.11-35.111-35.11-7.477 0-14.41 2.357-20.111 6.356v-36.934c0-11.125 8.781-20.403 19.573-20.683 5.517-.119 10.684 1.893 14.604 5.731 3.922 3.838 6.068 8.975 6.045 14.463-.061 14.189 7.937 26.738 20.374 31.97 11.629 4.892 24.056 3.883 34.098-2.765 9.825-6.504 15.714-17.412 15.751-29.182.027-8.858 5.33-16.531 13.194-19.093 6.669-2.173 13.308-1.223 18.69 2.672 5.2 3.764 8.317 9.836 8.337 16.243.05 15.351 9.514 28.736 23.551 33.309 11.184 3.64 22.892 1.897 32.127-4.783 9.072-6.565 14.51-17.162 14.545-28.348.027-8.858 5.33-16.531 13.194-19.093 6.669-2.173 13.306-1.223 18.689 2.672 5.201 3.764 8.318 9.836 8.339 16.242.048 15.352 9.512 28.737 23.55 33.31 11.183 3.64 22.892 1.897 32.127-4.783 9.072-6.565 14.51-17.162 14.545-28.348.027-8.858 5.33-16.531 13.194-19.093 6.67-2.173 13.307-1.223 18.689 2.672 5.201 3.764 8.318 9.836 8.339 16.242.048 15.352 9.512 28.737 23.55 33.31 11.197 3.645 22.921 1.893 32.16-4.808 9.078-6.585 14.503-17.204 14.512-28.407.007-8.793 5.3-16.429 13.17-19.001 6.686-2.186 13.339-1.234 18.731 2.677 5.211 3.778 8.321 9.87 8.321 16.295v37.512c-5.706-3.998-12.639-6.355-20.116-6.355z"/><path d="m256 263.496c40.675 0 73.767-33.092 73.767-73.767s-33.092-73.766-73.767-73.766-73.767 33.092-73.767 73.767 33.092 73.766 73.767 73.766zm-53.592-49.7h29.525v29.525c-13.082-5.898-23.626-16.443-29.525-29.525zm44.526-40.633v-41.499c2.956-.46 5.983-.701 9.066-.701s6.11.242 9.066.701v41.499c0 4.143 3.357 7.5 7.5 7.5h41.499c.46 2.956.701 5.983.701 9.066s-.242 6.11-.701 9.066h-41.499c-4.143 0-7.5 3.357-7.5 7.5v41.499c-2.956.46-5.983.701-9.066.701s-6.11-.242-9.066-.701v-41.499c0-4.143-3.357-7.5-7.5-7.5h-41.499c-.46-2.956-.701-5.983-.701-9.066s.242-6.11.701-9.066h41.499c4.142 0 7.5-3.357 7.5-7.5zm33.132 70.158v-29.525h29.525c-5.898 13.082-16.442 23.627-29.525 29.525zm29.526-77.658h-29.525v-29.525c13.082 5.898 23.626 16.442 29.525 29.525zm-77.658-29.525v29.525h-29.525c5.898-13.083 16.442-23.627 29.525-29.525z"/></g></g></svg>