<svg id="Capa_1" enable-background="new 0 0 512 512" height="512" viewBox="0 0 512 512" width="512" xmlns="http://www.w3.org/2000/svg"><g><g><path d="m222.999 82.046h60.667v51.391h-60.667z" fill="#b3e59f"/><path d="m223.886 149.219-72.515 19.43c-3.031.812-6.26-.158-8.341-2.505l-10.19-11.491c-4.529-5.107-12.944-2.852-14.313 3.835l-3.079 15.046c-.629 3.074-2.941 5.528-5.971 6.34l-34.488 9.241c-4.9 1.313-9.783-2.053-10.384-7.09-3.837-32.183 16.445-63.138 48.668-71.772l64.009-17.151c32.223-8.634 65.265 8.032 78.034 37.822 1.999 4.663-.547 10.02-5.448 11.333l-2.604.698z" fill="#95d6a4"/><path d="m288.114 149.219 72.515 19.43c3.031.812 6.26-.158 8.342-2.505l10.19-11.491c4.529-5.107 12.944-2.852 14.313 3.835l3.079 15.046c.629 3.074 2.941 5.528 5.971 6.34l34.488 9.241c4.9 1.313 9.783-2.053 10.384-7.09 3.837-32.183-16.445-63.138-48.668-71.772l-64.009-17.151c-32.223-8.634-65.265 8.032-78.034 37.822-1.999 4.663.547 10.02 5.448 11.333l2.604.698z" fill="#b3e59f"/><path d="m198.04 93.158-51.385-13.769c-3.031-.812-5.342-3.267-5.971-6.34l-3.079-15.046c-1.368-6.687-9.784-8.942-14.313-3.835l-10.19 11.491c-2.082 2.347-5.311 3.317-8.341 2.505l-34.488-9.241c-4.9-1.313-7.446-6.67-5.448-11.333 12.769-29.79 45.811-46.456 78.034-37.822l64.009 17.151c32.223 8.634 52.505 39.589 48.668 71.772-.198 1.66-.861 3.139-1.837 4.329z" fill="#b3e59f"/><path d="m7.5 459.793v-28.815c0-5.147 4.172-9.319 9.319-9.319h478.362c5.147 0 9.319 4.172 9.319 9.319v28.815z" fill="#bed8fb"/><path d="m495.181 421.66h-23c5.147 0 9.319 4.172 9.319 9.319v28.815h23v-28.815c0-5.147-4.172-9.319-9.319-9.319z" fill="#a4ccff"/><path d="m224.029 388.527h-50.863c-21.137 0-40.461 11.942-49.914 30.848l-2.285 4.57c-9.453 18.906-28.776 30.848-49.914 30.848h-63.553v33.133c0 9.15 7.417 16.567 16.567 16.567h463.867c9.15 0 16.567-7.417 16.567-16.567v-33.133h-63.555c-21.137 0-40.461-11.942-49.914-30.848l-2.285-4.57c-9.453-18.906-28.776-30.848-49.914-30.848h-50.863z" fill="#f7e3c1"/><path d="m189.733 471.36c9.15 0 16.567-7.417 16.567-16.567 0-9.149-7.417-16.567-16.567-16.567h-16.567c-9.15 0-16.567 7.417-16.567 16.567s7.417 16.567 16.567 16.567z" fill="#ff8086"/><path d="m289.133 421.66h-66.266l9.643-274.839 23.49-38.328 23.458 38.417z" fill="#d19a6e"/><path d="m279.458 146.91-23.458-38.417-11.521 18.799 11.979 19.618 9.675 274.75h23z" fill="#c38c66"/><path d="m470.899 255.993h-8.654c-3.935 0-7.325-2.77-8.108-6.626-3.07-15.124-16.441-26.507-32.471-26.507-16.386 0-29.994 11.895-32.66 27.521-.52 3.051-2.708 5.47-5.649 6.436-6.854 2.252-11.734 8.856-11.372 16.543.419 8.911 8.095 15.766 17.016 15.766h82.366c9.415 0 16.996-7.854 16.548-17.367-.42-8.91-8.096-15.766-17.016-15.766z" fill="#ecf4ff"/><path d="m470.899 255.993h-8.654c-3.935 0-7.325-2.77-8.108-6.626-3.07-15.124-16.441-26.507-32.471-26.507-4.043 0-7.916.727-11.499 2.053 10.619 3.931 18.674 13.146 20.969 24.455.783 3.856 4.173 6.626 8.108 6.626h8.654c8.921 0 16.596 6.855 17.016 15.766.448 9.514-7.133 17.367-16.548 17.367h23c9.415 0 16.996-7.854 16.548-17.367-.419-8.911-8.095-15.767-17.015-15.767z" fill="#ddeafb"/><path d="m41.101 255.993h8.654c3.935 0 7.325-2.77 8.107-6.626 3.07-15.124 16.441-26.507 32.471-26.507 16.386 0 29.994 11.895 32.66 27.521.52 3.051 2.709 5.47 5.649 6.436 6.854 2.252 11.734 8.856 11.372 16.543-.419 8.911-8.095 15.766-17.016 15.766h-82.365c-9.415 0-16.996-7.854-16.548-17.367.42-8.91 8.096-15.766 17.016-15.766z" fill="#ecf4ff"/><path d="m128.642 256.818c-2.94-.966-5.128-3.386-5.649-6.437-2.666-15.626-16.274-27.521-32.66-27.521-4.044 0-7.918.726-11.501 2.053 10.936 4.048 19.153 13.698 21.161 25.468.521 3.051 2.709 5.471 5.649 6.437 6.854 2.252 11.734 8.856 11.372 16.543-.42 8.911-8.095 15.766-17.016 15.766h23c8.921 0 16.596-6.855 17.016-15.766.362-7.687-4.518-14.291-11.372-16.543z" fill="#ddeafb"/><g fill="#f1d0a4"><path d="m365.747 419.375 2.285 4.57c9.453 18.906 28.776 30.848 49.914 30.848h23c-21.137 0-40.461-11.943-49.914-30.848l-2.285-4.57c-9.453-18.906-28.776-30.848-49.913-30.848h-23c21.137 0 40.46 11.942 49.913 30.848z"/><path d="m481.5 454.793v33.133c0 9.15-7.417 16.567-16.567 16.567h23c9.15 0 16.567-7.417 16.567-16.567v-33.133z"/></g><path d="m189.733 438.227h-16.567c-1.101 0-2.176.113-3.217.318 7.609 1.498 13.35 8.2 13.35 16.249 0 8.048-5.741 14.751-13.35 16.249 1.041.205 2.115.318 3.217.318h16.567c9.15 0 16.567-7.417 16.567-16.567s-7.417-16.567-16.567-16.567z" fill="#e5646e"/><g fill="#95d6a4"><path d="m206.868 26.919-64.009-17.151c-9.672-2.592-19.414-2.889-28.663-1.251 1.888.334 3.777.745 5.663 1.251l64.009 17.151c32.223 8.634 52.505 39.589 48.668 71.772-.023.192-.073.373-.108.56l21.271 3.769c.976-1.19 1.639-2.668 1.837-4.329 3.837-32.183-16.445-63.138-48.668-71.772z"/><path d="m398.727 110.253-64.009-17.151c-9.672-2.592-19.414-2.889-28.663-1.251 1.888.334 3.777.745 5.663 1.251l64.009 17.151c32.223 8.634 52.505 39.589 48.668 71.772-.149 1.25-.563 2.397-1.175 3.395l13.791 3.695c4.9 1.313 9.783-2.053 10.384-7.09 3.837-32.183-16.445-63.138-48.668-71.772z"/><path d="m292.83 98.82 72.515-19.43c3.031-.812 5.342-3.267 5.971-6.34l3.079-15.046c1.368-6.687 9.784-8.942 14.313-3.835l10.19 11.491c2.082 2.347 5.311 3.317 8.341 2.505l34.488-9.241c4.9-1.313 7.446-6.67 5.448-11.333-12.77-29.791-45.811-46.457-78.034-37.823l-64.009 17.151c-32.223 8.634-52.505 39.589-48.668 71.772.601 5.038 5.484 8.404 10.384 7.091l2.604-.698z"/></g><path d="m447.174 47.59c-12.021-28.046-42.012-44.452-72.371-39.073 21.565 3.819 40.434 18.225 49.371 39.073 1.999 4.663-.547 10.019-5.447 11.333l-20.849 5.586 1.019 1.149c2.082 2.347 5.311 3.317 8.341 2.505l34.488-9.241c4.901-1.312 7.447-6.669 5.448-11.332z" fill="#78c2a4"/><g><circle cx="222.867" cy="115.177" fill="#966a5b" r="33.133"/><circle cx="289.133" cy="131.743" fill="#966a5b" r="33.133"/><g fill="#785353"><path d="m246.295 91.748c-9.295-9.295-22.739-11.913-34.37-7.853 4.561 1.591 8.843 4.209 12.487 7.853 12.939 12.939 12.939 33.918 0 46.858-3.644 3.644-7.926 6.262-12.487 7.853 11.632 4.059 25.075 1.442 34.37-7.853 12.94-12.94 12.94-33.919 0-46.858z"/><path d="m312.562 108.315c-9.295-9.295-22.739-11.913-34.37-7.853 4.561 1.591 8.843 4.209 12.487 7.853 12.939 12.939 12.939 33.918 0 46.858-3.644 3.644-7.926 6.262-12.487 7.853 11.632 4.059 25.075 1.442 34.37-7.853 12.939-12.94 12.939-33.919 0-46.858z"/></g></g></g><g><path d="m495.182 414.16h-100.698c-11.088-20.491-32.22-33.134-55.651-33.134h-43.621l-7.323-208.699c.415.012.829.03 1.244.03 8.804 0 17.602-2.847 24.901-8.517l44.655 11.966c5.811 1.554 11.901-.273 15.893-4.774l10.19-11.491c.104-.117.322-.36.788-.236.468.125.533.445.565.6l3.079 15.045c1.206 5.895 5.565 10.524 11.378 12.082l34.488 9.242c1.345.359 2.716.537 4.079.537 3.118 0 6.199-.927 8.834-2.711 3.812-2.582 6.311-6.69 6.858-11.274 2.08-17.446-2.192-35.126-12.031-49.784-9.935-14.804-24.902-25.501-42.142-30.12l-47.084-12.616 13.701-3.671c5.811-1.557 10.171-6.184 11.379-12.082l3.078-15.045c.031-.154.097-.476.565-.601.465-.126.685.12.789.236l10.189 11.492c3.992 4.502 10.083 6.328 15.895 4.773l34.487-9.24c4.419-1.185 8.099-4.224 10.097-8.338 2.011-4.142 2.122-8.95.304-13.194-6.922-16.148-19.463-29.323-35.312-37.099-16.008-7.853-34.315-9.633-51.557-5.013l-64.009 17.151c-17.239 4.619-32.206 15.316-42.142 30.119-1.892 2.819-3.574 5.752-5.049 8.771-1.475-3.02-3.156-5.952-5.049-8.771-9.936-14.804-24.903-25.5-42.143-30.119l-64.007-17.151c-17.241-4.621-35.55-2.839-51.556 5.013-15.85 7.775-28.39 20.95-35.312 37.1-1.818 4.242-1.708 9.051.303 13.192 1.998 4.115 5.678 7.154 10.097 8.339l34.487 9.24c5.812 1.556 11.903-.271 15.895-4.774l10.19-11.491c.104-.118.315-.363.788-.236.468.125.533.445.565.6l3.079 15.047c1.207 5.896 5.566 10.524 11.378 12.08l13.704 3.672-47.087 12.616c-17.24 4.619-32.206 15.316-42.142 30.12-9.838 14.658-14.111 32.338-12.031 49.784.546 4.584 3.046 8.692 6.858 11.274 2.636 1.784 5.715 2.711 8.834 2.711 1.364 0 2.736-.178 4.081-.538l34.488-9.241c5.812-1.558 10.171-6.188 11.377-12.081l3.079-15.046c.032-.154.097-.475.565-.6.465-.124.684.118.789.237l10.19 11.489c3.992 4.503 10.081 6.332 15.894 4.774l71.347-19.117-1.91 54.419c-.145 4.14 3.093 7.613 7.232 7.758.09.004.179.005.268.005 4.02 0 7.349-3.188 7.491-7.237l.651-18.548h35.217l2.235 63.691h-39.687l.531-15.143c.145-4.14-3.093-7.613-7.232-7.758-4.118-.123-7.613 3.093-7.759 7.232l-4.909 139.918h-43.621c-23.431 0-44.563 12.642-55.651 33.134h-100.697c-9.274.001-16.819 7.546-16.819 16.82v56.948c0 13.271 10.796 24.066 24.067 24.066h25.074c4.142 0 7.5-3.357 7.5-7.5s-3.358-7.5-7.5-7.5h-25.074c-5 0-9.067-4.067-9.067-9.066v-25.634h56.055c24.133 0 45.829-13.409 56.622-34.994l2.284-4.569c8.236-16.472 24.791-26.703 43.206-26.703h43.095l-.636 18.134h-9.326c-4.142 0-7.5 3.357-7.5 7.5s3.358 7.5 7.5 7.5h16.567 66.267 16.566c4.143 0 7.5-3.357 7.5-7.5s-3.357-7.5-7.5-7.5h-9.325l-.636-18.134h43.094c18.415 0 34.971 10.231 43.206 26.703l2.285 4.57c10.793 21.584 32.489 34.993 56.621 34.993h56.055v25.634c0 4.999-4.067 9.066-9.066 9.066h-409.102c-4.142 0-7.5 3.357-7.5 7.5s3.358 7.5 7.5 7.5h409.101c13.271 0 24.066-10.796 24.066-24.066v-56.948c.001-9.274-7.544-16.819-16.817-16.819zm-424.127 33.133h-56.055v-16.314c0-1.003.816-1.818 1.819-1.818h91.982c-9.042 11.373-22.78 18.132-37.746 18.132zm199.953-297.425c-9.994-9.994-9.994-26.256 0-36.25 9.994-9.995 26.257-9.996 36.251 0 8.15 8.149 9.652 20.465 4.51 30.153l-5.618-5.618c-2.93-2.928-7.678-2.928-10.608 0-2.929 2.93-2.929 7.678 0 10.607l5.618 5.618c-9.688 5.144-22.004 3.641-30.153-4.51zm-60.171-12.056 5.619-5.619c2.929-2.929 2.929-7.678 0-10.606s-7.678-2.929-10.607.001l-5.626 5.627c-1.953-3.662-2.989-7.77-2.989-12.038 0-6.848 2.666-13.284 7.508-18.125 4.997-4.998 11.561-7.496 18.126-7.496 6.564 0 13.128 2.499 18.125 7.496 4.841 4.841 7.507 11.277 7.507 18.125 0 6.847-2.666 13.284-7.507 18.125-2.823 2.823-6.145 4.848-9.685 6.076l-3.574.958c-5.688 1.091-11.674.249-16.897-2.524zm121.939-37.553 64.009 17.15c28.036 7.513 46.592 34.872 43.162 63.641-.032.271-.158.483-.374.629-.288.196-.539.128-.621.105l-34.487-9.241c-.289-.077-.506-.308-.565-.601l-3.079-15.045c-1.206-5.895-5.565-10.524-11.378-12.082-5.812-1.558-11.903.272-15.894 4.773l-10.189 11.49c-.198.226-.504.312-.789.238l-37.77-10.12c8.398-15.416 6.094-35.157-6.934-48.186-.857-.857-1.748-1.658-2.66-2.423l7.755-2.078c3.295.31 6.591.886 9.814 1.75zm-25.703-66.096 64.009-17.151c28.038-7.513 57.785 6.905 69.199 33.532.107.251.104.498-.01.732-.151.312-.403.38-.486.402l-34.487 9.24c-.29.078-.591-.014-.789-.236l-10.189-11.492c-3.992-4.502-10.084-6.33-15.893-4.773-5.812 1.557-10.172 6.186-11.379 12.082l-3.078 15.044c-.06.294-.276.523-.566.602l-71.297 19.104c-8.981-.653-18.134 1.656-25.862 6.929l-1.337.359c-.084.021-.337.09-.622-.105-.216-.146-.342-.357-.374-.629-3.431-28.769 15.125-56.127 43.161-63.64zm-159.041 37.382-3.079-15.047c-1.206-5.895-5.566-10.524-11.378-12.081-5.811-1.56-11.903.272-15.893 4.774l-10.191 11.491c-.198.222-.498.311-.789.236l-34.487-9.24c-.083-.022-.335-.09-.486-.401-.114-.235-.117-.482-.009-.732 11.414-26.629 41.166-41.044 69.199-33.533l64.009 17.151c23.232 6.225 39.939 26.08 43.036 49.069-15.318-12.05-37.363-11.526-52.09 1.581l-47.278-12.669c-.288-.077-.504-.306-.564-.599zm1.399 89.772c-.293.078-.592-.013-.79-.237l-10.189-11.489c-3.992-4.502-10.08-6.332-15.894-4.774-5.812 1.557-10.172 6.187-11.378 12.081l-3.079 15.047c-.06.292-.277.523-.565.6l-34.487 9.24c-.083.023-.334.09-.622-.104-.216-.146-.342-.358-.375-.629-3.43-28.768 15.126-56.128 43.162-63.641l64.01-17.15c2.104-.564 4.241-.997 6.387-1.327-2.207 5.058-3.377 10.56-3.377 16.245 0 10.854 4.227 21.058 11.901 28.732 1.526 1.526 3.145 2.901 4.838 4.133zm89.487 16.768.893-25.456 11.997-3.215c.218-.059.426-.142.641-.209 1.936 4.078 4.582 7.9 7.952 11.27v.001c3.668 3.668 7.873 6.476 12.36 8.445l.322 9.164zm37.452 93.692 2.235 63.691h-45.209l2.235-63.691zm-45.736 142.383 2.235-63.692h46.262l2.235 63.692zm210.311 33.133c-14.966 0-28.705-6.759-37.746-18.133h91.983c1.003 0 1.818.815 1.818 1.818v16.314h-56.055z"/><path d="m189.733 478.86c13.27 0 24.066-10.796 24.066-24.066s-10.796-24.066-24.066-24.066h-16.567c-13.27 0-24.066 10.796-24.066 24.066s10.796 24.066 24.066 24.066zm-25.633-24.067c0-4.999 4.067-9.066 9.066-9.066h16.567c4.999 0 9.066 4.067 9.066 9.066s-4.067 9.066-9.066 9.066h-16.567c-4.999.001-9.066-4.067-9.066-9.066z"/><path d="m421.667 215.36c-19.871 0-36.716 14.198-40.054 33.76-.062.36-.438.521-.596.573-10.236 3.362-17.03 13.24-16.523 24.021.605 12.849 11.37 22.913 24.507 22.913h82.365c6.547 0 12.895-2.718 17.415-7.456 4.585-4.807 6.938-11.115 6.625-17.765-.605-12.849-11.369-22.913-24.508-22.913h-8.653c-.366 0-.685-.26-.758-.618-3.824-18.841-20.571-32.515-39.82-32.515zm40.578 48.133h8.653c5.028 0 9.301 3.866 9.525 8.618.118 2.514-.768 4.896-2.495 6.705-1.729 1.812-4.059 2.811-6.561 2.811h-82.365c-5.027 0-9.3-3.867-9.523-8.619-.191-4.07 2.367-7.799 6.222-9.065 5.621-1.847 9.722-6.56 10.701-12.3 2.104-12.332 12.73-21.283 25.267-21.283 12.145 0 22.709 8.621 25.12 20.499 1.483 7.321 7.984 12.634 15.456 12.634z"/><path d="m40.633 296.627h82.366c13.137 0 23.902-10.064 24.507-22.914.507-10.78-6.287-20.657-16.523-24.02-.159-.053-.535-.213-.597-.572-3.337-19.562-20.182-33.761-40.053-33.761-19.25 0-35.997 13.675-39.821 32.516-.073.358-.392.618-.758.618h-8.654c-13.138 0-23.902 10.064-24.507 22.913-.313 6.65 2.04 12.959 6.625 17.766 4.521 4.736 10.868 7.454 17.415 7.454zm.468-33.134h8.654c7.471 0 13.972-5.314 15.458-12.635 2.411-11.878 12.976-20.499 25.121-20.499 12.537 0 23.163 8.95 25.267 21.283.979 5.74 5.08 10.453 10.701 12.3 3.855 1.267 6.414 4.994 6.222 9.065-.224 4.752-4.496 8.619-9.524 8.619h-82.367c-2.502 0-4.833-.998-6.562-2.81-1.727-1.81-2.613-4.192-2.495-6.706.225-4.75 4.497-8.617 9.525-8.617z"/></g></g></svg>