<svg id="Capa_1" enable-background="new 0 0 511.991 511.991" height="512" viewBox="0 0 511.991 511.991" width="512" xmlns="http://www.w3.org/2000/svg"><g><g><g><path d="m85.094 359.209 323.439-323.439c6.47-6.47 6.47-16.959 0-23.429s-16.959-6.47-23.429 0l-323.4 323.4z" fill="#fff0af"/><path d="m408.533 12.341c-6.401-6.401-16.73-6.458-23.214-.194.07.067.146.125.214.194 6.47 6.47 6.47 16.959 0 23.429l-311.92 311.92 11.481 11.519 323.439-323.439c6.47-6.47 6.47-16.959 0-23.429z" fill="#ffe07d"/></g><g><path d="m143.717 391.703 355.933-355.933c6.47-6.47 6.47-16.959 0-23.429s-16.959-6.47-23.429 0l-355.894 355.894z" fill="#fff0af"/><path d="m499.65 12.341c-6.401-6.401-16.73-6.458-23.214-.194.07.067.145.125.214.194 6.47 6.47 6.47 16.959 0 23.429l-344.414 344.414 11.481 11.519 355.933-355.933c6.47-6.47 6.47-16.959 0-23.429z" fill="#ffe07d"/></g><g><path d="m176.211 453.049 323.439-323.439c6.47-6.47 6.47-16.959 0-23.429s-16.959-6.47-23.429 0l-323.4 323.4z" fill="#fff0af"/><path d="m499.65 106.181c-6.401-6.401-16.73-6.458-23.214-.194.07.067.145.125.214.194 6.47 6.47 6.47 16.959 0 23.429l-311.92 311.92 11.481 11.519 323.439-323.439c6.47-6.47 6.47-16.959 0-23.429z" fill="#ffe07d"/></g><path d="m61.414 329.683 40.264 26.886c2.19 1.462 4.959 1.753 7.405.778l44.974-17.927c6.378-2.542 12.902 3.332 11.04 9.941l-13.128 46.602c-.714 2.534-.135 5.258 1.548 7.283l30.947 37.233c4.388 5.28.818 13.3-6.042 13.572l-48.377 1.916c-2.631.104-5.042 1.496-6.448 3.723l-25.847 40.937c-3.665 5.805-12.396 4.888-14.774-1.553l-16.771-45.418c-.912-2.47-2.981-4.333-5.533-4.982l-46.922-11.932c-6.654-1.692-8.479-10.279-3.089-14.531l38.012-29.985c2.067-1.631 3.2-4.174 3.028-6.802l-3.152-48.313c-.447-6.851 7.156-11.24 12.865-7.428z" fill="#ffe07d"/><g fill="#ffd064"><path d="m80.442 356.569c2.19 1.462 4.959 1.753 7.405.778l9.391-3.743-35.824-23.921c-5.195-3.469-11.937-.139-12.777 5.649z"/><path d="m184.465 440.478-30.947-37.233c-1.683-2.025-2.262-4.749-1.548-7.283l13.127-46.602c1.862-6.608-4.663-12.483-11.04-9.941l-10.631 4.237c.78 1.678 1.011 3.655.434 5.703l-13.128 46.602c-.714 2.534-.135 5.258 1.548 7.283l31.721 38.119c4.159 5.004 1.164 12.457-5 13.455l19.42-.769c6.862-.27 10.433-8.291 6.044-13.571z"/></g></g><g><path d="m222.869 48.123h9.066v9.066c0 4.143 3.358 7.5 7.5 7.5s7.5-3.357 7.5-7.5v-9.066h9.067c4.142 0 7.5-3.357 7.5-7.5s-3.358-7.5-7.5-7.5h-9.067v-9.067c0-4.143-3.358-7.5-7.5-7.5s-7.5 3.357-7.5 7.5v9.067h-9.066c-4.142 0-7.5 3.357-7.5 7.5s3.358 7.5 7.5 7.5z"/><path d="m487.935 248.489h-9.066v-9.066c0-4.143-3.358-7.5-7.5-7.5s-7.5 3.357-7.5 7.5v9.066h-9.067c-4.142 0-7.5 3.357-7.5 7.5s3.358 7.5 7.5 7.5h9.067v9.066c0 4.143 3.358 7.5 7.5 7.5s7.5-3.357 7.5-7.5v-9.066h9.066c4.142 0 7.5-3.357 7.5-7.5s-3.358-7.5-7.5-7.5z"/><path d="m405.102 364.456h-9.067v-9.066c0-4.143-3.358-7.5-7.5-7.5s-7.5 3.357-7.5 7.5v9.066h-9.066c-4.142 0-7.5 3.357-7.5 7.5s3.358 7.5 7.5 7.5h9.066v9.066c0 4.143 3.358 7.5 7.5 7.5s7.5-3.357 7.5-7.5v-9.066h9.067c4.142 0 7.5-3.357 7.5-7.5s-3.358-7.5-7.5-7.5z"/><path d="m140.035 147.522h9.067v9.066c0 4.143 3.358 7.5 7.5 7.5s7.5-3.357 7.5-7.5v-9.066h9.066c4.142 0 7.5-3.357 7.5-7.5s-3.358-7.5-7.5-7.5h-9.066v-9.066c0-4.143-3.358-7.5-7.5-7.5s-7.5 3.357-7.5 7.5v9.066h-9.067c-4.142 0-7.5 3.357-7.5 7.5s3.358 7.5 7.5 7.5z"/><path d="m73.769 205.506c4.142 0 7.5-3.357 7.5-7.5v-16.566c0-4.143-3.358-7.5-7.5-7.5s-7.5 3.357-7.5 7.5v16.566c0 4.142 3.358 7.5 7.5 7.5z"/><path d="m73.769 271.772c4.142 0 7.5-3.357 7.5-7.5v-16.566c0-4.143-3.358-7.5-7.5-7.5s-7.5 3.357-7.5 7.5v16.566c0 4.143 3.358 7.5 7.5 7.5z"/><path d="m98.619 230.355h16.566c4.142 0 7.5-3.357 7.5-7.5s-3.358-7.5-7.5-7.5h-16.566c-4.142 0-7.5 3.357-7.5 7.5s3.358 7.5 7.5 7.5z"/><path d="m32.352 230.355h16.566c4.142 0 7.5-3.357 7.5-7.5s-3.358-7.5-7.5-7.5h-16.566c-4.142 0-7.5 3.357-7.5 7.5s3.358 7.5 7.5 7.5z"/><path d="m305.702 389.305c-4.142 0-7.5 3.357-7.5 7.5v16.567c0 4.143 3.358 7.5 7.5 7.5s7.5-3.357 7.5-7.5v-16.567c0-4.142-3.357-7.5-7.5-7.5z"/><path d="m305.702 455.572c-4.142 0-7.5 3.357-7.5 7.5v16.567c0 4.143 3.358 7.5 7.5 7.5s7.5-3.357 7.5-7.5v-16.567c0-4.143-3.357-7.5-7.5-7.5z"/><path d="m347.119 430.722h-16.567c-4.142 0-7.5 3.357-7.5 7.5s3.358 7.5 7.5 7.5h16.567c4.142 0 7.5-3.357 7.5-7.5 0-4.142-3.358-7.5-7.5-7.5z"/><path d="m280.852 430.722h-16.567c-4.142 0-7.5 3.357-7.5 7.5s3.358 7.5 7.5 7.5h16.567c4.142 0 7.5-3.357 7.5-7.5 0-4.142-3.358-7.5-7.5-7.5z"/><path d="m470.918 100.878-305.251 305.251-6.549-7.88 4.447-15.787 341.389-341.389c9.382-9.383 9.382-24.651-.001-34.035-9.383-9.383-24.651-9.383-34.036 0l-329.244 329.245-35.611 14.194-.977-.652 308.752-308.751c9.384-9.384 9.384-24.652 0-34.036-9.384-9.383-24.652-9.383-34.036 0l-168.541 168.541c-2.929 2.93-2.929 7.678 0 10.607 2.929 2.928 7.678 2.928 10.606 0l168.542-168.541c3.535-3.535 9.288-3.535 12.823 0 3.535 3.534 3.535 9.287 0 12.821l-310.866 310.866-15.377-10.268 123.776-123.776c2.929-2.93 2.929-7.678 0-10.607-2.929-2.928-7.678-2.928-10.606 0l-125.953 125.953c-4.787-2.552-10.506-2.488-15.281.269-5.241 3.026-8.252 8.657-7.858 14.696l3.168 48.575-38.219 30.148c-4.752 3.748-6.921 9.755-5.663 15.675 1.259 5.919 5.684 10.523 11.548 12.014l47.177 11.997 16.862 45.665c2.097 5.677 7.138 9.597 13.157 10.229.566.059 1.128.088 1.686.088 5.389 0 10.382-2.723 13.309-7.359l5.055-8.006c2.211-3.502 1.165-8.134-2.337-10.346-3.503-2.212-8.134-1.164-10.346 2.338l-5.055 8.006c-.085.134-.262.405-.744.361-.484-.052-.599-.36-.653-.508l-18.228-49.363c-.855-2.316-2.795-4.062-5.187-4.671l-50.999-12.969c-.153-.039-.471-.12-.572-.596-.102-.477.157-.681.281-.778l41.314-32.59c1.938-1.529 3-3.914 2.839-6.377l-3.425-52.51c-.01-.157-.031-.485.39-.729.422-.244.695-.062.827.027l3.833 2.56c.007.005.015.01.022.015l28.061 18.737c.016.011.032.022.048.032l11.798 7.877c2.053 1.371 4.649 1.644 6.942.729l40.711-16.227.075-.03 8.095-3.227c.148-.059.453-.18.814.146.362.326.272.643.229.795l-8.188 29.067c-.003.012-.007.024-.01.036l-6.07 21.547c-.669 2.376-.126 4.929 1.452 6.827l14.27 17.17c.004.005.009.011.014.016l19.351 23.282c.101.122.312.375.114.819-.198.445-.528.459-.685.465l-52.58 2.082c-2.466.098-4.727 1.402-6.045 3.49l-6.549 10.373c-2.211 3.502-1.164 8.135 2.338 10.346 3.503 2.214 8.135 1.165 10.346-2.338l4.444-7.039 48.641-1.926c6.047-.24 11.333-3.824 13.793-9.353.893-2.005 1.341-4.115 1.372-6.212l311.068-311.067c9.382-9.383 9.382-24.651-.001-34.035-9.384-9.381-24.652-9.383-34.036.001zm10.606-83.233c1.712-1.713 3.989-2.656 6.411-2.656s4.699.943 6.411 2.655c3.535 3.535 3.535 9.288 0 12.822l-322.461 322.462.432-1.534c1.641-5.825-.134-11.959-4.631-16.009-.701-.632-1.451-1.183-2.23-1.671zm12.823 106.661-307.412 307.411-11.639-14.004 306.228-306.228c3.535-3.536 9.287-3.535 12.822-.001 3.536 3.535 3.536 9.288.001 12.822z"/></g></g></svg>