<svg id="Capa_1" enable-background="new 0 0 512 512" height="512" viewBox="0 0 512 512" width="512" xmlns="http://www.w3.org/2000/svg"><g><g><g><path d="m426.337 151.847c16.825-7.964 28.463-25.096 28.463-44.947 0-27.449-22.251-49.7-49.7-49.7s-49.7 22.251-49.7 49.7c0 6.309 1.176 12.344 3.32 17.897v27.05z" fill="#ffe07d"/><path d="m426.337 151.847c16.825-7.964 28.463-25.096 28.463-44.947 0-27.449-22.251-49.7-49.7-49.7s-49.7 22.251-49.7 49.7c0 6.309 1.176 12.344 3.32 17.897v27.05z" fill="#ffe07d"/><path d="m405.1 57.2c-3.984 0-7.854.482-11.567 1.368 21.868 5.215 38.133 24.868 38.133 48.332 0 19.851-11.638 36.983-28.463 44.947h23.133c16.825-7.964 28.463-25.096 28.463-44.947.001-27.448-22.251-49.7-49.699-49.7z" fill="#ffd064"/></g><g><g><path d="m438.233 173.167h-.023c-1.221 0-2.272-.821-2.613-1.993-8.026-27.564-33.476-47.707-63.631-47.707-11.275 0-21.887 2.825-31.179 7.795-3.642 1.948-8.163.93-10.478-2.49-8.934-13.196-24.04-21.872-41.176-21.872-4.008 0-7.903.477-11.635 1.374-4.043.972-8.218-1.2-9.524-5.148-12.002-36.299-46.202-62.492-86.524-62.492-50.322 0-91.117 40.794-91.117 91.117 0 1.143.029 2.278.077 3.409.047 1.119-.32 2.217-1.009 3.1l-.071.091c-.863 1.106-2.17 1.758-3.571 1.835-44.09 2.402-79.009 39.258-78.247 84.123.771 45.352 38.501 81.391 83.861 81.391h345.872c36.419 0 66.776-28.971 67.249-65.387.48-37.001-29.37-67.146-66.261-67.146z" fill="#ecf4ff"/><path d="m438.233 173.167h-.023c-1.221 0-2.272-.821-2.613-1.993-8.026-27.564-33.476-47.707-63.631-47.707-11.275 0-21.887 2.825-31.179 7.795-3.642 1.948-8.163.93-10.478-2.49-8.934-13.196-24.04-21.872-41.176-21.872-4.008 0-7.903.477-11.635 1.374-4.043.972-8.218-1.2-9.524-5.148-12.002-36.299-46.202-62.492-86.524-62.492-50.322 0-91.117 40.794-91.117 91.117 0 1.143.029 2.278.077 3.409.047 1.119-.32 2.217-1.009 3.1l-.071.091c-.863 1.106-2.17 1.758-3.571 1.835-44.09 2.402-79.009 39.258-78.247 84.123.771 45.352 38.501 81.391 83.861 81.391h345.872c36.419 0 66.776-28.971 67.249-65.387.48-37.001-29.37-67.146-66.261-67.146z" fill="#ecf4ff"/><path d="m438.233 173.167h-.023c-1.221 0-2.272-.821-2.613-1.993-8.026-27.564-33.476-47.707-63.631-47.707-3.921 0-7.759.349-11.492 1.004 24.976 4.374 45.142 22.728 52.123 46.703.341 1.172 1.392 1.993 2.613 1.993h.023c36.891 0 66.741 30.145 66.261 67.146-.472 36.417-30.829 65.387-67.249 65.387h23c36.419 0 66.776-28.97 67.249-65.387.48-37.001-29.37-67.146-66.261-67.146z" fill="#ddeafb"/></g></g></g><g><path d="m106.434 298.2h-16.1c-41.54 0-75.334-33.794-75.334-75.333 0-41.514 33.754-75.292 75.259-75.334.141.005.283.009.425.01.006 0 .011-.001.017 0 41.37.199 74.966 33.908 74.966 75.324 0 4.142 3.358 7.5 7.5 7.5s7.5-3.358 7.5-7.5c0-47.276-36.506-86.18-82.807-90.017-.005-.365-.026-.737-.026-1.099 0-17.048 5.096-33.446 14.737-47.421 2.352-3.409 1.495-8.08-1.914-10.432-3.411-2.353-8.08-1.495-10.432 1.914-11.377 16.491-17.39 35.834-17.39 55.939 0 .363.002.726.006 1.091-46.319 3.821-82.841 42.738-82.841 90.025 0 49.81 40.523 90.333 90.333 90.333h16.1c4.142 0 7.5-3.358 7.5-7.5.001-4.142-3.357-7.5-7.499-7.5z"/><path d="m482.216 180.27c1.246-2.761.742-6.118-1.527-8.386l-11.714-11.714c-2.929-2.929-7.678-2.929-10.606 0-2.118 2.118-2.696 5.185-1.751 7.829-4.789-1.233-9.76-2.008-14.871-2.249-1.344-3.923-3.008-7.674-4.944-11.242 15.709-10.509 25.497-28.41 25.497-47.607 0-31.54-25.66-57.2-57.2-57.2s-57.2 25.66-57.2 57.2c0 4.282.477 8.5 1.405 12.618-4.331 1.399-8.532 3.203-12.557 5.398-2.939-4.398-6.458-8.331-10.421-11.716 2.068-1.335 3.44-3.656 3.44-6.3 0-4.142-3.358-7.5-7.5-7.5h-16.567c-1.595 0-3.071.502-4.287 1.351-3.99-.887-8.104-1.351-12.28-1.351-4.739 0-9.4.574-13.931 1.712-5.936-18.111-17.155-34.361-32.147-46.371-17.395-13.934-39.273-21.608-61.604-21.608-21.286 0-41.556 6.676-58.619 19.305-3.329 2.464-4.03 7.161-1.566 10.49s7.161 4.03 10.491 1.566c14.461-10.704 31.645-16.362 49.694-16.362 36.937 0 68.923 23.782 79.77 58.52-17.757 9.918-29.287 28.845-29.287 49.947 0 4.142 3.358 7.5 7.5 7.5s7.5-3.358 7.5-7.5c0-17.242 10.431-32.513 25.978-38.968.025-.01.05-.016.075-.026 5.129-2.127 10.562-3.206 16.148-3.206 16.236 0 31.217 9.494 38.166 24.185.944 1.997 2.72 3.475 4.854 4.042 2.134.566 4.409.164 6.22-1.1 9.893-6.909 21.509-10.561 33.593-10.561 26.854 0 50.264 18.141 56.926 44.116.871 3.401 3.977 5.735 7.497 5.633 0 0 1.399-.049 1.843-.049 32.404 0 58.767 26.363 58.767 58.767s-26.363 58.767-58.767 58.767-58.767-26.363-58.767-58.767c0-4.142-3.358-7.5-7.5-7.5s-7.5 3.358-7.5 7.5c0 23.962 11.491 45.284 29.244 58.767h-257.277c-4.142 0-7.5 3.358-7.5 7.5s3.358 7.5 7.5 7.5h301.799c40.675 0 73.767-33.092 73.767-73.767 0-24.202-11.727-45.704-29.784-59.163zm-110.249-64.303c-2.686 0-5.351.152-7.992.437-.713-3.097-1.075-6.275-1.075-9.504 0-23.269 18.931-42.2 42.2-42.2s42.2 18.931 42.2 42.2c0 14.224-7.284 27.485-18.962 35.226-13.681-16.185-34.076-26.159-56.371-26.159z"/><path d="m40.633 331.333c-4.142 0-7.5 3.358-7.5 7.5v66.267c0 4.142 3.358 7.5 7.5 7.5s7.5-3.358 7.5-7.5v-66.267c0-4.142-3.358-7.5-7.5-7.5z"/><path d="m148.317 331.333c-4.142 0-7.5 3.358-7.5 7.5v66.267c0 4.142 3.358 7.5 7.5 7.5s7.5-3.358 7.5-7.5v-66.267c0-4.142-3.358-7.5-7.5-7.5z"/><path d="m94.475 430.733c-4.142 0-7.5 3.358-7.5 7.5v66.267c0 4.142 3.358 7.5 7.5 7.5s7.5-3.358 7.5-7.5v-66.267c0-4.142-3.358-7.5-7.5-7.5z"/><path d="m202.158 430.733c-4.142 0-7.5 3.358-7.5 7.5v66.267c0 4.142 3.358 7.5 7.5 7.5s7.5-3.358 7.5-7.5v-66.267c0-4.142-3.358-7.5-7.5-7.5z"/><path d="m309.842 430.733c-4.142 0-7.5 3.358-7.5 7.5v66.267c0 4.142 3.358 7.5 7.5 7.5s7.5-3.358 7.5-7.5v-66.267c0-4.142-3.358-7.5-7.5-7.5z"/><path d="m417.525 430.733c-4.142 0-7.5 3.358-7.5 7.5v66.267c0 4.142 3.358 7.5 7.5 7.5s7.5-3.358 7.5-7.5v-66.267c0-4.142-3.358-7.5-7.5-7.5z"/><path d="m256 331.333c-4.142 0-7.5 3.358-7.5 7.5v66.267c0 4.142 3.358 7.5 7.5 7.5s7.5-3.358 7.5-7.5v-66.267c0-4.142-3.358-7.5-7.5-7.5z"/><path d="m363.683 331.333c-4.142 0-7.5 3.358-7.5 7.5v66.267c0 4.142 3.358 7.5 7.5 7.5s7.5-3.358 7.5-7.5v-66.267c0-4.142-3.358-7.5-7.5-7.5z"/><path d="m471.367 331.333c-4.142 0-7.5 3.358-7.5 7.5v66.267c0 4.142 3.358 7.5 7.5 7.5s7.5-3.358 7.5-7.5v-66.267c0-4.142-3.358-7.5-7.5-7.5z"/><path d="m405.1 31.567c4.142 0 7.5-3.358 7.5-7.5v-16.567c0-4.142-3.358-7.5-7.5-7.5s-7.5 3.358-7.5 7.5v16.567c0 4.142 3.358 7.5 7.5 7.5z"/><path d="m341.225 53.631c1.464 1.464 3.384 2.197 5.303 2.197s3.839-.732 5.303-2.197c2.929-2.929 2.929-7.678 0-10.606l-11.714-11.714c-2.929-2.929-7.678-2.929-10.606 0-2.929 2.929-2.929 7.678 0 10.606z"/><path d="m480.433 106.9c0 4.142 3.358 7.5 7.5 7.5h16.567c4.142 0 7.5-3.358 7.5-7.5s-3.358-7.5-7.5-7.5h-16.567c-4.142 0-7.5 3.358-7.5 7.5z"/><path d="m463.672 55.828c1.919 0 3.839-.732 5.303-2.197l11.714-11.714c2.929-2.929 2.929-7.678 0-10.606-2.929-2.929-7.678-2.929-10.606 0l-11.714 11.714c-2.929 2.929-2.929 7.678 0 10.606 1.464 1.465 3.383 2.197 5.303 2.197z"/><path d="m366.472 33.242c1.196 2.888 3.989 4.632 6.932 4.632.957 0 1.929-.184 2.867-.573 3.827-1.585 5.644-5.973 4.059-9.799l-3.17-7.653c-1.585-3.826-5.973-5.643-9.799-4.059-3.827 1.586-5.644 5.973-4.059 9.799z"/><path d="m318.049 78.96 7.653 3.17c.938.389 1.911.573 2.867.573 2.943 0 5.736-1.744 6.932-4.632 1.585-3.827-.232-8.214-4.059-9.799l-7.653-3.17c-3.826-1.585-8.214.232-9.799 4.059s.232 8.214 4.059 9.799z"/><path d="m484.498 131.67c-3.827-1.584-8.214.232-9.799 4.059s.233 8.214 4.059 9.799l7.653 3.17c.939.389 1.911.573 2.867.573 2.943 0 5.736-1.744 6.932-4.632 1.585-3.827-.233-8.214-4.059-9.799z"/><path d="m474.699 78.071c1.196 2.888 3.989 4.632 6.932 4.632.956 0 1.929-.184 2.867-.573l7.653-3.17c3.827-1.585 5.644-5.973 4.059-9.799-1.586-3.827-5.973-5.643-9.799-4.059l-7.653 3.17c-3.827 1.585-5.644 5.973-4.059 9.799z"/><path d="m433.929 37.301c.939.389 1.911.573 2.867.573 2.943 0 5.736-1.744 6.932-4.632l3.17-7.653c1.585-3.827-.232-8.214-4.059-9.799s-8.214.232-9.799 4.059l-3.17 7.653c-1.585 3.827.232 8.214 4.059 9.799z"/></g></g></svg>