<svg width="1377" height="796" viewBox="0 0 1377 796" fill="none" xmlns="http://www.w3.org/2000/svg">
<g id="Group 1">
<line id="Line 2" x1="21.9945" y1="793.482" x2="1371.99" y2="790.5" stroke="white" stroke-width="5"/>
<line id="Line 1" x1="21.9945" y1="5.50001" x2="1371.99" y2="2.51769" stroke="white" stroke-width="5"/>
<line id="Line 3" x1="1374.5" x2="1374.5" y2="793" stroke="white" stroke-width="5"/>
<line id="Line 4" x1="19.5" y1="796" x2="19.5" y2="483" stroke="white" stroke-width="5"/>
<line id="Line 5" x1="24.5" y1="7" x2="24.5" y2="184" stroke="white" stroke-width="5"/>
<path id="netlify" d="M35.2792 290.748C35.5172 290.868 35.7311 291.03 35.9104 291.227L40.8042 289.05L36.2375 284.527L35.2146 290.681L35.2792 290.748ZM25.125 286.638C25.3627 286.996 25.5119 287.406 25.5604 287.833L32.8458 290.921C33.0665 290.752 33.3176 290.627 33.5854 290.552L34.7813 283.156L30.3438 278.502L25.125 286.527V286.638V286.638ZM49.9854 298.077L42.1771 290.269L36.8688 292.444L49.9188 297.99C49.9188 297.99 50.0292 298.077 49.9854 298.077V298.077ZM48.6792 299.34L36.1521 293.988C35.9777 294.219 35.7589 294.413 35.5085 294.559C35.258 294.704 34.981 294.798 34.6938 294.835L33.3458 303.079C33.7479 303.484 33.9747 304.031 33.9771 304.602L41.5458 306.19L48.4833 299.294V299.165L48.6792 299.34ZM32.0833 292.271L25.275 289.375C25.0401 289.735 24.7166 290.027 24.3357 290.226C23.9547 290.424 23.5292 290.52 23.1 290.506H22.6854L17.0521 299.208L32.1042 292.683V292.704C32.0932 292.588 32.0932 292.472 32.1042 292.356C32.1069 292.341 32.1064 292.326 32.1028 292.311C32.0992 292.297 32.0926 292.283 32.0833 292.271V292.271ZM40.3479 307.496L33.6917 306.125C33.4416 306.445 33.1108 306.692 32.7333 306.842L31.1479 316.675L40.3917 307.517C40.3917 307.517 40.3708 307.558 40.3479 307.558V307.496ZM31.0375 306.821C30.7228 306.692 30.4428 306.491 30.2199 306.234C29.9971 305.977 29.8375 305.671 29.7542 305.342L17.3583 302.796L17.1833 303.079L28.4292 319.35L29.1021 318.675L31.0167 306.863C31.0167 306.863 31.0813 306.908 31.0375 306.885V306.821ZM17.6188 301.296L29.8646 303.819C30.0406 303.511 30.2889 303.252 30.5881 303.062C30.8873 302.873 31.2282 302.759 31.5813 302.731L32.9083 294.619L32.6271 294.379L17.4021 300.904C17.482 301.03 17.5543 301.161 17.6188 301.296V301.296ZM12.4854 303.34L12.225 303.079L6.93958 305.254L9.50625 307.8L12.4208 303.275L12.4854 303.34ZM15.9646 304.167C15.5966 304.336 15.1967 304.425 14.7917 304.427C14.4729 304.428 14.1562 304.377 13.8542 304.275L10.6375 308.952L24.7313 322.915L27.2104 320.456L15.9646 304.167ZM13.9854 298.665C14.203 298.644 14.422 298.644 14.6396 298.665C14.8775 298.635 15.1183 298.635 15.3563 298.665L21.0542 289.81C20.6091 289.35 20.3598 288.734 20.3583 288.094C20.3377 287.906 20.3377 287.717 20.3583 287.529L13.4417 284.331L7.875 289.748L13.9854 298.665ZM14.6167 283.244L21.3604 286.115C21.849 285.713 22.4678 285.504 23.1 285.527C23.3807 285.53 23.6594 285.574 23.9271 285.658L29.1896 277.435L24.8396 273.085L14.6167 283.113C14.6167 283.113 14.5958 283.221 14.6167 283.244V283.244ZM12.0958 300.252C12.2312 299.999 12.3993 299.765 12.5958 299.556L6.82917 290.944L0 297.577L12.0917 300.252H12.0958ZM11.55 301.71L1.11042 299.531L5.7 304.188L11.4854 301.729L11.55 301.71Z" fill="white"/>
<path id="linkedin" d="M41.3916 351.469H8.6084C6.875 351.469 5.46875 352.875 5.46875 354.608V387.392C5.46875 389.125 6.875 390.531 8.6084 390.531H41.3916C43.125 390.531 44.5312 389.125 44.5312 387.392V354.608C44.5312 352.875 43.125 351.469 41.3916 351.469V351.469ZM41.3916 387.406C19.5264 387.401 8.59375 387.396 8.59375 387.392C8.59863 365.526 8.60352 354.594 8.6084 354.594C30.4736 354.599 41.4062 354.604 41.4062 354.608C41.4014 376.474 41.3965 387.406 41.3916 387.406ZM11.2598 366.112H17.0557V384.755H11.2598V366.112ZM14.1602 363.563C16.0107 363.563 17.5195 362.06 17.5195 360.204C17.5195 359.763 17.4326 359.326 17.2638 358.919C17.095 358.511 16.8475 358.141 16.5356 357.829C16.2236 357.517 15.8533 357.269 15.4457 357.1C15.0382 356.932 14.6013 356.845 14.1602 356.845C13.719 356.845 13.2822 356.932 12.8746 357.1C12.467 357.269 12.0967 357.517 11.7847 357.829C11.4728 358.141 11.2253 358.511 11.0565 358.919C10.8877 359.326 10.8008 359.763 10.8008 360.204C10.7959 362.06 12.2998 363.563 14.1602 363.563ZM26.4795 375.531C26.4795 373.1 26.9434 370.746 29.9561 370.746C32.9248 370.746 32.9688 373.524 32.9688 375.688V384.755H38.7598V374.53C38.7598 369.511 37.6758 365.648 31.8115 365.648C28.9941 365.648 27.1045 367.196 26.3281 368.661H26.25V366.112H20.6885V384.755H26.4795V375.531Z" fill="white"/>
<path id="codepen" d="M20.3125 419L19.4328 419.586L0.682813 432.134L0 432.573V446.539L0.684375 446.978L19.4344 459.527L20.3125 460.113L21.1922 459.527L39.9422 446.978L40.625 446.539V432.572L39.9406 432.133L21.1906 419.584L20.3125 419ZM18.75 423.784V432.281L10.6937 437.702L4.39531 433.452L18.75 423.784ZM21.875 423.784L36.2312 433.453L29.9313 437.702L21.875 432.278V423.784ZM20.3125 435.016L27.1 439.556L20.3125 444.097L13.525 439.556L20.3125 435.016ZM3.125 436.334L7.91094 439.556L3.125 442.78V436.334ZM37.5 436.334V442.778L32.7141 439.556L37.5 436.334ZM10.7422 441.412L18.75 446.83V455.327L4.39375 445.658L10.7422 441.412ZM29.8828 441.412L36.2312 445.659L21.875 455.328V446.831L29.8828 441.412Z" fill="white"/>
<path id="github" d="M21.8555 204C9.78027 203.995 0 213.771 0 225.836C0 235.377 6.11816 243.487 14.6387 246.466C15.7861 246.754 15.6104 245.938 15.6104 245.382V241.598C8.98438 242.374 8.71582 237.989 8.27148 237.257C7.37305 235.724 5.24902 235.333 5.88379 234.601C7.39258 233.824 8.93066 234.796 10.7129 237.428C12.002 239.337 14.5166 239.015 15.791 238.697C16.0693 237.55 16.665 236.524 17.4854 235.729C10.6201 234.498 7.75879 230.309 7.75879 225.328C7.75879 222.911 8.55469 220.689 10.1172 218.897C9.12109 215.943 10.21 213.414 10.3564 213.038C13.1934 212.784 16.1426 215.069 16.3721 215.25C17.9834 214.815 19.8242 214.586 21.8848 214.586C23.9551 214.586 25.8008 214.825 27.4268 215.265C27.9785 214.845 30.7129 212.882 33.3496 213.121C33.4912 213.497 34.5557 215.968 33.6182 218.883C35.2002 220.68 36.0059 222.921 36.0059 225.343C36.0059 230.333 33.125 234.527 26.2402 235.738C26.8299 236.318 27.2982 237.01 27.6176 237.773C27.937 238.536 28.1012 239.355 28.1006 240.182V245.675C28.1396 246.114 28.1006 246.549 28.833 246.549C37.4805 243.634 43.7061 235.465 43.7061 225.841C43.7061 213.771 33.9209 204 21.8555 204V204Z" fill="white"/>
</g>
</svg>
