<svg id="Capa_1" enable-background="new 0 0 512 512" height="512" viewBox="0 0 512 512" width="512" xmlns="http://www.w3.org/2000/svg"><g><g><path d="m472.661 437.034-32.944-14.271c-1.643-.712-3.011-1.936-3.899-3.491l-36.497-63.87-174.832-41.652-68.935 25.083-11.984 29.96c-.813 2.033-2.398 3.661-4.408 4.529l-71.372 30.807c-1.469.634-2.722 1.679-3.61 3.01l-47.736 71.605c-7.34 11.009.553 25.756 13.784 25.756h451.528c12.315 0 20.325-12.96 14.818-23.975l-19.797-39.594c-.871-1.743-2.328-3.122-4.116-3.897z" fill="#785353"/><path d="m496.574 480.524-19.797-39.594c-.871-1.742-2.329-3.122-4.116-3.897l-32.944-14.271c-1.643-.712-3.011-1.937-3.899-3.491l-36.497-63.87-26.625-6.343 40.122 70.213c.888 1.554 2.256 2.779 3.899 3.491l32.944 14.271c1.788.774 3.245 2.154 4.116 3.897l19.797 39.594c5.508 11.015-2.502 23.976-14.818 23.976h23c12.316 0 20.326-12.96 14.818-23.976z" fill="#6e4848"/><path d="m228.199 335.025 17.521 35.041c.623 1.245 1.559 2.306 2.718 3.079l17.625 11.75c3.173 2.115 7.398 1.697 10.094-1l22.839-22.839c3.124-3.124 8.189-3.124 11.314 0l38.096 38.096c3.235 3.235 8.52 3.103 11.589-.289l39.325-43.463-26.015-45.526c-1.475-2.581-4.219-4.173-7.192-4.173h-29.366c-3.356 0-6.356-2.095-7.511-5.246l-14.308-39.022c-1.196-3.263-4.302-5.432-7.777-5.432h-112.856c-3.387 0-6.433 2.062-7.691 5.207l-31.051 77.626 18.471 36.941c2.794 5.588 10.628 5.96 13.939.662l26.296-42.074c3.312-5.298 11.146-4.926 13.94.662z" fill="#ff8086"/><path d="m415.657 73.898c-3.627-.287-7.162-.098-10.554.504-3.326.59-6.684-.966-8.325-3.918-9.897-17.803-28.894-29.851-50.708-29.851-6.898 0-13.512 1.209-19.647 3.422-3.456 1.246-7.265-.091-9.295-3.152-13.349-20.13-36.212-33.403-62.175-33.403s-48.826 13.273-62.174 33.403c-2.03 3.061-5.84 4.398-9.295 3.152-6.135-2.213-12.749-3.422-19.647-3.422-21.814 0-40.811 12.048-50.708 29.851-1.641 2.952-5 4.508-8.325 3.918-3.39-.602-6.922-.791-10.547-.505-20.389 1.61-36.757 18.236-38.022 38.649-1.491 24.069 17.588 44.054 41.335 44.054 9.633 0 18.492-3.294 25.525-8.811 2.673-2.097 6.384-2.352 9.234-.502 9.071 5.888 19.888 9.313 31.508 9.313 14.319 0 27.419-5.199 37.532-13.803 2.781-2.367 6.846-2.577 9.799-.428 12.294 8.945 27.418 14.231 43.785 14.231s31.491-5.287 43.785-14.231c2.953-2.149 7.018-1.938 9.799.428 10.114 8.605 23.213 13.803 37.532 13.803 11.621 0 22.437-3.425 31.508-9.313 2.85-1.85 6.561-1.595 9.234.502 7.033 5.518 15.892 8.812 25.525 8.812 23.743 0 42.819-19.979 41.336-44.042-1.259-20.416-17.625-37.047-38.015-38.661z" fill="#dad8db"/><path d="m453.672 112.558c-1.259-20.415-17.625-37.046-38.015-38.66-3.627-.287-7.162-.098-10.554.504-3.326.59-6.684-.966-8.325-3.918-9.897-17.803-28.894-29.851-50.708-29.851-3.93 0-7.763.405-11.472 1.152 16.862 3.403 31.074 14.118 39.18 28.699 1.641 2.952 4.999 4.508 8.325 3.918 3.392-.602 6.927-.791 10.554-.504 20.39 1.614 36.756 18.245 38.015 38.66 1.234 20.018-11.765 37.198-29.839 42.412 3.653 1.056 7.51 1.63 11.503 1.63 23.743 0 42.82-19.979 41.336-44.042z" fill="#c8c5c9"/><circle cx="138.987" cy="206.3" fill="#ecf4ff" r="16.567"/><circle cx="370.92" cy="206.3" fill="#ecf4ff" r="16.567"/><g fill="#e5646e"><path d="m336.747 305.7c-3.356 0-6.356-2.095-7.511-5.246l-14.308-39.022c-1.196-3.263-4.302-5.432-7.777-5.432h-23c3.475 0 6.581 2.169 7.777 5.432l14.308 39.022c1.155 3.151 4.155 5.246 7.511 5.246z"/><path d="m399.32 355.4-26.015-45.526c-1.475-2.581-4.219-4.173-7.192-4.173h-23c2.973 0 5.717 1.593 7.192 4.173l34.918 61.107z"/></g></g><g><path d="m97.57 164.1c11.248 0 21.856-3.744 30.48-10.656 10.591 6.908 23.078 10.656 35.787 10.656 15.651 0 30.853-5.702 42.666-15.833 9.544 6.986 20.521 11.848 32.202 14.204.059.012.117.024.176.036 2.069.413 4.159.751 6.268 1.004.074.009.149.015.223.024.692.081 1.386.158 2.082.222v59.11c0 4.143 3.358 7.5 7.5 7.5s7.5-3.357 7.5-7.5v-59.11c.717-.065 1.431-.145 2.145-.229.048-.006.097-.01.145-.016 14.096-1.685 27.381-6.981 38.664-15.243 11.812 10.129 27.013 15.831 42.663 15.831 12.709 0 25.196-3.748 35.787-10.656 8.623 6.912 19.231 10.656 30.48 10.656 26.973 0 48.917-21.943 48.917-48.916s-21.944-48.917-48.917-48.917c-2.984 0-5.949.271-8.869.81-11.427-20.813-33.311-33.942-57.398-33.942-7.767 0-15.297 1.33-22.467 3.96-15.097-23.04-40.816-37.095-68.651-37.095-7.192 0-14.33.933-21.216 2.772-4.001 1.069-6.379 5.18-5.31 9.182 1.069 4.001 5.18 6.38 9.182 5.311 5.623-1.503 11.458-2.265 17.344-2.265 24.626 0 47.227 13.463 58.982 35.135 1.919 3.538 6.289 4.933 9.902 3.154 6.958-3.421 14.439-5.155 22.233-5.155 20.246 0 38.473 12.032 46.436 30.653 1.53 3.576 5.538 5.391 9.238 4.176 3.425-1.126 6.989-1.696 10.593-1.696 18.702 0 33.917 15.215 33.917 33.917 0 18.701-15.215 33.916-33.917 33.916-4.562 0-8.971-.895-13.044-2.593 9.265-5.696 15.458-15.926 15.458-27.576 0-4.143-3.358-7.5-7.5-7.5s-7.5 3.357-7.5 7.5c0 9.566-7.783 17.35-17.35 17.35s-17.35-7.783-17.35-17.35c0-4.143-3.358-7.5-7.5-7.5s-7.5 3.357-7.5 7.5c0 11.131 5.652 20.967 14.236 26.789-5.738 2.226-11.872 3.381-18.217 3.381-11.558 0-22.435-3.827-31.303-10.887 3.059-3.26 5.88-6.787 8.415-10.573 2.304-3.441 1.382-8.101-2.06-10.404-3.444-2.303-8.101-1.383-10.405 2.061-3.296 4.924-7.179 9.319-11.514 13.129-.098.077-.199.148-.294.231-9.875 8.585-21.988 14.044-34.812 15.813-.076.011-.152.022-.228.032-.47.063-.943.107-1.415.16v-23.913c0-4.143-3.358-7.5-7.5-7.5s-7.5 3.357-7.5 7.5v23.913c-.457-.051-.915-.094-1.369-.155-.111-.015-.221-.031-.332-.046-12.802-1.777-24.894-7.232-34.753-15.804-.084-.073-.173-.135-.259-.204-4.28-3.756-8.12-8.08-11.389-12.919-2.319-3.432-6.98-4.334-10.413-2.017-3.432 2.319-4.335 6.981-2.016 10.413 2.483 3.676 5.238 7.107 8.219 10.283-8.869 7.06-19.745 10.887-31.303 10.887-6.345 0-12.479-1.155-18.217-3.381 8.584-5.823 14.236-15.658 14.236-26.789 0-4.143-3.358-7.5-7.5-7.5s-7.5 3.357-7.5 7.5c0 9.566-7.783 17.35-17.35 17.35s-17.35-7.783-17.35-17.35c0-4.143-3.358-7.5-7.5-7.5s-7.5 3.357-7.5 7.5c0 11.651 6.193 21.88 15.458 27.576-4.073 1.698-8.482 2.594-13.044 2.594-18.702 0-33.917-15.215-33.917-33.916 0-18.702 15.215-33.917 33.917-33.917 3.604 0 7.168.57 10.593 1.696 3.694 1.213 7.707-.599 9.238-4.176 7.963-18.621 26.191-30.653 46.437-30.653 7.794 0 15.274 1.734 22.233 5.155 3.611 1.775 7.982.384 9.901-3.154 4.156-7.664 9.689-14.364 16.444-19.916 3.2-2.63 3.663-7.355 1.033-10.556-2.63-3.2-7.356-3.665-10.556-1.032-6.479 5.324-12.039 11.516-16.589 18.463-7.17-2.631-14.699-3.96-22.466-3.96-24.087 0-45.972 13.13-57.399 33.942-2.919-.538-5.884-.81-8.868-.81-26.973 0-48.917 21.944-48.917 48.917s21.941 48.916 48.914 48.916z"/><path d="m503.282 477.17-19.797-39.594c-1.657-3.315-4.442-5.951-7.843-7.424l-32.946-14.272c-.152-.066-.282-.183-.366-.329l-62.513-109.398c-2.803-4.905-8.055-7.952-13.704-7.952h-29.714l-14.429-39.351c-2.27-6.19-8.225-10.35-14.818-10.35h-112.857c-6.491 0-12.244 3.895-14.654 9.922l-43.034 107.584c-.077.191-.229.348-.417.43l-71.372 30.808c-2.804 1.21-5.182 3.192-6.877 5.735l-47.736 71.606c-4.933 7.398-5.391 16.864-1.195 24.705 4.195 7.839 12.325 12.71 21.218 12.71h36.557c4.142 0 7.5-3.357 7.5-7.5s-3.358-7.5-7.5-7.5h-36.557c-3.401 0-6.389-1.79-7.994-4.789-1.604-2.998-1.436-6.478.45-9.307l47.735-71.603c.084-.127.203-.226.342-.286l71.371-30.807c3.855-1.664 6.839-4.728 8.4-8.63l5.781-14.453 17.381 34.762c1.213 2.426 3.642 4.008 6.352 4.137 2.712.135 5.278-1.216 6.716-3.517l34.329-54.926 18.87 37.739c.583 1.167 1.462 2.162 2.548 2.886l24.85 16.566c2.975 1.985 6.936 1.592 9.463-.936l27.83-27.83 44.397 44.396c1.408 1.408 3.316 2.196 5.303 2.196.062 0 .125-.001.188-.002 2.053-.052 3.996-.943 5.374-2.466l38.026-42.029 31.365 54.889c1.682 2.944 4.322 5.308 7.43 6.652l32.944 14.271c.169.073.307.204.39.369l19.797 39.594c1.437 2.873 1.292 6.089-.397 8.821s-4.5 4.3-7.712 4.3h-296.156l-6.8-18.134h59.586c4.142 0 7.5-3.357 7.5-7.5s-3.358-7.5-7.5-7.5h-65.211l-10.6-28.267c-1.098-2.927-3.896-4.866-7.022-4.866h-49.7c-2.841 0-5.438 1.605-6.708 4.146l-16.567 33.133c-1.853 3.705-.351 8.21 3.354 10.062 3.705 1.853 8.211.351 10.062-3.353l14.494-28.987h39.867l19.225 51.269h-72.796c-4.142 0-7.5 3.357-7.5 7.5s3.358 7.5 7.5 7.5h384.972c8.402 0 16.055-4.267 20.472-11.414s4.811-15.901 1.053-23.416zm-149.201-82.948-44.125-44.125c-2.929-2.928-7.678-2.928-10.607 0l-28.786 28.785-18.077-12.051-23.959-47.919c-1.213-2.426-3.642-4.009-6.352-4.137-2.725-.141-5.278 1.216-6.716 3.517l-34.329 54.926-17.363-34.726 29.8-74.5c.12-.299.405-.492.728-.492h112.856c.327 0 .623.206.735.514l16.232 44.268 18.223 49.7c1.114 3.037 3.985 4.92 7.042 4.92.857 0 1.729-.148 2.582-.46 3.889-1.427 5.885-5.735 4.459-9.624l-14.526-39.618h24.214c.281 0 .541.151.681.395l23.317 40.805z"/><path d="m197.753 188.352v34.514c0 4.143 3.358 7.5 7.5 7.5s7.5-3.357 7.5-7.5v-34.514c0-4.142-3.358-7.5-7.5-7.5s-7.5 3.358-7.5 7.5z"/><path d="m297.153 188.352v34.514c0 4.143 3.358 7.5 7.5 7.5s7.5-3.357 7.5-7.5v-34.514c0-4.142-3.358-7.5-7.5-7.5s-7.5 3.358-7.5 7.5z"/><path d="m114.92 206.3c0 13.27 10.796 24.066 24.067 24.066s24.066-10.796 24.066-24.066c0-13.271-10.796-24.066-24.066-24.066-13.271-.001-24.067 10.795-24.067 24.066zm33.133 0c0 4.999-4.067 9.066-9.066 9.066-5 0-9.067-4.067-9.067-9.066s4.067-9.066 9.067-9.066c4.999-.001 9.066 4.067 9.066 9.066z"/><path d="m346.853 206.3c0 13.27 10.796 24.066 24.066 24.066s24.067-10.796 24.067-24.066c0-13.271-10.796-24.066-24.067-24.066-13.269-.001-24.066 10.795-24.066 24.066zm33.134 0c0 4.999-4.067 9.066-9.067 9.066-4.999 0-9.066-4.067-9.066-9.066s4.067-9.066 9.066-9.066c4.999-.001 9.067 4.067 9.067 9.066z"/></g></g></svg>