<svg id="Capa_1" enable-background="new 0 0 512 512" height="512" viewBox="0 0 512 512" width="512" xmlns="http://www.w3.org/2000/svg"><g><g><g><path d="m451.5 365.607c-15.357-94.118-97.04-165.951-195.5-165.951-98.461 0-180.144 71.834-195.5 165.954v10.39h88.602v-42.034c16.925-42.454 58.408-72.456 106.898-72.456 48.491 0 89.975 30.003 106.9 72.458v42.032h88.6z" fill="#ffe07d"/><path d="m487.902 384.71c-2.041-126.33-105.086-228.11-231.902-228.11-126.826 0-229.876 101.795-231.903 228.138h52.056v-25.772c14.127-86.583 89.27-152.666 179.847-152.666s165.719 66.081 179.846 152.664v25.774z" fill="#ff8086"/><path d="m256 156.6c-3.851 0-7.679.098-11.484.283 121.496 5.925 218.438 105.334 220.417 227.827l-29.087.016v.012l52.056-.028c-2.041-126.33-105.086-228.11-231.902-228.11z" fill="#e5646e"/><path d="m379.159 339.479c-19.499-48.913-67.292-83.479-123.159-83.479-55.865 0-103.658 34.565-123.158 83.476v25.858h43.617c10.033-34.456 41.847-59.634 79.541-59.634 37.695 0 69.509 25.179 79.541 59.635h43.618z" fill="#b3e59f"/><path d="m313.983 471.367c-23.8 0-42.897-20.421-41.18-44.563 1.41-19.817 17.108-36.027 36.872-38.05 2.782-.285 5.513-.289 8.171-.041 3.628.339 6.974-1.953 8.161-5.398 8.925-25.883 33.482-44.481 62.397-44.481 21.694 0 40.935 10.471 52.965 26.631 3.067 4.12 7.852 6.537 12.988 6.504.105-.001.209-.001.314-.001 27.731 0 50.158 22.712 49.693 50.549-.455 27.251-23.256 48.851-50.511 48.851h-139.87z" fill="#ecf4ff"/><path d="m198.017 471.367c23.8 0 42.897-20.421 41.18-44.563-1.41-19.817-17.108-36.027-36.872-38.05-2.782-.285-5.513-.289-8.171-.041-3.628.339-6.974-1.953-8.161-5.398-8.925-25.883-33.482-44.481-62.397-44.481-21.694 0-40.935 10.471-52.965 26.631-3.067 4.12-7.852 6.537-12.988 6.504-.105-.001-.209-.001-.314-.001-27.731 0-50.158 22.712-49.693 50.549.455 27.251 23.256 48.851 50.511 48.851h139.87z" fill="#ecf4ff"/><g fill="#ddeafb"><path d="m239.197 426.804c-1.41-19.817-17.108-36.027-36.872-38.05-2.782-.285-5.513-.289-8.171-.041-3.628.339-6.974-1.953-8.161-5.398-8.925-25.883-33.482-44.481-62.397-44.481-3.93 0-7.778.348-11.519 1.007 23.798 4.177 43.2 21.098 50.916 43.474 1.188 3.445 4.533 5.737 8.161 5.398 2.658-.248 5.389-.243 8.171.041 19.764 2.023 35.462 18.233 36.872 38.05 1.717 24.142-17.379 44.563-41.18 44.563h23c23.8 0 42.897-20.421 41.18-44.563z"/><path d="m454.671 371.967c-.105 0-.209 0-.314.001-5.136.034-9.921-2.384-12.988-6.504-12.03-16.159-31.271-26.631-52.965-26.631-3.918 0-7.751.353-11.481 1.007 16.908 2.978 31.595 12.392 41.445 25.624 3.067 4.12 7.852 6.537 12.988 6.504.104-.001.209-.001.314-.001 27.731 0 50.158 22.712 49.693 50.549-.455 27.251-23.256 48.851-50.511 48.851h23c27.254 0 50.056-21.6 50.511-48.851.465-27.838-21.961-50.549-49.692-50.549z"/><path d="m462.295 372.548c-2.486-.383-5.032-.582-7.625-.582-.105 0-.209 0-.314.001-5.136.034-9.921-2.384-12.988-6.504-.904-1.214-1.853-2.391-2.836-3.539-23.924 9.305-40.933 32.567-40.933 59.741 0 4.142 3.358 7.5 7.5 7.5s7.5-3.358 7.5-7.5c0-27.067 22.021-49.087 49.087-49.087.207.001.408-.013.609-.03z"/><path d="m99.4 421.667c0 4.142 3.358 7.5 7.5 7.5s7.5-3.358 7.5-7.5c0-27.195-16.689-50.558-40.359-60.407-1.191 1.354-2.33 2.755-3.409 4.205-3.067 4.12-7.852 6.537-12.988 6.504-.104-.001-.209-.001-.314-.001-.001 0-.002 0-.003 0 23.84 3.98 42.073 24.745 42.073 49.699z"/></g></g></g><g><path d="m424.004 217.938c-45.07-44.391-104.736-68.838-168.004-68.838-50.175 0-98.214 15.354-138.922 44.401-3.371 2.406-4.155 7.089-1.748 10.461 2.406 3.372 7.089 4.155 10.461 1.748 38.15-27.221 83.176-41.61 130.209-41.61 116.86 0 214.268 91.201 223.672 206.131-7.558-3.689-16.041-5.765-25.002-5.765-1.56 0-3.135.067-4.715.2-2.137-3.27-4.517-6.338-7.104-9.188-7.569-43.032-30.006-82.38-63.376-111.007-34.331-29.451-78.182-45.671-123.475-45.671s-89.145 16.22-123.476 45.672c-33.37 28.627-55.807 67.974-63.375 111.006-2.587 2.851-4.967 5.919-7.104 9.189-1.58-.133-3.156-.2-4.715-.2-8.967 0-17.455 2.079-25.017 5.772 4.437-55.565 28.974-106.716 70.043-145.303 3.019-2.836 3.167-7.583.33-10.602s-7.583-3.167-10.602-.33c-23.123 21.725-41.438 47.345-54.435 76.148-13.01 28.832-20.043 59.537-20.961 91.31-10.229 10.34-16.559 24.544-16.559 40.203 0 31.54 25.66 57.2 57.2 57.2h3.823c4.142 0 7.5-3.358 7.5-7.5s-3.358-7.5-7.5-7.5h-3.822c-23.269 0-42.2-18.931-42.2-42.2 0-23.247 18.896-42.163 42.135-42.198 23.239.035 42.135 18.951 42.135 42.198 0 4.142 3.358 7.5 7.5 7.5s7.5-3.358 7.5-7.5c0-24.251-15.179-45.003-36.528-53.309 11.006-13.773 27.791-22.024 45.724-22.024 18.704 0 35.574 8.7 46.351 22.711.289.507.639.978 1.04 1.407 4.443 6.152 7.751 13.251 9.57 21.048.457 1.961 1.684 3.655 3.403 4.703 1.72 1.047 3.788 1.359 5.74.865 2.71-.686 5.508-1.034 8.316-1.034 18.63 0 33.787 15.157 33.787 33.788 0 18.773-15.157 34.046-33.787 34.046h-106.863c-4.142 0-7.5 3.358-7.5 7.5s3.358 7.5 7.5 7.5h106.863c26.901 0 48.787-22.002 48.787-49.046 0-26.901-21.886-48.788-48.787-48.788-1.6 0-3.198.079-4.788.234-2.085-6.212-4.954-12.001-8.464-17.284 10.374-30.073 39.154-50.782 71.236-50.782s60.862 20.709 71.234 50.783c-3.51 5.283-6.378 11.072-8.464 17.284-1.589-.156-3.188-.234-4.788-.234-26.901 0-48.787 21.886-48.787 48.788 0 27.044 21.886 49.046 48.787 49.046h140.688c31.54 0 57.2-25.66 57.2-57.2 0-15.658-6.329-29.863-16.557-40.202-1.793-61.951-27.032-119.919-71.309-163.527zm-300.408 113.395c-12.712 0-24.961 3.305-35.709 9.286 20.995-74.559 88.798-126.819 168.113-126.819s147.118 52.261 168.113 126.82c-10.748-5.981-22.998-9.286-35.71-9.286-1.508 0-3.003.059-4.49.148-10.472-23.479-27.123-43.54-48.435-58.256-23.425-16.176-50.908-24.726-79.478-24.726-28.569 0-56.052 8.55-79.477 24.725-21.312 14.717-37.964 34.778-48.436 58.257-1.488-.089-2.983-.149-4.491-.149zm187.093-14.703c-15.83-12.057-34.741-18.43-54.689-18.43s-38.858 6.373-54.688 18.429c-11.844 9.021-21.322 20.972-27.493 34.429-8.521-7.966-18.908-13.855-30.379-17.034 20.817-43.123 64.069-70.524 112.56-70.524s91.743 27.401 112.56 70.524c-11.471 3.179-21.858 9.068-30.379 17.034-6.172-13.456-15.649-25.407-27.492-34.428zm143.981 147.237h-140.687c-18.63 0-33.787-15.273-33.787-34.046 0-18.63 15.157-33.788 33.787-33.788 2.808 0 5.605.348 8.316 1.034 1.952.494 4.021.181 5.74-.865 1.72-1.047 2.946-2.742 3.403-4.703 1.817-7.791 5.122-14.887 9.561-21.035.408-.435.763-.913 1.056-1.428 10.778-14.006 27.644-22.702 46.344-22.702 17.932 0 34.717 8.251 45.724 22.024-21.348 8.306-36.527 29.059-36.527 53.309 0 4.142 3.358 7.5 7.5 7.5s7.5-3.358 7.5-7.5c0-20.728 15.026-38 34.755-41.529l.003-.026c2.454-.428 4.914-.645 7.312-.645 23.269 0 42.2 18.931 42.2 42.2.001 23.269-18.931 42.2-42.2 42.2z"/><path d="m256 130.967c4.142 0 7.5-3.358 7.5-7.5v-49.7c0-4.142-3.358-7.5-7.5-7.5s-7.5 3.358-7.5 7.5v49.7c.001 4.142 3.358 7.5 7.5 7.5z"/><path d="m116.972 162.729c1.389 2.406 3.91 3.751 6.502 3.751 1.272 0 2.562-.324 3.743-1.006 3.587-2.071 4.816-6.658 2.745-10.245l-24.85-43.042c-2.071-3.588-6.658-4.817-10.245-2.745-3.587 2.071-4.816 6.658-2.745 10.245z"/><path d="m384.783 165.474c1.181.682 2.471 1.006 3.743 1.006 2.592 0 5.113-1.345 6.502-3.752l24.851-43.041c2.071-3.587.842-8.174-2.745-10.245-3.587-2.072-8.174-.842-10.245 2.745l-24.851 43.041c-2.071 3.588-.842 8.175 2.745 10.246z"/><path d="m24.067 230.367c13.27 0 24.066-10.796 24.066-24.067s-10.796-24.066-24.066-24.066c-13.271-.001-24.067 10.795-24.067 24.066 0 13.27 10.796 24.067 24.067 24.067zm0-33.134c4.999 0 9.066 4.067 9.066 9.066s-4.067 9.067-9.066 9.067c-5 0-9.067-4.067-9.067-9.067 0-4.998 4.067-9.066 9.067-9.066z"/><path d="m487.933 230.367c13.27 0 24.067-10.796 24.067-24.067s-10.796-24.066-24.067-24.066c-13.27 0-24.066 10.796-24.066 24.066s10.796 24.067 24.066 24.067zm0-33.134c4.999 0 9.067 4.067 9.067 9.066s-4.067 9.067-9.067 9.067c-4.999 0-9.066-4.067-9.066-9.067 0-4.998 4.067-9.066 9.066-9.066z"/><path d="m156.6 64.7h9.066v9.066c0 4.142 3.358 7.5 7.5 7.5s7.5-3.358 7.5-7.5v-9.066h9.067c4.142 0 7.5-3.358 7.5-7.5s-3.358-7.5-7.5-7.5h-9.067v-9.067c0-4.142-3.358-7.5-7.5-7.5s-7.5 3.358-7.5 7.5v9.067h-9.066c-4.142 0-7.5 3.358-7.5 7.5s3.358 7.5 7.5 7.5z"/><path d="m322.267 64.7h9.067v9.066c0 4.142 3.358 7.5 7.5 7.5s7.5-3.358 7.5-7.5v-9.066h9.066c4.142 0 7.5-3.358 7.5-7.5s-3.358-7.5-7.5-7.5h-9.066v-9.067c0-4.142-3.358-7.5-7.5-7.5s-7.5 3.358-7.5 7.5v9.067h-9.067c-4.142 0-7.5 3.358-7.5 7.5s3.358 7.5 7.5 7.5z"/></g></g></svg>