<svg id="Capa_1" enable-background="new 0 0 512.001 512.001" height="512" viewBox="0 0 512.001 512.001" width="512" xmlns="http://www.w3.org/2000/svg"><g><g><g><circle cx="405.1" cy="106.9" fill="#ffe07d" r="49.7"/><path d="m405.1 57.2c-3.96 0-7.807.477-11.5 1.352 21.901 5.191 38.2 24.86 38.2 48.348s-16.299 43.157-38.2 48.348c3.693.875 7.54 1.352 11.5 1.352 27.449 0 49.7-22.251 49.7-49.7.001-27.449-22.251-49.7-49.7-49.7z" fill="#ffd064"/></g><g><path d="m487.934 504.5c9.15 0 16.567-7.417 16.567-16.567v-91.117c0-4.575-3.709-8.283-8.283-8.283h-189.995v115.967z" fill="#d19a6e"/><path d="m388.534 504.5-96.941-145.411c-1.536-2.304-4.123-3.689-6.892-3.689h-268.917c-4.575 0-8.283 3.709-8.283 8.283v124.25c0 9.15 7.417 16.567 16.567 16.567z" fill="#f7e3c1"/><path d="m291.593 359.089c-1.536-2.304-4.123-3.689-6.892-3.689h-23c2.77 0 5.356 1.384 6.892 3.689l96.941 145.411h23z" fill="#f0cea5"/><path d="m140.034 421.667h-33.134v-356.467c0-4.418 3.582-8 8-8h17.133c4.418 0 8 3.582 8 8v356.467z" fill="#966a5b"/><path d="m496.217 388.533h-23c4.575 0 8.283 3.709 8.283 8.284v91.117c0 9.15-7.417 16.567-16.567 16.567h23c9.149 0 16.567-7.417 16.567-16.567v-91.117c0-4.575-3.708-8.284-8.283-8.284z" fill="#c38c66"/><path d="m132.034 57.2h-17.134c-1.037 0-2.024.204-2.933.563 2.965 1.171 5.067 4.056 5.067 7.437v356.466h23v-356.466c0-4.418-3.582-8-8-8z" fill="#785353"/></g></g><g><path d="m496.217 381.033h-96.915c-4.142 0-7.5 3.357-7.5 7.5s3.358 7.5 7.5 7.5h31.431v21.62l-17.35 11.566-20.69-13.793c-3.447-2.297-8.103-1.366-10.4 2.08-2.298 3.446-1.366 8.103 2.08 10.4l24.85 16.566c1.26.84 2.71 1.26 4.16 1.26s2.9-.42 4.16-1.26l21.229-14.152 22.532 11.266-13.212 26.424c-1.852 3.705-.351 8.21 3.354 10.062 1.077.538 2.221.794 3.348.794 2.751 0 5.4-1.52 6.714-4.147l16.567-33.133c.89-1.779 1.036-3.839.407-5.727-.629-1.887-1.982-3.446-3.761-4.336l-28.987-14.494v-20.998h50.483c.432 0 .783.352.783.783v91.117c0 4.999-4.067 9.066-9.067 9.066h-95.386l-67.311-100.967h44.066c4.142 0 7.5-3.357 7.5-7.5s-3.358-7.5-7.5-7.5h-54.066l-17.402-26.104c-2.934-4.401-7.843-7.029-13.133-7.029h-137.167v-22.527l47.503-47.503c2.929-2.93 2.929-7.678 0-10.607-2.929-2.928-7.678-2.928-10.606 0l-36.897 36.897v-111.317l80.637-80.636c2.929-2.93 2.929-7.678 0-10.607-2.929-2.928-7.678-2.928-10.606 0l-9.209 9.209-11.913-23.827c-1.852-3.704-6.356-5.206-10.062-3.354-3.705 1.853-5.206 6.357-3.354 10.062l14.149 28.298-49.641 49.641v-106.426c0-8.547-6.953-15.5-15.5-15.5h-17.135c-8.547 0-15.5 6.953-15.5 15.5v172.692l-49.641-49.64 14.149-28.298c1.853-3.705.351-8.21-3.354-10.062-3.703-1.855-8.209-.351-10.062 3.354l-11.913 23.827-9.209-9.208c-2.929-2.928-7.678-2.928-10.606 0-2.929 2.93-2.929 7.678 0 10.607l80.636 80.634v88.794h-83.616c-8.703 0-15.783 7.08-15.783 15.783v124.25c0 13.271 10.796 24.067 24.066 24.067h34.7c4.142 0 7.5-3.357 7.5-7.5s-3.358-7.5-7.5-7.5h-34.7c-5 0-9.067-4.067-9.067-9.066v-9.067h174.733c4.142 0 7.5-3.357 7.5-7.5s-3.358-7.5-7.5-7.5h-174.733v-100.183c0-.432.352-.783.783-.783h83.617v51.267h-25.633c-4.142 0-7.5 3.357-7.5 7.5s3.358 7.5 7.5 7.5h99.4c4.142 0 7.5-3.357 7.5-7.5s-3.358-7.5-7.5-7.5h-25.633v-51.268h84.6l-.164 20.98-29.023 14.512c-1.779.89-3.132 2.449-3.761 4.336-.629 1.888-.482 3.947.407 5.727l16.567 33.134c1.314 2.628 3.962 4.148 6.714 4.148 1.127 0 2.271-.256 3.348-.794 3.705-1.853 5.206-6.357 3.354-10.062l-13.212-26.425 20.826-10.414 21.095 28.126c1.468 1.958 3.719 3.001 6.005 3.001 1.433 0 2.879-.41 4.155-1.261l24.85-16.567c3.447-2.298 4.378-6.954 2.08-10.4-2.297-3.446-6.955-4.377-10.4-2.08l-18.947 12.632-19.073-25.432.181-23.159h37.566c.263 0 .506.13.652.349l19.642 29.463c.005.008.011.017.017.025l69.507 104.261h-285.752c-4.142 0-7.5 3.357-7.5 7.5s3.358 7.5 7.5 7.5h299.757c.005 0 .011.001.016.001s.009-.001.014-.001h99.379c13.27 0 24.066-10.796 24.066-24.066v-91.117c0-8.704-7.08-15.784-15.783-15.784zm-381.817 33.134v-140.061l3.764 3.764c1.464 1.464 3.384 2.196 5.303 2.196s3.839-.732 5.303-2.196c2.929-2.93 2.929-7.678 0-10.607l-14.37-14.37v-187.693c0-.275.224-.5.5-.5h17.133c.276 0 .5.225.5.5v124.531.005 132.528.003 91.899h-18.133z"/><path d="m405.101 49.7c-31.54 0-57.2 25.66-57.2 57.2s25.66 57.199 57.2 57.199 57.2-25.659 57.2-57.199-25.66-57.2-57.2-57.2zm0 99.4c-23.269 0-42.2-18.931-42.2-42.199 0-23.27 18.931-42.2 42.2-42.2s42.2 18.931 42.2 42.2c-.001 23.268-18.931 42.199-42.2 42.199z"/><path d="m405.101 31.566c4.142 0 7.5-3.357 7.5-7.5v-16.566c0-4.143-3.358-7.5-7.5-7.5s-7.5 3.357-7.5 7.5v16.566c0 4.143 3.357 7.5 7.5 7.5z"/><path d="m341.225 53.631c1.464 1.465 3.384 2.197 5.303 2.197s3.839-.732 5.303-2.196c2.929-2.929 2.929-7.678 0-10.606l-11.714-11.716c-2.929-2.93-7.678-2.929-10.606-.001-2.929 2.929-2.929 7.678 0 10.606z"/><path d="m305.701 114.4h16.566c4.142 0 7.5-3.357 7.5-7.5s-3.358-7.5-7.5-7.5h-16.566c-4.142 0-7.5 3.357-7.5 7.5s3.358 7.5 7.5 7.5z"/><path d="m334.814 184.686c1.919 0 3.839-.732 5.303-2.197l11.714-11.715c2.929-2.929 2.929-7.678 0-10.606s-7.678-2.929-10.606.001l-11.714 11.715c-2.929 2.929-2.929 7.678 0 10.606 1.464 1.464 3.384 2.196 5.303 2.196z"/><path d="m397.601 189.733v16.567c0 4.143 3.358 7.5 7.5 7.5s7.5-3.357 7.5-7.5v-16.566c0-4.143-3.358-7.5-7.5-7.5-4.143-.001-7.5 3.357-7.5 7.499z"/><path d="m470.083 182.489c1.464 1.465 3.384 2.197 5.303 2.197s3.839-.732 5.303-2.196c2.929-2.929 2.929-7.678 0-10.606l-11.714-11.715c-2.928-2.93-7.677-2.929-10.606-.001-2.929 2.929-2.929 7.678 0 10.606z"/><path d="m480.434 106.9c0 4.143 3.358 7.5 7.5 7.5h16.566c4.142 0 7.5-3.357 7.5-7.5s-3.358-7.5-7.5-7.5h-16.567c-4.141 0-7.499 3.358-7.499 7.5z"/><path d="m463.672 55.828c1.919 0 3.839-.732 5.303-2.197l11.714-11.715c2.929-2.929 2.929-7.678 0-10.606s-7.678-2.929-10.607.001l-11.714 11.715c-2.929 2.929-2.929 7.678 0 10.606 1.465 1.464 3.385 2.196 5.304 2.196z"/><path d="m366.472 33.242c1.196 2.889 3.989 4.632 6.932 4.632.957 0 1.929-.185 2.867-.573 3.827-1.585 5.644-5.972 4.059-9.799l-3.17-7.653c-1.585-3.827-5.972-5.642-9.799-4.059-3.827 1.585-5.644 5.972-4.059 9.799z"/><path d="m318.049 78.96 7.653 3.17c.938.39 1.911.573 2.867.573 2.943 0 5.736-1.744 6.932-4.632 1.585-3.827-.232-8.214-4.059-9.799l-7.653-3.17c-3.826-1.59-8.214.231-9.799 4.059-1.585 3.827.233 8.214 4.059 9.799z"/><path d="m335.501 135.729c-1.585-3.827-5.974-5.642-9.799-4.059l-7.653 3.17c-3.827 1.585-5.644 5.972-4.059 9.799 1.196 2.889 3.989 4.632 6.932 4.632.957 0 1.929-.185 2.867-.573l7.653-3.17c3.827-1.586 5.644-5.972 4.059-9.799z"/><path d="m366.472 180.558-3.17 7.653c-1.585 3.827.232 8.214 4.059 9.799.939.39 1.911.573 2.867.573 2.943 0 5.736-1.744 6.932-4.632l3.17-7.653c1.585-3.827-.232-8.214-4.059-9.799-3.828-1.589-8.214.231-9.799 4.059z"/><path d="m433.929 176.499c-3.827 1.585-5.644 5.972-4.059 9.799l3.17 7.653c1.196 2.889 3.989 4.632 6.932 4.632.957 0 1.929-.185 2.867-.573 3.827-1.585 5.644-5.972 4.059-9.799l-3.17-7.653c-1.584-3.828-5.972-5.643-9.799-4.059z"/><path d="m489.278 149.27c2.943 0 5.736-1.744 6.932-4.632 1.585-3.827-.233-8.214-4.059-9.799l-7.653-3.17c-3.827-1.589-8.214.232-9.799 4.059s.233 8.214 4.059 9.799l7.653 3.17c.939.39 1.911.573 2.867.573z"/><path d="m474.699 78.071c1.196 2.889 3.989 4.632 6.932 4.632.956 0 1.929-.185 2.867-.573l7.653-3.17c3.827-1.585 5.644-5.972 4.059-9.799s-5.972-5.644-9.799-4.059l-7.653 3.17c-3.826 1.585-5.644 5.972-4.059 9.799z"/><path d="m433.929 37.301c.939.39 1.911.573 2.867.573 2.943 0 5.736-1.744 6.932-4.632l3.17-7.653c1.585-3.827-.232-8.214-4.059-9.799-3.828-1.588-8.214.232-9.799 4.059l-3.17 7.653c-1.585 3.827.233 8.214 4.059 9.799z"/></g></g></svg>