<svg id="Capa_1" enable-background="new 0 0 512.344 512.344" height="512" viewBox="0 0 512.344 512.344" width="512" xmlns="http://www.w3.org/2000/svg"><g><g><g><path d="m438.53 140.377h-.023c-1.221 0-2.272-.821-2.613-1.993-8.026-27.564-33.476-47.707-63.631-47.707-11.275 0-21.887 2.825-31.179 7.795-3.642 1.948-8.163.93-10.478-2.49-8.934-13.196-24.04-21.872-41.176-21.872-4.008 0-7.903.477-11.635 1.374-4.043.972-8.218-1.2-9.524-5.148-12.001-36.299-46.202-62.492-86.524-62.492-50.322 0-91.117 40.794-91.117 91.117 0 1.143.029 2.278.077 3.409.047 1.119-.32 2.217-1.009 3.1l-.071.091c-.863 1.106-2.17 1.759-3.571 1.835-44.09 2.402-79.009 39.259-78.247 84.123.771 45.352 38.501 81.391 83.861 81.391h345.872c36.419 0 66.776-28.971 67.249-65.387.48-37.001-29.37-67.146-66.261-67.146z" fill="#ecf4ff"/><path d="m438.53 140.377h-.023c-1.221 0-2.272-.821-2.613-1.993-8.026-27.564-33.476-47.707-63.631-47.707-11.275 0-21.887 2.825-31.179 7.795-3.642 1.948-8.163.93-10.478-2.49-8.934-13.196-24.04-21.872-41.176-21.872-4.008 0-7.903.477-11.635 1.374-4.043.972-8.218-1.2-9.524-5.148-12.001-36.299-46.202-62.492-86.524-62.492-50.322 0-91.117 40.794-91.117 91.117 0 1.143.029 2.278.077 3.409.047 1.119-.32 2.217-1.009 3.1l-.071.091c-.863 1.106-2.17 1.759-3.571 1.835-44.09 2.402-79.009 39.259-78.247 84.123.771 45.352 38.501 81.391 83.861 81.391h345.872c36.419 0 66.776-28.971 67.249-65.387.48-37.001-29.37-67.146-66.261-67.146z" fill="#ecf4ff"/><path d="m438.53 140.377h-.023c-1.22 0-2.272-.821-2.613-1.993-8.026-27.564-33.476-47.707-63.631-47.707-3.921 0-7.759.349-11.492 1.004 24.976 4.374 45.142 22.728 52.123 46.703.341 1.172 1.392 1.993 2.613 1.993h.023c36.891 0 66.741 30.145 66.261 67.146-.472 36.417-30.829 65.387-67.249 65.387h23c36.419 0 66.776-28.97 67.249-65.387.48-37.001-29.37-67.146-66.261-67.146z" fill="#ddeafb"/></g></g><g><path d="m156.896 364.81h-17.528l6.818-8.522c2.587-3.234 2.063-7.954-1.171-10.542s-7.954-2.063-10.541 1.171l-14.315 17.894h-22.029v-22.029l17.894-14.315c3.234-2.588 3.759-7.307 1.171-10.542s-7.307-3.759-10.541-1.171l-8.523 6.818v-17.528c0-4.143-3.358-7.5-7.5-7.5s-7.5 3.357-7.5 7.5v17.528l-8.523-6.818c-3.234-2.588-7.955-2.064-10.542 1.171-2.588 3.235-2.063 7.954 1.171 10.542l17.894 14.315v22.029h-22.029l-14.316-17.894c-2.588-3.235-7.309-3.76-10.542-1.171-3.234 2.588-3.758 7.308-1.171 10.542l6.819 8.522h-17.529c-4.142 0-7.5 3.357-7.5 7.5s3.358 7.5 7.5 7.5h17.527l-6.817 8.522c-2.587 3.234-2.063 7.954 1.171 10.542 1.383 1.106 3.037 1.643 4.68 1.643 2.2 0 4.38-.963 5.861-2.814l14.314-17.893h22.031v22.029l-17.893 14.315c-3.235 2.588-3.759 7.308-1.171 10.542 1.481 1.852 3.661 2.815 5.861 2.815 1.643 0 3.297-.537 4.68-1.644l8.523-6.818v17.528c0 4.143 3.358 7.5 7.5 7.5s7.5-3.357 7.5-7.5v-17.528l8.522 6.818c3.235 2.588 7.955 2.064 10.542-1.171 2.588-3.234 2.063-7.954-1.171-10.542l-17.893-14.314v-22.03h22.028l14.315 17.894c1.481 1.852 3.661 2.814 5.861 2.814 1.643 0 3.297-.537 4.68-1.643 3.235-2.588 3.759-7.308 1.171-10.542l-6.818-8.523h17.528c4.142 0 7.5-3.357 7.5-7.5.001-4.142-3.356-7.5-7.499-7.5z"/><path d="m488.23 364.81h-17.529l6.818-8.522c2.587-3.234 2.064-7.954-1.171-10.542s-7.955-2.063-10.542 1.171l-14.315 17.894h-22.029v-22.029l17.894-14.315c3.234-2.588 3.759-7.307 1.171-10.542s-7.307-3.759-10.542-1.171l-8.523 6.818v-17.528c0-4.143-3.358-7.5-7.5-7.5s-7.5 3.357-7.5 7.5v17.528l-8.523-6.818c-3.234-2.588-7.955-2.064-10.542 1.171-2.588 3.234-2.063 7.954 1.171 10.542l17.893 14.315v22.029h-22.028l-14.316-17.894c-2.588-3.235-7.308-3.76-10.542-1.171-3.234 2.588-3.758 7.308-1.171 10.542l6.819 8.522h-17.529c-4.142 0-7.5 3.357-7.5 7.5s3.358 7.5 7.5 7.5h17.527l-6.817 8.522c-2.587 3.234-2.064 7.954 1.171 10.542 1.383 1.106 3.038 1.643 4.681 1.643 2.2 0 4.38-.963 5.861-2.814l14.314-17.893h22.029v22.029l-17.893 14.315c-3.234 2.588-3.759 7.308-1.171 10.542 2.587 3.234 7.308 3.759 10.542 1.171l8.523-6.818v17.528c0 4.143 3.358 7.5 7.5 7.5s7.5-3.357 7.5-7.5v-17.528l8.522 6.818c1.383 1.107 3.037 1.644 4.68 1.644 2.2 0 4.38-.963 5.861-2.815 2.587-3.234 2.063-7.954-1.171-10.542l-17.893-14.314v-22.03h22.029l14.315 17.894c1.481 1.852 3.661 2.814 5.861 2.814 1.643 0 3.297-.537 4.681-1.643 3.234-2.588 3.758-7.308 1.171-10.542l-6.818-8.523h17.529c4.142 0 7.5-3.357 7.5-7.5.002-4.142-3.355-7.5-7.498-7.5z"/><path d="m305.997 447.643h-9.246l2.677-3.346c2.588-3.235 2.063-7.954-1.171-10.542s-7.955-2.064-10.542 1.171l-10.173 12.717h-13.745v-13.745l12.716-10.173c3.234-2.588 3.759-7.307 1.171-10.542-2.588-3.234-7.308-3.76-10.542-1.171l-3.346 2.677v-9.246c0-4.143-3.358-7.5-7.5-7.5s-7.5 3.357-7.5 7.5v9.246l-3.346-2.677c-3.234-2.588-7.955-2.063-10.542 1.171-2.587 3.235-2.063 7.954 1.171 10.542l12.716 10.173v13.745h-13.745l-10.173-12.717c-2.588-3.235-7.308-3.759-10.541-1.171-3.234 2.588-3.759 7.307-1.171 10.542l2.677 3.346h-9.246c-4.142 0-7.5 3.357-7.5 7.5s3.358 7.5 7.5 7.5h9.246l-2.677 3.346c-2.588 3.235-2.063 7.954 1.171 10.542 1.383 1.106 3.037 1.644 4.68 1.644 2.2 0 4.38-.963 5.861-2.815l10.173-12.717h13.745v13.746l-12.716 10.173c-3.235 2.588-3.759 7.308-1.171 10.542 2.587 3.233 7.307 3.758 10.542 1.171l3.346-2.677v9.245c0 4.143 3.358 7.5 7.5 7.5s7.5-3.357 7.5-7.5v-9.245l3.346 2.677c1.383 1.107 3.037 1.644 4.68 1.644 2.2 0 4.38-.963 5.861-2.815 2.588-3.235 2.063-7.954-1.171-10.542l-12.716-10.173v-13.746h13.745l10.173 12.717c1.481 1.852 3.661 2.815 5.861 2.815 1.643 0 3.297-.537 4.68-1.644 3.234-2.588 3.759-7.307 1.171-10.542l-2.677-3.346h9.246c4.142 0 7.5-3.357 7.5-7.5s-3.356-7.5-7.498-7.5z"/><path d="m208.469 372.762 6.411-6.411 6.411 6.411c1.464 1.464 3.384 2.196 5.303 2.196s3.839-.733 5.303-2.196c2.929-2.93 2.929-7.678 0-10.607l-6.411-6.411 6.411-6.41c2.929-2.93 2.929-7.678 0-10.608-2.929-2.928-7.678-2.928-10.606 0l-6.411 6.411-6.411-6.411c-2.929-2.928-7.678-2.928-10.606 0-2.929 2.93-2.929 7.678 0 10.608l6.411 6.41-6.411 6.411c-2.929 2.93-2.929 7.678 0 10.607 1.464 1.464 3.384 2.196 5.303 2.196s3.839-.733 5.303-2.196z"/><path d="m157.348 454.692c-2.929-2.928-7.678-2.928-10.607 0l-6.411 6.411-6.411-6.411c-2.929-2.928-7.678-2.928-10.606 0-2.929 2.93-2.929 7.678 0 10.608l6.411 6.41-6.411 6.411c-2.929 2.93-2.929 7.678 0 10.607 1.464 1.464 3.384 2.196 5.303 2.196s3.839-.733 5.303-2.196l6.411-6.411 6.411 6.411c1.464 1.464 3.384 2.196 5.303 2.196s3.839-.733 5.303-2.196c2.929-2.93 2.929-7.678 0-10.607l-6.411-6.411 6.411-6.41c2.93-2.93 2.93-7.678.001-10.608z"/><path d="m389.281 454.692c-2.929-2.928-7.678-2.928-10.607 0l-6.411 6.411-6.411-6.411c-2.929-2.928-7.678-2.928-10.607 0-2.929 2.93-2.929 7.678 0 10.608l6.411 6.41-6.411 6.411c-2.929 2.93-2.929 7.678 0 10.607 1.464 1.464 3.384 2.196 5.303 2.196 1.92 0 3.839-.733 5.303-2.196l6.411-6.411 6.411 6.411c1.464 1.464 3.384 2.196 5.303 2.196s3.839-.733 5.303-2.196c2.929-2.93 2.929-7.678 0-10.607l-6.411-6.411 6.411-6.41c2.931-2.93 2.931-7.678.002-10.608z"/><path d="m488.681 454.692c-2.929-2.928-7.678-2.928-10.606 0l-6.411 6.411-6.411-6.411c-2.929-2.928-7.678-2.928-10.607 0-2.929 2.93-2.929 7.678 0 10.608l6.411 6.41-6.411 6.411c-2.929 2.93-2.929 7.678 0 10.607 1.464 1.464 3.384 2.196 5.303 2.196s3.839-.733 5.303-2.196l6.411-6.411 6.411 6.411c1.464 1.464 3.384 2.196 5.303 2.196s3.839-.733 5.303-2.196c2.929-2.93 2.929-7.678 0-10.607l-6.411-6.411 6.411-6.41c2.93-2.93 2.93-7.678.001-10.608z"/><path d="m314.731 338.725c-2.929-2.928-7.678-2.928-10.606 0l-6.411 6.411-6.411-6.411c-2.929-2.928-7.678-2.928-10.607 0-2.929 2.93-2.929 7.678 0 10.608l6.411 6.41-6.411 6.411c-2.929 2.93-2.929 7.678 0 10.607 1.464 1.464 3.384 2.196 5.303 2.196s3.839-.733 5.303-2.196l6.411-6.411 6.411 6.411c1.464 1.464 3.384 2.196 5.303 2.196s3.839-.733 5.303-2.196c2.929-2.93 2.929-7.678 0-10.607l-6.411-6.411 6.411-6.41c2.93-2.93 2.93-7.678.001-10.608z"/><path d="m57.947 454.692c-2.929-2.928-7.678-2.928-10.606 0l-6.411 6.411-6.411-6.411c-2.929-2.928-7.678-2.928-10.606 0-2.929 2.93-2.929 7.678 0 10.608l6.411 6.41-6.411 6.411c-2.929 2.93-2.929 7.678 0 10.607 1.464 1.464 3.384 2.196 5.303 2.196s3.839-.733 5.303-2.196l6.411-6.411 6.411 6.411c1.464 1.464 3.384 2.196 5.303 2.196s3.839-.733 5.303-2.196c2.929-2.93 2.929-7.678 0-10.607l-6.411-6.411 6.411-6.41c2.929-2.93 2.929-7.678 0-10.608z"/><path d="m90.505 280.066h16.1c4.142 0 7.5-3.358 7.5-7.5 0-4.143-3.358-7.5-7.5-7.5h-16.1c-41.539 0-75.333-33.794-75.333-75.333 0-41.516 33.759-75.296 75.267-75.333.023.001.049 0 .073 0 41.536.003 75.327 33.796 75.327 75.333 0 4.143 3.358 7.5 7.5 7.5s7.5-3.357 7.5-7.5c0-47.275-36.506-86.18-82.807-90.017-.005-.365-.026-.738-.026-1.1 0-13.228 2.997-25.877 8.906-37.595 1.865-3.698.379-8.208-3.319-10.073-3.699-1.866-8.209-.379-10.074 3.319-6.977 13.833-10.514 28.754-10.514 44.349 0 .362.002.726.006 1.092-46.317 3.822-82.84 42.739-82.84 90.025.001 49.81 40.524 90.333 90.334 90.333z"/><path d="m441.919 132.616c-10.135-29.588-38.041-49.783-69.78-49.783-12.418 0-24.447 3.074-35.219 8.95-10.508-15.722-28.414-25.517-47.614-25.517-4.739 0-9.4.574-13.932 1.712-5.936-18.11-17.154-34.361-32.147-46.37-17.395-13.934-39.273-21.608-61.605-21.608-25.771 0-50.15 9.878-68.647 27.815-2.973 2.884-3.046 7.632-.163 10.605 2.884 2.973 7.631 3.047 10.605.162 15.683-15.207 36.354-23.582 58.205-23.582 36.938 0 68.924 23.783 79.77 58.52-17.757 9.918-29.287 28.845-29.287 49.947 0 4.143 3.358 7.5 7.5 7.5s7.5-3.357 7.5-7.5c0-17.382 10.597-32.763 26.352-39.126.25-.102 3.705-1.386 5.259-1.736 2.603-.586 6.942-1.338 10.589-1.338 16.235 0 31.217 9.493 38.167 24.185.943 1.996 2.72 3.475 4.854 4.042 2.133.565 4.409.164 6.22-1.1 9.895-6.909 21.511-10.561 33.593-10.561 26.853 0 50.263 18.142 56.927 44.116.872 3.401 3.949 5.758 7.498 5.633 0 0 1.397-.049 1.842-.049 32.404 0 58.767 26.362 58.767 58.767s-26.362 58.767-58.767 58.767-58.767-26.362-58.767-58.767c0-4.143-3.357-7.5-7.5-7.5s-7.5 3.357-7.5 7.5c0 23.962 11.491 45.283 29.244 58.767h-257.277c-4.142 0-7.5 3.357-7.5 7.5 0 4.142 3.358 7.5 7.5 7.5h301.799c40.675 0 73.767-33.092 73.767-73.767 0-39.498-31.202-71.846-70.253-73.684z"/></g></g></svg>