<svg id="Capa_1" enable-background="new 0 0 512 512" height="512" viewBox="0 0 512 512" width="512" xmlns="http://www.w3.org/2000/svg"><g><g><path d="m398.481 327.771c62.022-23.945 106.019-84.137 106.019-154.604 0-44.101-17.24-84.17-45.339-113.855-2.278-2.406-5.957-2.785-8.741-.987-4.785 3.09-10.585 4.741-16.792 4.338-13.5-.878-24.523-11.685-25.665-25.164-.252-2.97-.028-5.85.599-8.576.74-3.214-.9-6.524-3.926-7.835-19.798-8.579-41.599-13.407-64.509-13.582-91.533-.701-166.776 73.785-166.96 165.321-.048 23.754 4.904 46.345 13.863 66.78v88.164z" fill="#ffe07d"/><g fill="#ffd064"><path d="m381.636 21.087c3.026 1.311 4.665 4.621 3.926 7.835-.627 2.726-.851 5.606-.599 8.576 1.142 13.48 12.166 24.286 25.665 25.164 4.786.311 9.324-.609 13.347-2.459-8.793-4.062-15.16-12.637-16.013-22.705-.252-2.97-.028-5.85.599-8.576.74-3.214-.9-6.524-3.926-7.835-19.798-8.579-41.599-13.407-64.509-13.582-4.318-.033-8.6.102-12.84.398 19.199 1.312 37.502 5.884 54.35 13.184z"/><path d="m459.161 59.312c-2.278-2.406-5.958-2.785-8.741-.987-3.353 2.165-7.212 3.604-11.353 4.144 26.375 29.34 42.433 68.14 42.433 110.698 0 70.468-43.997 130.659-106.019 154.604h23c62.022-23.945 106.019-84.137 106.019-154.604 0-44.102-17.24-84.171-45.339-113.855z"/></g><ellipse cx="330.55" cy="140.033" fill="#ffd064" rx="16.567" ry="16.567" transform="matrix(.924 -.383 .383 .924 -28.427 137.155)"/><circle cx="297.417" cy="82.05" fill="#ebb560" r="24.85"/><circle cx="256" cy="156.6" fill="#ffd064" r="33.133"/><g><path d="m438.233 371.967h-.023c-1.221 0-2.271-.821-2.613-1.993-8.026-27.564-33.476-47.707-63.631-47.707-11.275 0-21.887 2.824-31.179 7.795-3.642 1.948-8.163.93-10.478-2.49-8.934-13.196-24.04-21.872-41.176-21.872-4.008 0-7.903.477-11.635 1.374-4.043.972-8.218-1.2-9.524-5.148-12.001-36.299-46.202-62.492-86.524-62.492-50.322 0-91.117 40.794-91.117 91.117 0 1.143.029 2.278.077 3.409.047 1.119-.32 2.217-1.009 3.1l-.071.091c-.863 1.106-2.17 1.759-3.571 1.835-44.09 2.402-79.009 39.258-78.247 84.123.771 45.352 38.501 81.391 83.861 81.391h345.872c36.419 0 66.776-28.97 67.249-65.387.48-37.001-29.37-67.146-66.261-67.146z" fill="#ecf4ff"/><path d="m438.233 371.967h-.023c-1.221 0-2.271-.821-2.613-1.993-8.026-27.564-33.476-47.707-63.631-47.707-11.275 0-21.887 2.824-31.179 7.795-3.642 1.948-8.163.93-10.478-2.49-8.934-13.196-24.04-21.872-41.176-21.872-4.008 0-7.903.477-11.635 1.374-4.043.972-8.218-1.2-9.524-5.148-12.001-36.299-46.202-62.492-86.524-62.492-50.322 0-91.117 40.794-91.117 91.117 0 1.143.029 2.278.077 3.409.047 1.119-.32 2.217-1.009 3.1l-.071.091c-.863 1.106-2.17 1.759-3.571 1.835-44.09 2.402-79.009 39.258-78.247 84.123.771 45.352 38.501 81.391 83.861 81.391h345.872c36.419 0 66.776-28.97 67.249-65.387.48-37.001-29.37-67.146-66.261-67.146z" fill="#ecf4ff"/><path d="m438.233 371.967h-.023c-1.22 0-2.271-.821-2.613-1.993-8.026-27.564-33.476-47.707-63.631-47.707-3.921 0-7.759.349-11.492 1.004 24.976 4.375 45.142 22.728 52.123 46.703.341 1.172 1.392 1.993 2.613 1.993h.023c36.891 0 66.741 30.145 66.261 67.146-.472 36.416-30.829 65.387-67.249 65.387h23c36.419 0 66.776-28.97 67.249-65.387.48-37.001-29.37-67.146-66.261-67.146z" fill="#ddeafb"/></g></g><g><path d="m106.5 497h-16.166c-41.54 0-75.334-33.794-75.334-75.333 0-41.512 33.753-75.289 75.253-75.334.022.001.043-.001.065-.001.005 0 .01.001.016.001 41.539 0 75.333 33.795 75.333 75.334 0 4.143 3.358 7.5 7.5 7.5s7.5-3.357 7.5-7.5c0-47.276-36.506-86.181-82.808-90.018-.005-.365-.025-.737-.025-1.099 0-14.148 3.596-28.126 10.4-40.422 2.006-3.624.693-8.188-2.931-10.193-3.624-2.006-8.188-.693-10.193 2.932-8.031 14.512-12.276 31.001-12.276 47.684 0 .362.002.727.006 1.091-46.318 3.821-82.84 42.738-82.84 90.025 0 49.81 40.523 90.333 90.334 90.333h16.166c4.142 0 7.5-3.357 7.5-7.5s-3.358-7.5-7.5-7.5z"/><path d="m441.747 364.55c-5.048-14.741-14.51-27.148-26.657-35.89 26.288-12.884 48.849-32.169 65.808-56.451 20.347-29.134 31.102-63.382 31.102-99.042 0-44.46-16.831-86.726-47.392-119.012-4.739-5.005-12.417-5.902-18.256-2.132-3.636 2.349-7.869 3.438-12.237 3.154-9.818-.639-17.849-8.512-18.679-18.312-.179-2.12-.033-4.227.436-6.262 1.554-6.755-1.917-13.651-8.253-16.398-21.333-9.243-44.021-14.021-67.434-14.2-.453-.003-.9-.005-1.352-.005-45.789 0-88.977 17.82-121.736 50.265-33.072 32.754-51.336 76.275-51.43 122.547-.041 20.451 3.429 40.342 10.302 59.29-22.442 1.242-43.76 10.063-60.533 25.185-3.077 2.773-3.322 7.516-.548 10.593 2.773 3.076 7.516 3.322 10.592.548 15.374-13.86 35.252-21.494 55.971-21.494 36.937 0 68.923 23.782 79.77 58.52-17.757 9.918-29.287 28.845-29.287 49.947 0 4.143 3.358 7.5 7.5 7.5s7.5-3.357 7.5-7.5c0-17.244 10.432-32.516 25.982-38.97.023-.009-.023.01 0 0 5.13-2.127 10.633-3.23 16.219-3.23 16.236 0 31.217 9.493 38.167 24.186.944 1.996 2.72 3.475 4.854 4.042 2.134.564 4.409.163 6.22-1.1 9.893-6.909 21.509-10.561 33.593-10.561 26.855 0 50.264 18.142 56.926 44.116.871 3.401 3.982 5.771 7.497 5.633 0 0 1.399-.049 1.843-.049 32.404 0 58.767 26.362 58.767 58.767s-26.365 58.765-58.769 58.765-58.767-26.362-58.767-58.767c0-4.143-3.358-7.5-7.5-7.5s-7.5 3.357-7.5 7.5c0 23.962 11.491 45.283 29.244 58.767h-257.276c-4.142 0-7.5 3.357-7.5 7.5s3.358 7.5 7.5 7.5h301.8c40.675 0 73.766-33.092 73.766-73.767 0-39.498-31.202-71.845-70.253-73.683zm-104.999-40.834c-10.507-15.722-28.413-25.516-47.615-25.516-4.739 0-9.399.574-13.931 1.712-5.936-18.11-17.155-34.361-32.147-46.37-14.591-11.688-32.34-18.95-50.861-20.995-7.691-18.949-11.568-39.012-11.527-59.706.085-42.248 16.771-81.995 46.985-111.919 30.225-29.933 70.142-46.218 112.417-45.917 21.202.162 41.747 4.449 61.071 12.742-.728 3.393-.947 6.885-.651 10.384 1.452 17.136 15.489 30.899 32.651 32.016 7.45.479 14.686-1.338 20.957-5.272 27.672 29.435 42.903 67.87 42.903 108.292 0 63.941-39.466 122.45-98.508 146.529-8.282-3.188-17.237-4.929-26.525-4.929-12.42 0-24.448 3.074-35.219 8.949z"/><path d="m156.6 48.134h9.066v9.066c0 4.143 3.358 7.5 7.5 7.5s7.5-3.357 7.5-7.5v-9.066h9.067c4.142 0 7.5-3.357 7.5-7.5s-3.358-7.5-7.5-7.5h-9.067v-9.067c0-4.143-3.358-7.5-7.5-7.5s-7.5 3.357-7.5 7.5v9.067h-9.066c-4.142 0-7.5 3.357-7.5 7.5s3.358 7.5 7.5 7.5z"/><path d="m330.55 115.967c-13.271 0-24.066 10.796-24.066 24.066s10.795 24.067 24.066 24.067 24.067-10.796 24.067-24.066-10.797-24.067-24.067-24.067zm0 33.133c-4.999 0-9.066-4.067-9.066-9.066s4.067-9.066 9.066-9.066 9.067 4.067 9.067 9.066c0 4.998-4.068 9.066-9.067 9.066z"/><path d="m329.767 82.05c0-17.838-14.512-32.35-32.35-32.35-17.837 0-32.35 14.512-32.35 32.35s14.512 32.351 32.35 32.351c17.837-.001 32.35-14.513 32.35-32.351zm-32.35 17.35c-9.566 0-17.35-7.783-17.35-17.351 0-9.566 7.783-17.35 17.35-17.35s17.35 7.783 17.35 17.35c0 9.568-7.784 17.351-17.35 17.351z"/><path d="m256 115.967c-22.405 0-40.633 18.228-40.633 40.633s18.228 40.634 40.633 40.634 40.633-18.229 40.633-40.634-18.228-40.633-40.633-40.633zm0 66.266c-14.134 0-25.633-11.499-25.633-25.634 0-14.134 11.499-25.633 25.633-25.633s25.633 11.499 25.633 25.633c0 14.135-11.499 25.634-25.633 25.634z"/><path d="m90.334 139.25c4.142 0 7.5-3.357 7.5-7.5v-16.566c0-4.143-3.358-7.5-7.5-7.5s-7.5 3.357-7.5 7.5v16.566c0 4.143 3.357 7.5 7.5 7.5z"/><path d="m90.334 205.517c4.142 0 7.5-3.357 7.5-7.5v-16.567c0-4.143-3.358-7.5-7.5-7.5s-7.5 3.357-7.5 7.5v16.566c0 4.143 3.357 7.501 7.5 7.501z"/><path d="m115.183 164.1h16.567c4.142 0 7.5-3.357 7.5-7.5s-3.358-7.5-7.5-7.5h-16.567c-4.142 0-7.5 3.357-7.5 7.5 0 4.142 3.358 7.5 7.5 7.5z"/><path d="m48.917 164.1h16.567c4.142 0 7.5-3.357 7.5-7.5s-3.358-7.5-7.5-7.5h-16.567c-4.142 0-7.5 3.357-7.5 7.5 0 4.142 3.357 7.5 7.5 7.5z"/></g></g></svg>