<svg id="Capa_1" enable-background="new 0 0 512 512" height="512" viewBox="0 0 512 512" width="512" xmlns="http://www.w3.org/2000/svg"><g><g><path d="m438.22 210.228v139.845h-165.667v-139.845l82.834-65.255z" fill="#f5e1c1"/><path d="m415.22 192.109v157.964h23v-139.845z" fill="#f0cea5"/><path d="m388.52 350.073h-66.267v-86.067c0-4.418 3.582-8 8-8h50.267c4.418 0 8 3.582 8 8z" fill="#5c545f"/><g><path d="m454.984 233.435-94.783-67.702c-2.88-2.057-6.749-2.057-9.629 0l-94.783 67.702c-3.723 2.659-8.896 1.797-11.555-1.926l-9.629-13.48c-2.659-3.723-1.797-8.896 1.926-11.555l114.041-81.458c2.88-2.057 6.749-2.057 9.629 0l114.041 81.458c3.723 2.659 4.585 7.832 1.926 11.555l-9.629 13.48c-2.659 3.723-7.833 4.585-11.555 1.926z" fill="#ff8086"/></g><path d="m474.242 206.474-114.041-81.457c-2.88-2.057-6.749-2.057-9.629 0l-6.686 4.775 107.355 76.682c3.723 2.659 4.585 7.832 1.926 11.555l-6.673 9.342 8.489 6.064c3.723 2.659 8.896 1.797 11.555-1.926l9.629-13.48c2.66-3.723 1.798-8.896-1.925-11.555z" fill="#e5646e"/><path d="m380.52 256.007h-22.741c4.418 0 8 3.582 8 8v86.067h22.741v-86.067c0-4.418-3.582-8-8-8z" fill="#4b3f4e"/><path d="m71.472 405.103c-39.921-47.884-63.939-109.494-63.939-176.714 0-39.799 10.524-77.14 28.941-109.391l100.863-61.798h81.331l-.099 30.238c-18.226 27.799-28.826 61.048-28.826 96.774 0 60.206 24.083 114.786 63.141 154.629v78.66h-180.883z" fill="#c3ddff"/><path d="m189.742 184.211c0-35.725 10.6-68.975 28.826-96.774l.099-30.237h-23l-.099 30.237c-18.226 27.799-28.826 61.048-28.826 96.774 0 60.206 24.083 114.786 63.141 154.629v78.66h23v-78.66c-39.057-39.843-63.141-94.423-63.141-154.629z" fill="#a7ccfb"/><path d="m504.467 347.117c0-4.575-3.708-8.283-8.282-8.283h-256.75c-21.135 0-40.455 11.942-49.907 30.848l-2.285 4.57c-9.452 18.906-28.772 30.848-49.907 30.848v12.4h367.196z" fill="#d19a6e"/><path d="m504.467 347.117c0-4.575-3.708-8.283-8.282-8.283h-23.066c4.574 0 8.282 3.709 8.282 8.283l.066 70.383h23.066z" fill="#c38c66"/><ellipse cx="421.645" cy="57.2" fill="#ecf4ff" rx="16.565" ry="16.567"/><ellipse cx="24.097" cy="57.2" fill="#ecf4ff" rx="16.564" ry="16.567"/><path d="m249.001 405.1v99.4h238.901c9.148 0 16.564-7.417 16.564-16.567l.066-82.833z" fill="#c3ddff"/><path d="m481.467 405.1-.066 82.833c0 9.15-7.416 16.567-16.564 16.567h23.066c9.148 0 16.564-7.417 16.564-16.567l.066-82.833z" fill="#a7ccfb"/><path d="m305.69 488.249c.174-9.284-7.712-16.883-16.998-16.883h-15.692c-9.286 0-17.172-7.599-16.998-16.883.169-9.004 7.519-16.25 16.561-16.25h98.951c9.286 0 17.172-7.599 16.998-16.883-.169-9.004-7.519-16.25-16.561-16.25h-356.418c-4.418 0-8 3.582-8 8v74.833c0 9.15 7.417 16.567 16.567 16.567h265.03c9.042 0 16.392-7.247 16.56-16.251z" fill="#ecf4ff"/><g fill="#ddeafb"><path d="m289.129 471.367h-16.565c-9.148 0-16.564-7.417-16.564-16.567s7.416-16.567 16.564-16.567h-23c-9.148 0-16.565 7.417-16.565 16.567s7.416 16.567 16.565 16.567h16.564c9.148 0 16.564 7.417 16.564 16.567s-7.416 16.567-16.564 16.567h23c9.148 0 16.564-7.417 16.564-16.567.001-9.15-7.415-16.567-16.563-16.567z"/><path d="m371.951 405.1h-23c9.148 0 16.564 7.417 16.564 16.567s-7.416 16.567-16.564 16.567h23c9.148 0 16.564-7.417 16.564-16.567.001-9.15-7.415-16.567-16.564-16.567z"/></g><path d="m7.533 228.389c0-1.345.027-2.683.051-4.022-.034 1.329-.051 2.663-.051 4z" fill="#ecf4ff"/><path d="m7.533 228.389c0-121.994 98.882-220.889 220.86-220.889 79.047 0 145.97 51.916 168.541 123.515 0 0 7.067 20.985 1.317 36.985-5.082 14.141-39.137 29.142-63.011-10.135-1.013-1.667-3.545-1.065-3.706.879-.533 6.456-2.708 15.328-10.2 19.756-14.667 8.667-31.833 2.167-41.333-20-4.043-9.435-6.348-16.173-13.635-27.487-21.955-34.4-60.459-57.211-104.289-57.211-85.352 0-154.544 69.201-154.544 154.565v.022z" fill="#ecf4ff"/><path d="m396.934 131.015c-22.571-71.599-89.494-123.515-168.541-123.515-4.055 0-8.082.117-12.083.333 74.242 4.526 136.1 54.903 157.625 123.182 0 0 7.067 20.985 1.317 36.985-1.807 5.027-7.277 10.161-14.648 12.928 17.713 6.478 34.231-3.419 37.648-12.928 5.749-16-1.318-36.985-1.318-36.985z" fill="#ddeafb"/><path d="m149.866 74.282c-3.557-.308-7.152-.479-10.789-.479-35.688 0-68.545 12.104-94.706 32.424-22.576 33.948-36.008 74.497-36.787 118.14 2.017-79.429 63.949-143.961 142.282-150.085z" fill="#ddeafb"/><path d="m7.533 228.389c0-1.345.027-2.683.051-4.022-.034 1.329-.051 2.663-.051 4z" fill="#ecf4ff"/></g><g><path d="m511.967 347.116v-.001c0-6.527-3.982-12.141-9.645-14.54-1.888-.8-3.962-1.242-6.137-1.242h-50.476v-95.306l4.915 3.511c2.775 1.982 5.978 2.936 9.152 2.935 4.929 0 9.789-2.296 12.865-6.604l9.629-13.48c5.06-7.082 3.413-16.959-3.669-22.018l-70.708-50.506c-.562-11-3.458-20.056-3.825-21.162-11.528-36.53-34.875-69.309-65.746-92.309-31.956-23.809-69.969-36.394-109.929-36.394-60.998 0-118.344 23.757-161.475 66.894-43.095 43.1-66.844 100.395-66.885 161.34v.133.004.018c0 61.015 19.798 120.505 56.008 169.211h-40.508-8c-4.143 0-7.5 3.357-7.5 7.5v82.834.002c0 12.855 10.131 23.387 22.828 24.033.41.021.822.031 1.237.031h27.903c4.143 0 7.5-3.357 7.5-7.5s-3.357-7.5-7.5-7.5h-27.903c-.625 0-1.235-.064-1.825-.185-4.127-.847-7.24-4.508-7.24-8.882v-74.833c0-.275.225-.5.5-.5h356.418c4.998 0 9.064 4.067 9.064 9.067 0 4.999-4.066 9.066-9.064 9.066h-99.387c-13.27 0-24.065 10.796-24.065 24.066s10.795 24.066 24.065 24.066h16.564c4.998 0 9.064 4.067 9.064 9.067 0 4.999-4.066 9.066-9.064 9.066h-206.693c-4.143 0-7.5 3.357-7.5 7.5s3.357 7.5 7.5 7.5h405.465.001.001c12.855 0 23.387-10.132 24.033-22.83.021-.409.031-.822.031-1.237v-140.815zm-15 0v50.484h-318.65c3.626-3.088 6.925-6.597 9.811-10.496.01-.014.02-.029.031-.044.426-.576.843-1.16 1.251-1.753 1.674-2.433 3.194-5.004 4.543-7.703l2.283-4.569c8.235-16.471 24.79-26.702 43.203-26.702h256.745c.432 0 .783.352.783.783zm-115.951-15.783h-51.258v-67.333c0-.275.225-.5.5-.5h50.258c.275 0 .5.225.5.5zm49.693 0h-34.693v-67.333c0-8.547-6.953-15.5-15.5-15.5h-50.258c-8.547 0-15.5 6.953-15.5 15.5v67.333h-34.693v-18.916c0-4.143-3.357-7.5-7.5-7.5s-7.5 3.357-7.5 7.5v18.916h-8.986c-37.959-39.848-58.836-91.962-58.836-147.122 0-30.767 8.265-60.629 23.944-86.81 15.456 9.142 28.82 21.921 38.874 37.674 5.718 8.876 8.101 14.581 11.118 21.804.615 1.472 1.247 2.985 1.929 4.575 1.081 2.523 2.276 4.901 3.57 7.127l-44.506 31.79c-3.431 2.45-5.701 6.09-6.395 10.249-.693 4.158.274 8.338 2.726 11.769l9.629 13.48c2.45 3.431 6.09 5.701 10.249 6.395.877.146 1.756.219 2.628.219 3.261 0 6.435-1.011 9.141-2.944l4.915-3.511v45.972c0 4.143 3.357 7.5 7.5 7.5s7.5-3.357 7.5-7.5v-56.687l63.794-45.568c11.719 9.738 23.311 11.133 30.697 10.688 2.07-.124 4.11-.431 6.108-.868l50.045 35.747zm-179.278-104c-.176.125-.374.169-.584.135-.213-.035-.384-.143-.51-.317l-9.629-13.48c-.125-.175-.17-.372-.135-.584.035-.213.143-.384.317-.51l45.078-32.199c3.927 3.622 8.289 6.27 12.955 7.796 1.833.599 3.697 1.009 5.576 1.252zm218.769-14.247c.035.212-.01.409-.135.584l-9.629 13.48c-.252.352-.741.432-1.094.183l-63.022-45.016c4.184-3.274 7.384-7.319 8.987-11.781.396-1.1.738-2.217 1.036-3.344l63.538 45.384c.177.126.284.297.319.51zm-241.807-198.086c74.231 0 139.087 47.529 161.388 118.27.013.038.029.089.042.127.061.186 6.147 18.776 1.371 32.067-1.378 3.833-8.238 9.44-17.534 9.997-13.47.805-26.084-9.042-35.453-27.736-1.298-2.591-3.928-4.141-6.705-4.141-.718 0-1.445.104-2.163.319-3.491 1.052-5.721 4.463-5.282 8.083.018.151 1.47 15.325-6.537 20.057-4.582 2.708-9.4 3.357-13.932 1.874-6.614-2.163-12.542-8.688-16.692-18.371-.662-1.546-1.277-3.018-1.875-4.449-3.041-7.278-5.912-14.152-12.331-24.118-24.248-37.993-65.599-60.676-110.611-60.676-43.427 0-82.914 17.169-112.037 45.082 38.175-58.016 103.866-96.385 178.351-96.385zm-213.36 213.389c0-.051 0-.096 0-.146.064-81.037 66.003-146.94 147.044-146.94 16.011 0 31.495 3.247 45.69 9.307-16.72 28.289-25.525 60.466-25.525 93.601 0 54.417 18.977 106.072 53.763 147.222-22.741 1.206-42.908 14.338-53.186 34.896l-1.141 2.284-1.144 2.288c-1.029 2.058-2.188 4.019-3.465 5.875-7.98 11.599-20.542 19.086-34.609 20.557-1.688.177-3.398.267-5.124.267h-12.612c-38.708-47.685-59.998-107.627-59.998-169.211 0-4.143-3.357-7.5-7.5-7.5s-7.5 3.357-7.5 7.5c0 61.015 19.798 120.505 56.008 169.211h-30.703c-38.707-47.686-59.998-107.628-59.998-169.211zm274.096 235.477h-16.564c-4.998 0-9.065-4.067-9.065-9.066s4.066-9.066 9.065-9.066h99.387c13.27 0 24.064-10.796 24.064-24.066 0-3.207-.635-6.267-1.779-9.067h102.73v75.334c0 .625-.064 1.235-.185 1.825-.847 4.128-4.508 7.242-8.882 7.242h-176.485c1.143-2.8 1.779-5.86 1.779-9.066-.001-13.273-10.796-24.07-24.065-24.07z"/><path d="m421.645 81.267c13.27 0 24.064-10.796 24.064-24.066s-10.795-24.066-24.064-24.066c-13.27 0-24.064 10.796-24.064 24.066s10.794 24.066 24.064 24.066zm0-33.133c4.998 0 9.064 4.067 9.064 9.066s-4.066 9.066-9.064 9.066-9.064-4.067-9.064-9.066 4.066-9.066 9.064-9.066z"/><path d="m24.098 81.267c13.269 0 24.064-10.796 24.064-24.066s-10.795-24.067-24.064-24.067c-13.27 0-24.065 10.796-24.065 24.066s10.795 24.067 24.065 24.067zm0-33.133c4.998 0 9.064 4.067 9.064 9.066s-4.066 9.066-9.064 9.066-9.064-4.067-9.064-9.066 4.066-9.066 9.064-9.066z"/></g></g></svg>