<svg id="Capa_1" enable-background="new 0 0 512 512" height="512" viewBox="0 0 512 512" width="512" xmlns="http://www.w3.org/2000/svg"><g><g><path d="m297.417 140.033c-23.8 0-42.897-20.421-41.18-44.563 1.41-19.817 17.108-36.027 36.872-38.05 2.782-.285 5.513-.289 8.171-.041 3.628.338 6.974-1.954 8.161-5.398 8.925-25.883 33.481-44.481 62.396-44.481 21.694 0 40.935 10.471 52.965 26.631 3.067 4.12 7.852 6.537 12.988 6.504.104-.001.209-.001.314-.001 27.731 0 50.158 22.712 49.693 50.549-.455 27.251-23.256 48.851-50.511 48.851h-139.869z" fill="#ddeafb"/><path d="m438.104 40.633c-.105 0-.209 0-.314.001-5.136.034-9.921-2.384-12.988-6.504-12.03-16.159-31.271-26.63-52.965-26.63-3.918 0-7.751.352-11.481 1.007 16.908 2.978 31.595 12.392 41.445 25.623 3.067 4.12 7.852 6.537 12.988 6.504.104-.001.209-.001.314-.001 27.731 0 50.158 22.712 49.693 50.549-.455 27.251-23.256 48.851-50.511 48.851h23c27.255 0 50.056-21.6 50.511-48.851.466-27.837-21.961-50.549-49.692-50.549z" fill="#bed8fb"/><g><g><path d="m438.233 173.167h-.023c-1.221 0-2.271-.821-2.613-1.993-8.026-27.564-33.476-47.707-63.631-47.707-11.275 0-21.887 2.825-31.179 7.795-3.642 1.948-8.163.93-10.478-2.49-8.934-13.197-24.04-21.872-41.176-21.872-4.008 0-7.903.477-11.635 1.374-4.043.972-8.218-1.2-9.524-5.148-12.002-36.299-46.202-62.492-86.524-62.492-50.322 0-91.117 40.794-91.117 91.117 0 1.143.029 2.278.077 3.409.047 1.119-.32 2.217-1.009 3.1l-.071.091c-.863 1.106-2.17 1.759-3.571 1.835-44.09 2.402-79.009 39.258-78.247 84.123.771 45.352 38.501 81.391 83.861 81.391h345.872c36.419 0 66.776-28.971 67.249-65.387.48-37.001-29.37-67.146-66.261-67.146z" fill="#ecf4ff"/><path d="m438.233 173.167h-.023c-1.221 0-2.271-.821-2.613-1.993-8.026-27.564-33.476-47.707-63.631-47.707-11.275 0-21.887 2.825-31.179 7.795-3.642 1.948-8.163.93-10.478-2.49-8.934-13.197-24.04-21.872-41.176-21.872-4.008 0-7.903.477-11.635 1.374-4.043.972-8.218-1.2-9.524-5.148-12.002-36.299-46.202-62.492-86.524-62.492-50.322 0-91.117 40.794-91.117 91.117 0 1.143.029 2.278.077 3.409.047 1.119-.32 2.217-1.009 3.1l-.071.091c-.863 1.106-2.17 1.759-3.571 1.835-44.09 2.402-79.009 39.258-78.247 84.123.771 45.352 38.501 81.391 83.861 81.391h345.872c36.419 0 66.776-28.971 67.249-65.387.48-37.001-29.37-67.146-66.261-67.146z" fill="#ecf4ff"/><path d="m438.233 173.167h-.023c-1.22 0-2.271-.821-2.613-1.993-8.026-27.564-33.476-47.707-63.631-47.707-3.921 0-7.759.349-11.492 1.004 24.976 4.375 45.142 22.728 52.123 46.703.341 1.172 1.392 1.993 2.613 1.993h.023c36.891 0 66.741 30.145 66.261 67.146-.472 36.417-30.829 65.387-67.249 65.387h23c36.419 0 66.776-28.97 67.249-65.387.48-37.001-29.37-67.146-66.261-67.146z" fill="#ddeafb"/></g></g></g><g><path d="m90.334 313.2h16.1c4.142 0 7.5-3.357 7.5-7.5s-3.358-7.5-7.5-7.5h-16.1c-41.54 0-75.334-33.795-75.334-75.334 0-41.516 33.756-75.296 75.264-75.333.15.006.304.01.449.01h.002c41.363.207 74.952 33.912 74.952 75.323 0 4.143 3.358 7.5 7.5 7.5s7.5-3.357 7.5-7.5c0-47.275-36.506-86.18-82.808-90.017-.005-.365-.025-.738-.025-1.099 0-17.032 5.087-33.418 14.712-47.385 2.35-3.411 1.491-8.081-1.92-10.432-3.412-2.35-8.081-1.491-10.432 1.92-11.357 16.481-17.361 35.811-17.361 55.896 0 .362.002.727.006 1.091-46.317 3.823-82.839 42.74-82.839 90.026 0 49.811 40.523 90.334 90.334 90.334z"/><path d="m131.755 64.495c14.461-10.704 31.645-16.361 49.695-16.361 36.937 0 68.923 23.782 79.77 58.519-17.757 9.918-29.287 28.845-29.287 49.946 0 4.143 3.358 7.5 7.5 7.5s7.5-3.357 7.5-7.5c0-17.364 10.576-32.731 26.305-39.106.316-.129 4.074-1.425 5.047-1.683 3.522-.932 7.152-1.41 10.848-1.41 16.236 0 31.218 9.493 38.167 24.186.944 1.996 2.72 3.475 4.854 4.042 2.134.564 4.409.164 6.22-1.1 9.893-6.909 21.509-10.562 33.593-10.562 26.854 0 50.264 18.141 56.926 44.115.871 3.398 3.975 5.73 7.487 5.634 0 0 1.419-.049 1.853-.049 32.404 0 58.767 26.362 58.767 58.767s-26.363 58.767-58.767 58.767-58.767-26.362-58.767-58.767c0-4.143-3.358-7.5-7.5-7.5s-7.5 3.357-7.5 7.5c0 23.962 11.491 45.283 29.244 58.767h-257.276c-4.142 0-7.5 3.357-7.5 7.5s3.358 7.5 7.5 7.5h301.799c40.675 0 73.767-33.092 73.767-73.767 0-39.498-31.202-71.846-70.253-73.684-2.254-6.582-5.392-12.695-9.252-18.229l5.738.012c31.54 0 57.2-25.66 57.2-57.2s-25.66-57.199-57.2-57.199c-1.56 0-3.136.066-4.716.199-13.518-20.682-36.654-33.332-61.55-33.332-31.954 0-59.655 20.206-69.633 49.935-1.589-.156-3.188-.234-4.788-.234-15.73 0-30.362 7.718-39.42 20.068-4.452-5.512-9.5-10.563-15.071-15.026-17.395-13.935-39.273-21.608-61.605-21.608-21.286 0-41.556 6.676-58.619 19.305-3.329 2.464-4.031 7.161-1.566 10.49 2.464 3.328 7.161 4.029 10.49 1.565zm165.791.205c2.808 0 5.606.348 8.316 1.033 1.952.496 4.02.183 5.74-.864s2.946-2.742 3.403-4.703c6.203-26.593 29.627-45.166 56.962-45.166 17.902 0 34.661 8.222 45.668 21.953-21.732 8.337-36.602 29.297-36.602 53.38 0 4.143 3.358 7.5 7.5 7.5s7.5-3.357 7.5-7.5c0-20.548 14.716-38.018 34.915-41.559 2.442-.425 4.893-.64 7.285-.64 23.269 0 42.2 18.931 42.2 42.199 0 23.27-18.931 42.2-42.185 42.2l-19.734-.04c-12.816-10.412-29.098-16.526-46.548-16.526-12.42 0-24.448 3.074-35.219 8.949-10.506-15.722-28.412-25.516-47.614-25.516-4.739 0-9.399.574-13.931 1.712-2.021-6.166-4.668-12.108-7.854-17.749 5.676-11.28 17.403-18.663 30.198-18.663z"/><path d="m263.5 371.967c0-22.405-18.228-40.634-40.633-40.634s-40.633 18.228-40.633 40.634c0 4.143 3.358 7.5 7.5 7.5s7.5-3.357 7.5-7.5c0-14.135 11.499-25.634 25.633-25.634s25.633 11.499 25.633 25.634c0 14.134-11.499 25.633-25.633 25.633h-215.365c-4.142 0-7.5 3.357-7.5 7.5s3.358 7.5 7.5 7.5h215.365c22.405 0 40.633-18.228 40.633-40.633z"/><path d="m239.433 265.066h-99.4c-4.142 0-7.5 3.357-7.5 7.5s3.358 7.5 7.5 7.5h99.4c22.406 0 40.634-18.228 40.634-40.633s-18.228-40.633-40.634-40.633c-22.405 0-40.633 18.229-40.633 40.634 0 4.143 3.358 7.5 7.5 7.5s7.5-3.357 7.5-7.5c0-14.135 11.499-25.634 25.633-25.634s25.634 11.499 25.634 25.634c0 14.133-11.5 25.632-25.634 25.632z"/><path d="m289.133 430.733h-215.365c-4.142 0-7.5 3.357-7.5 7.5s3.358 7.5 7.5 7.5h215.365c14.134 0 25.633 11.499 25.633 25.633 0 14.135-11.499 25.634-25.633 25.634s-25.633-11.499-25.633-25.634c0-4.143-3.358-7.5-7.5-7.5s-7.5 3.357-7.5 7.5c0 22.405 18.228 40.634 40.633 40.634s40.633-18.228 40.633-40.634-18.227-40.633-40.633-40.633z"/><path d="m487.933 397.6h-17.529l6.818-8.523c2.587-3.234 2.063-7.954-1.171-10.542s-7.955-2.063-10.542 1.171l-14.314 17.894h-22.029v-22.028l17.893-14.314c3.234-2.588 3.759-7.308 1.171-10.542s-7.309-3.76-10.541-1.171l-8.523 6.818v-17.529c0-4.143-3.358-7.5-7.5-7.5s-7.5 3.357-7.5 7.5v17.529l-8.523-6.818c-3.234-2.588-7.955-2.063-10.542 1.171-2.588 3.235-2.063 7.954 1.171 10.542l17.894 14.314v22.028h-22.029l-14.315-17.894c-2.587-3.234-7.308-3.759-10.542-1.171-3.235 2.588-3.759 7.308-1.171 10.542l6.818 8.523h-17.529c-4.142 0-7.5 3.357-7.5 7.5s3.358 7.5 7.5 7.5h17.529l-6.818 8.522c-2.587 3.234-2.063 7.954 1.171 10.542 1.383 1.106 3.037 1.643 4.68 1.643 2.2 0 4.38-.963 5.861-2.814l14.315-17.894h22.029v22.029l-17.894 14.315c-3.235 2.588-3.759 7.308-1.171 10.542 2.588 3.233 7.308 3.758 10.542 1.171l8.523-6.819v17.53c0 4.143 3.358 7.5 7.5 7.5s7.5-3.357 7.5-7.5v-17.529l8.522 6.818c1.383 1.106 3.037 1.643 4.68 1.643 2.2 0 4.38-.963 5.861-2.814 2.587-3.234 2.063-7.954-1.171-10.542l-17.893-14.314v-22.029h22.028l14.315 17.895c1.481 1.852 3.661 2.814 5.861 2.814 1.643 0 3.297-.537 4.68-1.644 3.234-2.587 3.759-7.307 1.171-10.542l-6.818-8.523h17.529c4.142 0 7.5-3.357 7.5-7.5.003-4.143-3.355-7.5-7.497-7.5z"/></g></g></svg>