<svg id="Capa_1" enable-background="new 0 0 512.008 512.008" height="512" viewBox="0 0 512.008 512.008" width="512" xmlns="http://www.w3.org/2000/svg"><g><g><path d="m378.899 272.572c6.213-15.348 9.634-32.125 9.634-49.701 0-73.196-59.337-132.533-132.533-132.533s-132.533 59.337-132.533 132.533c0 17.577 3.422 34.354 9.635 49.703v7.43h245.398z" fill="#ffe07d"/><path d="m256 90.338c-3.875 0-7.709.176-11.5.502 67.81 5.83 121.033 62.711 121.033 132.031 0 17.576-3.421 34.353-9.634 49.701l-.399 7.433h23l.399-7.433c6.213-15.348 9.634-32.125 9.634-49.701 0-73.196-59.337-132.533-132.533-132.533z" fill="#ffd064"/><path d="m502.564 38.962-23.731-28.478c-3.312-3.974-9.415-3.974-12.727 0l-23.731 28.478c-4.496 5.395-.66 13.586 6.363 13.586h7.165v24.85c0 4.575 3.708 8.283 8.283 8.283h16.567c4.575 0 8.283-3.709 8.283-8.283v-24.85h7.165c7.023.001 10.859-8.19 6.363-13.586z" fill="#b3e59f"/><path d="m7.5 371.971v-91.542c0-3.565 2.281-6.731 5.664-7.858h93.736l149.1 20 149.1-20h93.736c3.382 1.127 5.664 4.293 5.664 7.858v74.975l-161.75 68.1h-189z" fill="#c3ddff"/><path d="m498.836 272.571h-23c3.382 1.127 5.664 4.293 5.664 7.858v84.659l23-9.684v-74.975c0-3.565-2.281-6.731-5.664-7.858z" fill="#a4ccff"/><path d="m487.933 504.504h-463.866c-9.15 0-16.567-7.417-16.567-16.567v-115.966h102.667c18.659 0 36.083 9.325 46.433 24.85s27.774 24.85 46.433 24.85h101.311c21.137 0 40.461-11.942 49.914-30.848l2.285-4.57c9.453-18.906 28.776-30.848 49.914-30.848h98.043v132.533c0 9.149-7.417 16.566-16.567 16.566z" fill="#f7e3c1"/><path d="m481.5 355.404v132.533c0 9.15-7.417 16.567-16.567 16.567h23c9.15 0 16.567-7.417 16.567-16.567v-132.533z" fill="#f1d0a4"/><path d="m405.1 272.571c9.15 0 16.567 7.417 16.567 16.567s-7.417 16.567-16.567 16.567h-99.4c-9.15 0-16.567 7.417-16.567 16.567s7.417 16.567 16.567 16.567h16.567c9.15 0 16.567 7.417 16.567 16.567s-7.417 16.567-16.567 16.567h-132.534c-9.15 0-16.567-7.417-16.567-16.567s7.417-16.567 16.567-16.567h16.567c9.149 0 16.567-7.417 16.567-16.567s-7.417-16.567-16.567-16.567h-99.4c-9.149 0-16.567-7.417-16.567-16.567s7.417-16.567 16.567-16.567z" fill="#dbeaff"/><path d="m90.333 471.371c9.15 0 16.567-7.417 16.567-16.567s-7.417-16.567-16.567-16.567h-33.133c-9.15 0-16.567 7.417-16.567 16.567s7.417 16.567 16.567 16.567z" fill="#ff8086"/><path d="m90.333 438.238h-23c9.15 0 16.567 7.417 16.567 16.567s-7.417 16.567-16.567 16.567h23c9.15 0 16.567-7.417 16.567-16.567s-7.417-16.567-16.567-16.567z" fill="#e5646e"/></g><g><path d="m501.207 265.456c-.765-.255-1.565-.385-2.371-.385h-109.28c4.297-13.593 6.477-27.741 6.477-42.2 0-77.214-62.818-140.033-140.033-140.033-32.032 0-62.18 10.527-87.183 30.444-3.24 2.581-3.774 7.299-1.193 10.539 2.579 3.239 7.298 3.775 10.539 1.193 22.32-17.779 49.235-27.176 77.837-27.176 68.943 0 125.033 56.09 125.033 125.033 0 14.528-2.46 28.698-7.306 42.2h-235.454c-4.845-13.503-7.306-27.673-7.306-42.2 0-28.601 9.398-55.517 27.176-77.837 2.581-3.24 2.047-7.959-1.193-10.539-3.239-2.58-7.958-2.046-10.539 1.193-19.916 25.003-30.443 55.151-30.443 87.183 0 14.458 2.18 28.606 6.478 42.2h-109.282c-.806 0-1.606.13-2.371.385-6.456 2.151-10.793 8.169-10.793 14.973v207.508c0 13.27 10.796 24.067 24.066 24.067h88.076c4.143 0 7.5-3.358 7.5-7.5s-3.357-7.5-7.5-7.5h-88.076c-4.999 0-9.066-4.067-9.066-9.067v-108.466h95.167c16.188 0 31.213 8.041 40.192 21.511 11.768 17.651 31.459 28.189 52.673 28.189h101.312c24.133 0 45.829-13.409 56.622-34.994l2.285-4.57c8.234-16.471 24.79-26.702 43.205-26.702h90.544v125.033c0 4.999-4.067 9.067-9.066 9.067h-345.791c-4.143 0-7.5 3.358-7.5 7.5s3.357 7.5 7.5 7.5h345.791c13.271 0 24.066-10.796 24.066-24.067v-207.509c0-6.804-4.337-12.822-10.793-14.973zm-87.04 23.682c0 4.999-4.067 9.067-9.067 9.067h-99.4c-13.271 0-24.066 10.796-24.066 24.066 0 13.271 10.796 24.067 24.066 24.067h16.566c4.999 0 9.066 4.067 9.066 9.066s-4.067 9.067-9.066 9.067h-132.533c-4.999 0-9.066-4.067-9.066-9.067 0-4.999 4.067-9.066 9.066-9.066h16.567c13.27 0 24.066-10.796 24.066-24.067 0-13.27-10.796-24.066-24.066-24.066h-99.4c-5 0-9.067-4.067-9.067-9.067 0-4.999 4.067-9.066 9.067-9.066h26.145c.02 0 .039.004.059.004.031 0 .062-.004.092-.004h245.648c.017 0 .034.002.052.002.011 0 .022-.002.033-.002h26.17c5.001-.001 9.068 4.067 9.068 9.066zm-7.711 58.766c-24.134 0-45.83 13.409-56.621 34.994l-2.285 4.57c-8.235 16.47-24.791 26.702-43.206 26.702h-101.312c-16.188 0-31.213-8.042-40.192-21.51-11.768-17.651-31.458-28.189-52.673-28.189h-95.167v-84.042c0-.127.031-.25.086-.358h69.526c-1.143 2.8-1.779 5.86-1.779 9.066 0 13.271 10.797 24.067 24.067 24.067h99.4c4.999 0 9.066 4.067 9.066 9.066s-4.067 9.067-9.066 9.067h-16.566c-13.27 0-24.066 10.796-24.066 24.066 0 13.271 10.796 24.067 24.066 24.067h132.533c13.271 0 24.066-10.796 24.066-24.067 0-13.27-10.796-24.066-24.066-24.066h-16.567c-4.999 0-9.066-4.067-9.066-9.067 0-4.999 4.067-9.066 9.066-9.066h99.4c13.27 0 24.067-10.796 24.067-24.067 0-3.207-.635-6.266-1.779-9.066h69.526c.055.108.086.23.086.358v67.475z"/><path d="m90.333 430.738h-33.133c-13.271 0-24.066 10.796-24.066 24.066s10.796 24.067 24.066 24.067h33.133c13.271 0 24.067-10.796 24.067-24.067 0-13.27-10.796-24.066-24.067-24.066zm0 33.133h-33.133c-4.999 0-9.066-4.067-9.066-9.067 0-4.999 4.067-9.066 9.066-9.066h33.133c5 0 9.067 4.067 9.067 9.066 0 5-4.067 9.067-9.067 9.067z"/><path d="m448.402 60.045v17.353c0 8.703 7.081 15.783 15.784 15.783h16.566c8.703 0 15.783-7.08 15.783-15.783v-17.353c6.053-.123 11.38-3.581 13.958-9.085 2.626-5.606 1.795-12.043-2.168-16.799l-23.73-28.478c-3.008-3.609-7.427-5.679-12.125-5.679s-9.117 2.07-12.125 5.679l-23.731 28.478c-3.963 4.756-4.794 11.193-2.168 16.799 2.577 5.505 7.904 8.962 13.956 9.085zm-.265-16.281 23.732-28.478c.059-.07.235-.282.602-.282s.543.212.602.282l23.731 28.478c.111.134.319.383.107.834-.211.451-.535.451-.709.451h-7.165c-4.143 0-7.5 3.358-7.5 7.5v24.85c0 .432-.352.783-.783.783h-16.566c-.433 0-.784-.352-.784-.783v-24.85c0-4.142-3.357-7.5-7.5-7.5h-7.164c-.174 0-.498 0-.709-.451-.214-.451-.006-.701.106-.834z"/><path d="m256 64.704c4.143 0 7.5-3.358 7.5-7.5v-49.7c0-4.142-3.357-7.5-7.5-7.5s-7.5 3.358-7.5 7.5v49.7c0 4.143 3.357 7.5 7.5 7.5z"/><path d="m133.553 111.03c1.465 1.464 3.384 2.197 5.304 2.197 1.919 0 3.839-.732 5.304-2.197 2.929-2.929 2.929-7.678 0-10.606l-35.144-35.143c-2.93-2.929-7.678-2.929-10.607 0s-2.929 7.678 0 10.606z"/><path d="m40.634 230.371h49.699c4.143 0 7.5-3.358 7.5-7.5s-3.357-7.5-7.5-7.5h-49.699c-4.143 0-7.5 3.358-7.5 7.5s3.357 7.5 7.5 7.5z"/><path d="m421.667 215.371c-4.143 0-7.5 3.358-7.5 7.5s3.357 7.5 7.5 7.5h49.699c4.143 0 7.5-3.358 7.5-7.5s-3.357-7.5-7.5-7.5z"/><path d="m373.144 113.227c1.919 0 3.839-.732 5.304-2.197l35.143-35.143c2.929-2.929 2.929-7.678 0-10.606-2.929-2.929-7.677-2.93-10.607 0l-35.144 35.143c-2.929 2.929-2.929 7.678 0 10.606 1.465 1.465 3.384 2.197 5.304 2.197z"/><path d="m185.674 72.685c1.196 2.888 3.988 4.632 6.932 4.632.956 0 1.929-.184 2.867-.573 3.827-1.585 5.645-5.973 4.059-9.799l-9.51-22.959c-1.585-3.827-5.972-5.646-9.799-4.059-3.827 1.585-5.645 5.973-4.059 9.799z"/><path d="m77.115 156.892 22.959 9.51c.938.389 1.91.573 2.867.573 2.943 0 5.735-1.744 6.932-4.632 1.586-3.827-.231-8.214-4.059-9.799l-22.959-9.51c-3.823-1.585-8.214.232-9.799 4.059s.232 8.214 4.059 9.799z"/><path d="m402.127 162.343c1.196 2.888 3.988 4.632 6.932 4.632.956 0 1.929-.184 2.867-.573l22.959-9.51c3.827-1.585 5.645-5.973 4.059-9.799-1.585-3.826-5.972-5.645-9.799-4.059l-22.959 9.51c-3.828 1.585-5.645 5.972-4.059 9.799z"/><path d="m316.527 76.744c.938.389 1.91.573 2.867.573 2.943 0 5.735-1.744 6.932-4.632l9.51-22.958c1.586-3.827-.231-8.214-4.059-9.799-3.825-1.583-8.214.232-9.799 4.059l-9.51 22.959c-1.585 3.825.232 8.213 4.059 9.798z"/></g></g></svg>