<svg id="Capa_1" enable-background="new 0 0 512.11 512.11" height="512" viewBox="0 0 512.11 512.11" width="512" xmlns="http://www.w3.org/2000/svg"><g><g><g><path d="m140.088 380.11h231.933v99.9h-231.933z" fill="#ecf4ff"/><path d="m173.222 380.11h33.133v99.9h-33.133z" fill="#d19a6e"/><path d="m349.022 380.11h23v99.9h-23z" fill="#ddeafb"/></g><g><path d="m40.688 405.21c0 9.15 7.417 16.567 16.567 16.567 9.149 0 16.567-7.417 16.567-16.567v-33.133c0-9.15-7.417-16.567-16.567-16.567s-16.567 7.417-16.567 16.567z" fill="#b3e59f"/></g><g><path d="m438.288 405.21c0 9.15 7.417 16.567 16.567 16.567s16.567-7.417 16.567-16.567v-33.133c0-9.15-7.417-16.567-16.567-16.567-9.149 0-16.567 7.417-16.567 16.567z" fill="#b3e59f"/></g><path d="m272.622 438.344c0-9.15-7.417-16.567-16.567-16.567s-16.567 7.417-16.567 16.567v41.667h33.133v-41.667z" fill="#a4ccff"/><path d="m106.487 156.467h-8.654c-3.935 0-7.325-2.77-8.107-6.626-3.07-15.124-16.441-26.508-32.471-26.508-16.386 0-29.994 11.895-32.66 27.521-.521 3.051-2.709 5.47-5.649 6.436-6.854 2.252-11.734 8.856-11.372 16.543.419 8.911 8.095 15.766 17.016 15.766h82.366c9.415 0 16.996-7.854 16.548-17.368-.421-8.909-8.096-15.764-17.017-15.764z" fill="#ecf4ff"/><path d="m106.487 156.466h-8.654c-3.935 0-7.325-2.77-8.107-6.626-3.07-15.124-16.441-26.508-32.471-26.508-4.043 0-7.916.727-11.499 2.053 10.619 3.931 18.674 13.146 20.969 24.455.783 3.856 4.173 6.626 8.107 6.626h8.654c8.921 0 16.596 6.855 17.016 15.766.448 9.514-7.133 17.367-16.548 17.367h23c9.415 0 16.996-7.854 16.548-17.367-.419-8.91-8.094-15.766-17.015-15.766z" fill="#ddeafb"/><path d="m405.623 40.744h8.654c3.935 0 7.325-2.77 8.108-6.626 3.07-15.124 16.441-26.508 32.471-26.508 16.386 0 29.994 11.895 32.66 27.521.521 3.051 2.709 5.47 5.649 6.437 6.854 2.252 11.734 8.856 11.372 16.543-.42 8.91-8.095 15.766-17.016 15.766h-82.366c-9.415 0-16.996-7.854-16.548-17.368.42-8.91 8.096-15.765 17.016-15.765z" fill="#ecf4ff"/><path d="m493.164 41.568c-2.94-.966-5.128-3.386-5.649-6.437-2.666-15.626-16.274-27.521-32.66-27.521-4.044 0-7.918.726-11.501 2.053 10.936 4.048 19.153 13.698 21.161 25.468.521 3.051 2.709 5.47 5.649 6.437 6.854 2.252 11.734 8.856 11.372 16.543-.419 8.911-8.095 15.766-17.016 15.766h23c8.92 0 16.596-6.855 17.016-15.766.362-7.687-4.518-14.291-11.372-16.543z" fill="#ddeafb"/><g><path d="m173.222 215.039h165.667v62.247h-165.667z" fill="#ecf4ff"/><path d="m315.888 215.039h23v62.247h-23z" fill="#ddeafb"/><path d="m341.114 172.232 11.768 47.071c1.307 5.228-2.647 10.292-8.036 10.292h-177.582c-5.389 0-9.343-5.064-8.036-10.292l11.768-47.071c1.456-5.826 4.469-11.146 8.715-15.393 17.06-17.06 40.198-26.644 64.324-26.644h24.04c24.126 0 47.264 9.584 64.324 26.644 4.246 4.247 7.259 9.567 8.715 15.393z" fill="#ff8086"/><path d="m350.495 262.729h-188.88c-3.054 0-5.86 1.68-7.302 4.372l-47.358 88.41v6.6h298.2v-6.6l-47.358-88.41c-1.442-2.692-4.248-4.372-7.302-4.372z" fill="#ff8086"/><g fill="#e5646e"><path d="m352.882 219.303-11.768-47.071c-1.456-5.826-4.469-11.146-8.715-15.393-17.06-17.06-40.198-26.644-64.324-26.644h-23c24.126 0 47.264 9.584 64.324 26.644 4.246 4.246 7.259 9.567 8.715 15.393l11.768 47.071c1.307 5.228-2.647 10.292-8.036 10.292h23c5.389 0 9.343-5.064 8.036-10.292z"/><path d="m357.797 267.101c-1.442-2.692-4.248-4.372-7.302-4.372h-23c3.054 0 5.86 1.68 7.302 4.372l47.358 88.41v6.6h23v-6.6z"/></g></g><path d="m397.155 388.644h-282.2c-4.418 0-8-3.582-8-8v-25.134h298.2v25.133c0 4.419-3.582 8.001-8 8.001z" fill="#e5646e"/><path d="m382.155 355.51v25.133c0 4.418-3.582 8-8 8h23c4.418 0 8-3.582 8-8v-25.133z" fill="#dd5862"/><path d="m488.555 504.61h-465c-8.837 0-16-7.163-16-16v-9.133c0-4.418 3.582-8 8-8h481c4.418 0 8 3.582 8 8v9.133c0 8.837-7.163 16-16 16z" fill="#f5e1c1"/><path d="m496.555 471.477h-23c4.418 0 8 3.582 8 8v9.133c0 8.836-7.163 16-16 16h23c8.837 0 16-7.164 16-16v-9.133c0-4.418-3.582-8-8-8z" fill="#f0cea5"/><g><g><path d="m285.899 150.051 93.005-93.005c6.248-6.248 16.379-6.248 22.627 0l12.115 12.115-104.318 104.319z" fill="#785353"/></g><g><path d="m226.234 150.036-93.005-93.005c-6.248-6.248-6.248-16.379 0-22.627l12.115-12.115 104.319 104.319z" fill="#785353"/></g><g><path d="m285.882 209.732 93.005 93.005c6.248 6.248 6.248 16.379 0 22.627l-12.115 12.115-104.319-104.318z" fill="#785353"/></g><g><path d="m226.212 209.733-93.005 93.005c-6.248 6.248-16.379 6.248-22.627 0l-12.115-12.115 104.319-104.319z" fill="#785353"/></g></g><ellipse cx="256.055" cy="179.895" fill="#ebb560" rx="16.567" ry="16.567" transform="matrix(.14 -.99 .99 .14 42.108 408.266)"/></g><g><path d="m496.555 463.977h-34.2v-35.902c9.608-3.16 16.566-12.213 16.566-22.865v-33.133c0-13.271-10.796-24.066-24.066-24.066s-24.066 10.796-24.066 24.066v33.133c0 10.652 6.958 19.704 16.566 22.865v35.902h-67.833v-67.833h17.633c8.547 0 15.5-6.953 15.5-15.5v-25.133c0-.568-.069-1.12-.189-1.652-.015-.068-.179-.659-.259-.881-.024-.065-.32-.789-.473-1.069l-47.326-88.352c-2.753-5.138-8.084-8.329-13.912-8.329h-4.107v-18.22c4.294-.414 8.205-2.534 10.897-5.982 3.013-3.857 4.06-8.794 2.873-13.543l-7.474-29.895 78.734-78.734c6.042-6.044 6.042-15.877-.001-21.921l-5.557-5.557h61.66c13.137 0 23.901-10.065 24.508-22.913.506-10.78-6.289-20.658-16.524-24.02-.158-.053-.534-.213-.596-.573-3.338-19.562-20.183-33.76-40.054-33.76-19.25 0-35.997 13.675-39.821 32.517-.072.357-.391.617-.757.617h-8.629c-11.052 0-20.444 7.225-23.505 17.113-5.063.596-9.97 2.814-13.847 6.69l-12.309 12.309c-2.929 2.93-2.929 7.678 0 10.607 2.93 2.928 7.678 2.928 10.607 0l12.309-12.309c1.843-1.844 4.331-2.659 6.745-2.451.772.333 1.607.539 2.482.594 1.017.414 1.969 1.033 2.792 1.856l6.812 6.811-83.108 83.108-12.822-12.822 43.821-43.82c2.929-2.93 2.929-7.678 0-10.607-2.93-2.928-7.678-2.928-10.607 0l-37.033 37.033c-9.673-3.089-19.711-4.662-29.912-4.662h-14.499l13.841-13.841c6.042-6.043 6.042-15.876 0-21.921l-82.401-82.4c-6.043-6.043-15.877-6.043-21.92 0l-29.887 29.888c-9.163 9.163-9.163 24.071 0 33.234l65.891 65.891c-9.098 4.654-17.374 10.674-24.691 17.991-4.402 4.403-7.709 9.756-9.71 15.621-.555.422-1.097.87-1.604 1.377l-82.401 82.401c-2.928 2.928-4.541 6.82-4.541 10.961 0 4.14 1.612 8.032 4.54 10.96l29.887 29.888c3.568 3.568 8.01 5.727 12.642 6.516l-22.878 42.71c-.001.001-.418.943-.441 1.01-.079.221-.244.812-.259.879-.12.532-.188 1.083-.188 1.652v25.133c0 8.547 6.953 15.5 15.5 15.5h17.633v67.833h-67.832v-35.902c9.608-3.16 16.566-12.212 16.566-22.864v-33.133c0-13.271-10.796-24.066-24.066-24.066-13.271 0-24.067 10.796-24.067 24.066v33.133c0 10.652 6.959 19.704 16.567 22.865v35.902h-34.2c-8.547 0-15.5 6.953-15.5 15.5v9.134c0 12.958 10.542 23.5 23.5 23.5h18.7c4.142 0 7.5-3.357 7.5-7.5s-3.358-7.5-7.5-7.5h-18.7c-4.687 0-8.5-3.814-8.5-8.5v-9.134c0-.275.224-.5.5-.5h481c.275 0 .5.225.5.5v9.134c0 4.686-3.814 8.5-8.5 8.5h-416.3c-4.142 0-7.5 3.357-7.5 7.5s3.358 7.5 7.5 7.5h416.3c12.958 0 23.5-10.542 23.5-23.5v-9.134c0-8.548-6.953-15.501-15.5-15.501zm-50.766-91.9c0-4.999 4.067-9.066 9.066-9.066s9.066 4.067 9.066 9.066v33.133c0 5-4.067 9.067-9.066 9.067s-9.066-4.067-9.066-9.067zm-397.601 0c0-4.999 4.067-9.066 9.067-9.066 4.999 0 9.066 4.067 9.066 9.066v33.133c0 5-4.067 9.067-9.066 9.067-5 0-9.067-4.067-9.067-9.067zm253.618-63.323 12.821-12.821 12.821 12.821-12.821 12.821zm-23.429-23.429 12.822-12.822 12.821 12.821-12.821 12.821zm-87.048-30.096 18.133-18.133h49.074l-13.841 13.84c-1.282 1.283-2.276 2.742-3.014 4.293zm53.866-53.867c3.265 1.659 6.954 2.6 10.86 2.6s7.595-.941 10.86-2.6l13.677 13.677-7.057 7.057h-49.074l1.754-1.754zm19.927-21.466c0 4.999-4.067 9.066-9.066 9.066-5 0-9.067-4.067-9.067-9.066s4.067-9.066 9.067-9.066c4.998-.001 9.066 4.066 9.066 9.066zm105.418 126.876c.662 2.779-.079 5.828-2.243 7.991l-6.811 6.812-83.108-83.108 12.822-12.823 9.23 9.23.046.046 33.106 33.107c.003.002.005.005.008.008l34.707 34.708c.075.075.139.156.21.232zm-39.152-62.151-7.525-7.525h7.525zm-63.618 4.454 6.154 6.154h-12.308zm-4.49 21.154h8.979l-4.489 4.49zm74.776 49.132 12.822 12.822-12.469 12.468c-.036.036-.147.147-.353.147-.207 0-.317-.11-.354-.147l-12.468-12.468zm28.723 18.134c.003-.003.007-.006.01-.009l12.115-12.115c.357-.357.675-.737 1.004-1.111l12.722 23.75h-36.367zm18.135-203.35-12.822-12.821 12.821-12.821 12.822 12.822zm-23.429 23.428-12.821-12.821 12.821-12.821 12.822 12.822zm-32.43 6.788c2.255 2.848 3.897 6.146 4.783 9.691l.911 3.646-9.515-9.516zm19.336 6.052c-.634-2.535-1.52-4.987-2.617-7.336l5.103 5.103-2.436 2.436zm72.42-72.165-12.468 12.468-12.822-12.822 12.822-12.822 12.468 12.467c.195.196.195.515 0 .709zm-15.163-50.004h8.629c7.472 0 13.973-5.313 15.458-12.635 2.41-11.878 12.975-20.499 25.12-20.499 12.537 0 23.163 8.951 25.267 21.283.979 5.74 5.08 10.453 10.701 12.3 3.854 1.267 6.413 4.995 6.223 9.064-.225 4.753-4.497 8.619-9.524 8.619h-76.66l-9.33-9.33c-1.396-1.395-2.936-2.552-4.557-3.522 1.516-3.109 4.834-5.28 8.673-5.28zm-96.324 125.24c.003.003.007.006.01.009l17.761 17.763c3.022 3.021 6.991 4.532 10.961 4.532.401 0 .802-.026 1.202-.057l6.347 25.389c.023.092.093.372-.143.674-.235.301-.522.301-.617.301h-5.958-30.025l-12.361-12.361-18.98-18.98c1.658-3.265 2.599-6.953 2.599-10.859s-.941-7.594-2.6-10.859l13.677-13.677zm-23.579-33.886-18.831 18.831c-3.265-1.658-6.953-2.6-10.859-2.6s-7.594.941-10.859 2.6l-13.677-13.677 6.84-6.84c1.891-.129 3.789-.217 5.677-.217h24.039c5.975 0 11.883.648 17.67 1.903zm-75.44-88.561-12.822 12.822-12.822-12.822 12.822-12.822zm23.429 23.429-12.822 12.822-12.822-12.822 12.822-12.822zm23.076 23.782-12.468 12.469-12.822-12.822 12.822-12.822 12.468 12.467c.194.195.194.514 0 .708zm-83.109-83.108c.196-.194.513-.194.708 0l12.468 12.469-12.823 12.821-12.822-12.822zm-29.888 29.887 6.812-6.812 18.125 18.125s.001.001.001.001l.001.001 64.982 64.981-4.014 4.014c-.012.012-.025.025-.037.037l-8.771 8.771-77.099-77.099c-3.314-3.313-3.314-8.705 0-12.019zm66.538 99.771 5.257 5.257 18.98 18.98c-1.659 3.265-2.6 6.954-2.6 10.86s.941 7.594 2.6 10.859l-13.676 13.676-18.125-18.126-17.772-17.771c-.982-.982-2.072-1.787-3.221-2.45.938-1.411 2.014-2.734 3.222-3.941 7.362-7.364 15.871-13.18 25.335-17.344zm-83.154 80.847 12.822 12.822-12.822 12.822-12.822-12.822zm23.429-23.428 4.114 4.115-2.789 11.153c-.734 2.938-.59 5.957.318 8.732l-1.645 1.645-12.822-12.822zm23.428 2.214-2.702-2.702 5.129-20.515 10.395 10.395zm-82.901 57.465c0-.207.11-.317.146-.354l12.469-12.468 12.822 12.822-12.822 12.822-12.469-12.469c-.036-.036-.146-.146-.146-.353zm23.222 23.429 18.124-18.124s.001-.001.001-.001l.001-.001 23.425-23.425c.001-.001.002-.001.002-.001s.002-.003.003-.003l41.553-41.553 12.822 12.822-42.384 42.384c-.002.002-.004.004-.006.007l-34.708 34.708c-.012.012-.025.021-.036.033-.282.212-.552.44-.804.694-3.331 2.559-8.132 2.321-11.18-.725zm29.273 17.568c.053-.052.112-.096.165-.149l32.515-32.516h66.265c.594.931 1.288 1.816 2.1 2.628l17.766 17.766c.002.002.004.004.005.006l.006.006 23.416 23.415c.002.002.004.005.007.008.003.002.005.004.008.007l23.413 23.413c.003.003.005.006.008.009s.006.005.009.008l10.516 10.516h-200.366zm-29.193 77.751v-17.633h283.2v17.633c0 .275-.225.5-.5.5h-25.133-165.667-33.133-33.133-25.133c-.277 0-.501-.225-.501-.5zm33.133 15.5h18.133v67.833h-18.133zm33.134 67.833v-67.833h18.133v67.833zm66.266 0v-25.633c0-4.999 4.067-9.066 9.067-9.066 4.999 0 9.066 4.067 9.066 9.066v25.633zm33.134 0v-25.633c0-13.271-10.796-24.066-24.066-24.066-13.271 0-24.067 10.796-24.067 24.066v25.633h-18.133v-67.833h150.667v67.833z"/><path d="m24.59 197.1h82.365c6.547 0 12.895-2.718 17.415-7.455 4.585-4.807 6.938-11.115 6.625-17.765-.605-12.849-11.37-22.913-24.507-22.913h-8.654c-.366 0-.685-.26-.757-.618-3.824-18.841-20.571-32.516-39.821-32.516-19.871 0-36.716 14.198-40.053 33.76-.062.36-.438.521-.597.573-10.236 3.363-17.03 13.241-16.522 24.021.603 12.848 11.368 22.913 24.506 22.913zm-3.303-32.684c5.622-1.846 9.722-6.56 10.702-12.3 2.104-12.332 12.73-21.283 25.267-21.283 12.145 0 22.709 8.621 25.121 20.5 1.486 7.32 7.987 12.634 15.457 12.634h8.654c5.028 0 9.3 3.866 9.524 8.618.118 2.514-.768 4.895-2.494 6.705-1.729 1.811-4.059 2.81-6.562 2.81h-82.366c-5.028 0-9.3-3.866-9.524-8.619-.192-4.071 2.367-7.798 6.221-9.065z"/></g></g></svg>