<svg id="Capa_1" enable-background="new 0 0 512 512" height="512" viewBox="0 0 512 512" width="512" xmlns="http://www.w3.org/2000/svg"><g><g><path d="m484.405 421.666c2.257-4.478 3.529-9.538 3.529-14.895 0-10.926-5.291-20.614-13.449-26.649-2.224-1.645-3.335-4.342-3.153-7.101.023-.35.035-.703.035-1.058 0-7.428-4.888-13.714-11.624-15.817-2.867-.895-4.91-3.388-5.414-6.35-2.661-15.632-16.272-27.534-32.662-27.534h-9.167v105.233h71z" fill="#ddeafb"/><path d="m474.485 380.122c-2.224-1.645-3.335-4.341-3.153-7.101.023-.35.035-.703.035-1.058 0-7.428-4.889-13.714-11.624-15.817-2.867-.895-4.91-3.389-5.414-6.35-2.661-15.632-16.272-27.534-32.662-27.534h-9.167v3.025c9.763 4.493 16.97 13.587 18.829 24.509.504 2.961 2.547 5.455 5.414 6.35 6.735 2.103 11.624 8.389 11.624 15.817 0 .355-.012.708-.035 1.058-.182 2.76.929 5.457 3.153 7.101 8.158 6.035 13.448 15.723 13.448 26.649 0 5.357-1.271 10.417-3.529 14.895l-.905 5.83h23l.905-5.83c2.257-4.478 3.529-9.538 3.529-14.895 0-10.926-5.29-20.614-13.448-26.649z" fill="#bed8fb"/><g><path d="m156.6 117.979-66.267 66.267v-132.25h66.267z" fill="#f5e1c1"/><path d="m133.66 140.919 22.94-22.94v-65.983h-22.94z" fill="#efcfa6"/><path d="m165.167 57.196h-83.4c-4.418 0-8-3.582-8-8v-17.133c0-4.418 3.582-8 8-8h83.4c4.418 0 8 3.582 8 8v17.133c0 4.418-3.582 8-8 8z" fill="#ff8086"/><path d="m165.167 24.063h-23c4.418 0 8 3.582 8 8v17.133c0 4.418-3.582 8-8 8h23c4.418 0 8-3.582 8-8v-17.133c0-4.419-3.582-8-8-8z" fill="#e5646e"/></g><g><g><path d="m90.333 199.663 165.667-170 165.667 170v238.926h-331.334z" fill="#f5e1c1"/></g><path d="m313.983 438.589v-141.176c0-4.575-3.708-8.283-8.283-8.283h-99.4c-4.575 0-8.283 3.709-8.283 8.283v140.817z" fill="#e8b466"/><path d="m398.667 176.061v262.528h23v-238.926z" fill="#f0cea5"/><path d="m305.7 289.129h-23c4.575 0 8.283 3.708 8.283 8.283v141.105l23 .071v-141.176c0-4.574-3.708-8.283-8.283-8.283z" fill="#e59862"/></g><path d="m320.215 206.157c-5.956 23.352-24.315 41.746-47.648 47.752l-33.125.002c-23.288-5.991-41.623-24.322-47.619-47.608l-.022-33.06c5.972-23.324 24.32-41.692 47.632-47.693l33.128-.002c23.336 6.004 41.699 24.4 47.654 47.756z" fill="#ecf4ff"/><path d="m256 123.463c-3.925 0-7.763.361-11.5 1.015 31.113 5.447 54.767 32.578 54.767 65.252 0 32.673-23.653 59.804-54.767 65.252 3.737.654 7.575 1.015 11.5 1.015 36.598 0 66.267-29.669 66.267-66.267 0-36.599-29.669-66.267-66.267-66.267z" fill="#ddeafb"/><path d="m272.567 125.55c-5.295-1.363-10.846-2.088-16.567-2.088s-11.271.725-16.567 2.088v47.612h-47.612c-1.363 5.295-2.088 10.846-2.088 16.567s.725 11.272 2.088 16.567h47.612v47.612c5.295 1.363 10.846 2.088 16.567 2.088s11.272-.725 16.567-2.088v-47.612h47.612c1.363-5.295 2.088-10.846 2.088-16.567 0-5.72-.725-11.271-2.088-16.567h-47.612z" fill="#5c545f"/><g fill="#ecf4ff"><ellipse cx="40.633" cy="272.563" rx="16.567" ry="16.567" transform="matrix(.707 -.707 .707 .707 -180.83 108.564)"/><ellipse cx="471.367" cy="272.563" rx="16.567" ry="16.567" transform="matrix(.23 -.973 .973 .23 97.797 668.697)"/><ellipse cx="471.367" cy="140.029" rx="16.567" ry="16.567" transform="matrix(.707 -.707 .707 .707 39.045 374.32)"/><ellipse cx="40.633" cy="140.029" rx="16.567" ry="16.567" transform="matrix(.23 -.973 .973 .23 -104.986 147.404)"/><ellipse cx="471.367" cy="40.629" rx="16.567" ry="16.567" transform="matrix(.707 -.707 .707 .707 109.331 345.207)"/><ellipse cx="371.967" cy="40.629" rx="16.567" ry="16.567" transform="matrix(.707 -.707 .707 .707 80.217 274.92)"/></g><g><path d="m437.229 232.151-175.372-175.37c-3.235-3.235-8.48-3.235-11.714 0l-175.372 175.37c-3.235 3.235-8.48 3.235-11.714 0l-11.714-11.714c-3.235-3.235-3.235-8.48 0-11.714l198.8-198.801c3.235-3.235 8.48-3.235 11.714 0l198.8 198.801c3.235 3.235 3.235 8.48 0 11.714l-11.714 11.714c-3.235 3.235-8.479 3.235-11.714 0z" fill="#ff8086"/></g><path d="m460.657 208.723-198.8-198.801c-3.235-3.235-8.48-3.235-11.714 0l-5.643 5.642 193.157 193.158c3.235 3.235 3.235 8.48 0 11.714l-6.071 6.071 5.643 5.643c3.235 3.235 8.48 3.235 11.714 0l11.714-11.714c3.235-3.234 3.235-8.478 0-11.713z" fill="#e5646e"/><g fill="#4b3f4e"><path d="m244.5 124.478c10.391 1.819 19.943 6.068 28.067 12.123v-11.05c-5.295-1.363-10.846-2.088-16.567-2.088-3.925 0-7.763.36-11.5 1.015z"/><path d="m320.179 206.296c1.363-5.295 2.088-10.846 2.088-16.567 0-5.72-.725-11.272-2.088-16.567h-23.017c1.365 5.296 2.105 10.844 2.105 16.567s-.74 11.27-2.105 16.567z"/><path d="m272.567 253.908v-11.051c-8.124 6.055-17.675 10.304-28.067 12.123 3.737.654 7.575 1.015 11.5 1.015 5.72.001 11.272-.724 16.567-2.087z"/></g><g><path d="m496.217 421.663c4.575 0 8.283 3.709 8.283 8.283v57.983c0 9.15-7.417 16.567-16.567 16.567h-463.866c-9.15 0-16.567-7.417-16.567-16.567v-57.983c0-4.575 3.709-8.283 8.283-8.283z" fill="#ecf4ff"/><path d="m496.217 421.662h-23.067c4.575 0 8.283 3.709 8.283 8.284v57.983c0 9.15-7.417 16.567-16.567 16.567h23.067c9.15 0 16.567-7.417 16.567-16.567v-57.983c0-4.575-3.708-8.284-8.283-8.284z" fill="#ddeafb"/></g><path d="m211.679 397.165c-.898-.117-1.685-.627-2.167-1.394-5.862-9.324-16.235-15.525-28.062-15.525-1.16 0-2.305.062-3.434.181-1.189.125-2.307-.513-2.849-1.578-9.578-18.831-29.127-31.736-51.701-31.736-28.802 0-52.68 21.007-57.194 48.532-.161.983-.461 1.938-.924 2.819-.809 1.538-2.053 2.799-3.568 3.651-12.619 7.096-21.148 20.607-21.148 36.115h207.083c.002-21.051-15.704-38.427-36.036-41.065z" fill="#ecf4ff"/><path d="m211.679 397.165c-.898-.117-1.685-.626-2.167-1.394-5.862-9.324-16.235-15.525-28.062-15.525-1.16 0-2.305.062-3.434.181-1.189.125-2.307-.513-2.849-1.578-9.578-18.831-29.127-31.736-51.701-31.736-3.935 0-7.774.405-11.488 1.152 17.584 3.545 32.284 15.042 40.189 30.583.542 1.065 1.66 1.703 2.849 1.578 1.129-.118 2.274-.181 3.434-.181 11.827 0 22.199 6.201 28.062 15.525.482.767 1.269 1.277 2.167 1.394 20.332 2.638 36.038 20.014 36.038 41.064h23c0-21.049-15.706-38.425-36.038-41.063z" fill="#ddeafb"/></g><g><path d="m496.217 414.163h-1.456c.443-2.416.673-4.882.673-7.392 0-13.097-6.261-25.214-16.652-32.805.057-.666.085-1.335.085-2.004 0-10.787-7.136-19.934-16.933-22.981-.05-.016-.092-.035-.144-.051-.001 0-.003 0-.004-.001-2.713-16.891-15.873-30.334-32.619-33.472v-80.761l2.758 2.758h.001c3.077 3.076 7.118 4.614 11.16 4.614 4.041 0 8.084-1.538 11.161-4.614l11.714-11.715c6.152-6.154 6.152-16.166 0-22.321l-198.801-198.8c-6.153-6.151-16.166-6.152-22.321 0l-80.739 80.74v-20.662h1.067c8.547 0 15.5-6.953 15.5-15.5v-17.134c0-8.547-6.953-15.5-15.5-15.5h-83.4c-8.547 0-15.5 6.953-15.5 15.5v17.134c0 8.547 6.953 15.5 15.5 15.5h1.066v101.929l-36.794 36.795c-6.152 6.154-6.152 16.166 0 22.321l11.715 11.714c6.153 6.152 16.166 6.153 22.321 0l2.758-2.758v119.072c-1.293 1.026-2.562 2.09-3.784 3.22-10.978 10.147-18.073 23.596-20.29 38.233-8.059 4.382-14.746 10.971-19.27 18.941h-23.706c-8.703 0-15.783 7.08-15.783 15.783v57.983c0 13.271 10.796 24.066 24.066 24.066h18.133c4.143 0 7.5-3.357 7.5-7.5s-3.357-7.5-7.5-7.5h-18.133c-4.999 0-9.066-4.067-9.066-9.066v-57.983c0-.432.352-.783.783-.783h18.207c-.553 2.94-.856 5.968-.856 9.066 0 4.143 3.357 7.5 7.5 7.5s7.5-3.357 7.5-7.5c0-18.702 15.215-33.917 33.916-33.917 18.702 0 33.917 15.215 33.917 33.917 0 4.143 3.357 7.5 7.5 7.5s7.5-3.357 7.5-7.5c0-26.973-21.944-48.917-48.917-48.917-2.257 0-4.475.167-6.652.464 6.563-20.406 25.882-35.165 48.069-35.165 19.562 0 37.538 11.477 45.795 29.238 1.417 3.048 4.688 4.775 8.009 4.24 10.782-1.762 21.222 3.431 26.463 12.627 1.21 2.123 3.377 3.523 5.81 3.754 12.486 1.182 22.776 8.921 27.643 19.653.122.349.265.688.434 1.012 1.672 4.032 2.597 8.453 2.597 13.093 0 4.143 3.357 7.5 7.5 7.5s7.5-3.357 7.5-7.5c0-3.097-.288-6.127-.832-9.066h229.912c.034.001.068.006.102.006.029 0 .057-.006.085-.006h11.733c.432 0 .783.352.783.783v57.983c0 4.999-4.067 9.066-9.066 9.066h-415.735c-4.143 0-7.5 3.357-7.5 7.5s3.357 7.5 7.5 7.5h415.733c13.271 0 24.066-10.796 24.066-24.066v-57.983c.001-8.702-7.079-15.782-15.782-15.782zm-49.643-64.808c-1.318.479-2.599 1.063-3.818 1.769-3.584 2.076-4.808 6.665-2.731 10.249 2.076 3.585 6.663 4.809 10.249 2.731 1.364-.79 2.93-1.208 4.526-1.208 4.999 0 9.066 4.067 9.066 9.066 0 1.014-.183 2.038-.542 3.044-1.251 3.5.25 7.389 3.528 9.14 8.377 4.475 13.581 13.145 13.581 22.625 0 2.543-.361 5.016-1.077 7.392h-50.19v-83.278c8.593 2.634 15.274 9.672 17.408 18.47zm-365.307-300.159v-17.134c0-.275.225-.5.5-.5h83.4c.275 0 .5.225.5.5v17.134c0 .275-.225.5-.5.5h-83.4c-.276 0-.5-.224-.5-.5zm16.566 15.5h51.267v35.662l-51.267 51.267zm-28.364 162.152c-.307.305-.804.307-1.108 0l-11.714-11.713c-.306-.306-.306-.804 0-1.108l198.798-198.802c.153-.152.354-.229.555-.229s.401.077.554.229l198.8 198.8c.306.306.306.804 0 1.108l-11.713 11.714c-.305.305-.805.305-1.109 0h.001l-175.372-175.37c-2.981-2.98-6.945-4.623-11.161-4.623s-8.18 1.643-11.161 4.623zm145.23 163.187c-2.557-3.635-5.674-6.775-9.183-9.354v-33.615c0-4.143-3.357-7.5-7.5-7.5s-7.5 3.357-7.5 7.5v26.718c-3.272-.753-6.665-1.108-10.113-1.024-11.559-20.298-33.358-33.147-56.937-33.147-8.916 0-17.609 1.813-25.634 5.229v-125.145l157.614-157.612c.305-.307.803-.307 1.107 0l157.613 157.612v194.466h-92.684v-116.75c0-8.703-7.08-15.783-15.783-15.783h-99.4c-8.703 0-15.783 7.08-15.783 15.783v19.654c0 4.143 3.357 7.5 7.5 7.5s7.5-3.357 7.5-7.5v-19.654c0-.432.352-.783.783-.783h99.4c.432 0 .783.352.783.783v116.75h-57.531c-7.015-12.491-19.374-21.58-34.252-24.128z"/><path d="m256 263.496c40.675 0 73.767-33.092 73.767-73.767s-33.092-73.766-73.767-73.766-73.767 33.092-73.767 73.767 33.092 73.766 73.767 73.766zm-53.592-49.7h29.525v29.525c-13.082-5.898-23.626-16.443-29.525-29.525zm44.526-40.633v-41.499c2.956-.46 5.983-.701 9.066-.701s6.11.242 9.066.701v41.499c0 4.143 3.357 7.5 7.5 7.5h41.499c.46 2.956.701 5.983.701 9.066s-.242 6.11-.701 9.066h-41.499c-4.143 0-7.5 3.357-7.5 7.5v41.499c-2.956.46-5.983.701-9.066.701s-6.11-.242-9.066-.701v-41.499c0-4.143-3.357-7.5-7.5-7.5h-41.499c-.46-2.956-.701-5.983-.701-9.066s.242-6.11.701-9.066h41.499c4.142 0 7.5-3.357 7.5-7.5zm33.132 70.158v-29.525h29.525c-5.898 13.082-16.442 23.627-29.525 29.525zm29.526-77.658h-29.525v-29.525c13.082 5.898 23.626 16.442 29.525 29.525zm-77.658-29.525v29.525h-29.525c5.898-13.083 16.442-23.627 29.525-29.525z"/><path d="m362.9 471.362c0-9.566 7.783-17.35 17.35-17.35s17.35 7.783 17.35 17.35c0 4.143 3.357 7.5 7.5 7.5s7.5-3.357 7.5-7.5c0-4.999 4.067-9.066 9.067-9.066 4.999 0 9.066 4.067 9.066 9.066 0 4.143 3.357 7.5 7.5 7.5h24.85c4.143 0 7.5-3.357 7.5-7.5s-3.357-7.5-7.5-7.5h-18.546c-3.159-9.609-12.218-16.566-22.87-16.566-5.703 0-10.946 1.998-15.074 5.325-5.871-8.228-15.487-13.608-26.343-13.608-17.838 0-32.35 14.512-32.35 32.35 0 4.143 3.357 7.5 7.5 7.5 4.143-.001 7.5-3.358 7.5-7.501z"/><path d="m40.634 296.63c13.271 0 24.066-10.797 24.066-24.067s-10.796-24.066-24.066-24.066-24.067 10.796-24.067 24.066 10.796 24.067 24.067 24.067zm0-33.134c4.999 0 9.066 4.067 9.066 9.066 0 5-4.067 9.067-9.066 9.067-5 0-9.067-4.067-9.067-9.067-.001-4.999 4.067-9.066 9.067-9.066z"/><path d="m471.366 248.496c-13.271 0-24.066 10.796-24.066 24.066s10.796 24.067 24.066 24.067 24.067-10.797 24.067-24.067-10.796-24.066-24.067-24.066zm0 33.134c-4.999 0-9.066-4.067-9.066-9.067 0-4.999 4.067-9.066 9.066-9.066 5 0 9.067 4.067 9.067 9.066.001 4.999-4.067 9.067-9.067 9.067z"/><path d="m471.366 164.096c13.27 0 24.067-10.796 24.067-24.066s-10.797-24.066-24.067-24.066c-13.271 0-24.066 10.796-24.066 24.066s10.796 24.066 24.066 24.066zm0-33.133c5 0 9.067 4.067 9.067 9.066s-4.067 9.066-9.067 9.066c-4.999 0-9.066-4.067-9.066-9.066s4.067-9.066 9.066-9.066z"/><path d="m40.634 164.096c13.271 0 24.066-10.796 24.066-24.066s-10.796-24.066-24.066-24.066-24.067 10.796-24.067 24.066 10.796 24.066 24.067 24.066zm0-33.133c4.999 0 9.066 4.067 9.066 9.066s-4.067 9.066-9.066 9.066c-5 0-9.067-4.067-9.067-9.066-.001-4.999 4.067-9.066 9.067-9.066z"/><path d="m471.366 64.696c13.27 0 24.067-10.796 24.067-24.066s-10.797-24.067-24.067-24.067c-13.271 0-24.066 10.797-24.066 24.067s10.796 24.066 24.066 24.066zm0-33.134c5 0 9.067 4.067 9.067 9.067 0 4.999-4.067 9.066-9.067 9.066-4.999 0-9.066-4.067-9.066-9.066s4.067-9.067 9.066-9.067z"/><path d="m371.967 64.696c13.271 0 24.066-10.796 24.066-24.066s-10.796-24.067-24.066-24.067-24.067 10.796-24.067 24.067 10.796 24.066 24.067 24.066zm0-33.134c4.999 0 9.066 4.067 9.066 9.067 0 4.999-4.067 9.066-9.066 9.066s-9.066-4.067-9.066-9.066c-.001-4.999 4.067-9.067 9.066-9.067z"/><path d="m280.85 347.896h-8.283c-4.143 0-7.5 3.357-7.5 7.5s3.357 7.5 7.5 7.5h8.283c4.143 0 7.5-3.357 7.5-7.5 0-4.142-3.358-7.5-7.5-7.5z"/></g></g></svg>