<svg id="Capa_1" enable-background="new 0 0 512 512" height="512" viewBox="0 0 512 512" width="512" xmlns="http://www.w3.org/2000/svg"><g><g><g><path d="m438.358 140.377h-.023c-1.221 0-2.271-.821-2.613-1.993-8.026-27.564-33.476-47.707-63.631-47.707-11.275 0-21.887 2.825-31.179 7.795-3.642 1.948-8.163.93-10.478-2.49-8.934-13.196-24.04-21.872-41.176-21.872-4.008 0-7.903.477-11.635 1.374-4.043.972-8.218-1.2-9.524-5.148-12.002-36.299-46.202-62.492-86.524-62.492-50.322 0-91.117 40.794-91.117 91.117 0 1.143.029 2.278.077 3.409.047 1.119-.32 2.217-1.009 3.1l-.071.091c-.863 1.106-2.17 1.759-3.571 1.835-44.09 2.402-79.009 39.259-78.247 84.123.771 45.353 38.501 81.393 83.861 81.393h345.872c36.419 0 66.776-28.971 67.249-65.387.48-37.003-29.37-67.148-66.261-67.148z" fill="#ecf4ff"/><path d="m438.358 140.377h-.023c-1.221 0-2.271-.821-2.613-1.993-8.026-27.564-33.476-47.707-63.631-47.707-11.275 0-21.887 2.825-31.179 7.795-3.642 1.948-8.163.93-10.478-2.49-8.934-13.196-24.04-21.872-41.176-21.872-4.008 0-7.903.477-11.635 1.374-4.043.972-8.218-1.2-9.524-5.148-12.002-36.299-46.202-62.492-86.524-62.492-50.322 0-91.117 40.794-91.117 91.117 0 1.143.029 2.278.077 3.409.047 1.119-.32 2.217-1.009 3.1l-.071.091c-.863 1.106-2.17 1.759-3.571 1.835-44.09 2.402-79.009 39.259-78.247 84.123.771 45.353 38.501 81.393 83.861 81.393h345.872c36.419 0 66.776-28.971 67.249-65.387.48-37.003-29.37-67.148-66.261-67.148z" fill="#ecf4ff"/><path d="m438.358 140.377h-.023c-1.22 0-2.271-.821-2.613-1.993-8.026-27.564-33.476-47.707-63.631-47.707-3.921 0-7.759.349-11.492 1.004 24.976 4.374 45.142 22.728 52.123 46.703.341 1.172 1.392 1.993 2.613 1.993h.023c36.891 0 66.741 30.145 66.261 67.146-.472 36.417-30.829 65.387-67.249 65.387h23c36.419 0 66.776-28.97 67.249-65.387.48-37.001-29.37-67.146-66.261-67.146z" fill="#ddeafb"/></g></g><g><path d="m90.333 280.066h16.1c4.142 0 7.5-3.358 7.5-7.5 0-4.143-3.358-7.5-7.5-7.5h-16.1c-41.539 0-75.333-33.794-75.333-75.333 0-41.516 33.759-75.296 75.267-75.333.023.001.049 0 .073 0 41.536.003 75.327 33.796 75.327 75.333 0 4.143 3.358 7.5 7.5 7.5s7.5-3.357 7.5-7.5c0-47.275-36.506-86.18-82.807-90.017-.005-.365-.026-.738-.026-1.1 0-13.228 2.997-25.877 8.906-37.595 1.865-3.698.379-8.208-3.319-10.073-3.699-1.866-8.209-.379-10.074 3.319-6.976 13.833-10.514 28.754-10.514 44.349 0 .362.002.726.006 1.092-46.317 3.822-82.839 42.739-82.839 90.025 0 49.81 40.523 90.333 90.333 90.333z"/><path d="m441.747 132.616c-10.135-29.588-38.041-49.783-69.78-49.783-12.418 0-24.447 3.074-35.219 8.95-10.508-15.722-28.414-25.517-47.614-25.517-4.739 0-9.4.574-13.932 1.712-5.937-18.11-17.154-34.361-32.147-46.37-17.395-13.934-39.273-21.608-61.605-21.608-25.771 0-50.15 9.878-68.647 27.815-2.974 2.884-3.046 7.632-.163 10.605 2.884 2.973 7.631 3.047 10.605.162 15.683-15.207 36.354-23.582 58.205-23.582 36.938 0 68.924 23.783 79.77 58.52-17.757 9.918-29.287 28.845-29.287 49.947 0 4.143 3.358 7.5 7.5 7.5s7.5-3.357 7.5-7.5c0-17.382 10.597-32.763 26.352-39.126.25-.102 3.705-1.386 5.259-1.736 2.603-.586 6.942-1.338 10.589-1.338 16.235 0 31.217 9.493 38.167 24.185.943 1.996 2.72 3.475 4.853 4.042 2.133.565 4.409.164 6.22-1.1 9.895-6.909 21.511-10.561 33.593-10.561 26.854 0 50.263 18.142 56.927 44.116.872 3.401 3.949 5.758 7.498 5.633 0 0 1.397-.049 1.842-.049 32.404 0 58.767 26.362 58.767 58.767s-26.362 58.767-58.767 58.767-58.767-26.362-58.767-58.767c0-4.143-3.357-7.5-7.5-7.5s-7.5 3.357-7.5 7.5c0 23.962 11.491 45.283 29.244 58.767h-257.276c-4.142 0-7.5 3.357-7.5 7.5 0 4.142 3.358 7.5 7.5 7.5h301.799c40.675 0 73.767-33.092 73.767-73.767 0-39.498-31.202-71.846-70.253-73.684z"/><path d="m454.8 298.2c-17.838 0-32.35 14.512-32.35 32.35 0 9.567-7.783 17.35-17.351 17.35-9.566 0-17.35-7.783-17.35-17.35 0-17.838-14.512-32.35-32.35-32.35s-32.351 14.512-32.351 32.35c0 9.567-7.783 17.35-17.35 17.35s-17.351-7.783-17.351-17.35c0-17.838-14.512-32.35-32.349-32.35-17.838 0-32.35 14.512-32.35 32.35 0 9.567-7.783 17.35-17.35 17.35-9.566 0-17.35-7.783-17.35-17.35 0-17.838-14.512-32.35-32.35-32.35s-32.35 14.512-32.35 32.35c0 9.567-7.783 17.35-17.35 17.35s-17.35-7.783-17.35-17.35c0-17.838-14.512-32.35-32.35-32.35s-32.35 14.512-32.35 32.35c0 4.142 3.358 7.5 7.5 7.5s7.5-3.358 7.5-7.5c0-9.566 7.783-17.35 17.35-17.35 9.566 0 17.35 7.783 17.35 17.35 0 17.838 14.512 32.35 32.35 32.35s32.35-14.513 32.35-32.35c0-9.566 7.783-17.35 17.35-17.35s17.35 7.783 17.35 17.35c0 17.838 14.512 32.35 32.35 32.35s32.35-14.513 32.35-32.35c0-9.566 7.783-17.35 17.35-17.35 9.566 0 17.349 7.783 17.349 17.35 0 17.838 14.513 32.35 32.351 32.35s32.35-14.513 32.35-32.35c0-9.566 7.783-17.35 17.351-17.35 9.566 0 17.35 7.783 17.35 17.35 0 17.838 14.512 32.35 32.35 32.35s32.351-14.513 32.351-32.35c0-9.566 7.783-17.35 17.35-17.35s17.351 7.783 17.351 17.35c0 4.142 3.357 7.5 7.5 7.5s7.5-3.358 7.5-7.5c-.001-17.838-14.513-32.35-32.351-32.35z"/><path d="m454.8 372.75c-17.838 0-32.35 14.512-32.35 32.35 0 9.567-7.783 17.35-17.351 17.35-9.566 0-17.35-7.783-17.35-17.35 0-17.838-14.512-32.35-32.35-32.35s-32.351 14.512-32.351 32.35c0 9.567-7.783 17.35-17.35 17.35s-17.351-7.783-17.351-17.35c0-17.838-14.512-32.35-32.349-32.35-17.838 0-32.35 14.512-32.35 32.35 0 9.567-7.783 17.35-17.35 17.35-9.566 0-17.35-7.783-17.35-17.35 0-17.838-14.512-32.35-32.35-32.35s-32.35 14.512-32.35 32.35c0 9.567-7.783 17.35-17.35 17.35s-17.35-7.783-17.35-17.35c0-17.838-14.512-32.35-32.35-32.35s-32.35 14.512-32.35 32.35c0 4.142 3.358 7.5 7.5 7.5s7.5-3.358 7.5-7.5c0-9.566 7.783-17.35 17.35-17.35 9.566 0 17.35 7.783 17.35 17.35 0 17.838 14.512 32.35 32.35 32.35s32.35-14.513 32.35-32.35c0-9.566 7.783-17.35 17.35-17.35s17.35 7.783 17.35 17.35c0 17.838 14.512 32.35 32.35 32.35s32.35-14.513 32.35-32.35c0-9.566 7.783-17.35 17.35-17.35 9.566 0 17.349 7.783 17.349 17.35 0 17.838 14.513 32.35 32.351 32.35s32.35-14.513 32.35-32.35c0-9.566 7.783-17.35 17.351-17.35 9.566 0 17.35 7.783 17.35 17.35 0 17.838 14.512 32.35 32.35 32.35s32.351-14.513 32.351-32.35c0-9.566 7.783-17.35 17.35-17.35s17.351 7.783 17.351 17.35c0 4.142 3.357 7.5 7.5 7.5s7.5-3.358 7.5-7.5c-.001-17.838-14.513-32.35-32.351-32.35z"/><path d="m454.8 447.3c-17.838 0-32.35 14.513-32.35 32.35 0 9.566-7.783 17.35-17.351 17.35-9.566 0-17.35-7.783-17.35-17.35 0-17.838-14.512-32.35-32.35-32.35s-32.351 14.513-32.351 32.35c0 9.566-7.783 17.35-17.35 17.35s-17.351-7.783-17.351-17.35c0-17.838-14.512-32.35-32.349-32.35-17.838 0-32.35 14.513-32.35 32.35 0 9.566-7.783 17.35-17.35 17.35-9.566 0-17.35-7.783-17.35-17.35 0-17.838-14.512-32.35-32.35-32.35s-32.35 14.513-32.35 32.35c0 9.566-7.783 17.35-17.35 17.35s-17.35-7.783-17.35-17.35c0-17.838-14.512-32.35-32.35-32.35s-32.35 14.513-32.35 32.35c0 4.143 3.358 7.5 7.5 7.5s7.5-3.357 7.5-7.5c0-9.567 7.783-17.35 17.35-17.35 9.566 0 17.35 7.783 17.35 17.35 0 17.838 14.512 32.35 32.35 32.35s32.35-14.512 32.35-32.35c0-9.567 7.783-17.35 17.35-17.35s17.35 7.783 17.35 17.35c0 17.838 14.512 32.35 32.35 32.35s32.35-14.512 32.35-32.35c0-9.567 7.783-17.35 17.35-17.35 9.566 0 17.349 7.783 17.349 17.35 0 17.838 14.513 32.35 32.351 32.35s32.35-14.512 32.35-32.35c0-9.567 7.783-17.35 17.351-17.35 9.566 0 17.35 7.783 17.35 17.35 0 17.838 14.512 32.35 32.35 32.35s32.351-14.512 32.351-32.35c0-9.567 7.783-17.35 17.35-17.35s17.351 7.783 17.351 17.35c0 4.143 3.357 7.5 7.5 7.5s7.5-3.357 7.5-7.5c-.001-17.838-14.513-32.35-32.351-32.35z"/></g></g></svg>