<svg id="Capa_1" enable-background="new 0 0 512 512" height="512" viewBox="0 0 512 512" width="512" xmlns="http://www.w3.org/2000/svg"><g><g><path d="m385.222 421.667 75.209-27.219c8.897-3.22 13.295-13.224 9.652-21.956l-62.406-149.602c-6.817-19.313-25.222-33.156-46.869-33.156h-209.617c-21.647 0-40.051 13.843-46.869 33.156l-62.406 149.602c-3.643 8.732.755 18.736 9.652 21.956l75.209 27.219z" fill="#ebb560"/><path d="m470.084 372.492-62.407-149.602c-6.817-19.313-25.222-33.156-46.868-33.156h-23c21.647 0 40.051 13.843 46.868 33.156l62.407 149.603c3.643 8.732-.755 18.736-9.652 21.956l-75.209 27.218h23l75.209-27.218c8.896-3.221 13.294-13.225 9.652-21.957z" fill="#e69a5e"/><path d="m354.327 84.461-15.07-36.177c-10.288-24.696-34.418-40.784-61.171-40.784h-44.172c-26.753 0-50.882 16.087-61.171 40.783l-15.072 36.178 5.329 8.539h186.333z" fill="#ebb560"/><path d="m339.257 48.284c-10.288-24.697-34.418-40.784-61.171-40.784h-23c26.754 0 50.883 16.087 61.171 40.784l15.07 36.176-4.993 8.54h23l4.993-8.54z" fill="#e69a5e"/><path d="m392.978 495.35-32.17-305.616-9.239-6.965c-8.02-6.047-12.736-15.508-12.736-25.552v-29.844l-.009.006c10.179-9.108 16.586-22.345 16.576-37.081-.007-9.133-7.434-16.531-16.567-16.531h-165.666c-9.133 0-16.56 7.397-16.567 16.531-.011 14.737 6.397 27.973 16.576 37.081l-.009-.006v29.843c0 10.044-4.716 19.506-12.737 25.553l-9.239 6.965-32.17 305.616c-.515 4.891 3.32 9.15 8.238 9.15h257.482c4.918 0 8.752-4.26 8.237-9.15z" fill="#ffe07d"/><g fill="#ebb560"><ellipse cx="305.7" cy="272.567" rx="16.567" ry="16.567" transform="matrix(.13 -.992 .992 .13 -4.253 540.287)"/><ellipse cx="305.7" cy="338.833" rx="16.567" ry="16.567" transform="matrix(.967 -.256 .256 .967 -76.645 89.69)"/></g><path d="m206.3 73.767c-9.415 0-16.996 7.854-16.548 17.368.42 8.91 8.095 15.766 17.016 15.766 8.891 0 16.099 7.208 16.099 16.099v16.345c0 18.054 14.155 33.315 32.202 33.81 18.724.513 34.064-14.512 34.064-33.121v-17.034c0-8.891 7.208-16.099 16.099-16.099 8.92 0 16.596-6.855 17.016-15.766.448-9.514-7.133-17.368-16.548-17.368z" fill="#5c545f"/><path d="m305.7 73.767h-23c9.415 0 16.996 7.854 16.548 17.368-.42 8.91-8.095 15.766-17.016 15.766-8.891 0-16.099 7.208-16.099 16.099v17.034c0 14.232-8.978 26.359-21.575 31.051 3.283 1.238 6.813 1.969 10.511 2.07 18.724.513 34.065-14.512 34.065-33.121v-17.034c0-8.891 7.208-16.099 16.099-16.099 8.92 0 16.596-6.855 17.016-15.766.447-9.514-7.134-17.368-16.549-17.368z" fill="#4b3f4e"/></g><g><path d="m346.375 439.023c.405 3.853 3.66 6.716 7.45 6.716.262 0 .527-.014.794-.042 4.119-.434 7.107-4.125 6.674-8.244l-5.232-49.705c-.434-4.118-4.121-7.111-8.244-6.674-4.119.434-7.107 4.125-6.674 8.244z"/><path d="m164.183 381.074c-4.113-.43-7.81 2.554-8.244 6.674l-5.232 49.7c-.434 4.119 2.554 7.811 6.674 8.244.267.028.532.042.794.042 3.789 0 7.044-2.863 7.45-6.716l5.232-49.7c.434-4.119-2.554-7.81-6.674-8.244z"/><path d="m305.7 248.5c-13.271 0-24.066 10.796-24.066 24.066s10.796 24.067 24.066 24.067 24.066-10.797 24.066-24.067-10.795-24.066-24.066-24.066zm0 33.134c-4.999 0-9.066-4.067-9.066-9.067 0-4.999 4.067-9.066 9.066-9.066s9.066 4.067 9.066 9.066c.001 4.999-4.067 9.067-9.066 9.067z"/><path d="m305.7 314.767c-13.271 0-24.066 10.796-24.066 24.066s10.796 24.067 24.066 24.067 24.066-10.797 24.066-24.067c.001-13.271-10.795-24.066-24.066-24.066zm0 33.133c-4.999 0-9.066-4.067-9.066-9.067 0-4.999 4.067-9.066 9.066-9.066s9.066 4.067 9.066 9.066c.001 5-4.067 9.067-9.066 9.067z"/><path d="m189.734 165.667c-4.142 0-7.5 3.357-7.5 7.5v49.699c0 4.143 3.358 7.5 7.5 7.5s7.5-3.357 7.5-7.5v-49.699c0-4.143-3.358-7.5-7.5-7.5z"/><path d="m314.77 222.866c0 4.143 3.358 7.5 7.5 7.5 4.143 0 7.5-3.357 7.5-7.5v-49.699c0-4.143-3.357-7.5-7.5-7.5-4.142 0-7.5 3.357-7.5 7.5z"/><path d="m477.006 369.604-7.108-17.039c-.016-.04-.033-.08-.05-.12l-55.171-132.258c-7.822-21.893-28.196-36.842-51.272-37.891l-7.32-5.518c-6.106-4.605-9.752-11.918-9.752-19.564v-26.644c10.369-10.496 16.567-24.853 16.567-40.237 0-3.028-.568-5.925-1.593-8.597-.021-.053-.314-.785-.392-.962l-14.735-35.374c-11.488-27.58-38.218-45.4-68.095-45.4h-44.171c-29.876 0-56.604 17.819-68.094 45.398l-14.764 35.439c-.052.121-.36.888-.388.962-1.01 2.654-1.568 5.529-1.568 8.534 0 15.384 6.198 29.741 16.566 40.236v26.646c0 7.646-3.645 14.96-9.751 19.563l-7.321 5.519c-23.077 1.049-43.45 15.997-51.272 37.89l-4.046 9.699c-1.595 3.823.211 8.215 4.034 9.81.944.394 1.922.58 2.885.58 2.936 0 5.724-1.735 6.925-4.614l4.124-9.886c.054-.129.104-.26.15-.392 4.99-14.136 17.063-24.374 31.375-27.298l-18.143 172.356-65.464-19.816 35.443-84.965c1.595-3.823-.212-8.215-4.035-9.81-3.82-1.594-8.214.21-9.809 4.034l-38.615 92.569c-.014.033-.028.066-.041.099l-7.112 17.05c-2.559 6.136-2.496 12.866.18 18.951 2.675 6.086 7.591 10.683 13.842 12.945l69.688 25.22-7.141 67.843c-.467 4.442.979 8.893 3.967 12.213 2.988 3.319 7.264 5.223 11.73 5.223h42.065c4.142 0 7.5-3.357 7.5-7.5s-3.358-7.5-7.5-7.5h-42.065c-.231 0-.427-.087-.582-.259-.155-.173-.221-.376-.197-.606l1.818-17.269h119.272v18.136h-48.245c-4.142 0-7.5 3.357-7.5 7.5s3.358 7.5 7.5 7.5h185.418c4.467 0 8.742-1.903 11.73-5.223 2.988-3.319 4.434-7.771 3.967-12.213l-7.141-67.843 69.688-25.221c6.25-2.263 11.166-6.859 13.841-12.944 2.673-6.085 2.738-12.816.178-18.952zm-76.4-144.218c.047.132.097.263.15.392l52.081 124.85-65.464 19.816-18.143-172.356c14.313 2.923 26.385 13.162 31.376 27.298zm-80.836-95.253c-3.905 1.381-5.952 5.666-4.571 9.571 1.089 3.078 3.981 5.002 7.071 5.002.829 0 1.673-.139 2.5-.431 2.265-.801 4.453-1.742 6.564-2.8v15.741c0 12.328 5.878 24.119 15.723 31.542l6.637 5.002 19.699 187.149c.002.02.004.041.006.061l8.726 82.897h-119.556v-283.733c8.162-1.317 15.707-5.081 21.766-10.977 7.932-7.717 12.3-18.059 12.3-29.124v-17.034c0-4.741 3.857-8.599 8.599-8.599 13.137 0 23.901-10.064 24.508-22.914.168-3.565-.438-7.03-1.736-10.22h10.829c3.712 0 6.907 2.244 8.308 5.445l.092.222c.427 1.051.667 2.197.667 3.399-.001 17.858-11.306 33.853-28.132 39.801zm-113.002-30.733c-5.028 0-9.3-3.866-9.524-8.619-.119-2.514.767-4.895 2.494-6.705 1.729-1.812 4.059-2.81 6.562-2.81h99.4c2.503 0 4.833.998 6.561 2.81 1.727 1.809 2.612 4.191 2.495 6.704-.225 4.753-4.497 8.62-9.524 8.62-13.013 0-23.599 10.586-23.599 23.599v17.034c0 6.979-2.756 13.505-7.76 18.374-5.001 4.867-11.585 7.462-18.6 7.25-13.734-.377-24.908-12.181-24.908-26.313v-16.345c.002-13.013-10.584-23.599-23.597-23.599zm27.146-84.4h44.171c23.802 0 45.096 14.197 54.249 36.168l6.29 15.099h-165.248l6.291-15.101c9.153-21.97 30.446-36.166 54.247-36.166zm-179.794 372.396c-2.354-.852-4.207-2.584-5.214-4.876-1.008-2.293-1.032-4.828-.068-7.14l4.521-10.837 69.67 21.089-2.708 25.722zm75.756 76.47 8.729-82.924c.001-.006.001-.011.002-.017l19.702-187.166 6.636-5.003c9.844-7.422 15.722-19.213 15.722-31.541v-15.741c2.11 1.059 4.298 1.999 6.564 2.8.826.292 1.67.431 2.5.431 3.089 0 5.983-1.924 7.071-5.002 1.38-3.905-.666-8.19-4.572-9.571-16.825-5.948-28.129-21.942-28.129-39.8 0-1.213.244-2.37.678-3.429l.071-.17c1.396-3.213 4.597-5.467 8.317-5.467h10.829c-1.298 3.19-1.903 6.654-1.735 10.22.605 12.849 11.37 22.914 24.507 22.914 4.741 0 8.599 3.857 8.599 8.599v16.345c0 19.641 13.898 36.409 32.202 40.408v284.114zm255.447 32.874c-.154.173-.351.26-.582.26h-122.172v-18.134h121.135l1.818 17.269c.023.229-.043.433-.199.605zm77.772-114.22c-1.008 2.292-2.859 4.024-5.215 4.876l-66.201 23.958-2.708-25.722 69.67-21.089 4.521 10.837c.964 2.311.941 4.847-.067 7.14z"/></g></g></svg>