<svg id="Capa_1" enable-background="new 0 0 512 512" height="512" viewBox="0 0 512 512" width="512" xmlns="http://www.w3.org/2000/svg"><g><g><path d="m322.266 40.634c0-18.299-14.834-33.133-33.133-33.133h-231.933c-18.299 0-33.133 14.834-33.133 33.133v430.733c0 18.299 14.834 33.133 33.133 33.133h231.933c18.299 0 33.133-14.834 33.133-33.133z" fill="#c8c5c9"/><path d="m222.867 318.26v-227.108c0-27.254-21.6-50.056-48.85-50.511-27.838-.465-50.55 21.962-50.55 49.693v227.925c0 2.484-1.127 4.822-3.041 6.405-18.603 15.378-30.377 38.724-30.087 64.812.493 44.355 36.486 80.824 80.831 81.868 46.66 1.098 84.83-36.399 84.83-82.81 0-25.71-11.716-48.681-30.097-63.875-1.913-1.58-3.036-3.918-3.036-6.399z" fill="#ecf4ff"/><circle cx="272.566" cy="272.567" fill="#ecf4ff" r="16.567"/><path d="m322.266 40.634c0-18.299-14.834-33.133-33.134-33.133h-23c18.299 0 33.133 14.834 33.133 33.133v430.733c0 18.299-14.834 33.133-33.133 33.133h23c18.299 0 33.133-14.834 33.133-33.133z" fill="#b6b1b7"/><g><circle cx="388.533" cy="156.6" fill="#bed8fb" r="99.4"/><path d="m388.533 57.2c-3.89 0-7.726.231-11.5.666 49.479 5.701 87.9 47.727 87.9 98.734s-38.421 93.033-87.9 98.734c3.774.435 7.61.666 11.5.666 54.897 0 99.4-44.503 99.4-99.4s-44.503-99.4-99.4-99.4z" fill="#a4ccff"/></g><path d="m225.903 324.659c-1.913-1.581-3.036-3.918-3.036-6.4v-227.107c0-27.254-21.6-50.056-48.85-50.511-4.288-.071-8.452.404-12.432 1.354 22.043 5.3 38.249 25.552 38.249 49.157v227.108c0 2.481 1.124 4.819 3.036 6.4 18.381 15.193 30.097 38.165 30.097 63.875 0 41.821-30.997 76.389-71.267 82.017 3.108.435 6.264.717 9.47.793 46.66 1.097 84.83-36.4 84.83-82.811 0-25.71-11.716-48.681-30.097-63.875z" fill="#ddeafb"/><g><path d="m189.733 336.153v-38.736c0-4.575-3.708-8.283-8.283-8.283h-16.567c-4.575 0-8.283 3.709-8.283 8.283v38.687c0 3.178-1.781 6.128-4.653 7.486-17.626 8.335-29.567 26.723-28.402 47.769 1.405 25.389 22.216 45.84 47.624 46.835 28.358 1.111 51.698-21.549 51.698-49.661 0-19.804-11.587-36.894-28.348-44.881-2.906-1.384-4.786-4.281-4.786-7.499z" fill="#bed8fb"/><path d="m194.518 343.653c-2.906-1.384-4.785-4.281-4.785-7.5v-38.735c0-4.575-3.709-8.283-8.283-8.283h-16.567c-1.141 0-2.228.231-3.217.648 2.977 1.256 5.067 4.201 5.067 7.635v38.735c0 3.219 1.879 6.116 4.785 7.5 16.761 7.987 28.348 25.077 28.348 44.881 0 23.487-16.296 43.156-38.194 48.349 3.07.734 6.245 1.185 9.497 1.312 28.358 1.111 51.698-21.549 51.698-49.661 0-19.804-11.587-36.894-28.349-44.881z" fill="#a4ccff"/></g></g><g><path d="m170.993 478.842c.734.017 1.465.026 2.197.026 23.737-.001 46.069-9.081 63.091-25.707 17.552-17.144 27.218-40.095 27.218-64.626 0-27.028-11.962-52.417-32.818-69.655-.2-.165-.315-.391-.315-.619v-227.109c0-31.469-25.222-57.492-56.225-58.01-15.454-.246-30.059 5.569-41.081 16.407-11.023 10.841-17.094 25.325-17.094 40.785v51.267c0 4.142 3.358 7.5 7.5 7.5s7.5-3.358 7.5-7.5v-51.267c0-11.405 4.479-22.092 12.612-30.09 8.131-7.996 18.925-12.286 30.312-12.104 22.87.382 41.476 19.677 41.476 43.012v227.108c0 4.716 2.099 9.156 5.758 12.181 17.397 14.379 27.375 35.554 27.375 58.094 0 20.458-8.062 39.599-22.699 53.896-14.632 14.292-33.961 21.912-54.455 21.415-40.086-.943-73.062-34.343-73.508-74.453-.254-22.875 9.72-44.361 27.366-58.948 3.663-3.027 5.763-7.469 5.763-12.186v-146.758c0-4.142-3.358-7.5-7.5-7.5s-7.5 3.358-7.5 7.5v146.758c0 .229-.117.456-.32.625-21.155 17.488-33.113 43.249-32.808 70.676.26 23.407 9.542 45.554 26.133 62.361 16.596 16.809 38.622 26.37 62.022 26.921z"/><path d="m181.45 281.634h-16.567c-8.703 0-15.783 7.08-15.783 15.783v38.687c0 .311-.151.608-.359.706-21.15 10.001-33.979 31.576-32.684 54.964 1.61 29.091 25.69 52.774 54.819 53.915.776.031 1.548.045 2.32.045 14.863 0 28.855-5.621 39.614-15.966 11.322-10.887 17.557-25.531 17.557-41.234 0-21.935-12.805-42.21-32.622-51.652-.315-.15-.512-.43-.512-.729v-38.736c0-8.703-7.08-15.783-15.783-15.783zm33.916 106.9c0 11.585-4.601 22.39-12.954 30.422-8.349 8.028-19.331 12.203-30.95 11.744-21.483-.842-39.242-18.305-40.429-39.756-.956-17.267 8.511-33.194 24.119-40.574 5.436-2.57 8.947-8.17 8.947-14.267v-38.687c0-.432.352-.783.783-.783h16.567c.432 0 .783.352.783.783v38.736c0 6.046 3.556 11.648 9.059 14.271 14.626 6.969 24.075 21.928 24.075 38.111z"/><path d="m57.199 97.834h33.133c4.142 0 7.5-3.358 7.5-7.5s-3.358-7.5-7.5-7.5h-33.133c-4.142 0-7.5 3.358-7.5 7.5s3.358 7.5 7.5 7.5z"/><path d="m57.199 197.234h33.133c4.142 0 7.5-3.358 7.5-7.5s-3.358-7.5-7.5-7.5h-33.133c-4.142 0-7.5 3.358-7.5 7.5s3.358 7.5 7.5 7.5z"/><path d="m57.199 130.967h16.566c4.142 0 7.5-3.358 7.5-7.5s-3.358-7.5-7.5-7.5h-16.566c-4.142 0-7.5 3.358-7.5 7.5s3.358 7.5 7.5 7.5z"/><path d="m57.199 164.101h16.566c4.142 0 7.5-3.358 7.5-7.5s-3.358-7.5-7.5-7.5h-16.566c-4.142 0-7.5 3.358-7.5 7.5s3.358 7.5 7.5 7.5z"/><path d="m57.199 296.634h33.133c4.142 0 7.5-3.358 7.5-7.5s-3.358-7.5-7.5-7.5h-33.133c-4.142 0-7.5 3.358-7.5 7.5s3.358 7.5 7.5 7.5z"/><path d="m57.199 230.367h16.566c4.142 0 7.5-3.358 7.5-7.5s-3.358-7.5-7.5-7.5h-16.566c-4.142 0-7.5 3.358-7.5 7.5s3.358 7.5 7.5 7.5z"/><path d="m57.199 263.5h16.566c4.142 0 7.5-3.358 7.5-7.5s-3.358-7.5-7.5-7.5h-16.566c-4.142 0-7.5 3.358-7.5 7.5s3.358 7.5 7.5 7.5z"/><path d="m388.533 49.7c-21.693 0-41.893 6.501-58.767 17.649v-26.715c0-22.406-18.228-40.634-40.633-40.634h-231.933c-22.405 0-40.633 18.228-40.633 40.634v430.733c0 22.405 18.228 40.633 40.633 40.633h18.133c4.142 0 7.5-3.358 7.5-7.5s-3.358-7.5-7.5-7.5h-18.133c-14.134 0-25.633-11.499-25.633-25.633v-430.733c0-14.135 11.499-25.634 25.633-25.634h231.933c14.135 0 25.634 11.499 25.634 25.634v38.667c-20.403 19.479-33.133 46.931-33.133 77.3s12.73 57.82 33.133 77.3v237.466c0 14.134-11.499 25.633-25.633 25.633h-183.801c-4.142 0-7.5 3.358-7.5 7.5s3.358 7.5 7.5 7.5h183.801c22.405 0 40.633-18.228 40.633-40.633v-225.515c16.874 11.148 37.074 17.649 58.767 17.649 58.945 0 106.9-47.955 106.9-106.9-.001-58.946-47.956-106.901-106.901-106.901zm0 198.801c-50.674 0-91.899-41.226-91.899-91.9s41.226-91.9 91.899-91.9 91.9 41.227 91.9 91.9-41.226 91.9-91.9 91.9z"/><path d="m454.8 149.101h-17.529l6.819-8.523c2.588-3.234 2.063-7.954-1.171-10.541-3.236-2.588-7.955-2.064-10.542 1.171l-14.315 17.894h-22.029v-22.028l17.895-14.316c3.234-2.587 3.759-7.307 1.171-10.541-2.588-3.235-7.308-3.76-10.542-1.171l-8.523 6.819v-17.531c0-4.142-3.357-7.5-7.5-7.5s-7.5 3.358-7.5 7.5v17.528l-8.522-6.818c-3.236-2.588-7.954-2.063-10.542 1.171-2.588 3.235-2.064 7.955 1.171 10.542l17.894 14.315v22.029h-22.029l-14.315-17.893c-2.587-3.234-7.307-3.76-10.542-1.171-3.234 2.587-3.759 7.307-1.171 10.542l6.819 8.523h-17.529c-4.143 0-7.5 3.358-7.5 7.5s3.357 7.5 7.5 7.5h17.528l-6.818 8.522c-2.588 3.234-2.063 7.954 1.171 10.542 1.383 1.106 3.038 1.644 4.681 1.644 2.2 0 4.38-.964 5.861-2.815l14.314-17.893h22.03v22.029l-17.894 14.315c-3.234 2.587-3.759 7.307-1.171 10.542s7.307 3.76 10.542 1.171l8.522-6.818v17.528c0 4.142 3.357 7.5 7.5 7.5s7.5-3.358 7.5-7.5v-17.528l8.522 6.818c1.383 1.107 3.037 1.644 4.681 1.644 2.2 0 4.38-.964 5.861-2.815 2.588-3.234 2.063-7.954-1.171-10.542l-17.894-14.315v-22.029h22.029l14.315 17.894c1.481 1.852 3.661 2.815 5.861 2.815 1.643-.001 3.298-.538 4.681-1.644 3.234-2.587 3.759-7.307 1.171-10.542l-6.819-8.523h17.529c4.143 0 7.5-3.358 7.5-7.5s-3.358-7.501-7.5-7.501z"/><path d="m296.634 272.567c0-13.271-10.797-24.067-24.067-24.067s-24.067 10.797-24.067 24.067 10.796 24.066 24.066 24.066 24.068-10.796 24.068-24.066zm-33.134 0c0-5 4.067-9.067 9.066-9.067 5 0 9.067 4.067 9.067 9.067 0 4.999-4.067 9.066-9.067 9.066-4.999.001-9.066-4.067-9.066-9.066z"/></g></g></svg>