<svg id="Capa_1" enable-background="new 0 0 512 512" height="512" viewBox="0 0 512 512" width="512" xmlns="http://www.w3.org/2000/svg"><g><g><g><g><path d="m272.57 140.034c0-9.15-7.417-16.567-16.567-16.567-9.149 0-16.567 7.417-16.567 16.567v356.182c0 4.575 3.709 8.283 8.283 8.283h16.567c4.575 0 8.283-3.709 8.283-8.283v-356.182z" fill="#ecf4ff"/><path d="m256.004 123.467c-4.47 0-8.52 1.779-11.5 4.657 3.119 3.012 5.067 7.23 5.067 11.909v356.182c0 3.434-2.09 6.379-5.067 7.635.989.417 2.076.648 3.217.648h16.567c4.575 0 8.283-3.709 8.283-8.283v-356.181c-.001-9.15-7.417-16.567-16.567-16.567z" fill="#ddeafb"/><g><path d="m338.863 405.101c1.336 0 2.572-.668 3.339-1.761 16.701-23.785 44.982-39.656 79.514-39.656 34.814 0 61.269 16.132 77.852 40.24.504.733 1.33 1.178 2.22 1.177 1.498 0 2.721-1.224 2.705-2.722-1.459-135.989-112.151-245.779-248.486-245.779h-.007c-136.335 0-247.026 109.79-248.486 245.779-.016 1.498 1.206 2.722 2.705 2.722.89 0 1.716-.444 2.22-1.177 16.582-24.109 43.038-40.24 77.851-40.24 34.532 0 62.813 15.871 79.514 39.656.768 1.093 2.003 1.761 3.339 1.761l82.86-110.134z" fill="#ff8086"/><path d="m173.174 405.099c1.325-.009 2.55-.674 3.312-1.76 16.701-23.785 44.982-39.656 79.514-39.656h.006c34.532 0 62.813 15.871 79.514 39.656.764 1.088 1.992 1.753 3.32 1.76 0-137.242-37.086-248.499-82.833-248.499s-82.833 111.257-82.833 248.499z" fill="#ffe07d"/><path d="m256.007 156.6h-.007c-3.854 0-7.685.1-11.496.273 124.687 5.679 225.422 103.234 236.072 226.563 7.314 5.828 13.665 12.743 18.991 20.487.504.733 1.33 1.178 2.221 1.178 1.498-.001 2.721-1.224 2.705-2.722-1.459-135.989-112.151-245.779-248.486-245.779z" fill="#e5646e"/><path d="m256.007 156.6c-3.903 0-7.741.829-11.5 2.395 37.885 15.789 67.57 108.434 70.996 223.762 7.793 5.822 14.533 12.771 20.017 20.581.764 1.088 1.992 1.753 3.32 1.76 0-137.241-37.085-248.498-82.833-248.498z" fill="#ffd064"/></g></g></g></g><g><path d="m436.101 223.165c-42.499-42.072-97.193-67.481-156.031-72.941v-10.19c0-13.27-10.796-24.066-24.067-24.066s-24.066 10.796-24.066 24.066v10.183c-47.126 4.352-91.585 21.49-129.768 50.236-3.309 2.491-3.972 7.193-1.481 10.503 2.491 3.308 7.192 3.972 10.502 1.481 32.945-24.802 70.854-40.428 111.118-46.017-12.116 13.173-23.003 33.626-31.992 60.594-14.449 43.348-22.995 99.564-24.428 159.889-19.143-19.683-45.923-30.718-75.6-30.718-29.685 0-55.71 11.173-74.695 31.771 4.13-59.23 29.596-114.116 72.607-155.845 2.973-2.884 3.045-7.632.161-10.605s-7.633-3.045-10.605-.161c-49.396 47.922-77.007 112.186-77.745 180.954-.029 2.739 1.017 5.321 2.945 7.271 1.933 1.954 4.51 3.031 7.254 3.032h.006c3.352 0 6.492-1.655 8.399-4.427 16.406-23.854 41.86-36.991 71.672-36.991 30.358 0 57.103 13.291 73.375 36.465 2.175 3.098 5.716 4.949 9.474 4.952h.004c3.758 0 7.301-1.851 9.48-4.952 11.801-16.807 29.112-28.41 49.316-33.52v45.584c0 4.142 3.358 7.5 7.5 7.5s7.5-3.358 7.5-7.5v-48.121c2.981-.267 6.004-.409 9.066-.409s6.086.142 9.067.409v92.274h-18.133v-14.154c0-4.142-3.358-7.5-7.5-7.5s-7.5 3.358-7.5 7.5v46.504c0 8.703 7.08 15.783 15.783 15.783h16.567c8.703 0 15.783-7.081 15.783-15.783v-122.085c20.199 5.111 37.508 16.713 49.308 33.518 2.177 3.102 5.72 4.953 9.482 4.953h.004c3.756-.003 7.296-1.854 9.471-4.952 16.273-23.175 43.018-36.466 73.376-36.466 29.811 0 55.265 13.137 71.672 36.99 1.907 2.773 5.046 4.427 8.397 4.427h.005c2.747-.001 5.324-1.078 7.256-3.032 1.929-1.95 2.975-4.532 2.945-7.271-.724-67.791-27.674-131.408-75.884-179.133zm-171.814 273.835h-16.567c-.432 0-.783-.352-.783-.783v-17.35h18.133v17.35c.001.431-.351.783-.783.783zm-17.35-356.966c0-4.999 4.067-9.066 9.066-9.066s9.067 4.067 9.067 9.066v9.243c-3.013-.105-6.033-.176-9.063-.176-.001 0-.003 0-.004 0s-.001 0-.002 0c-.002 0-.003 0-.005 0-3.029 0-6.048.062-9.059.166zm9.06 216.15c-29.414 0-55.987 10.836-75.093 30.19 1.456-58.517 9.721-112.852 23.643-154.618 14.332-42.996 33.087-67.655 51.457-67.655s37.125 24.66 51.457 67.656c13.923 41.768 22.188 96.105 23.643 154.625-19.108-19.36-45.684-30.198-75.107-30.198zm165.716 0c-29.674 0-56.451 11.032-75.593 30.71-1.434-60.322-9.98-116.535-24.429-159.881-8.972-26.917-19.835-47.346-31.924-60.521 111.022 15.767 198.56 108.037 206.63 221.452-18.985-20.59-45.007-31.76-74.684-31.76z"/><path d="m40.637 81.267c4.142 0 7.5-3.358 7.5-7.5v-66.267c0-4.142-3.358-7.5-7.5-7.5s-7.5 3.358-7.5 7.5v66.267c0 4.142 3.358 7.5 7.5 7.5z"/><path d="m148.321 81.267c4.142 0 7.5-3.358 7.5-7.5v-66.267c0-4.142-3.358-7.5-7.5-7.5s-7.5 3.358-7.5 7.5v66.267c0 4.142 3.357 7.5 7.5 7.5z"/><path d="m94.479 180.667c4.142 0 7.5-3.358 7.5-7.5v-66.267c0-4.142-3.358-7.5-7.5-7.5s-7.5 3.358-7.5 7.5v66.267c0 4.142 3.358 7.5 7.5 7.5z"/><path d="m417.529 180.667c4.142 0 7.5-3.358 7.5-7.5v-66.267c0-4.142-3.358-7.5-7.5-7.5s-7.5 3.358-7.5 7.5v66.267c0 4.142 3.357 7.5 7.5 7.5z"/><path d="m256.004 81.267c4.142 0 7.5-3.358 7.5-7.5v-66.267c0-4.142-3.358-7.5-7.5-7.5s-7.5 3.358-7.5 7.5v66.267c0 4.142 3.358 7.5 7.5 7.5z"/><path d="m363.687 81.267c4.142 0 7.5-3.358 7.5-7.5v-66.267c0-4.142-3.358-7.5-7.5-7.5s-7.5 3.358-7.5 7.5v66.267c0 4.142 3.358 7.5 7.5 7.5z"/><path d="m471.37 81.267c4.142 0 7.5-3.358 7.5-7.5v-66.267c0-4.142-3.358-7.5-7.5-7.5s-7.5 3.358-7.5 7.5v66.267c0 4.142 3.358 7.5 7.5 7.5z"/></g></g></svg>